<?xml version="1.0" encoding="UTF-8"?>
<!DOCTYPE svg PUBLIC "-//W3C//DTD SVG 1.1//EN" "http://www.w3.org/Graphics/SVG/1.1/DTD/svg11.dtd">
<!-- Creator: CorelDRAW 2017 -->
<svg xmlns="http://www.w3.org/2000/svg" xml:space="preserve" width="8.5in" height="11in" version="1.1" style="shape-rendering:geometricPrecision; text-rendering:geometricPrecision; image-rendering:optimizeQuality; fill-rule:evenodd; clip-rule:evenodd"
viewBox="0 0 8500 11000"
 xmlns:xlink="http://www.w3.org/1999/xlink">
 <defs>
  <style type="text/css">
   <![CDATA[
    .fil0 {fill:#FEFEFE}
    .fil1 {fill:#414B5F}
   ]]>
  </style>
 </defs>
 <g id="Layer_x0020_1">
  <metadata id="CorelCorpID_0Corel-Layer"/>
  <polygon class="fil0" points="821.51,8559.06 7561.31,8559.06 7561.31,1819.22 821.51,1819.22 "/>
  <path class="fil1" d="M7561.31 8276.57c-26.48,46.04 -52.95,92.1 -79.41,138.19 -11.72,20.56 -29.16,32.39 -52.61,32.46 -101.54,0.39 -203.07,0.33 -304.63,0.07 -27.48,-0.07 -46.62,-14.02 -60.19,-37.82 -48.68,-85.51 -97.78,-170.81 -147.06,-255.98 -12.83,-22.11 -14.3,-43.13 -1.01,-65.94 49.48,-85.07 98.55,-170.39 147.06,-256.02 15.76,-27.81 38.12,-39.22 69.74,-38.36 48.23,1.3 96.58,0.33 144.91,0.33 46.57,0.04 93.24,0.77 139.8,-0.25 29.39,-0.62 51.37,8.91 66.33,35.21 25.57,44.92 51.26,89.77 77.06,134.56l0 -554.47c-25.15,43.54 -49.99,87.28 -74.77,131.04 -15.73,27.71 -37.59,40.34 -69.11,39.83 -48.33,-0.78 -96.58,-0.19 -144.91,-0.19 -14.69,0.03 -29.39,-0.05 -44.09,-0.09 -31.95,-0.09 -63.89,-0.21 -95.81,0.35 -31.45,0.52 -53.48,-11.77 -69.2,-39.64 -46.8,-82.79 -94.21,-165.22 -142.61,-247.06 -17.36,-29.34 -15.68,-55.44 1.28,-84.19 46.52,-79.04 92.61,-158.44 136.98,-238.74 18.37,-33.18 43.39,-47.13 80.81,-46.62 89.91,1.2 179.87,1.2 269.78,0 37.33,-0.51 62.16,13 80.57,46.55 23.17,42.22 46.91,84.12 71.07,125.78l0 -553.14c-26.37,46.04 -52.7,92.08 -78.93,138.19 -11.89,20.83 -29.3,32.11 -52.75,32.2 -101.52,0.33 -203.13,0.24 -304.72,-0.12 -27.43,-0.09 -46.64,-13.76 -60.26,-37.65 -48.68,-85.56 -97.85,-170.84 -147.13,-256.02 -12.85,-22.12 -14.49,-43.11 -1.17,-65.98 49.45,-85.08 98.57,-170.39 147.08,-256.04 15.78,-27.8 38.08,-39.3 69.74,-38.45 48.28,1.31 96.58,0.37 144.91,0.37 46.62,0 93.28,0.73 139.9,-0.3 29.39,-0.64 51.33,8.94 66.32,35.24 25.55,44.9 51.24,89.72 77.02,134.51l0 -554.42c-25.06,43.44 -49.88,87.01 -74.54,130.65 -15.69,27.63 -37.35,40.7 -68.94,40.18 -48.3,-0.84 -96.63,-0.23 -144.93,-0.23 -14.44,0 -28.88,-0.03 -43.32,-0.07 -32.2,-0.09 -64.41,-0.19 -96.56,0.35 -31.39,0.52 -53.61,-11.35 -69.44,-39.29 -46.75,-82.75 -94.19,-165.17 -142.54,-247.06 -17.34,-29.23 -16.19,-55.32 0.82,-84.15 48.39,-81.87 95.86,-164.26 142.71,-247.02 14.74,-26.14 35.59,-38.07 64.94,-38.05 96.63,0.21 193.21,0.4 289.84,-0.17 31.85,-0.19 52.47,14 68.01,41.56 24.39,43.36 49.06,86.57 73.95,129.63l0 -552.75c-25.53,44.41 -50.94,88.87 -76.15,133.44 -14.77,26.1 -36.2,38.03 -65.27,38.03 -96.59,-0.09 -193.12,-0.26 -289.7,-0.35 -31.45,-0.02 -52.7,-14.77 -68.15,-42.17 -46.62,-82.84 -94.1,-165.22 -142.05,-247.29 -14.91,-25.41 -17.11,-48.56 -1.57,-74.91 48.14,-81.93 95.53,-164.38 142.03,-247.34 17.46,-31.24 41.59,-44.54 77.26,-43.16 46.57,1.78 93.23,0.42 139.85,0.42l0 0.23c48.28,0 96.58,0.61 144.88,-0.26 27.89,-0.49 47.7,10.55 61.45,34.63 25.76,45 51.55,90 77.42,134.96l0 -554.4c-24.76,42.85 -49.24,85.85 -73.46,129 -16.64,29.63 -39.52,42.61 -73.04,41.91 -48.25,-1.03 -96.58,-0.25 -144.88,-0.25l0 -0.17c-46.67,0 -93.28,-0.47 -139.93,0.17 -29.51,0.35 -50.5,-11.39 -65.27,-37.42 -47.81,-84.11 -95.97,-168.05 -145.07,-251.39 -16.31,-27.8 -14.58,-52.61 1.38,-79.69 48.12,-82 95.83,-164.26 142.43,-247.15 15.76,-28.04 37.8,-40.06 69.06,-39.9 94.92,0.37 189.87,0.54 284.85,-0.17 33.91,-0.26 55.2,15.07 71.52,44.32 23.83,42.63 47.95,85.1 72.41,127.4l0 -552.8c-26.2,45.72 -52.33,91.49 -78.35,137.32 -12.87,22.81 -32.13,33.46 -57.22,33.49 -99.95,0.19 -199.87,-0.03 -299.76,-0.52 -27.19,-0.09 -47.06,-12.75 -60.72,-36.81 -48.72,-85.56 -97.78,-170.91 -147.32,-255.95 -14.08,-24.15 -13.94,-46.24 0.19,-70.46 48.87,-83.52 97.04,-167.5 144.8,-251.62 15.58,-27.57 37.26,-40.26 69.2,-39.34 48.28,1.35 96.59,0.37 144.96,0.37l0 0.09c48.26,0 96.58,0.61 144.88,-0.26 27.8,-0.49 47.86,10.09 61.71,34.29 25.83,45.11 51.7,90.22 77.65,135.3l0 -554.36c-25.7,44.61 -51.29,89.28 -76.74,134.06 -14.91,26.19 -36.53,36.93 -65.83,36.61 -48.26,-0.54 -96.53,-0.14 -144.89,-0.14l0 0.19c-44.93,0 -89.96,-0.91 -134.94,0.33 -35.02,0.98 -59.82,-11.07 -77.56,-42.87 -45.45,-81.6 -92.46,-162.39 -139.88,-242.84 -17.04,-28.93 -17.36,-55.02 -0.09,-84.15 36.69,-61.92 72.74,-124.24 108.43,-186.76l-246.33 0c-16.06,28.02 -32.02,56.09 -47.85,84.25 -15.86,28.23 -38.36,39.67 -69.34,39.39 -48.28,-0.42 -96.59,-0.11 -144.81,-0.11 -46.67,-0.02 -93.24,-0.42 -139.85,0.07 -31.26,0.38 -53.03,-12.21 -68.76,-40.22 -15.63,-27.86 -31.41,-55.64 -47.28,-83.36l-246.33 0c35.81,62.87 72.16,125.44 108.83,187.8 15.98,27.13 17.56,51.96 1.24,79.69 -49.06,83.38 -97.24,167.3 -145.1,251.43 -14.74,25.95 -35.87,37.63 -65.36,37.3 -48.26,-0.56 -96.56,-0.16 -144.88,-0.16 -48.3,0 -96.58,-0.47 -144.89,0.16 -29.63,0.35 -50.43,-11.58 -65.2,-37.58 -47.81,-84.13 -95.97,-168.03 -145.07,-251.41 -16.36,-27.78 -14.34,-52.63 1.53,-79.64 36.6,-62.35 72.92,-124.82 108.72,-187.6l-246.31 0c-16.22,28.31 -32.37,56.67 -48.44,85.07 -14.67,26 -35.29,38.38 -64.72,38.33 -98.17,-0.21 -196.42,-0.19 -294.64,-0.21 -27.48,0 -46.85,-12.19 -60.66,-36.43 -16.44,-28.94 -32.94,-57.87 -49.5,-86.76l-246.3 0c34.85,61.42 70.33,122.49 106.47,183.13 18.21,30.45 19.94,57.61 1.57,88.63 -47.72,80.33 -94.38,161.29 -140.13,242.73 -16.64,29.6 -39.55,42.73 -73.02,42.01 -48.26,-1.03 -96.63,-0.26 -144.88,-0.26l0 -0.16c-46.66,0 -93.28,-0.42 -139.93,0.16 -29.46,0.35 -50.45,-11.35 -65.27,-37.35 -47.81,-84.15 -96.02,-168.03 -145.07,-251.44 -16.36,-27.75 -14.72,-52.56 1.24,-79.64 36.67,-62.4 73.06,-124.94 108.89,-187.8l-246.41 0c-15.53,27.15 -30.92,54.39 -46.14,81.7 -16.74,30 -40,42.47 -72.94,42.03 -46.58,-0.59 -93.24,-0.14 -139.83,-0.14 -46.61,0 -93.24,-0.44 -139.85,0.14 -33,0.44 -56.19,-11.89 -72.9,-42.01 -15.21,-27.33 -30.61,-54.56 -46.14,-81.72l-246.5 0c37.41,65.2 75,130.28 112.73,195.29 12.98,22.38 13.3,43.76 0.32,66.19 -50.19,86.61 -100.19,173.3 -149.83,260.19 -13.89,24.43 -34.51,34.56 -61.79,34.45 -50.01,-0.33 -99.92,-0.12 -149.93,-0.12l0 0.26c-44.93,0 -89.95,-0.73 -134.88,0.26 -33.05,0.74 -56.86,-10.6 -73.73,-40.65 -46.48,-82.94 -94.29,-165.17 -142.38,-247.2 -16.04,-27.28 -16.32,-52.11 -0.09,-79.67 36.94,-62.74 73.37,-125.78 109.53,-189l-246.3 0c-16.24,28.31 -32.4,56.68 -48.5,85.07 -14.76,26.05 -35.33,38.38 -64.72,38.33 -98.23,-0.21 -196.41,-0.19 -294.63,-0.21 -27.52,0 -46.85,-12.26 -60.61,-36.48 -16.45,-28.93 -32.95,-57.83 -49.52,-86.7l-246.31 0c34.75,61.29 70.21,122.19 106.28,182.7 18.1,30.33 20.47,57.5 1.96,88.63 -47.67,80.3 -94.34,161.3 -140.09,242.76 -16.55,29.49 -39.17,43.13 -72.73,42.43 -48.31,-1.04 -96.63,-0.28 -144.93,-0.28 -44.93,0 -89.96,-0.77 -134.89,0.28 -33.31,0.8 -56.58,-11.59 -73.31,-41.43 -45.71,-81.46 -92.47,-162.34 -140.05,-242.73 -18.09,-30.68 -17.78,-57.84 0.73,-88.65 36.41,-60.78 71.91,-122.1 106.93,-183.71l-205.42 0 0 529.21c18.74,32.5 37.55,64.97 56.44,97.39 13.99,24.02 14.86,46.18 0.69,70.44 -19.12,32.83 -38.17,65.69 -57.14,98.6l0 601.38c17.85,30.77 35.81,61.47 53.89,92.09 17.27,29.28 15.94,55.51 -1.01,84.23 -17.71,30.02 -35.36,60.07 -52.89,90.2l0 600.39c18.04,31.22 36.2,62.36 54.53,93.41 16.28,27.59 16.32,51.85 0.09,79.4 -18.35,31.11 -36.55,62.32 -54.62,93.59l0 601.39c18.22,31.46 36.53,62.86 54.99,94.2 16.22,27.62 14.99,52.59 -0.96,79.69 -18.08,30.8 -36.1,61.63 -54.02,92.52l0 600.29c18.3,31.72 36.69,63.39 55.21,94.98 14.99,25.69 16.09,48.91 0.92,74.91 -18.81,32.11 -37.52,64.28 -56.13,96.52l0 601.4c17.74,30.57 35.6,61.08 53.57,91.52 17.09,29.01 16.78,55.25 -0.32,84.18 -17.87,30.24 -35.61,60.56 -53.25,90.93l0 600.39c17.76,30.68 35.66,61.28 53.75,91.77 17.51,29.46 16.37,54.96 -0.73,83.85 -17.8,30.11 -35.49,60.32 -53.02,90.61l0 601.43c18.2,31.42 36.49,62.8 54.89,94.12 9.11,15.47 12.77,30.13 11.41,44.81l769.21 0c-1.44,-16.56 2.82,-33.13 13.55,-51.02 48,-80.07 94.29,-161.15 140.28,-242.4 15.73,-27.74 37.62,-40.28 69.16,-39.74 48.27,0.81 96.54,0.2 144.8,0.2 15.38,-0.02 30.78,0.02 46.18,0.09 31.22,0.12 62.46,0.21 93.64,-0.37 31.58,-0.61 53.39,11.89 69.07,39.66 46.8,82.68 94.24,165.11 142.56,246.89 9.56,16.19 13.33,31.43 11.94,46.67l768.67 0c-1.39,-14.26 1.92,-28.61 10.87,-43.83 49.05,-83.33 97.12,-167.24 144.93,-251.25 14.72,-25.83 35.43,-38.22 65.06,-37.87 49.94,0.57 99.86,0.14 149.82,0.14 15.73,-0.02 31.46,0.02 47.18,0.04 30.89,0.07 61.79,0.15 92.63,-0.27 29.44,-0.45 50.62,10.83 65.46,36.93 47.76,84.06 96.04,167.91 145.05,251.25 9.11,15.49 12.8,30.15 11.44,44.86l768.32 0c-1.39,-14.28 1.94,-28.64 10.89,-43.88 49,-83.36 97.12,-167.23 144.97,-251.27 14.72,-25.86 35.43,-37.95 65.04,-37.82 96.53,0.4 193.11,0.45 289.65,-0.06 29.48,-0.19 50.59,10.92 65.41,37 47.82,84.06 96,167.83 145.06,251.23 9.09,15.47 12.76,30.13 11.4,44.81l768.02 0c-1.3,-14.13 2.24,-28.18 10.81,-42.85 49.59,-84.95 98.69,-170.19 147.51,-255.56 13.97,-24.39 34.5,-34.61 61.74,-34.45 50.01,0.33 99.93,0.07 149.84,0.07l0 -0.25c44.98,0 89.96,0.84 134.87,-0.31 33.11,-0.84 56.82,10.56 73.69,40.56 46.48,82.87 94.24,165.06 142.33,247.02 9.2,15.71 13.25,30.66 11.92,45.77l670.54 0 0 -282.48zm-41.35 -6457.36l41.35 0 0 71.95c-13.82,-23.96 -27.6,-47.95 -41.35,-71.95zm-638.28 4165.98c-49.36,85.07 -98.46,170.33 -147.23,255.74 -14.86,26.02 -36.48,36.67 -65.9,36.13 -48.33,-0.87 -96.63,-0.24 -144.86,-0.24 -48.3,-0.02 -96.63,-0.75 -144.88,0.21 -29.91,0.61 -50.5,-11.84 -65.13,-37.41 -48.72,-85.47 -97.73,-170.77 -147.11,-255.91 -12.96,-22.47 -12.78,-43.53 0.19,-65.95 50.24,-86.54 100.02,-173.32 149.66,-260.16 12.75,-22.33 31.31,-34.61 56.72,-34.69 101.5,-0.3 203.02,-0.25 304.54,0.17 23.36,0.07 41.19,11.05 53.08,31.71 50.59,88.2 101.24,176.43 152.3,264.4 13.2,22.74 11.42,43.83 -1.38,65.99zm-712.91 796.59c49.63,-84.94 98.69,-170.25 147.51,-255.6 13.94,-24.36 34.37,-34.77 61.7,-34.59 49.95,0.33 99.91,0.1 149.82,0.1l0 -0.17c46.62,0 93.19,0.72 139.83,-0.24 31.8,-0.68 53.05,12.66 68.69,40.2 45.98,81.3 92.56,162.25 140.18,242.59 18.07,30.45 18.84,57.78 0.43,88.64 -47.81,80.2 -94.34,161.21 -140.14,242.55 -15.49,27.7 -36.58,41.45 -68.15,41.31 -96.58,-0.4 -193.11,-0.31 -289.69,-0.1 -29.3,0.07 -50.01,-12 -64.83,-38.12 -47.53,-84.22 -96.02,-167.88 -144.83,-251.38 -14.96,-25.61 -15.54,-49.47 -0.52,-75.2zm712.86 938.25c-48.68,83.55 -96.93,167.38 -144.54,251.55 -16.69,29.61 -40.44,41.37 -73.91,40.35 -46.52,-1.42 -93.18,-0.35 -139.78,-0.35 -46.61,-0.05 -93.28,-0.92 -139.85,0.25 -31.27,0.78 -54.18,-9.75 -70.02,-37.79 -48.51,-85.59 -97.68,-170.81 -147.02,-255.93 -13.06,-22.49 -12.61,-43.62 0.33,-65.99 50.29,-86.5 100.13,-173.23 149.66,-260.17 13.97,-24.45 35,-34.87 61.78,-34.91 98.24,-0.19 196.46,-0.1 294.64,0.07 27.38,0.07 47.09,12.6 60.8,36.65 48.63,85.5 97.63,170.84 147.17,255.83 13.95,23.99 14.91,46.11 0.73,70.44zm-748.11 -4773.99c-50.83,88.17 -101.59,176.31 -152.11,264.65 -12.87,22.68 -32.44,33.23 -57.45,33.28 -99.91,0.2 -199.84,-0.05 -299.69,-0.47 -27.43,-0.14 -46.69,-13.71 -60.35,-37.61 -48.68,-85.52 -97.66,-170.86 -147.18,-255.9 -14.16,-24.32 -12.92,-46.41 1.1,-70.42 48.81,-83.55 97.04,-167.42 144.71,-251.58 15.73,-27.71 37.85,-39.52 69.58,-38.66 48.25,1.33 96.56,0.35 144.88,0.35l0 0.14c48.3,0 96.63,0.68 144.88,-0.21 28,-0.54 47.63,10.74 61.34,34.78 49.73,86.84 99.6,173.62 149.85,260.21 12.05,20.78 12.33,40.74 0.44,61.44zm-713.02 2529.7c48.11,-82.03 95.88,-164.29 142.44,-247.13 15.87,-28.22 38.17,-39.87 69.3,-39.55 48.33,0.52 96.58,0.14 144.91,0.14 46.62,0 93.28,0.44 139.9,-0.19 31.41,-0.33 53.08,12.38 68.81,40.32 46.57,82.91 94.24,165.17 142.43,247.13 15.98,27.19 17.18,52.04 0.92,79.7 -49.06,83.39 -97.22,167.3 -145.12,251.39 -14.81,26.07 -36.07,37.23 -65.45,37.11 -96.63,-0.43 -193.22,-0.49 -289.84,-0.03 -29.67,0.14 -50.32,-11.93 -65.04,-37.84 -47.81,-84.11 -95.95,-168.03 -145.05,-251.44 -16.41,-27.9 -13.97,-52.75 1.8,-79.64zm1.73 -1738.16c47.85,-80.23 94.38,-161.27 140.18,-242.69 15.68,-27.92 37.35,-40.77 68.76,-40.39 48.3,0.54 96.56,0.14 144.93,0.14l0 -0.24c44.94,0 89.96,0.87 134.9,-0.23 35.13,-0.89 59.32,12.08 76.96,43.86 44.46,80.27 90.27,159.81 137.61,238.4 19.75,32.65 18.8,60.96 -0.44,93.09 -46.94,78.8 -92.74,158.37 -137.68,238.33 -16.54,29.49 -39.13,42.78 -72.76,42.5 -93.26,-0.87 -186.59,-0.82 -279.83,0 -33.28,0.32 -56.59,-11.56 -73.31,-41.4 -45.71,-81.51 -92.32,-162.41 -140.09,-242.71 -18.3,-30.87 -17.46,-58.06 0.78,-88.67zm0 867.96c46.12,-77.37 91.08,-155.46 134.66,-234.26 19.24,-34.82 45.14,-48.7 84.93,-47.76 89.84,2.08 179.85,1.71 269.76,0.21 35.69,-0.61 59.61,12.05 77.11,43.32 45.61,81.48 91.88,162.67 139.81,242.82 17.93,29.96 15.05,55.28 -1.78,83.83 -47.3,80.5 -94.06,161.39 -139.56,242.98 -16.59,29.75 -40,42.92 -72.9,42.69 -46.57,-0.26 -93.23,-0.02 -139.85,-0.02 -44.93,-0.05 -89.95,-0.35 -134.84,0.02 -36.48,0.37 -62.44,-13.39 -80.94,-46.96 -44.11,-80.39 -90.06,-159.89 -137.17,-238.56 -18.6,-31.08 -17.46,-57.74 0.78,-88.3zm709.94 1812.43c-50.01,86.7 -99.84,173.55 -149.15,260.63 -12.8,22.61 -31.17,34.48 -56.59,34.54 -99.93,0.23 -199.88,0.06 -299.76,-0.16 -29.49,-0.05 -49.69,-14.46 -64.22,-40 -47.72,-84.2 -95.81,-168.17 -144.67,-251.71 -15.31,-26.07 -13.79,-49.27 1.29,-74.91 48.13,-81.99 95.48,-164.45 142.23,-247.27 16.65,-29.51 39.85,-41.82 73.6,-40.63 46.62,1.66 93.28,0.37 139.9,0.37l0 0.14c48.37,0 96.68,0.87 144.96,-0.28 30.03,-0.7 50.5,11.68 65.13,37.3 48.81,85.47 97.77,170.87 147.28,255.96 13.15,22.58 12.91,43.63 0,66.02zm-502.9 1161.29c-29.51,0.37 -50.55,-11.37 -65.27,-37.41 -47.85,-84.12 -96.02,-168.01 -145.07,-251.41 -16.35,-27.74 -14.62,-52.57 1.29,-79.69 48.21,-81.98 95.88,-164.25 142.47,-247.17 15.77,-28.01 37.84,-39.99 69.06,-39.89 94.94,0.39 189.86,0.6 284.81,-0.1 33.96,-0.28 55.3,15.02 71.61,44.25 44.77,80.09 90.59,159.58 137.54,238.38 18.26,30.48 19.89,57.61 1.47,88.65 -47.67,80.31 -94.29,161.27 -140.07,242.73 -16.66,29.58 -39.52,42.71 -73.04,41.96 -48.26,-1.03 -96.63,-0.23 -144.93,-0.23l0 -0.19c-46.57,0 -93.24,-0.46 -139.88,0.14zm501.98 574.98c-50.01,86.7 -99.78,173.52 -149.33,260.54 -11.8,20.73 -28.91,32.53 -52.37,32.62 -101.56,0.35 -203.22,0.3 -304.8,0 -27.28,-0.12 -46.89,-13.31 -60.52,-37.28 -48.72,-85.56 -97.73,-170.91 -147.27,-255.96 -14.11,-24.26 -13.43,-46.33 0.68,-70.46 48.81,-83.54 97,-167.46 144.72,-251.62 15.68,-27.66 37.65,-39.78 69.48,-38.92 48.26,1.36 96.63,0.38 144.94,0.38l0 0.14c48.28,0 96.58,0.63 144.91,-0.26 27.92,-0.51 47.67,10.57 61.43,34.65 49.78,86.88 99.55,173.7 149.96,260.19 13.34,23.01 10.89,43.98 -1.83,65.98zm-751.94 -4767.02c-49.69,84.88 -98.69,170.16 -147.56,255.56 -12.84,22.53 -31.45,33.93 -56.82,33.98 -99.95,0.26 -199.79,0.17 -299.65,0.26 -27.47,0 -46.99,-11.87 -60.8,-36.13 -47.76,-84.09 -96,-167.94 -144.98,-251.3 -16.15,-27.36 -16.33,-52.33 -0.19,-79.74 48.96,-83.33 97.22,-167.17 145.07,-251.2 14.91,-26.23 36.63,-36.76 65.83,-36.46 48.26,0.59 96.54,0.14 144.79,0.14l0 -0.09c46.61,0 93.26,0.63 139.82,-0.23 31.27,-0.54 53.85,10.53 69.7,38.59 47.56,84.2 96,167.89 144.77,251.43 14.91,25.58 15.02,49.45 0,75.19zm-1.43 4338.62c-47.35,80.46 -93.91,161.41 -139.59,242.82 -17.56,31.2 -41.78,44.61 -77.32,43.37 -46.55,-1.63 -93.21,-0.44 -139.83,-0.44l0 -0.23c-48.25,0 -96.53,-0.54 -144.79,0.19 -27.8,0.4 -47.76,-10.61 -61.53,-34.66 -49.73,-86.82 -99.51,-173.59 -149.7,-260.11 -13.24,-22.87 -11,-43.88 1.73,-65.95 49.38,-85.11 98.55,-170.31 147.02,-255.9 14.81,-26.1 36.2,-38.01 65.22,-38.06 30.98,0 61.96,0 92.95,0.03 65.57,0.02 131.12,0.05 196.7,-0.12 31.76,-0.09 52.37,15.26 67.72,42.48 46.67,82.82 93.8,165.36 142.17,247.2 16.41,27.8 15.35,52.09 -0.75,79.4zm1.61 -3471.96c-48.37,81.82 -95.48,164.41 -142.24,247.09 -16.52,29.09 -39.17,42.89 -73.15,41.75 -46.57,-1.52 -93.15,-0.4 -139.76,-0.4 -14.21,0.03 -28.39,-0.09 -42.59,-0.19 -32.43,-0.23 -64.87,-0.44 -97.29,0.58 -33.53,1.1 -56.89,-11.21 -73.53,-40.67 -46.71,-82.78 -93.89,-165.29 -142.21,-247.13 -16.5,-27.89 -14.75,-52.21 1.23,-79.41 48.24,-81.93 95.58,-164.36 142.15,-247.15 15.63,-27.71 37.63,-40.91 68.85,-40.86 94.9,0.09 189.77,0.2 284.67,-0.19 33.46,-0.14 55.48,15.15 71.8,44.3 45.63,81.44 92.3,162.35 139.55,242.89 15.78,26.77 19.19,51.09 2.53,79.38zm-708.44 2521.63c47.62,-80.3 94.24,-161.22 140.02,-242.59 16.66,-29.63 39.67,-42.52 73.08,-41.72 46.57,1.06 93.24,0.21 139.81,0.21l0 0.19c48.33,0 96.53,0.52 144.86,-0.19 29.65,-0.41 50.37,11.58 65.13,37.53 47.81,84.01 95.92,167.91 144.93,251.23 16.36,27.8 14.44,52.75 -1.4,79.75 -48.09,81.98 -95.77,164.15 -142.38,246.99 -15.78,28.07 -38.03,39.89 -69.16,39.77 -94.85,-0.36 -189.79,-0.38 -284.67,0 -31.17,0.12 -53.17,-11.82 -68.94,-39.95 -45.7,-81.39 -92.32,-162.32 -140.09,-242.54 -18.14,-30.5 -19.56,-57.79 -1.19,-88.67zm-1.19 -1732.29c48.37,-81.81 95.76,-164.24 142.57,-246.96 15.68,-27.76 37.7,-39.81 69.15,-39.57 94.9,0.63 189.85,0.65 284.67,-0.05 31.59,-0.24 53.35,12 69.04,39.74 46.81,82.73 94.15,165.1 142.45,246.94 17.39,29.37 15.54,55.58 -1.36,84.2 -47.46,80.39 -94.43,161.1 -139.88,242.69 -16.73,30.07 -40.04,42.38 -72.99,41.96 -46.61,-0.54 -93.19,-0.14 -139.83,-0.14 -46.61,0 -93.24,-0.44 -139.85,0.14 -33,0.44 -56.12,-12.01 -72.85,-42.05 -45.35,-81.58 -92.39,-162.3 -139.83,-242.73 -16.91,-28.67 -18.65,-54.81 -1.28,-84.16zm-2.06 871.04c48.91,-83.43 97.05,-167.28 144.48,-251.58 15.63,-27.78 37.82,-40.65 68.94,-40.63 94.87,0.12 189.77,0.26 284.67,-0.14 33.59,-0.14 55.39,15.49 71.66,44.53 45.61,81.51 92.02,162.53 139.7,242.82 17.41,29.3 16.87,54.83 -0.33,83.88 -46.71,78.93 -92.46,158.39 -137.02,238.54 -18.37,32.98 -43.34,47.44 -81.09,45.77 -44.84,-1.94 -89.86,-0.46 -134.8,-0.46 -46.62,-0.02 -93.28,-1.14 -139.85,0.33 -33.65,1.09 -56.77,-11.56 -73.36,-40.98 -46.72,-82.8 -94.13,-165.17 -142.1,-247.15 -15.04,-25.61 -16.24,-48.84 -0.89,-74.93zm-0.96 -3467.18c49.33,-85.14 98.5,-170.32 147.02,-255.93 14.72,-26.09 36.11,-38.05 65.13,-38.05 35.41,-0.03 70.83,-0.03 106.27,-0.03 61.13,0.03 122.25,0.05 183.38,-0.11 31.71,-0.07 52.42,15.14 67.77,42.41 46.67,82.8 93.8,165.36 142.13,247.17 16.45,27.8 15.54,52.05 -0.56,79.39 -47.39,80.45 -93.96,161.43 -139.64,242.84 -17.51,31.17 -41.68,44.7 -77.23,43.41 -46.55,-1.64 -93.26,-0.4 -139.83,-0.4l0 -0.23c-48.3,0 -96.58,-0.54 -144.83,0.17 -27.76,0.44 -47.76,-10.49 -61.57,-34.57 -49.68,-86.82 -99.56,-173.57 -149.75,-260.09 -13.19,-22.85 -11.09,-43.88 1.73,-65.97zm-34.68 500.2c-50.74,88.3 -101.43,176.52 -151.79,264.91 -11.93,20.99 -29.81,31.48 -53.12,31.52 -101.57,0.28 -203.11,0.07 -304.72,-0.35 -27.62,-0.09 -46.32,-14.63 -59.8,-38.33 -47.9,-84.06 -96.04,-168.07 -144.93,-251.55 -15.01,-25.77 -15.5,-48.93 -0.29,-74.91 48.22,-81.98 95.49,-164.54 142.24,-247.34 16.45,-29.02 38.62,-43.23 72.85,-42.01 48.23,1.75 96.58,0.46 144.86,0.46 46.71,0.05 93.37,0.84 139.94,-0.26 29.63,-0.66 51.07,9.92 65.88,35.99 49.54,87.01 99.51,173.76 149.64,260.37 12.26,21.11 10.93,41 -0.78,61.48zm-0.58 5204.96c-50.11,86.62 -99.98,173.41 -149.57,260.31 -12.71,22.23 -30.98,34.89 -56.49,34.99 -99.93,0.3 -199.79,0.18 -299.67,0 -29.49,-0.02 -49.69,-14.49 -64.12,-40.02 -47.77,-84.13 -96,-168.01 -144.58,-251.65 -13.83,-23.8 -15.59,-45.85 -1.17,-70.44 48.79,-83.52 97.03,-167.39 144.56,-251.62 16.63,-29.46 39.76,-41.99 73.5,-40.73 46.57,1.64 93.24,0.36 139.85,0.36l0 0.16c48.33,0 96.63,0.8 144.95,-0.32 29.93,-0.66 50.55,11.51 65.18,37.11 48.82,85.52 97.78,170.84 147.28,255.91 13.15,22.54 13.29,43.53 0.28,65.94zm-751.31 -2167.17c-49.35,85.09 -98.45,170.34 -147.22,255.79 -14.81,25.97 -36.44,36.74 -65.94,36.2 -48.24,-0.87 -96.54,-0.24 -144.81,-0.24 -48.26,-0.02 -96.58,-0.75 -144.8,0.21 -29.95,0.61 -50.6,-11.75 -65.22,-37.34 -48.72,-85.47 -97.67,-170.77 -147.06,-255.86 -13.02,-22.49 -12.93,-43.55 0.04,-66 50.24,-86.56 100.02,-173.31 149.66,-260.16 12.71,-22.28 31.22,-34.65 56.63,-34.73 101.52,-0.33 203.04,-0.28 304.54,0.12 23.39,0.09 41.24,11 53.12,31.64 50.64,88.23 101.29,176.46 152.31,264.4 13.2,22.72 11.61,43.83 -1.24,65.97zm-712.91 796.6c49.59,-84.96 98.69,-170.19 147.51,-255.61 13.95,-24.36 34.42,-34.65 61.76,-34.47 49.94,0.33 99.86,0.1 149.87,0.1l0 -0.31c44.93,0 89.91,1.17 134.8,-0.35 35.83,-1.24 59,13.76 76.31,44.8 44.76,80.03 90.69,159.44 137.44,238.33 18.12,30.52 18.75,57.83 0.33,88.69 -47.76,80.15 -94.3,161.15 -140.09,242.55 -15.59,27.66 -36.67,41.33 -68.29,41.19 -96.5,-0.4 -193.07,-0.31 -289.61,-0.1 -29.39,0.03 -50.06,-12.1 -64.78,-38.24 -47.57,-84.21 -96.02,-167.91 -144.79,-251.39 -15,-25.63 -15.5,-49.48 -0.47,-75.19zm711.94 940.12c-48.91,83.41 -96.93,167.32 -144.69,251.41 -15.72,27.66 -38.26,39.36 -69.76,38.58 -46.57,-1.12 -93.24,-0.25 -139.83,-0.25 -48.3,-0.05 -96.58,-0.91 -144.83,0.25 -31.85,0.82 -53.57,-11.88 -69.2,-39.36 -47.67,-84.15 -95.85,-168 -144.53,-251.52 -14.12,-24.18 -14.21,-46.34 -0.14,-70.47 49.52,-85.02 98.55,-170.29 147.04,-255.89 14.81,-26.17 36.48,-37.69 65.41,-37.69 96.53,-0.02 193.11,0 289.65,0 29.26,0 50.2,12.59 64.87,38.5 47.67,84.19 95.86,168.04 144.67,251.53 14.98,25.49 16.67,48.75 1.35,74.92zm-750.37 -4769.67c-49.51,85.06 -98.41,170.44 -147.23,255.88 -12.57,22.09 -30.39,35.55 -56.04,35.64 -101.61,0.19 -203.13,0.07 -304.64,-0.42 -25.37,-0.12 -44.06,-12.38 -56.77,-34.66 -49.72,-86.87 -99.55,-173.62 -149.78,-260.19 -12.98,-22.44 -12.66,-43.48 0.41,-65.95 49.5,-85.06 98.5,-170.41 147.27,-255.9 14.67,-25.67 35.43,-37.68 65.36,-37 48.22,1.06 96.58,0.29 144.85,0.29 14.81,-0.03 29.63,0.04 44.43,0.11 33.48,0.15 66.96,0.31 100.46,-0.49 29.8,-0.66 50.83,10.51 65.59,36.44 48.77,85.52 97.67,170.89 147.35,255.81 14.4,24.6 12.58,46.64 -1.27,70.44zm-708.2 785.55c47.85,-80.28 94.39,-161.24 140.14,-242.73 15.73,-27.87 37.35,-40.61 68.74,-40.44 94.98,0.37 189.92,0.49 284.81,-0.17 33.73,-0.26 55.54,14.23 71.99,43.67 44.7,80.1 90.31,159.74 137.67,238.35 19.65,32.6 18.88,60.96 -0.32,93.12 -47.08,78.78 -92.79,158.34 -137.76,238.31 -16.5,29.46 -39.03,43.27 -72.72,42.52 -48.26,-1.05 -96.53,-0.25 -144.89,-0.25 -13.56,0 -27.15,-0.07 -40.7,-0.14 -31.41,-0.15 -62.81,-0.31 -94.22,0.44 -33.23,0.74 -56.59,-11.5 -73.36,-41.33 -45.66,-81.48 -92.37,-162.41 -140.05,-242.69 -18.28,-30.84 -17.65,-58.06 0.69,-88.67zm708.11 949.44c-48.82,83.47 -97.09,167.32 -144.48,251.66 -15.67,27.85 -37.94,40.59 -69.02,40.47 -48.27,-0.14 -96.58,-0.03 -144.89,-0.03 -44.93,-0.05 -89.91,-0.35 -134.89,0.07 -34.73,0.32 -59.51,-13.3 -76.97,-44.77 -45.48,-81.63 -92.1,-162.57 -139.69,-242.94 -17.37,-29.3 -16.59,-54.76 0.69,-83.83 46.8,-78.87 92.6,-158.39 137.12,-238.59 18.42,-33.12 43.42,-46.26 81.08,-45.52 91.55,1.75 183.24,1.49 274.8,0.11 33.87,-0.49 56.68,11.84 73.22,41.19 46.76,82.8 94.07,165.29 142.2,247.24 15.13,25.77 16.04,48.89 0.82,74.92zm-709.66 788.4c48.08,-82 95.67,-164.31 142.51,-247.06 14.67,-25.89 34.6,-39.17 64.31,-39.11 98.27,0.26 196.5,0.19 294.77,0.12 27.52,-0.03 47.17,11.52 60.97,35.85 48.68,85.56 97.77,170.89 147.46,255.82 15.31,26.16 13.11,49.89 -1.65,75.17 -48.82,83.55 -97.18,167.37 -145.04,251.48 -14.85,26.09 -36.24,37.21 -65.63,36.91 -46.62,-0.59 -93.29,-0.15 -139.87,-0.15 -49.96,-0.07 -99.96,-0.49 -149.92,0.07 -29.71,0.35 -50.28,-12.1 -64.95,-37.96 -47.76,-84.11 -95.94,-168.08 -144.98,-251.43 -16.46,-27.97 -13.8,-52.82 2.01,-79.71zm709.29 946.86c-49.59,85.05 -98.46,170.46 -146.86,256.23 -13.94,24.72 -34.64,34.87 -61.52,34.99 -48.36,0.24 -96.63,0.07 -144.93,0.07l0 0.36c-44.98,0 -89.95,-0.57 -134.93,0.15 -38.62,0.69 -65.46,-14.46 -84.65,-49.51 -44.11,-80.48 -90.41,-159.72 -136.85,-238.87 -15.91,-27.07 -17.87,-51.35 -1.23,-79.43 48.44,-81.78 95.57,-164.39 142.33,-247.2 16.68,-29.46 39.85,-41.24 73.5,-40.77 93.29,1.33 186.67,1.41 279.92,0 34.14,-0.54 56.44,12.59 72.9,41.76 46.71,82.8 94.07,165.29 142.24,247.29 15.22,25.93 15.18,49.1 0.09,74.93zm-708.47 786c47.49,-80.46 94.52,-161.17 139.96,-242.8 16.72,-30.05 39.95,-42.22 73.04,-41.98 93.24,0.49 186.53,0.56 279.82,-0.05 33.18,-0.23 56.08,12.31 72.77,42.24 45.48,81.62 92.42,162.41 139.96,242.84 16.96,28.72 18.6,54.81 1.24,84.15 -48.41,81.84 -95.81,164.27 -142.61,247.04 -15.72,27.83 -37.75,40.11 -69.24,39.65 -48.31,-0.82 -96.58,-0.24 -144.94,-0.24 -46.62,0 -93.24,-0.63 -139.87,0.24 -31.54,0.54 -53.34,-12.13 -69.06,-39.85 -46.81,-82.8 -94.2,-165.25 -142.57,-247.08 -17.37,-29.42 -15.4,-55.52 1.52,-84.15zm706 953.36c-48.26,81.93 -95.44,164.55 -141.92,247.5 -14.67,26.16 -35.01,39.08 -64.4,39.08 -48.27,-0.04 -96.63,0 -144.85,0l-0.04 0.07c-46.67,0 -93.29,-0.33 -139.91,0.09 -34.96,0.33 -59.28,-14.07 -76.69,-45.39 -45.39,-81.61 -92.24,-162.51 -139.59,-243.07 -16.04,-27.17 -17.46,-51.41 -0.92,-79.33 47.54,-80.41 94.21,-161.41 139.55,-243.11 18.55,-33.43 44.15,-45.45 81.54,-44.74 89.91,1.71 179.95,1.88 269.81,-0.05 38.17,-0.8 62.3,13.64 80.54,46.45 44.61,80.18 90.23,159.82 137.22,238.64 17.6,29.44 16.77,54.85 -0.32,83.85zm-748.05 -3040.04c-49.69,84.89 -98.78,170.18 -147.55,255.56 -12.84,22.49 -31.35,34.07 -56.85,34.12 -101.52,0.12 -203.04,0 -304.55,-0.19 -25.92,-0.07 -43.2,-13.53 -55.81,-35.62 -47.95,-83.97 -96.08,-167.87 -145.13,-251.22 -16.04,-27.36 -16.45,-52.28 -0.32,-79.73 49,-83.33 97.27,-167.17 145.12,-251.23 14.86,-26.16 36.48,-36.88 65.73,-36.58 48.26,0.59 96.53,0.15 144.8,0.15l0 -0.1c46.63,0 93.25,0.66 139.87,-0.2 31.13,-0.61 53.84,10.27 69.75,38.42 47.54,84.19 96.03,167.84 144.75,251.39 14.95,25.6 15.22,49.47 0.19,75.23zm-1.1 2603.42c-47.4,80.46 -93.88,161.48 -139.59,242.9 -17.37,30.93 -41.1,45.32 -76.93,44.02 -46.57,-1.72 -93.24,-0.44 -139.82,-0.44 -46.62,-0.05 -93.25,-0.96 -139.87,0.25 -31.49,0.8 -53.98,-10.57 -69.7,-38.38 -47.72,-84.15 -95.8,-168.04 -144.71,-251.46 -15.27,-26.06 -13.9,-49.38 1.05,-74.93 48.91,-83.48 97.04,-167.33 144.71,-251.51 14.67,-25.9 35.61,-38.61 64.82,-38.61 96.58,-0.09 193.11,0.03 289.7,-0.23 31.54,-0.09 52.65,14.35 68.06,41.83 46.62,82.81 93.84,165.36 142.15,247.19 16.27,27.55 16.41,51.86 0.13,79.38zm-2.15 -862.65c-47.39,80.41 -94.39,161.1 -139.82,242.69 -16.82,30.09 -40.36,41.82 -73.22,41.66 -93.24,-0.48 -186.44,-0.5 -279.69,0 -33.09,0.17 -55.99,-12.5 -72.63,-42.43 -45.39,-81.58 -92.37,-162.32 -139.87,-242.73 -16.96,-28.74 -18.15,-54.96 -0.92,-84.17 48.41,-81.85 95.81,-164.19 142.61,-246.94 15.77,-27.85 37.98,-39.74 69.33,-39.22 48.27,0.78 96.58,0.19 144.85,0.19 46.62,0 93.24,0.72 139.82,-0.19 31.72,-0.68 53.2,12.4 68.83,40.02 46.81,82.72 94.17,165.13 142.52,246.96 17.41,29.49 14.99,55.63 -1.83,84.18zm-708.19 -948.33c48.68,-83.6 96.99,-167.33 144.48,-251.61 15.59,-27.82 37.89,-40.53 68.93,-40.48 94.89,0.15 189.78,0.28 284.71,-0.11 33.65,-0.14 55.31,15.7 71.58,44.72 45.62,81.46 92.01,162.54 139.73,242.8 17.41,29.35 16.59,54.93 -0.5,83.85 -46.72,78.91 -92.52,158.39 -137.13,238.54 -18.37,33.07 -43.51,47.23 -81.13,45.63 -46.53,-1.89 -93.15,-0.42 -139.82,-0.42l0 -0.21c-46.62,0 -93.24,-0.7 -139.87,0.24 -29.62,0.63 -50.78,-10.91 -65.5,-36.72 -48.77,-85.44 -97.67,-170.79 -147.18,-255.78 -14.31,-24.53 -12.16,-46.67 1.69,-70.44zm2.1 -2605.96c48.36,-81.81 95.81,-164.17 142.61,-246.91 15.77,-27.88 38.08,-39.69 69.39,-39.2 48.27,0.81 96.54,0.21 144.85,0.21 46.57,0.02 93.24,0.74 139.82,-0.21 31.76,-0.63 53.16,12.52 68.8,40.13 45.98,81.28 92.5,162.2 140.14,242.52 18.05,30.43 19.01,57.76 0.59,88.7 -47.76,80.2 -94.3,161.17 -140.09,242.56 -15.54,27.59 -36.43,41.52 -68.1,41.4 -96.58,-0.4 -193.12,-0.28 -289.69,-0.15 -29.3,0.05 -50.1,-11.75 -64.87,-37.96 -46.8,-82.72 -94.29,-165.06 -142.56,-246.87 -17,-28.83 -18.1,-55.04 -0.87,-84.23zm-0.23 867.51c48.32,-81.91 95.58,-164.31 142.2,-247.18 15.58,-27.71 37.53,-41 68.65,-40.98 94.94,0.07 189.83,0.19 284.71,-0.21 33.42,-0.14 55.63,14.89 71.94,44.09 45.57,81.51 92.06,162.51 139.69,242.84 17.18,29.11 17.46,54.65 0.18,83.9 -47.63,80.25 -93.89,161.41 -139.91,242.66 -16.41,29.06 -38.98,43.02 -72.94,41.91 -46.58,-1.52 -93.25,-0.4 -139.82,-0.4 -14.2,0.03 -28.4,-0.09 -42.59,-0.19 -32.43,-0.23 -64.88,-0.44 -97.28,0.58 -33.45,1.1 -56.95,-10.97 -73.59,-40.51 -46.71,-82.82 -93.97,-165.27 -142.29,-247.13 -16.41,-27.85 -14.94,-52.14 1.05,-79.4zm-1.78 -1730.98c48.68,-83.59 97.08,-167.35 144.48,-251.62 15.68,-27.9 38.17,-40.28 69.11,-40.23 94.93,0.12 189.78,0.19 284.72,-0.05 31.08,-0.05 53.2,12.78 68.83,40.56 46.62,82.81 93.75,165.41 142.29,247.13 17.46,29.44 16.27,54.98 -0.73,83.85 -46.72,78.94 -92.56,158.39 -137.12,238.52 -18.42,33.12 -43.74,47.02 -81.27,45.45 -44.89,-1.92 -89.91,-0.47 -134.79,-0.47l0 -0.23c-48.28,0 -96.58,-0.66 -144.85,0.26 -29.71,0.57 -50.69,-11.19 -65.41,-36.95 -48.77,-85.42 -97.68,-170.77 -147.18,-255.76 -14.35,-24.58 -11.88,-46.74 1.93,-70.44zm-35.61 502.07c-50.69,88.23 -101.38,176.48 -151.75,264.91 -11.88,20.9 -29.43,31.92 -52.79,32 -101.56,0.3 -203.17,0.17 -304.74,-0.26 -27.52,-0.05 -46.57,-14.02 -60.15,-37.84 -47.85,-84.09 -95.98,-168.06 -144.89,-251.58 -14.94,-25.56 -16.23,-48.74 -0.87,-74.91 48.13,-81.98 95.63,-164.4 142.06,-247.37 17.65,-31.45 42.24,-43.85 77.66,-42.52 46.57,1.73 93.29,0.42 139.91,0.42l0 0.12c46.62,0 93.33,0.78 139.91,-0.3 29.48,-0.66 51.24,9.24 66.19,35.48 49.51,87.02 99.5,173.76 149.65,260.33 12.2,21 11.65,40.93 -0.19,61.53zm-0.09 3469.29c-50.64,88.22 -101.38,176.48 -151.7,264.93 -11.89,20.9 -29.53,31.8 -52.88,31.87 -101.56,0.28 -203.13,0.15 -304.78,-0.19 -27.47,-0.12 -46.44,-14.16 -60.01,-37.98 -48.69,-85.57 -97.87,-170.82 -147.19,-256.03 -12.84,-22.2 -13.98,-43.22 -0.78,-65.96 49.5,-85.09 98.64,-170.39 147.13,-256.07 15.81,-27.87 38.35,-38.92 69.93,-38.08 48.27,1.29 96.58,0.33 144.94,0.33 46.62,0.05 93.29,0.82 139.87,-0.25 29.48,-0.66 51.19,9.41 66.09,35.62 49.55,86.96 99.55,173.72 149.7,260.3 12.24,21.02 11.52,40.93 -0.33,61.51zm-501.64 1163.35c-31.58,0.56 -53.34,-12.21 -69.02,-39.95 -46.76,-82.75 -94.16,-165.24 -142.57,-247.09 -17.41,-29.48 -15.13,-55.55 1.69,-84.15 46.53,-79.08 92.65,-158.44 136.98,-238.75 18.43,-33.35 43.74,-46.76 81.04,-46.25 89.86,1.14 179.86,1.2 269.77,0 37.48,-0.51 61.98,13.54 80.35,46.95 43.38,78.93 88.67,156.87 135.07,234.09 19.24,32.11 20.79,60.38 1.14,93.12 -47.13,78.66 -92.83,158.25 -137.63,238.38 -17.56,31.34 -41.59,44.91 -77.02,43.87 -46.62,-1.28 -93.28,-0.3 -139.91,-0.3l0 -0.14c-46.63,0 -93.29,-0.61 -139.91,0.21zm500.64 573.31c-50.1,86.6 -100.01,173.36 -149.65,260.25 -12.75,22.35 -31.31,34.55 -56.67,34.62 -99.92,0.27 -199.79,0.13 -299.71,-0.05 -29.52,-0.07 -49.5,-15 -63.9,-40.43 -47.72,-84.15 -95.89,-168.05 -144.53,-251.69 -13.94,-23.92 -15,-45.99 -0.69,-70.47 48.82,-83.51 97.09,-167.35 144.57,-251.6 16.73,-29.6 40.17,-41.5 73.78,-40.32 46.57,1.67 93.24,0.4 139.86,0.4 46.62,0.05 93.34,1.01 139.91,-0.33 31.4,-0.87 54.17,9.61 70.07,37.67 48.54,85.63 97.63,170.91 147.14,255.95 13.21,22.64 12.75,43.63 -0.19,65.98zm-6.91 -2588.59c-47.03,78.8 -92.83,158.34 -137.76,238.33 -16.55,29.46 -39.12,42.77 -72.72,42.45 -93.29,-0.82 -186.62,-0.77 -279.87,0.05 -33.23,0.28 -56.58,-11.63 -73.31,-41.42 -45.71,-81.49 -92.37,-162.41 -140.1,-242.71 -18.37,-30.84 -17.41,-58.06 0.78,-88.65 47.86,-80.22 94.39,-161.26 140.19,-242.66 15.72,-27.94 37.39,-40.78 68.78,-40.41 48.27,0.56 96.58,0.14 144.9,0.14l0 -0.23c44.98,0 89.95,0.86 134.93,-0.23 35.15,-0.89 59.33,12.09 76.97,43.85 44.43,80.27 90.27,159.79 137.62,238.4 19.7,32.69 18.74,60.96 -0.41,93.1zm-704.68 -1822.98c48.13,-81.97 95.8,-164.26 142.43,-247.13 15.86,-28.15 38.17,-39.69 69.25,-39.57 94.93,0.39 189.92,0.44 284.8,0 31.44,-0.19 53.11,12.28 68.79,40.27 46.58,82.87 94.3,165.15 142.47,247.08 16,27.24 17.28,52.07 0.96,79.71 -49.04,83.38 -97.22,167.32 -145.08,251.43 -14.81,26.05 -36.06,37.42 -65.5,37.09 -48.27,-0.56 -96.58,-0.17 -144.89,-0.17 -48.31,-0.03 -96.63,-0.47 -144.89,0.17 -29.62,0.33 -50.32,-11.87 -65.09,-37.82 -47.81,-84.09 -95.94,-168 -145.03,-251.39 -16.46,-27.87 -14.07,-52.75 1.78,-79.69zm-3.93 875.23c48.82,-83.5 97.04,-167.35 144.58,-251.65 16.63,-29.39 39.57,-42.1 73.4,-40.91 46.62,1.69 93.24,0.44 139.91,0.44l0 0.09c48.26,0 96.58,0.82 144.85,-0.28 29.94,-0.7 50.69,11.21 65.36,36.9 48.77,85.52 97.77,170.84 147.27,255.91 13.07,22.47 13.49,43.5 0.5,65.95 -50.1,86.61 -100.01,173.36 -149.51,260.37 -13.85,24.31 -34.41,35.57 -61.43,35.57 -98.23,0.07 -196.45,-0.12 -294.72,-0.4 -29.39,-0.09 -49.64,-14.3 -64.18,-39.95 -47.67,-84.18 -95.98,-168.01 -144.62,-251.6 -13.84,-23.78 -15.81,-45.83 -1.41,-70.46zm2962.77 508.16c-48.11,81.96 -95.74,164.19 -142.33,247.06 -15.68,27.87 -37.33,40.72 -68.69,40.41 -48.28,-0.46 -96.53,-0.12 -144.81,-0.12l0 0.05c-46.66,0 -93.24,-0.3 -139.85,0.12 -30.96,0.28 -53.52,-10.83 -69.39,-39.1 -46.57,-82.89 -94.07,-165.2 -142.47,-246.99 -17.24,-29.18 -16.64,-55.39 0.38,-84.22 48.2,-81.87 95.57,-164.26 142.63,-246.87 14.68,-25.76 35.25,-38.15 64.92,-38 96.59,0.44 193.12,0.44 289.65,-0.12 29.41,-0.14 50.69,10.67 65.53,36.83 47.81,84.04 96.04,167.87 145.05,251.25 16.17,27.5 15.44,52.44 -0.61,79.71zm-709.09 -946.67c48.85,-83.45 96.98,-167.37 144.6,-251.48 14.67,-25.91 35.67,-38.61 64.87,-38.64 96.63,-0.07 193.12,0.03 289.65,-0.25 31.62,-0.12 52.65,14.39 68.1,41.82 46.66,82.81 93.89,165.36 142.14,247.2 16.31,27.54 16.41,51.83 0.19,79.38 -47.42,80.44 -93.94,161.47 -139.65,242.85 -17.36,30.96 -41.04,45.35 -76.87,44.04 -46.57,-1.69 -93.26,-0.44 -139.88,-0.44 -46.62,-0.03 -93.24,-0.92 -139.81,0.28 -31.54,0.8 -53.99,-10.55 -69.81,-38.37 -47.67,-84.11 -95.79,-168.04 -144.66,-251.46 -15.27,-26.05 -13.9,-49.35 1.1,-74.91zm708.46 -786.55c-48.31,81.79 -95.86,164.09 -142.47,246.91 -15.87,28.25 -38.52,39.46 -69.48,39.23 -48.22,-0.38 -96.54,-0.09 -144.8,-0.09 -46.57,-0.1 -93.21,-0.47 -139.83,0.05 -31.36,0.37 -52.96,-12.48 -68.64,-40.39 -46.59,-82.87 -94.22,-165.11 -142.33,-247.06 -16.01,-27.24 -16.78,-52.19 -0.61,-79.71 49,-83.38 97.19,-167.19 145.03,-251.22 14.86,-26.16 36.34,-36.93 65.64,-36.79 96.54,0.42 193.12,0.54 289.65,-0.05 29.82,-0.14 50.16,12.29 64.83,38.03 47.02,82.61 94.43,165.01 142.59,246.87 17.02,28.81 17.69,55.04 0.43,84.23zm-707.2 -950.54c48.18,-81.91 95.53,-164.36 142.15,-247.18 15.63,-27.7 37.67,-40.76 68.84,-40.72 94.9,0.09 189.77,0.21 284.62,-0.14 33.58,-0.17 55.53,15.26 71.84,44.37 45.59,81.46 92.07,162.5 139.65,242.8 17.36,29.21 17.1,54.79 -0.15,83.88 -46.7,78.89 -92.46,158.39 -137.06,238.54 -18.28,32.93 -43.2,47.58 -80.94,45.96 -44.85,-1.96 -89.87,-0.47 -134.85,-0.47 -46.62,-0.09 -93.24,-1.19 -139.83,0.33 -33.58,1.1 -56.85,-11.4 -73.48,-40.84 -46.61,-82.8 -93.84,-165.31 -142.19,-247.13 -16.5,-27.92 -14.59,-52.24 1.41,-79.41zm1247.37 4482.89c31.54,-0.41 52.94,12.72 68.57,40.6 46.62,82.92 94.24,165.19 142.47,247.13 16.08,27.28 16.71,52.16 0.54,79.69 -49.06,83.4 -97.31,167.3 -145.12,251.41 -14.91,26.16 -36.39,36.95 -65.7,36.81 -96.58,-0.44 -193.2,-0.52 -289.83,-0.1 -29.7,0.15 -50.13,-12.28 -64.8,-38.09 -47.04,-82.66 -94.43,-165.11 -142.75,-247.04 -16.99,-28.85 -17.51,-54.96 -0.26,-84.13 46.72,-79.04 92.91,-158.35 136.88,-238.87 19.38,-35.48 46.31,-49.14 85.17,-47.86 44.93,1.45 89.91,0.31 134.89,0.31l0 0.33c46.66,0 93.33,0.46 139.94,-0.19zm-498.8 -576.49c48.16,-82.01 95.43,-164.52 142.24,-247.32 16.5,-29.24 39.15,-42.64 73.13,-41.4 46.57,1.7 93.28,0.42 139.94,0.42l0 0.07c48.33,0 96.63,0.84 144.91,-0.28 29.84,-0.7 50.81,10.67 65.57,36.55 48.72,85.52 97.68,170.93 147.36,255.86 14.44,24.66 12.27,46.71 -1.49,70.49 -49.43,85.17 -98.29,170.56 -146.83,256.23 -12.7,22.4 -30.56,35.2 -56.16,35.25 -101.57,0.09 -203.19,-0.12 -304.7,-0.54 -27.83,-0.15 -46.06,-15.29 -59.51,-38.85 -47.93,-84.06 -95.98,-168.1 -144.89,-251.55 -15.16,-25.93 -14.76,-49.08 0.43,-74.93zm714.45 -2533.76c-50.97,88.06 -101.85,176.2 -152.34,264.52 -14.3,24.94 -36.51,32.17 -63.07,32.06 -48.37,-0.19 -96.63,-0.07 -144.95,-0.07l0 0.12c-46.62,0 -93.24,-0.59 -139.9,0.16 -31.17,0.52 -53.8,-10.74 -69.62,-38.8 -47.58,-84.22 -96.07,-167.98 -144.84,-251.52 -15,-25.72 -14.77,-49.45 0.28,-75.19 49.73,-84.88 98.8,-170.21 147.62,-255.65 12.94,-22.54 31.59,-33.87 57.01,-33.89 101.61,-0.07 203.2,-0.05 304.72,0.21 23.68,0.07 40.96,11.14 52.89,31.85 49.77,86.8 99.83,173.5 150.06,260.07 12.66,21.91 15.35,43.32 2.15,66.13zm-6.76 1748.48c-47.67,80.3 -94.26,161.29 -140.23,242.61 -15.67,27.62 -37.21,40.79 -68.89,40.28 -48.31,-0.84 -96.63,-0.23 -144.89,-0.23 -14.44,0 -28.88,-0.03 -43.32,-0.07 -32.2,-0.09 -64.4,-0.19 -96.6,0.35 -31.32,0.52 -53.67,-11.2 -69.43,-39.17 -46.78,-82.78 -94.3,-165.2 -142.69,-247.04 -17.22,-29.19 -16.22,-55.33 0.82,-84.18 48.35,-81.86 95.81,-164.26 142.71,-247.04 14.76,-26.07 35.45,-38.17 64.84,-38.1 96.58,0.16 193.16,0.35 289.84,-0.21 31.76,-0.19 52.46,13.85 68,41.42 45.8,81.44 92.32,162.49 140.18,242.71 18.51,30.93 17.69,58.15 -0.35,88.67zm4.07 -874.8c-48.91,83.47 -97.15,167.32 -144.49,251.71 -15.73,27.88 -38.12,40.47 -69.1,40.39 -48.28,-0.09 -96.59,-0.05 -144.86,-0.05 -44.98,0 -89.96,-0.26 -134.87,0.12 -34.76,0.32 -59.51,-13.3 -77.02,-44.77 -45.45,-81.63 -92.11,-162.57 -139.74,-242.94 -17.37,-29.3 -16.5,-54.76 0.72,-83.83 46.85,-78.87 92.61,-158.39 137.16,-238.59 18.43,-33.12 43.39,-46.26 81.05,-45.52 91.6,1.75 183.2,1.49 274.79,0.11 33.94,-0.51 56.73,11.89 73.23,41.19 46.75,82.78 94.07,165.24 142.26,247.24 15.12,25.72 15.99,48.89 0.87,74.92zm1748.62 724.72c-29.46,0.11 -49.82,-12.62 -64.54,-38.67 -46.76,-82.73 -94.15,-165.08 -142.5,-246.89 -17.15,-29.07 -17.06,-55.3 0,-84.2 48.25,-81.84 95.62,-164.28 142.64,-246.87 14.67,-25.69 34.99,-38.47 64.73,-38.33 98.22,0.52 196.48,0.44 294.68,0.14 27.92,-0.07 46.95,12.38 60.61,36.28 47.98,83.97 95.98,167.98 145.26,251.15 17.6,29.77 13.92,55.89 -2.76,84.18 -47.35,80.48 -94.19,161.24 -139.94,242.66 -15.59,27.83 -37.07,41.05 -68.52,40.72 -48.26,-0.5 -96.54,-0.1 -144.8,-0.1l0 -0.19c-48.33,0 -96.58,-0.16 -144.86,0.12zm-211.39 -1228.93c50.24,-86.52 100.13,-173.23 149.61,-260.17 13.97,-24.45 35,-34.85 61.78,-34.91 98.24,-0.14 196.46,-0.07 294.64,0.07 27.38,0.05 47.09,12.61 60.8,36.65 48.63,85.51 97.59,170.86 147.17,255.86 13.95,23.99 14.86,46.1 0.69,70.44 -48.63,83.59 -96.89,167.37 -144.49,251.56 -16.73,29.58 -40.44,41.37 -73.91,40.32 -46.52,-1.47 -93.18,-0.37 -139.78,-0.37 -46.66,-0.03 -93.28,-0.87 -139.85,0.3 -31.31,0.77 -54.2,-9.83 -70.02,-37.82 -48.54,-85.63 -97.73,-170.84 -147.04,-255.93 -13.04,-22.54 -12.59,-43.63 0.4,-65.99zm710.7 -790.77c-48.35,81.8 -95.78,164.17 -142.59,246.9 -14.77,26.05 -35.48,38.24 -64.83,38.17 -96.58,-0.12 -193.11,-0.28 -289.7,0.17 -31.59,0.19 -52.61,-13.41 -68.19,-41.12 -45.71,-81.42 -92.23,-162.39 -140.04,-242.59 -18.39,-30.87 -17.89,-58.18 0.25,-88.71 47.65,-80.28 94.17,-161.25 140.2,-242.48 15.59,-27.54 37.02,-40.91 68.69,-40.32 48.28,0.81 96.59,0.19 144.81,0.19l0 -0.07c46.62,0 93.24,0.65 139.85,-0.26 31.36,-0.58 53.66,11.05 69.43,38.99 46.81,82.7 94.29,165.04 142.61,246.92 17.09,29.06 16.5,55.3 -0.51,84.22zm-708.79 -947.44c48.63,-83.59 97.05,-167.37 144.49,-251.65 15.67,-27.87 38.17,-40.25 69.1,-40.2 94.9,0.12 189.77,0.19 284.72,-0.05 31.17,-0.05 53.21,12.8 68.85,40.58 47.44,84.3 95.6,168.17 144.56,251.58 15.3,26.09 14.19,49.33 -0.78,74.91 -48.09,82.02 -95.39,164.45 -142.19,247.15 -16.54,29.35 -39.76,42.2 -73.46,41.09 -46.57,-1.47 -93.19,-0.38 -139.85,-0.38l0 -0.14c-48.28,0 -96.53,-0.7 -144.81,0.26 -29.74,0.61 -50.69,-11.19 -65.41,-36.95 -48.73,-85.42 -97.69,-170.82 -147.18,-255.81 -14.3,-24.58 -11.84,-46.73 1.96,-70.4z"/>
  <path class="fil1" d="M3521.85 4275.56c32.95,0.43 61.78,-25.37 63.54,-56.91 1.78,-31.46 -30.31,-62.89 -63.63,-62.25 -30.98,0.56 -61.08,30.02 -61.08,59.88 0,30.68 29.13,58.88 61.18,59.28zm2.1 218.88c-38.31,-0.02 -76.67,-0.68 -114.98,0.12 -29.51,0.66 -50.81,-10.41 -65.62,-36.63 -39.55,-69.67 -79.7,-139.01 -120.26,-208.07 -13.15,-22.54 -13.29,-43.74 -0.28,-66.11 40.37,-69.23 80.36,-138.61 120.31,-208.05 13.76,-23.94 34.15,-35.43 61.62,-35.37 78.3,0.14 156.63,0.26 234.93,-0.14 29.65,-0.19 50.59,12.61 65.22,38.22 38.94,68.1 78.02,136.06 117.69,203.79 14.18,24.2 13.17,46.48 -1.06,70.54 -39.03,66.13 -77.56,132.5 -115.04,199.52 -16.36,29.35 -38.57,43.84 -72.57,42.5 -25.34,-0.98 -50.74,-0.75 -76.13,-0.54 -11.28,0.09 -22.56,0.21 -33.84,0.21z"/>
  <path class="fil1" d="M6525.57 4275.6c32.08,-0.44 61.24,-28.57 61.33,-59.19 0.09,-29.86 -30.02,-59.46 -60.96,-60.02 -33.33,-0.64 -65.41,30.65 -63.72,62.13 1.71,31.62 30.4,57.52 63.35,57.08zm3.48 -335.33c36.65,-0.03 73.32,0.37 109.96,-0.15 29.21,-0.39 51.28,10.54 66.14,36.48 39.8,69.53 79.89,138.87 120.12,208.12 13.1,22.58 11.8,43.81 -1.29,66.11 -40.53,69.09 -80.62,138.43 -120.33,208.02 -13.76,24.11 -33.28,35.69 -61.18,35.55 -78.28,-0.38 -156.58,-0.38 -234.89,0.02 -27.63,0.19 -47.76,-10.36 -61.64,-34.68 -40.56,-71.03 -81.56,-141.8 -122.7,-212.45 -12.15,-20.83 -11.87,-41 0.09,-61.62 40.09,-69.34 80.27,-138.66 119.98,-208.21 14.72,-25.79 36.25,-37.68 65.73,-37.3 39.95,0.46 79.94,0.11 119.99,0.09z"/>
  <path class="fil1" d="M821.51 4250.03l0 -66.77 0.6 1.03c13.01,22.33 12.34,43.48 -0.6,65.74z"/>
  <path class="fil1" d="M2022.03 6010.21c32.59,0.09 61.61,-26.66 62.66,-57.85 1.01,-29.54 -28.88,-60.31 -59.56,-61.41 -33.78,-1.17 -65.82,28.76 -65.09,60.84 0.59,31.04 29.53,58.3 61.98,58.42zm2.1 218.83c-38.3,-0.03 -76.65,-0.91 -114.91,0.23 -31.99,0.96 -53.3,-12.54 -68.84,-40.16 -38.48,-68.33 -77.89,-136.13 -117.56,-203.78 -13.12,-22.38 -14.26,-43.58 -1.19,-66.09 40.27,-69.27 80.26,-138.66 120.17,-208.11 13.71,-23.87 33.82,-36.07 61.3,-36.07 79.99,0.05 159.97,0.12 239.92,0.05 27.88,-0.05 47.03,13.65 60.56,37.19 39.13,67.98 78.16,135.99 117.84,203.67 14.07,24.04 14.17,46.33 -0.19,70.58 -39.85,67.54 -79.17,135.41 -117.65,203.74 -15.72,27.96 -37.84,39.94 -69.43,38.98 -36.66,-1.1 -73.31,-0.23 -110.02,-0.23z"/>
  <path class="fil1" d="M6524.16 7744.82c32.58,0.14 61.67,-26.65 62.74,-57.8 0.96,-29.47 -28.87,-60.31 -59.58,-61.46 -33.75,-1.22 -65.78,28.65 -65.15,60.8 0.6,30.98 29.63,58.33 61.99,58.46zm-0.56 218.91c-35.01,0 -70.07,-1.25 -104.98,0.35 -35.29,1.64 -60.06,-10.75 -77.61,-42.59 -37.16,-67.17 -75.94,-133.46 -114.98,-199.55 -14.2,-24.11 -15.11,-46.4 -0.95,-70.58 39.64,-67.7 78.77,-135.69 117.72,-203.77 14.57,-25.59 35.5,-38.33 65.22,-38.19 78.3,0.44 156.63,0.31 234.94,0.15 27.52,-0.02 47.85,11.49 61.61,35.43 39.94,69.41 79.94,138.82 120.24,208.05 13.04,22.36 12.9,43.62 -0.3,66.11 -40.51,69.13 -80.71,138.4 -120.22,208.07 -14.86,26.21 -36.2,37.24 -65.69,36.62 -38.29,-0.84 -76.65,-0.23 -115,-0.23l0 0.14z"/>
  <path class="fil1" d="M3522.43 7625.56c-31.22,0.33 -61.24,29.16 -61.76,59.3 -0.49,32.63 30.87,61.34 65.5,59.96 31.31,-1.29 60.75,-31.66 59.33,-61.3 -1.4,-30.51 -31.62,-58.26 -63.07,-57.96zm0.33 338.03c-38.36,0 -76.71,-0.66 -115,0.23 -29.87,0.61 -50.39,-11.74 -65.11,-37.67 -39.48,-69.67 -79.67,-138.99 -120.15,-208.1 -13.31,-22.75 -11.98,-44 0.86,-66.13 39.48,-67.8 78.85,-135.67 117.55,-203.88 15.73,-27.74 38.81,-39.08 70.02,-38.85 74.98,0.61 149.94,0.66 224.94,0 31.36,-0.22 54.01,11.8 69.73,39.41 37.89,66.75 76.2,133.28 115.19,199.41 15.09,25.61 15.73,49.01 0.23,75.04 -39.31,65.94 -77.74,132.46 -115.18,199.48 -16.55,29.6 -39.48,42.76 -73.18,41.49 -36.56,-1.41 -73.32,-0.3 -109.92,-0.3l0 -0.12z"/>
  <path class="fil1" d="M821.51 7719.23l0 -66.86 0.22 0.39c12.98,22.32 13.22,43.52 0,66.09l-0.22 0.39z"/>
  <path class="fil1" d="M5023.93 6010.21c32.41,-0.07 61.48,-27.38 62.25,-58.3 0.66,-29.67 -29.26,-60.05 -60.05,-60.96 -33.63,-0.98 -65.69,29.39 -64.64,61.29 0.96,31.22 29.86,58.07 62.44,57.97zm-2.74 218.69c-38.31,0 -76.64,-0.39 -114.95,0.15 -27.76,0.38 -47.48,-11.04 -61.33,-35.24 -40.52,-71.03 -81.58,-141.75 -122.68,-212.43 -12.17,-20.94 -11.16,-41.14 0.68,-61.64 40.13,-69.31 80.18,-138.68 120.08,-208.19 13.63,-23.71 33.24,-36.56 60.96,-36.51 79.99,0.09 159.98,0.02 239.92,0.02 25.41,0 45.17,10.32 58.06,32.55 41,70.75 81.77,141.64 122.96,212.31 13.15,22.63 11.05,43.88 -1.92,66.07 -39.74,67.66 -79.17,135.48 -117.62,203.81 -15.63,27.82 -37.41,40.39 -69.2,39.48 -38.26,-1.1 -76.65,-0.23 -114.96,-0.23l0 -0.15z"/>
  <path class="fil1" d="M6526.52 3408.5c31,-0.84 61.04,-30.45 60.61,-59.77 -0.44,-32.28 -31.61,-58.85 -67.14,-57.15 -31.76,1.54 -60.29,31.78 -57.92,61.27 2.57,30.87 32.22,56.54 64.45,55.65zm-6.39 215.77c-36.67,0 -73.31,-0.33 -109.97,0.07 -31.17,0.28 -53.8,-12.08 -69.43,-39.95 -36.74,-65.48 -74.33,-130.52 -112.54,-195.2 -16.17,-27.24 -16.59,-52 -0.09,-79.64 40.23,-67.35 79.12,-135.5 117.67,-203.81 13.71,-24.31 32.67,-36.35 60.61,-36.2 78.28,0.37 156.68,0.37 234.98,-0.03 27.69,-0.14 47.39,10.79 61.24,35.2 39.48,69.71 79.24,139.29 120.12,208.19 15.59,26.3 13.53,49.89 -1.29,75.17 -38.85,66.25 -77.11,132.81 -115.19,199.48 -13.76,24.06 -33.77,36.25 -61.11,36.34 -41.7,0.14 -83.33,0.05 -125.01,0.05l0 0.33z"/>
  <path class="fil1" d="M3521.98 3408.5c31.89,0.4 61.83,-26.35 63.61,-56.68 1.76,-29.44 -27.29,-59.07 -59,-60.24 -35.57,-1.35 -66.51,25.89 -66.23,58.2 0.24,29.55 30.45,58.36 61.62,58.71zm1.21 215.72c-38.28,0 -76.64,-0.28 -114.9,0.07 -31.31,0.32 -53.66,-12.48 -69.25,-40.28 -36.79,-65.5 -74.33,-130.58 -112.61,-195.22 -16.24,-27.41 -15.82,-52.23 0.49,-79.69 40.13,-67.42 79.07,-135.52 117.66,-203.83 13.74,-24.39 33.05,-35.9 60.83,-35.76 78.35,0.4 156.67,0.4 235.03,0 27.71,-0.14 47.18,11.05 60.99,35.5 39.39,69.76 79.33,139.24 119.98,208.33 14.16,24.11 14.65,46.55 0.59,70.65 -39.5,67.78 -78.59,135.76 -117.43,203.93 -13.81,24.09 -34.05,35.9 -61.34,36.02 -39.99,0.14 -79.99,0.02 -120.03,0.02l0 0.26z"/>
  <path class="fil1" d="M2023.17 5143.1c31.26,-0.37 61.57,-29.04 61.89,-58.57 0.42,-31.94 -30.94,-59.6 -66.05,-58.36 -31.85,1.17 -60.83,30.59 -59.23,60.12 1.59,30.26 31.63,57.21 63.39,56.81zm-4.25 215.54c-38.3,0 -76.61,-0.05 -114.91,0.05 -29.39,0.07 -50.24,-12.99 -64.86,-38.78 -36.98,-65.3 -74.41,-130.38 -112.53,-195.01 -15.91,-26.91 -18.11,-51.65 -1.33,-79.59 39.4,-65.8 77.56,-132.39 115.09,-199.3 16.59,-29.65 40.87,-41.96 73.73,-41.82 74.91,0.32 149.92,0.52 224.84,-0.19 30.21,-0.26 49.45,13.31 63.94,39.22 37.48,66.91 75.74,133.44 114.96,199.35 16.18,27.14 18.24,51.86 1.74,79.62 -39.08,65.99 -77.2,132.57 -115.04,199.31 -14.81,26.07 -36.66,37.37 -65.74,37.3 -39.95,-0.17 -79.89,-0.05 -119.89,-0.05l0 -0.12z"/>
  <path class="fil1" d="M2022.03 2541c32.59,0.14 61.61,-26.68 62.66,-57.85 1.01,-29.48 -28.93,-60.28 -59.56,-61.36 -33.78,-1.21 -65.78,28.72 -65.09,60.8 0.59,31.01 29.57,58.32 61.98,58.42zm-1.42 218.83c-36.7,0 -73.36,-0.84 -109.96,0.26 -31.54,0.93 -53.8,-10.93 -69.52,-38.92 -38.44,-68.38 -77.75,-136.25 -117.65,-203.76 -14.36,-24.27 -14.3,-46.52 -0.23,-70.58 39.68,-67.68 78.76,-135.71 117.83,-203.7 13.53,-23.56 32.63,-37.28 60.52,-37.28 79.99,0.1 159.98,0.1 239.97,-0.07 27.6,-0.05 47.54,12.21 61.2,36.06 39.95,69.42 79.94,138.85 120.21,208.07 13.12,22.51 12.07,43.72 -1.06,66.11 -39.67,67.65 -79.3,135.33 -117.51,203.83 -16.73,30.04 -40.54,41.51 -73.87,40.29 -36.56,-1.29 -73.27,-0.28 -109.93,-0.32z"/>
  <path class="fil1" d="M5022.19 2541.02c33.04,0.64 61.81,-24.78 63.91,-56.51 1.93,-28.95 -27.94,-61.13 -58.15,-62.72 -33.77,-1.82 -66.19,27.15 -66.56,59.44 -0.3,30.43 28.91,59.16 60.8,59.79zm-0.58 218.67c-38.36,0 -76.62,-0.4 -115,0.14 -27.61,0.43 -47.59,-10.6 -61.47,-34.87 -40.56,-71.03 -81.6,-141.8 -122.72,-212.45 -12.12,-20.82 -11.63,-41.04 0.26,-61.61 41.05,-70.72 81.86,-141.57 122.91,-212.33 12.85,-22.18 32.56,-32.67 57.97,-32.72 79.99,0 159.93,0.05 239.92,-0.05 27.73,-0.02 47.39,12.67 61.01,36.37 39.95,69.5 79.9,138.91 120.17,208.16 13.11,22.61 11.61,43.81 -1.47,66.07 -40.53,69.08 -80.67,138.44 -120.38,208 -13.86,24.17 -33.47,35.8 -61.2,35.43 -40,-0.52 -79.94,-0.14 -119.98,-0.14z"/>
  <path class="fil1" d="M821.51 3382.83l0 -66.84c11.13,22.44 12.22,43.62 0,66.84z"/>
  <path class="fil1" d="M5023.2 5026.17c-33,0.21 -62.67,28.24 -62.11,58.62 0.54,30.22 31.36,58.62 63.31,58.31 31.71,-0.3 62.34,-29.65 62.06,-59.53 -0.28,-30.75 -29.93,-57.64 -63.25,-57.41zm-3.16 332.48c-38.29,0 -76.6,-0.05 -114.91,0 -29.44,0.09 -50.1,-13.25 -64.69,-38.99 -37.02,-65.31 -74.35,-130.37 -112.56,-194.99 -15.87,-26.98 -17.74,-51.74 -1.01,-79.61 39.39,-65.81 77.42,-132.46 115.19,-199.25 15.49,-27.45 37.52,-41.33 68.78,-41.33 76.67,0 153.21,0.15 229.79,-0.35 27.63,-0.19 47.44,10.79 61.24,35.17 39.44,69.62 79.22,139.15 120.03,208 15.5,26.21 13.81,49.77 -1.05,75.12 -38.8,66.2 -77.21,132.64 -115.05,199.36 -14.81,26.12 -36.89,37.11 -65.88,37.02 -39.95,-0.17 -79.9,-0.05 -119.89,-0.05l0 -0.12z"/>
  <path class="fil1" d="M3322 1819.22l402.13 0 -17.89 31.54c-14.63,25.84 -35.57,38.74 -64.96,38.74 -78.33,-0.07 -156.63,-0.17 -234.98,0.12 -31.67,0.14 -52.85,-14.47 -68.24,-41.89l-16.05 -28.51z"/>
  <path class="fil1" d="M6323.44 1819.22l402.17 0 -17.93 31.62c-14.67,25.84 -35.62,38.66 -65.01,38.66 -78.31,-0.07 -156.69,-0.17 -234.99,0.12 -31.66,0.14 -52.84,-14.54 -68.24,-41.96l-16 -28.43z"/>
  <path class="fil1" d="M821.51 2515.27l0 -66.31 2.15 3.71c11.97,20.85 10.42,41.02 -1.55,61.57l-0.6 1.02z"/>
  <path class="fil1" d="M3521.89 2541.02c32.9,0.44 61.73,-25.46 63.49,-56.98 1.64,-29.11 -28.24,-60.8 -58.65,-62.25 -33.61,-1.64 -66.11,27.83 -66.07,59.91 0,30.64 29.13,58.86 61.22,59.33zm-0.7 218.67c-38.34,0 -76.69,-0.38 -115,0.14 -27.59,0.43 -47.72,-10.3 -61.59,-34.63 -40.55,-71 -81.6,-141.77 -122.74,-212.43 -12.1,-20.78 -11.91,-40.98 0,-61.61 41,-70.75 81.81,-141.58 122.82,-212.35 12.85,-22.17 32.37,-32.91 57.83,-32.91 79.99,-0.05 159.98,0.05 239.97,-0.12 27.66,-0.05 47.48,12.36 61.2,36.18 39.85,69.43 79.85,138.87 120.12,208.09 13.13,22.56 11.84,43.76 -1.19,66.11 -39.67,67.66 -79.12,135.46 -117.6,203.81 -15.58,27.65 -36.93,41.05 -68.85,40.09 -38.28,-1.15 -76.64,-0.23 -114.95,-0.23l0 -0.14z"/>
  <path class="fil1" d="M6522.05 2541c33.24,1 62.07,-23.83 64.76,-55.7 2.62,-30.97 -29.33,-63.61 -62.3,-63.52 -31.34,0.03 -61.53,28.34 -62.44,58.65 -0.91,30 28.43,59.63 59.98,60.57zm2.56 218.65c-40,0 -79.99,-0.19 -119.98,0.04 -25.67,0.14 -44.56,-10.37 -57.5,-32.85 -41.54,-72.36 -83.41,-144.54 -125.18,-216.8 -11.02,-19.13 -10.34,-38.24 0.49,-57.08 40.77,-70.88 81.72,-141.7 122.59,-212.51 12.66,-21.93 31.22,-34.36 56.96,-34.36 81.63,-0.09 163.33,-0.09 244.96,-0.04 25.72,0.04 44.32,12.3 57.03,34.26 40.09,69.37 80.04,138.8 120.4,208.03 12.94,22.16 13.91,43.41 0.63,66.07 -41.35,70.57 -82.21,141.42 -122.96,212.3 -12.92,22.44 -31.71,33.14 -57.45,33 -40,-0.26 -79.94,-0.04 -119.98,-0.04z"/>
  <path class="fil1" d="M1274.2 2975.93c31.03,-0.96 61.15,-31.48 60.7,-61.48 -0.41,-30.85 -30.68,-59.54 -62.35,-59.14 -32.31,0.38 -62.67,28.44 -63.49,58.69 -0.96,32.11 31.54,63 65.14,61.93zm-6.49 216.26c-36.7,0.02 -73.32,-0.33 -110.02,0.14 -29.2,0.35 -51.42,-10.39 -66.27,-36.39 -39.81,-69.53 -79.89,-138.94 -120.17,-208.23 -13.07,-22.52 -12.11,-43.72 0.96,-66.11 39.72,-67.68 79.07,-135.57 117.65,-203.88 15.54,-27.57 36.94,-40.75 68.89,-40.37 74.96,0.89 149.97,0.87 224.97,-0.02 31.54,-0.35 53.85,11.21 69.61,39.11 38.49,68.33 77.79,136.27 117.7,203.88 14.31,24.24 14.17,46.55 0.09,70.58 -39.63,67.7 -78.8,135.7 -117.74,203.81 -14.72,25.74 -36.16,37.89 -65.64,37.54 -39.99,-0.47 -79.99,-0.09 -120.03,-0.04z"/>
  <path class="fil1" d="M4274.91 2975.93c31,-0.68 61.38,-30.61 61.48,-60.73 0.09,-30.73 -29.98,-60 -61.65,-59.94 -33.89,0.05 -66.51,32.11 -64.24,63 2.2,31.15 32.65,58.32 64.4,57.67zm-4.43 216.35c-36.65,-0.05 -73.36,-0.61 -110.02,0.14 -31.4,0.58 -54.03,-11.94 -69.67,-39.53 -38.71,-68.27 -78.07,-136.14 -117.46,-204.03 -12.99,-22.28 -13.53,-43.5 -0.28,-66.11 40.53,-69.15 80.71,-138.51 120.31,-208.19 14.75,-26 35.88,-37.38 65.48,-37.12 76.67,0.64 153.35,0.66 230.06,0.03 29.84,-0.23 50.46,12.01 65.09,37.84 39.57,69.69 79.76,139.08 120.2,208.23 13.31,22.75 11.84,44 -1.03,66.14 -39.46,67.85 -78.82,135.71 -117.62,203.95 -15.68,27.76 -38.8,39.37 -70.02,38.83 -38.35,-0.7 -76.69,-0.19 -115.05,-0.19z"/>
  <path class="fil1" d="M7272.57 2975.95c33.65,1.01 66.04,-29.7 65.27,-61.9 -0.63,-28.57 -29.02,-57.33 -57.75,-58.79 -34.66,-1.7 -67.52,26.85 -68.13,59.19 -0.54,29.86 29.73,60.59 60.61,61.5zm288.74 -117.19l0 113.89c-35.19,60.32 -69.94,120.82 -104.59,181.42 -14.63,25.56 -35.65,38.33 -65.31,38.17 -78.33,-0.38 -156.63,-0.28 -235.03,-0.14 -27.5,0.05 -47.81,-11.61 -61.59,-35.53 -39.93,-69.45 -79.94,-138.89 -120.27,-208.14 -12.99,-22.4 -12.89,-43.62 0.33,-66.16 40.49,-69.1 80.62,-138.47 120.24,-208.16 14.86,-26.12 36.3,-37.24 65.83,-36.63 38.29,0.75 76.65,0.19 115,0.19l0 -0.14c34.96,0 70.02,1.21 104.98,-0.35 35.38,-1.56 60.1,11.03 77.69,42.76 33.31,60.13 67.83,119.6 102.72,178.83z"/>
  <path class="fil1" d="M2773.74 5578.37c32.91,-0.47 64.04,-32.63 61.8,-63.84 -2.14,-30.4 -32.17,-56.94 -63.85,-56.49 -31.03,0.44 -61.44,29.15 -62.07,58.57 -0.65,31.99 30.76,62.25 64.13,61.76zm0.69 219.02c-11.76,0 -23.54,-0.05 -35.31,-0.09 -26.59,-0.12 -53.19,-0.23 -79.73,0.33 -29.44,0.58 -50.69,-9.85 -65.59,-36.43 -38.39,-68.48 -77.48,-136.63 -117.7,-203.98 -16.5,-27.66 -15.95,-52.44 0.14,-79.73 37.34,-63.25 74,-126.96 109.88,-191.1 16.22,-29.06 38.62,-44.41 72.31,-44.18 76.7,0.47 153.4,0.32 230.09,0.12 31.45,-0.07 53.44,13.67 68.93,41.14 36.88,65.48 74.46,130.58 112.43,195.46 14.81,25.37 16.55,49.01 1.01,75.22 -40.81,68.96 -80.67,138.57 -120.11,208.33 -13.85,24.55 -33.64,35.43 -61.3,35.04 -38.3,-0.52 -76.7,-0.14 -115.05,-0.09z"/>
  <path class="fil1" d="M5772.99 5458.04c-30.99,0.49 -61.38,29.35 -61.87,58.76 -0.56,32.02 30.89,62.13 64.26,61.62 31.48,-0.54 60.33,-28.2 61.64,-59.12 1.29,-31.22 -30.65,-61.78 -64.03,-61.26zm-1 339.31c-38.35,0 -76.74,-0.38 -115.05,0.14 -27.73,0.4 -47.25,-10.93 -61.1,-35.43 -39.37,-69.79 -79.41,-139.29 -120.03,-208.4 -14.09,-24.06 -14.95,-46.5 -0.81,-70.68 39.48,-67.84 78.46,-135.99 117.4,-204.11 13.72,-23.91 34.1,-36.09 61.39,-36.15 80.04,-0.24 160.07,-0.24 240.11,-0.07 27.19,0.07 47.95,11.7 61.7,35.71 39.04,68.13 77.98,136.25 117.46,204.05 14.04,24.04 13.95,46.5 -0.25,70.7 -40.6,69.11 -80.55,138.63 -119.98,208.44 -13.76,24.32 -32.93,36.27 -60.8,35.9 -40.05,-0.47 -80.04,-0.14 -120.03,-0.09z"/>
  <path class="fil1" d="M1269.5 6445.11c33.18,0.99 65.27,-28.76 65.41,-60.63 0.13,-29.93 -29.39,-59.46 -60.43,-60.35 -34.05,-0.96 -65.69,28.25 -65.45,60.47 0.19,29.7 30.07,59.63 60.47,60.51zm5.11 -338.13c38.35,0 76.7,0.37 115.05,-0.12 27.74,-0.35 47.49,11.21 61.34,35.36 40.54,71.03 81.59,141.78 122.72,212.49 12.16,20.93 11.06,41.14 -0.78,61.64 -40.13,69.37 -80.26,138.7 -120.07,208.28 -14.76,25.91 -36.7,37 -66,36.87 -76.7,-0.41 -153.35,-0.41 -230.01,0.04 -29.48,0.13 -51.19,-11.49 -65.91,-37.21 -39.86,-69.51 -79.85,-138.92 -120.12,-208.21 -13.21,-22.7 -11.15,-43.9 1.83,-66.11 39.72,-67.7 79.17,-135.52 117.7,-203.91 15.63,-27.76 37.57,-40.37 69.3,-39.52 38.3,1.06 76.61,0.26 114.95,0.26l0 0.14z"/>
  <path class="fil1" d="M4271.68 6324.18c-31.45,0.91 -60.94,29.74 -61.17,59.8 -0.26,31.8 31.73,62.01 64.78,61.14 30.58,-0.76 60.51,-30.16 61.15,-59.97 0.65,-32 -31.17,-61.93 -64.76,-60.96zm-1 337.29c-36.72,0 -73.37,-0.56 -110.02,0.17 -31.4,0.62 -54.12,-11.79 -69.76,-39.4 -38.71,-68.24 -77.97,-136.2 -117.55,-203.96 -14.32,-24.45 -12.03,-46.78 2.02,-70.6 39.08,-66.09 77.69,-132.53 115.18,-199.5 16.5,-29.61 39.48,-42.29 73.16,-41.75 73.32,1.15 146.73,1.19 220.06,0 33.81,-0.54 56.44,12.76 72.9,42.2 37.49,67.02 75.92,133.56 115.19,199.53 15.63,26.21 14.16,49.61 -0.87,75.07 -38.12,64.76 -75.96,129.67 -112.5,195.29 -17.55,31.47 -42.59,44.51 -77.83,43.37 -36.61,-1.21 -73.32,-0.25 -109.97,-0.25l0 -0.15z"/>
  <path class="fil1" d="M7274.09 6445.11c32.91,0.33 64.8,-30.81 63.75,-62.24 -1.01,-30.5 -30.7,-58.51 -62.06,-58.65 -33.46,-0.19 -65.26,30.73 -63.86,62.02 1.43,30.36 31.22,58.6 62.18,58.87zm287.22 -116.53l0 112.73c-35.57,61.77 -71.25,123.49 -106.86,185.27 -12.65,21.96 -31.22,34.38 -57.01,34.4 -81.68,0.07 -163.34,0.07 -245,0 -25.76,-0.02 -44.37,-12.43 -57.03,-34.35 -40.91,-70.87 -81.77,-141.7 -122.68,-212.6 -12.03,-20.84 -10.34,-41.04 1.64,-61.61 40.37,-69.22 80.62,-138.54 120.17,-208.23 14.81,-25.95 35.6,-38.08 65.31,-37.47 38.31,0.78 76.69,0.17 115,0.17l0 0.19c40.04,0 80.04,0.14 120.08,-0.07 25.63,-0.14 44.56,10.58 57.45,32.98 36.16,62.95 72.54,125.78 108.91,188.61z"/>
  <path class="fil1" d="M1272.74 7313.02c33,-0.4 64.13,-32.35 62.07,-63.67 -2.01,-30.36 -32.04,-57.08 -63.67,-56.71 -31.08,0.4 -61.52,28.92 -62.26,58.39 -0.82,31.87 30.68,62.39 63.86,61.99zm-3.24 218.88c-38.35,0 -76.7,-0.34 -115.05,0.17 -27.79,0.39 -47.13,-11.24 -60.93,-35.61 -39.4,-69.81 -79.39,-139.3 -120.02,-208.43 -14.13,-24.11 -14.63,-46.6 -0.6,-70.7 39.49,-67.79 78.48,-135.94 117.47,-204.07 13.71,-23.99 34.28,-35.91 61.52,-35.99 80.04,-0.17 160.03,-0.17 240.11,0 27.19,0.05 47.85,11.88 61.52,35.87 39.76,69.62 79.71,139.11 119.66,208.61 11.94,20.74 11.43,40.98 -0.55,61.71 -41.82,72.27 -83.51,144.6 -124.87,217.15 -13.07,22.99 -32.91,31.6 -58.24,31.39 -40,-0.23 -80.03,-0.09 -120.02,-0.09z"/>
  <path class="fil1" d="M2771.08 7313.06c33.51,0.66 64.91,-29.1 64.63,-61.26 -0.22,-29.42 -30.54,-58.61 -61.39,-59.16 -33.41,-0.59 -65.49,29.8 -64.48,60.9 1,30.81 29.89,58.92 61.24,59.52zm-1.23 218.84c-38.35,0 -76.69,-0.34 -115.04,0.17 -27.88,0.39 -47.03,-11.61 -60.74,-35.94 -39.41,-69.83 -79.35,-139.33 -119.98,-208.43 -14.22,-24.21 -14.22,-46.68 -0.28,-70.73 39.5,-67.8 78.48,-135.9 117.47,-204.05 13.8,-24.02 34.56,-35.6 61.75,-35.67 80.04,-0.14 160.02,-0.14 240.06,0.07 27.34,0.07 47.72,12.24 61.44,36.15 38.94,68.18 77.93,136.27 117.42,204.14 14.03,24.15 13.26,46.64 -0.91,70.7 -40.59,69.11 -80.59,138.59 -120.03,208.42 -13.85,24.43 -33.37,35.73 -61.11,35.33 -40,-0.49 -79.99,-0.12 -120.03,-0.17z"/>
  <path class="fil1" d="M4271.54 7313.02c33.63,0.78 64.94,-28.6 64.94,-60.96 -0.05,-29.31 -30.36,-58.77 -61.11,-59.42 -33.42,-0.7 -65.65,29.37 -64.82,60.56 0.75,30.66 29.76,59.12 60.98,59.82zm1.87 218.83c-40,0 -80.04,-0.13 -120.03,0.04 -25.81,0.17 -44.25,-10.78 -57.03,-33.42 -40.46,-71.12 -81.28,-142.09 -122.51,-212.75 -13.1,-22.49 -13.48,-43.8 -0.49,-66.22 40.13,-69.35 79.94,-138.94 119.94,-208.39 12.76,-22.18 32.39,-33.48 57.64,-33.61 81.72,-0.28 163.44,-0.28 245.07,0 25.27,0.12 44.83,11.45 57.59,33.65 40,69.44 79.85,139.02 120.03,208.38 12.94,22.42 12.57,43.76 -0.59,66.23 -41.23,70.65 -82,141.61 -122.46,212.75 -12.9,22.59 -31.32,33.54 -57.08,33.37 -40.04,-0.18 -80.08,-0.04 -120.08,-0.04z"/>
  <path class="fil1" d="M5775.42 7192.64c-33.46,-0.44 -65.41,30.11 -64.09,61.29 1.33,31.03 30.07,58.62 61.61,59.13 33.37,0.52 64.87,-29.73 64.31,-61.7 -0.5,-29.42 -30.94,-58.32 -61.83,-58.72zm-0.37 339.35c-38.4,0 -76.74,-0.6 -115.05,0.21 -29.67,0.63 -50.41,-10.79 -65.22,-37.19 -38.36,-68.5 -77.39,-136.62 -117.62,-204 -16.66,-27.87 -14.98,-52.64 0.96,-79.69 37.31,-63.3 74.07,-126.96 109.9,-191.1 16.31,-29.28 39.29,-43.69 72.76,-43.48 75,0.39 150.01,0.37 225.1,-0.07 33.04,-0.21 57.06,12.46 73.56,42.08 36.7,65.6 74.32,130.65 112.31,195.53 14.89,25.55 15.63,49.19 0.21,75.19 -40.86,68.96 -80.67,138.54 -120.15,208.33 -14,24.69 -34.24,34.69 -61.71,34.29 -38.41,-0.52 -76.73,-0.15 -115.04,-0.1z"/>
  <path class="fil1" d="M7276.06 7312.96c32.95,-0.57 63.94,-32.72 61.64,-63.98 -2.22,-30.45 -32.23,-56.85 -63.98,-56.33 -30.98,0.52 -61.38,29.35 -61.87,58.72 -0.57,32.1 30.79,62.15 64.21,61.59zm285.25 -117.82l0 113.56c-36.72,62.42 -72.72,125.28 -108.33,188.34 -13.85,24.57 -33.63,35.46 -61.33,35.06 -38.26,-0.52 -76.65,-0.15 -115,-0.1 -38.35,0.03 -76.74,-0.56 -115.05,0.21 -29.39,0.63 -50.69,-9.88 -65.64,-36.44 -38.33,-68.45 -77.41,-136.57 -117.64,-203.94 -16.45,-27.67 -16.01,-52.45 0.09,-79.73 37.39,-63.27 74.04,-126.94 109.92,-191.08 16.2,-29.07 38.64,-44.4 72.27,-44.19 76.73,0.45 153.44,0.31 230.14,0.12 31.4,-0.12 53.43,13.67 68.92,41.12 33.43,59.3 67.35,118.27 101.66,177.07z"/>
  <path class="fil1" d="M1272.83 8058.79c-33.37,-0.26 -65.27,30.8 -63.85,62.06 1.42,30.38 31.22,58.6 62.17,58.88 32.96,0.33 64.81,-30.83 63.76,-62.25 -1.06,-30.49 -30.68,-58.5 -62.07,-58.69zm-2.1 -217.27c38.35,-0.05 76.74,0.51 115.04,-0.21 29.44,-0.61 50.97,10.25 65.87,36.44 39.63,69.67 79.76,139.01 120.35,208.14 13.12,22.47 13.48,43.69 0.46,66.11 -40.31,69.3 -80.26,138.74 -120.26,208.22 -13.71,23.87 -33.92,35.75 -61.44,35.69 -80.07,-0.15 -160.06,-0.12 -240.1,-0.19 -25.55,-0.04 -44.75,-11.4 -57.5,-33.48 -41,-70.82 -81.86,-141.7 -122.77,-212.53 -12.02,-20.66 -11.56,-40.88 0.51,-61.61 41.18,-70.7 82.23,-141.46 122.91,-212.44 13.89,-24.41 34.46,-34.58 61.93,-34.24 38.35,0.51 76.7,0.14 115,0.12z"/>
  <path class="fil1" d="M4270.93 8179.73c33.23,1.06 65.3,-28.65 65.46,-60.61 0.19,-29.96 -29.37,-59.49 -60.47,-60.38 -33.96,-0.94 -65.62,28.3 -65.41,60.43 0.14,29.72 30.09,59.65 60.42,60.56zm-1.12 216.15c-38.36,0 -76.71,-0.12 -115,0.03 -27.62,0.11 -47.86,-11.73 -61.57,-35.62 -39.95,-69.48 -79.94,-138.92 -120.22,-208.21 -13.08,-22.4 -12.8,-43.65 0.42,-66.08 40.53,-69.16 80.72,-138.51 120.29,-208.15 14.86,-26.16 36.39,-36.84 65.83,-36.58 76.64,0.65 153.38,0.55 230.05,0.14 27.47,-0.14 48.07,9.76 62.01,34.14 40.68,70.99 81.67,141.8 122.86,212.47 12.07,20.73 12.57,40.91 0.61,61.64 -40.96,70.79 -81.86,141.66 -122.74,212.49 -13.92,24.18 -35.36,34.05 -62.51,33.86 -40,-0.22 -79.99,-0.06 -120.03,-0.06l0 -0.07z"/>
  <path class="fil1" d="M7274.68 8058.79c-31.81,0.26 -61.34,27.69 -62.72,58.18 -1.4,31.33 30.45,62.95 63.23,62.76 32.63,-0.13 64.48,-32.37 62.65,-63.35 -1.87,-30.94 -31.4,-57.88 -63.16,-57.59zm286.63 3.82l0 113.91c-35.32,60.49 -70.27,121.22 -105.03,182.03 -14.67,25.65 -36.11,37.89 -65.64,37.54 -40,-0.44 -79.99,-0.12 -119.98,-0.07 -36.65,0 -73.37,-0.34 -110.06,0.1 -29.17,0.43 -51.42,-10.34 -66.28,-36.35 -39.76,-69.5 -79.9,-138.91 -120.12,-208.2 -13.11,-22.52 -12.1,-43.77 0.96,-66.14 39.69,-67.68 79.12,-135.54 117.66,-203.88 15.54,-27.54 36.93,-40.76 68.88,-40.39 75,0.94 149.96,0.89 224.96,-0.03 31.6,-0.34 53.85,11.22 69.57,39.09 34.4,61.15 69.51,121.89 105.08,182.41z"/>
  <path class="fil1" d="M821.51 8559.06l0 -38.87c7.57,13.19 10.71,26 9.33,38.87l-9.33 0 0 0z"/>
  <path class="fil1" d="M3585.41 8559.06c0.2,-1.5 0.33,-3 0.37,-4.52 0.96,-31.83 -30.26,-60.12 -65.31,-59.16 -31.99,0.88 -61.16,29.63 -60.06,59.35 0.06,1.45 0.18,2.9 0.37,4.33l-245.82 0c-1.45,-15.69 2.74,-31.28 12.83,-48 39.64,-65.76 77.72,-132.48 115.24,-199.45 14.63,-26.12 34.52,-38.98 64.5,-38.35 38.3,0.8 76.64,0.16 115,0.16 38.31,0 76.64,0.6 114.95,-0.2 29.72,-0.65 50.34,11.01 65.08,37.39 37.54,66.96 75.67,133.66 115.24,199.46 10.16,16.96 14.83,32.87 13.44,49.01l-245.82 0z"/>
  <path class="fil1" d="M6586.76 8559.06c0.15,-1.15 0.26,-2.31 0.32,-3.48 1.67,-29.49 -27.37,-59.04 -59.14,-60.19 -35.39,-1.27 -66.51,26.19 -66.18,58.29 0.02,1.8 0.15,3.6 0.39,5.39l-245.48 0c-1.41,-16.87 3.55,-33.47 14.29,-51.2 38.94,-64.27 76.29,-129.49 112.77,-195.16 15.64,-28.2 37.21,-40.48 68.87,-39.61 38.31,1.09 76.69,0.25 115,0.3 36.72,0 73.37,0.59 109.97,-0.18 29.35,-0.65 50.83,9.61 65.74,36.25 38.4,68.42 77.39,136.48 117.6,203.85 9.49,15.87 13.42,30.78 12,45.75l-246.17 0z"/>
  <path class="fil1" d="M3521.47 6760.77c-32.28,0.59 -61.52,28.51 -61.15,58.37 0.4,29.6 30.7,58.31 61.83,58.57 33.51,0.33 65.31,-30.71 63.35,-61.74 -1.92,-31.15 -30.52,-55.76 -64.03,-55.21zm6.53 -221.83c38.36,0 76.71,0.17 115,-0.06 25.8,-0.15 44.26,10.74 57.15,33.37 40.39,71.09 81.23,142 122.44,212.66 13.13,22.46 13.46,43.8 0.52,66.13 -40.18,69.37 -80.08,138.83 -120.03,208.31 -12.8,22.3 -32.18,33.46 -57.5,33.59 -81.63,0.18 -163.32,0.15 -244.95,0.04 -27.71,-0.07 -46.72,-14.07 -60.24,-37.82 -37.98,-66.69 -76.24,-133.35 -115.09,-199.54 -15.19,-25.76 -14.72,-49.33 0.49,-75.14 40.81,-68.96 80.55,-138.57 120.22,-208.2 12.85,-22.57 31.31,-33.55 57.06,-33.41 41.63,0.22 83.31,0.06 124.94,0.06z"/>
  <path class="fil1" d="M5025.3 6877.69c31.55,-0.63 61.93,-30.68 61.06,-60.47 -0.96,-31.1 -30.35,-57 -64.12,-56.45 -32.72,0.54 -62.3,29.4 -61.06,59.54 1.22,30.63 31.85,58.06 64.12,57.38zm-2.97 -338.91c38.31,0.02 76.65,0.58 114.95,-0.19 29.44,-0.58 50.65,10.04 65.5,36.61 38.35,68.42 77.41,136.53 117.59,203.87 16.59,27.69 15.73,52.47 -0.3,79.64 -38.26,64.66 -75.75,129.81 -112.73,195.2 -14.49,25.63 -34.96,39.36 -64.55,39.36 -78.32,0 -156.63,-0.17 -235.03,0.21 -31.48,0.14 -53.1,-13.78 -68.54,-41.33 -36.02,-64.03 -72.69,-127.67 -110.25,-190.78 -17.06,-28.67 -18.79,-54.52 -0.91,-84.13 39.71,-65.71 77.88,-132.38 115.09,-199.53 15.75,-28.26 37.61,-40.16 69.15,-39.24 36.61,1.1 73.32,0.26 110.02,0.31z"/>
  <path class="fil1" d="M6525.42 6877.72c31.26,-0.41 61.53,-29.19 61.81,-58.7 0.33,-32.24 -30.65,-59.53 -66.13,-58.25 -31.78,1.17 -60.75,30.74 -59.11,60.22 1.71,30.4 31.69,57.17 63.44,56.73zm-1.31 -338.79c40.04,0 80.04,0.18 119.98,-0.05 25.67,-0.19 44.37,10.36 57.31,33.02 40.44,71.09 81.18,142.01 122.44,212.65 13.08,22.4 13.85,43.72 0.86,66.17 -40.16,69.34 -80.06,138.8 -119.94,208.31 -12.78,22.28 -31.98,33.77 -57.35,33.84 -81.63,0.25 -163.3,0.22 -244.98,0.13 -27.57,-0.06 -46.81,-13.67 -60.43,-37.49 -38.02,-66.74 -76.19,-133.32 -115.09,-199.55 -15.1,-25.67 -15.19,-49.23 0.16,-75.14 40,-67.53 79.13,-135.53 117.48,-203.96 14.63,-26.14 34.59,-38.84 64.54,-38.24 38.34,0.82 76.65,0.21 115,0.21l0 0.11z"/>
  <path class="fil1" d="M2772.78 8059.11c-32.17,0.64 -62.53,29.11 -63.03,59.21 -0.5,32.12 32.13,62.7 65.73,61.4 30.71,-1.17 60.93,-32.25 60.15,-61.96 -0.78,-31.06 -31.03,-59.26 -62.85,-58.65zm0 -217.46c40,0 79.99,0.19 119.98,-0.02 25.69,-0.17 44.66,10.62 57.5,32.99 41.64,72.39 83.46,144.6 125.24,216.9 11.06,19.19 10.14,38.31 -0.68,57.12 -40.82,70.88 -81.82,141.7 -122.59,212.61 -13.85,24.08 -34.69,34.75 -62.07,34.69 -78.3,-0.17 -156.68,-0.28 -235.03,0.01 -29.85,0.15 -50.28,-13.56 -64.76,-38.98 -38.95,-68.12 -78.07,-136.13 -117.66,-203.87 -14.26,-24.43 -12.24,-46.79 1.83,-70.59 38.99,-66.19 77.61,-132.57 115.13,-199.62 16.51,-29.53 39.31,-43.04 73.09,-41.83 36.62,1.34 73.31,0.29 110.02,0.29l0 0.3z"/>
  <path class="fil1" d="M5021.33 7744.82c33.18,0.98 62.06,-23.8 64.77,-55.72 2.6,-30.96 -29.34,-63.62 -62.31,-63.54 -31.39,0.05 -61.5,28.37 -62.44,58.65 -0.92,29.97 28.39,59.65 59.98,60.61zm7.34 -335.35c36.63,0 73.28,0.4 109.95,-0.09 29.35,-0.4 51.22,10.83 66.04,36.71 39.76,69.56 79.9,138.88 120.08,208.19 11.84,20.54 12.85,40.72 0.63,61.62 -41.04,70.7 -82.09,141.46 -122.67,212.5 -13.81,24.17 -33.51,35.42 -61.24,35.26 -78.31,-0.43 -156.66,-0.43 -234.99,0 -27.67,0.16 -47.55,-10.75 -61.43,-34.98 -40.51,-71.09 -81.61,-141.77 -122.68,-212.5 -12.17,-20.85 -11.49,-41.02 0.4,-61.57 40.13,-69.36 80.27,-138.67 119.98,-208.24 14.81,-25.78 36.58,-37.37 65.9,-37 40,0.49 80.04,0.14 120.03,0.09z"/>
  <path class="fil1" d="M2023.72 4275.63c31.9,-0.54 61.2,-29.17 61.02,-59.56 -0.13,-29.98 -30.26,-59.26 -61.34,-59.68 -33.23,-0.44 -65.26,31.1 -63.35,62.48 1.92,31.68 30.67,57.35 63.67,56.75zm-0.92 218.62c-39.99,0 -79.99,-0.16 -119.94,0.07 -25.64,0.16 -44.74,-10.04 -57.68,-32.55 -41.6,-72.34 -83.46,-144.54 -125.28,-216.76 -11.02,-19.09 -10.7,-38.21 0.18,-57.09 41.69,-72.3 83.37,-144.56 125.33,-216.64 11.93,-20.43 30.54,-30.41 53.99,-30.5 81.67,-0.14 163.31,-0.14 244.99,-0.14 25.69,0 44.47,11.96 57.19,33.98 40.9,70.8 81.72,141.64 122.63,212.45 12.07,20.78 10.74,40.98 -1.28,61.59 -40.31,69.22 -80.58,138.47 -120.12,208.14 -14.67,25.9 -35.15,38.4 -64.99,37.74 -38.3,-0.84 -76.65,-0.19 -115,-0.19l0 -0.12z"/>
  <path class="fil1" d="M5022.52 4156.39c-31.01,0.56 -61.08,30 -61.13,59.88 -0.04,32.76 31.36,60.94 66.16,59.33 31.03,-1.5 60.49,-32.57 58.76,-61.92 -1.92,-30.68 -32.18,-57.85 -63.8,-57.29zm1.36 337.83c-40,0 -79.99,-0.19 -119.94,0.07 -25.67,0.14 -44.61,-10.41 -57.5,-32.85 -41.58,-72.38 -83.45,-144.56 -125.23,-216.78 -11.06,-19.17 -10.34,-38.28 0.49,-57.09 40.77,-70.89 81.67,-141.7 122.56,-212.5 12.69,-21.95 31.24,-34.38 56.99,-34.42 81.62,-0.05 163.32,-0.05 244.95,0 25.74,0 44.32,12.33 56.98,34.26 40.9,70.84 81.79,141.68 122.65,212.47 12.06,20.9 10.37,41.05 -1.61,61.6 -40.39,69.22 -80.67,138.47 -120.15,208.16 -14.72,25.98 -35.43,38.08 -65.24,37.42 -38.29,-0.84 -76.6,-0.19 -114.96,-0.19l0 -0.14z"/>
  <path class="fil1" d="M2773.69 4710.54c30.85,-0.47 60.74,-28.95 61.98,-59.16 1.28,-31.74 -30.44,-62.39 -63.89,-61.81 -31.63,0.54 -61.07,28.57 -61.98,58.93 -0.92,31.64 30.89,62.53 63.9,62.04zm-4.39 216.09c-38.35,0 -76.65,-0.14 -115,0.05 -27.52,0.15 -47.85,-11.49 -61.61,-35.41 -40,-69.48 -80.04,-138.92 -120.35,-208.17 -12.98,-22.35 -12.98,-43.62 0.23,-66.16 40.54,-69.11 80.72,-138.42 120.26,-208.11 14.9,-26.12 36.25,-37.02 65.73,-36.76 76.74,0.63 153.39,0.49 230.05,0.11 27.38,-0.14 48.13,9.51 62.17,33.96 40.63,70.98 81.59,141.81 122.9,212.4 13.35,22.82 11.38,44.09 -1.41,66.14 -39.49,67.82 -78.89,135.71 -117.66,203.93 -15.81,27.82 -39.12,39.03 -70.25,38.47 -38.35,-0.7 -76.7,-0.19 -115.04,-0.19l0 -0.26z"/>
  <path class="fil1" d="M1272.52 4710.54c31.35,-0.32 61.56,-29.27 62.34,-59.81 0.82,-30.36 -29.3,-60.57 -60.65,-60.83 -34.06,-0.37 -66.83,30.78 -65.23,62.07 1.55,30.82 31.99,58.88 63.54,58.57zm-4.26 216.09c-38.35,0 -76.65,-0.14 -115,0.05 -27.61,0.15 -47.76,-11.84 -61.48,-35.71 -40,-69.46 -79.99,-138.94 -120.3,-208.19 -13.07,-22.47 -12.62,-43.69 0.5,-66.16 40.59,-69.11 80.72,-138.44 120.35,-208.17 14.9,-26.19 36.52,-36.65 65.95,-36.39 76.65,0.63 153.35,0.63 230.04,0.07 29.85,-0.23 50.65,12.26 65.23,37.94 39.54,69.74 79.35,139.29 119.48,208.7 11.97,20.78 12.52,40.93 0.59,61.64 -40.95,70.83 -81.86,141.67 -122.77,212.58 -13.94,24.17 -35.38,33.96 -62.53,33.79 -39.99,-0.26 -80.07,-0.09 -120.07,-0.09l0 -0.07z"/>
  <path class="fil1" d="M2772.5 6324.18c-31.9,0.28 -61.34,27.66 -62.76,58.18 -1.37,31.32 30.44,62.97 63.21,62.8 32.64,-0.17 64.5,-32.39 62.66,-63.38 -1.82,-30.89 -31.4,-57.85 -63.12,-57.59zm-1.01 -217.29c11.86,0 23.72,0.05 35.59,0.09 26.48,0.09 52.96,0.21 79.41,-0.3 29.48,-0.59 51.01,10.28 65.87,36.46 39.58,69.67 79.8,138.99 120.35,208.15 13.16,22.44 13.53,43.69 0.5,66.11 -40.36,69.3 -80.35,138.72 -120.26,208.23 -13.76,23.89 -33.96,35.69 -61.52,35.67 -79.98,-0.19 -160.02,-0.14 -240.01,-0.21 -25.6,-0.03 -44.75,-11.37 -57.59,-33.47 -40.96,-70.83 -81.77,-141.7 -122.72,-212.51 -11.97,-20.67 -11.56,-40.89 0.5,-61.62 41.18,-70.72 82.22,-141.46 122.86,-212.47 13.98,-24.39 34.56,-34.59 61.98,-34.21 38.39,0.51 76.69,0.14 115.04,0.09z"/>
  <path class="fil1" d="M5771.65 6445.11c33.24,0.99 65.27,-28.71 65.46,-60.63 0.15,-29.93 -29.39,-59.46 -60.47,-60.31 -34,-0.96 -65.67,28.24 -65.41,60.43 0.19,29.7 30.1,59.63 60.43,60.51zm1.71 -338.25c38.28,0 76.69,0.59 115.04,-0.19 29.46,-0.59 50.79,10.67 65.67,36.81 39.6,69.67 79.78,139.02 120.26,208.18 13.2,22.5 13.08,43.76 0.15,66.08 -40.33,69.3 -80.37,138.73 -120.27,208.21 -13.81,23.97 -34.24,35.41 -61.71,35.36 -78.33,-0.14 -156.73,-0.26 -235.01,0.12 -29.72,0.19 -50.62,-12.76 -65.25,-38.28 -38.94,-68.13 -78.02,-136.13 -117.69,-203.89 -14.16,-24.19 -13.2,-46.54 0.96,-70.58 39.03,-66.13 77.65,-132.57 115.13,-199.59 16.41,-29.3 38.66,-43.83 72.69,-42.61 36.65,1.38 73.3,0.33 110.02,0.33l0 0.07z"/>
  <path class="fil1" d="M821.51 6851.92l0 -66.92c11.99,23.17 11.33,44.39 0,66.92z"/>
  <path class="fil1" d="M2020.97 6877.72c31.95,0.54 61.89,-25.86 63.86,-56.37 1.96,-29.42 -27.02,-59.33 -58.74,-60.57 -35.33,-1.4 -66.5,25.8 -66.41,57.92 0.04,29.53 30.16,58.56 61.29,59.03zm2.89 -338.94c36.7,-0.05 73.36,0.8 109.97,-0.31 31.63,-0.91 53.43,11 69.11,39.29 37.3,67.12 75.42,133.81 115.14,199.48 17.91,29.63 16.13,55.51 -0.92,84.13 -37.57,63.11 -74.23,126.8 -110.2,190.81 -15.5,27.54 -37.16,41.39 -68.65,41.3 -76.7,-0.28 -153.35,-0.26 -230,0.07 -31.13,0.14 -53.89,-11.73 -69.62,-39.65 -36.79,-65.5 -74.36,-130.56 -112.57,-195.22 -16.14,-27.19 -16.92,-51.95 -0.33,-79.66 40.23,-67.33 79.21,-135.46 117.56,-203.88 14.85,-26.55 36.07,-37.14 65.54,-36.56 38.31,0.77 76.65,0.21 114.96,0.19z"/>
  <path class="fil1" d="M1821.27 1819.22l402.04 0 -18.91 33.28c-14.81,26.11 -36.8,37.18 -65.91,37.07 -39.99,-0.15 -79.99,0 -119.94,0l0 0.09c-36.7,0 -73.36,-0.31 -110.06,0.09 -31.04,0.3 -53.94,-11.54 -69.71,-39.5 -5.82,-10.36 -11.65,-20.7 -17.51,-31.04z"/>
  <path class="fil1" d="M4822.71 1819.22l402.16 0 -17.86 31.5c-14.6,25.81 -35.48,38.78 -64.96,38.78 -78.31,-0.07 -156.59,-0.17 -234.99,0.12 -31.61,0.14 -52.88,-14.39 -68.24,-41.83l-16.1 -28.57z"/>
  <path class="fil1" d="M2022.17 7744.82c32.45,0.07 61.56,-26.89 62.52,-57.96 0.92,-29.57 -28.93,-60.22 -59.74,-61.3 -33.64,-1.14 -65.68,28.91 -64.95,60.94 0.68,31.04 29.71,58.25 62.16,58.32zm-0.55 218.89c-36.66,0 -73.37,-1.11 -109.98,0.3 -34,1.31 -56.22,-12.99 -72.63,-42.37 -37.47,-67.03 -76.06,-133.43 -115.04,-199.55 -14.22,-23.99 -15.41,-46.3 -1.19,-70.54 39.63,-67.7 78.85,-135.61 117.6,-203.81 15.77,-27.81 39.04,-38.82 70.21,-38.55 74.95,0.61 149.96,0.66 224.93,0.03 31.49,-0.23 53.94,12.19 69.57,39.71 38.67,68.24 78.03,136.11 117.43,203.92 12.98,22.34 13.11,43.57 -0.14,66.13 -40.44,69.06 -80.63,138.4 -120.21,208.07 -14.81,26.12 -35.97,37.4 -65.54,36.79 -38.35,-0.84 -76.65,-0.23 -115,-0.23l0 0.12z"/>
  <path class="fil1" d="M5086.12 8559.06c0.19,-1.48 0.33,-2.96 0.38,-4.44 1.1,-31.76 -30.11,-60.15 -65.17,-59.23 -32.04,0.83 -61.25,29.58 -60.19,59.23 0.05,1.49 0.17,2.97 0.36,4.44l-246.3 0c-1.43,-14.12 2.06,-28.21 10.87,-43.13 40.81,-68.9 80.62,-138.44 120.08,-208.19 13.92,-24.67 34.14,-34.82 61.59,-34.44 38.35,0.56 76.67,0.16 115,0.11 38.31,0 76.67,0.56 114.98,-0.2 29.56,-0.57 50.55,10.74 65.31,37.08 38.43,68.41 77.41,136.53 117.69,203.84 9.34,15.65 12.92,30.31 11.45,44.93l-246.04 0z"/>
  <path class="fil1" d="M2084.68 8559.06c0.19,-1.48 0.33,-2.96 0.38,-4.44 1.1,-31.76 -30.17,-60.15 -65.18,-59.23 -32.04,0.83 -61.25,29.58 -60.19,59.23 0.04,1.49 0.17,2.97 0.36,4.44l-245.87 0c-1.39,-16.15 3.3,-32.06 13.5,-49.01 39.54,-65.8 77.66,-132.49 115.18,-199.48 14.77,-26.35 35.38,-37.95 65.09,-37.37 38.3,0.81 76.65,0.2 115,0.2l0 -0.07c36.66,0 73.36,0.77 109.96,-0.25 31.31,-0.87 53.71,9.94 69.52,38.47 37.3,67.14 75.56,133.75 115.23,199.5 10.06,16.72 14.26,32.31 12.79,48l-245.77 0z"/>
  <path class="fil1" d="M1272.65 5578.42c32.96,-0.33 64.18,-32.28 62.21,-63.57 -1.93,-30.24 -32,-57.12 -63.58,-56.81 -31.09,0.32 -61.53,28.71 -62.35,58.27 -0.96,31.8 30.49,62.46 63.72,62.11zm-0.32 218.85c-40.04,0 -80.08,-0.16 -120.07,0.07 -25.69,0.14 -44.33,-10.51 -57.18,-33.16 -40.5,-71.09 -81.32,-142.03 -122.55,-212.72 -13.07,-22.42 -13.85,-43.72 -0.82,-66.21 40.14,-69.36 79.94,-138.94 119.94,-208.39 12.7,-22.19 32.09,-33.75 57.45,-33.87 81.68,-0.35 163.36,-0.35 245.04,-0.07 25.28,0.07 44.98,11.1 57.83,33.35 39.99,69.41 79.85,138.99 120.02,208.4 12.89,22.3 12.89,43.6 -0.27,66.19 -41.23,70.68 -82.09,141.54 -122.41,212.77 -13.99,24.76 -34.6,34.26 -61.93,33.91 -38.35,-0.56 -76.75,-0.14 -115.05,-0.14l0 -0.12z"/>
  <path class="fil1" d="M7270.98 4710.54c33.72,1.7 66.46,-27.83 66.91,-60.35 0.33,-28.13 -27.68,-58.16 -56.31,-60.17 -35.05,-2.51 -67.8,24.5 -69.62,57.47 -1.59,29.16 28.67,61.53 59.02,63.05zm290.33 -117.35l0 114.21c-34.69,59.36 -69.13,118.87 -102.83,178.78 -16.68,29.61 -40.83,41.89 -74.02,41 -36.69,-0.94 -73.34,-0.21 -110.06,-0.21l0 -0.21c-38.28,0 -76.69,-0.37 -115.04,0.12 -29.42,0.4 -50.94,-11.61 -65.71,-37.37 -38.94,-68.13 -78.17,-136.16 -117.79,-203.86 -14.04,-23.99 -14.46,-46.34 -0.09,-70.6 39.9,-67.59 79.19,-135.52 117.74,-203.9 15.72,-27.87 37.93,-39.58 69.53,-39.2 75,0.89 150.06,0.89 225.06,0.02 31.67,-0.35 53.87,12.01 69.44,39.63 34.18,60.78 68.69,121.35 103.79,181.61z"/>
  <path class="fil1" d="M4272.64 5578.42c33.23,0.25 64.75,-30.45 63.94,-62.11 -0.87,-29.56 -31.36,-58.02 -62.39,-58.27 -31.66,-0.26 -61.71,26.58 -63.63,56.81 -1.97,31.39 29.15,63.31 62.08,63.57zm1.06 218.85c-39.99,0 -80.04,-0.16 -120.03,0.07 -25.75,0.14 -44.35,-10.55 -57.2,-33.23 -40.49,-71.11 -81.26,-142.07 -122.49,-212.7 -13.13,-22.45 -13.71,-43.81 -0.77,-66.23 40.13,-69.39 79.94,-138.96 119.94,-208.45 12.75,-22.16 32.22,-33.67 57.5,-33.77 81.67,-0.32 163.39,-0.32 245.09,-0.05 25.23,0.07 44.96,11.19 57.7,33.42 40.05,69.46 79.85,139.04 120.03,208.4 12.9,22.32 12.85,43.64 -0.3,66.16 -41.28,70.7 -82.15,141.6 -122.42,212.8 -14.04,24.81 -34.68,34.19 -62.02,33.84 -38.35,-0.56 -76.71,-0.14 -115.04,-0.14l0 -0.12z"/>
  <path class="fil1" d="M5772.26 4710.54c33.14,0.77 65.09,-29.41 64.8,-61.17 -0.2,-30.24 -29.69,-59.16 -60.96,-59.79 -33.91,-0.7 -65.55,29.02 -64.87,60.96 0.61,29.95 30.45,59.3 61.04,60zm2.06 -338.26c38.33,0 76.69,0.61 115.05,-0.16 29.74,-0.61 50.46,11.7 65.22,37.58 39.52,69.74 79.85,139.01 120.22,208.26 11.96,20.57 13.48,40.76 1.45,61.62 -40.87,70.83 -81.81,141.63 -122.59,212.58 -13.9,24.06 -34.82,34.66 -62.13,34.59 -78.38,-0.19 -156.73,-0.19 -235.06,-0.05 -27.38,0.09 -48.09,-10.81 -61.94,-34.85 -40,-69.44 -79.94,-138.94 -120.43,-208.09 -14.32,-24.43 -12.17,-46.74 1.92,-70.58 38.99,-66.13 77.65,-132.52 115.14,-199.58 16.54,-29.58 39.43,-42.96 73.18,-41.74 36.6,1.36 73.3,0.32 109.97,0.32l0 0.09z"/>
  <path class="fil1" d="M7278.93 5457.99c-33.74,-1.55 -66.37,26.96 -67.09,58.55 -0.7,29.56 28.74,60.38 59.04,61.88 34.19,1.73 65.31,-25.67 66.86,-58.91 1.38,-28.95 -28.41,-60.09 -58.81,-61.52zm282.37 2.68l0 113.54c-36.11,61.28 -71.56,122.97 -106.37,185.02 -14.58,26.11 -34.54,38.96 -64.54,38.33 -38.29,-0.8 -76.69,-0.21 -115.05,-0.26 -40,-0.02 -80.04,-0.19 -120.08,0.05 -25.63,0.19 -44.33,-10.34 -57.27,-33.04 -40.44,-71.1 -81.13,-142.12 -122.54,-212.68 -14.44,-24.59 -12.43,-47.06 1.33,-70.7 38.61,-66.44 76.93,-133.02 114.86,-199.83 14.58,-25.69 35.88,-38.62 65.18,-38.62 78.42,0.05 156.78,0 235.13,-0.02 29.21,-0.04 50.96,11.98 65.67,37.84 34.28,60.27 68.69,120.48 103.67,180.38z"/>
  <path class="fil1" d="M4274.86 4710.54c31.05,-0.65 61.43,-30.65 61.57,-60.7 0.05,-30.71 -30.03,-60.03 -61.65,-59.94 -33.88,0.07 -66.56,32.02 -64.28,62.96 2.2,31.15 32.55,58.34 64.35,57.69zm-2.56 -338.26c11.99,-0.02 23.97,0.05 35.95,0.12 26.38,0.17 52.75,0.33 79.1,-0.35 31.85,-0.86 53.61,12.69 69.06,40.16 38.5,68.41 77.48,136.53 116.91,204.33 13.08,22.49 13.72,43.69 0.66,66.13 -40.32,69.3 -80.31,138.78 -120.26,208.26 -13.71,23.8 -33.82,35.83 -61.44,35.76 -79.99,-0.19 -160.07,-0.11 -240.06,-0.25 -25.51,-0.05 -44.84,-11.38 -57.63,-33.47 -40.96,-70.81 -81.87,-141.66 -122.82,-212.49 -11.96,-20.74 -11.52,-40.91 0.6,-61.64 41.17,-70.7 82.17,-141.47 122.87,-212.5 13.92,-24.39 34.59,-34.52 62.02,-34.12 38.36,0.49 76.69,0.11 115.04,0.07z"/>
  <path class="fil1" d="M5777.25 8059.07c-34.43,-0.74 -67.09,29.53 -66.07,61.26 1.01,30.64 31.32,59.35 62.72,59.39 31.54,0.07 61.9,-28.29 63.21,-58.95 1.33,-29.95 -28.88,-61.07 -59.86,-61.7zm-5.64 337.01c-36.69,0 -73.3,-0.56 -110.01,0.19 -31.36,0.58 -54.15,-11.56 -69.83,-39.25 -38.75,-68.24 -77.97,-136.2 -117.59,-203.95 -14.28,-24.41 -12.27,-46.76 1.82,-70.6 38.99,-66.15 77.65,-132.54 115.14,-199.58 16.5,-29.53 39.34,-42.41 73.08,-41.9 73.3,1.17 146.67,1.17 220.03,0 33.77,-0.51 56.54,12.51 73.04,42.02 37.54,67.05 75.93,133.56 115.19,199.55 15.59,26.14 14.35,49.54 -0.63,75.07 -38.13,64.73 -75.96,129.67 -112.54,195.32 -17.5,31.41 -42.38,44.7 -77.65,43.53 -36.67,-1.2 -73.37,-0.26 -110.04,-0.26l0 -0.15z"/>
  <path class="fil1" d="M821.51 5985.05l0 -67.85c12.36,23.04 12.74,44.45 0,67.85z"/>
  <path class="fil1" d="M7275 3843.8c33.04,-0.07 64.41,-31.43 62.88,-62.95 -1.45,-29.98 -31.71,-57.54 -63.02,-57.43 -31.36,0.09 -61.62,27.87 -62.95,57.67 -1.4,31.63 29.91,62.76 63.09,62.71zm286.31 -117.8l0 113.5c-36.87,62.64 -73,125.8 -108.77,189.1 -14,24.69 -34.28,34.63 -61.76,34.31 -39.99,-0.57 -80.04,-0.17 -120.03,-0.17 -36.7,0 -73.42,-0.56 -110.06,0.21 -29.58,0.61 -50.36,-10.76 -65.18,-37.21 -38.35,-68.48 -77.39,-136.63 -117.62,-203.95 -16.66,-27.92 -14.93,-52.72 0.96,-79.71 37.35,-63.32 74.09,-126.98 109.95,-191.12 16.31,-29.28 39.29,-43.63 72.7,-43.43 75.1,0.44 150.11,0.39 225.16,-0.1 33.04,-0.2 57.01,12.57 73.56,42.12 33.05,59.17 66.91,117.92 101.1,176.44z"/>
  <path class="fil1" d="M3524.48 5890.95c-31.68,-0.54 -61.9,26.49 -63.88,57.22 -1.94,29.33 27.54,60.55 58.55,62.04 34.72,1.69 66.19,-26.42 66.3,-59.19 0.09,-29.82 -30.02,-59.46 -60.96,-60.07zm-2.45 338.14c-34.99,0 -70,-1.17 -104.96,0.38 -35.34,1.56 -60.05,-11.02 -77.6,-42.78 -37.21,-67.17 -75.91,-133.46 -115,-199.53 -14.23,-24.13 -14.91,-46.43 -0.8,-70.61 39.64,-67.68 78.78,-135.64 117.67,-203.76 14.67,-25.6 35.74,-38.15 65.36,-38.01 78.3,0.44 156.58,0.28 234.93,0.17 27.48,-0.03 47.77,11.65 61.57,35.52 39.9,69.43 79.9,138.84 120.2,208.07 13.04,22.37 12.7,43.62 -0.44,66.06 -40.53,69.11 -80.67,138.4 -120.22,208.09 -14.91,26.24 -36.29,37.12 -65.71,36.47 -38.31,-0.8 -76.71,-0.15 -115,-0.15l0 0.07z"/>
  <path class="fil1" d="M5775.19 3843.8c32.91,-0.46 63.98,-32.6 61.78,-63.91 -2.08,-30.35 -32.13,-56.94 -63.84,-56.47 -30.98,0.4 -61.38,29.11 -62.01,58.62 -0.7,31.95 30.7,62.2 64.07,61.76zm-3.89 218.93c-38.36,0 -76.71,-0.38 -115.04,0.09 -27.89,0.42 -47.04,-11.59 -60.75,-35.95 -39.36,-69.81 -79.39,-139.29 -119.98,-208.4 -14.21,-24.2 -14.21,-46.69 -0.24,-70.72 39.46,-67.81 78.5,-135.94 117.48,-204.05 13.76,-24.03 34.54,-35.63 61.72,-35.66 80.04,-0.19 160.04,-0.14 240.04,0.03 27.33,0.09 47.74,12.28 61.43,36.2 38.97,68.15 77.96,136.25 117.44,204.11 14.04,24.18 13.24,46.62 -0.92,70.68 -40.58,69.13 -80.57,138.59 -120.03,208.43 -13.8,24.45 -33.32,35.76 -61.06,35.39 -40.04,-0.52 -80.08,-0.14 -120.08,-0.14z"/>
  <path class="fil1" d="M6520.76 6010.17c34.66,1.66 66.23,-26.62 66.19,-59.33 -0.05,-29.87 -30.21,-59.37 -61.2,-59.89 -31.61,-0.49 -61.83,26.7 -63.68,57.38 -1.83,29.61 27.38,60.35 58.69,61.83zm3.65 218.67c-39.99,0 -79.94,-0.19 -119.96,0.07 -25.69,0.19 -44.53,-10.53 -57.38,-32.97 -40.76,-70.96 -81.67,-141.7 -122.96,-212.35 -11.95,-20.54 -13.67,-40.72 -1.59,-61.59 40.82,-70.8 81.77,-141.58 122.54,-212.49 13.85,-24.08 34.75,-34.63 62.09,-34.59 78.28,0.16 156.63,0.32 234.93,-0.05 29.84,-0.15 50.27,13.57 64.8,38.96 38.07,66.63 76.24,133.23 115.28,199.36 15.14,25.58 16.01,48.98 0.42,75.06 -39.27,65.94 -77.72,132.41 -115.09,199.44 -16.55,29.65 -39.31,42.99 -73.04,41.7 -36.63,-1.36 -73.31,-0.28 -110.04,-0.28l0 -0.26z"/>
  <path class="fil1" d="M4275.33 3843.8c31.17,-0.8 60.23,-29.3 61,-59.86 0.75,-31.24 -31.43,-61.33 -64.8,-60.49 -30.85,0.77 -61.06,30.19 -61.06,59.46 0,32.46 31.17,61.73 64.85,60.89zm-0.59 218.95c-38.41,0.05 -76.71,-0.56 -115.04,0.26 -29.54,0.63 -50.57,-10.34 -65.41,-36.79 -38.35,-68.47 -77.4,-136.59 -117.62,-203.99 -16.64,-27.8 -15.54,-52.57 0.52,-79.71 37.3,-63.28 74.23,-126.89 109.78,-191.15 17.51,-31.54 42.64,-44.39 77.67,-44.07 71.66,0.69 143.34,0.87 215,-0.14 37.02,-0.52 63.21,12.8 81.58,46.24 35.29,64.4 72.41,127.85 109.57,191.24 14.95,25.51 16.07,49.12 0.63,75.24 -40.86,68.96 -80.67,138.54 -120.15,208.35 -13.9,24.59 -33.93,35.05 -61.48,34.68 -38.35,-0.57 -76.67,-0.17 -115.05,-0.17z"/>
  <path class="fil1" d="M2771.73 3843.8c33.32,0.38 64.81,-30.05 64.04,-61.92 -0.69,-29.49 -31.13,-58.18 -62.07,-58.46 -31.77,-0.3 -61.76,26.3 -63.81,56.59 -2.15,31.36 28.84,63.4 61.85,63.8zm1.65 218.95c-38.35,0.05 -76.75,-0.58 -115.05,0.21 -29.67,0.68 -50.32,-10.95 -65.13,-37.33 -37.53,-67.03 -75.69,-133.7 -115.23,-199.55 -17.33,-28.88 -18.88,-54.81 -1.33,-84.18 37.71,-63.07 74.18,-126.93 109.97,-191.06 16.37,-29.3 39.45,-43.55 72.91,-43.31 75.01,0.44 150.02,0.39 225.11,-0.1 33.04,-0.2 56.95,12.76 73.45,42.24 36.66,65.62 74.33,130.7 112.26,195.55 14.99,25.61 15.44,49.2 0.04,75.22 -40.81,68.94 -80.63,138.54 -120.16,208.3 -13.98,24.72 -34.37,34.54 -61.84,34.17 -38.31,-0.54 -76.65,-0.17 -115,-0.17z"/>
  <path class="fil1" d="M1270.22 3843.85c33.59,0.69 64.91,-28.88 64.77,-61.12 -0.13,-29.35 -30.44,-58.7 -61.25,-59.31 -33.36,-0.63 -65.59,29.61 -64.67,60.78 0.92,30.75 29.85,58.9 61.16,59.65zm2.56 218.91c-38.35,0.05 -76.7,-0.58 -115,0.26 -29.66,0.63 -50.37,-10.81 -65.22,-37.24 -38.3,-68.47 -77.38,-136.59 -117.61,-203.97 -16.68,-27.89 -14.94,-52.68 1.01,-79.71 37.29,-63.3 74.04,-126.98 109.88,-191.1 16.32,-29.23 39.31,-43.65 72.77,-43.46 75.06,0.44 150.06,0.39 225.11,-0.1 33.05,-0.2 57.04,12.57 73.55,42.12 36.7,65.6 74.27,130.69 112.26,195.53 14.99,25.6 15.59,49.19 0.19,75.24 -40.81,68.92 -80.68,138.52 -120.12,208.28 -13.98,24.71 -34.28,34.68 -61.76,34.31 -38.3,-0.57 -76.69,-0.17 -115.04,-0.17z"/>
  <path class="fil1" d="M2773.88 2975.93c31.13,-0.54 61.47,-30.19 61.79,-60.43 0.32,-30.59 -29.8,-60.19 -61.34,-60.24 -33.96,-0.07 -66.59,31.64 -64.58,62.67 2.01,31.04 32.41,58.55 64.13,57.99zm3.65 216.42c-38.35,0 -76.7,-0.72 -115,0.21 -33.32,0.87 -57.09,-12.06 -73.68,-41.54 -37.66,-66.93 -76.24,-133.35 -115,-199.63 -13.99,-23.96 -14.86,-46.26 -0.51,-70.62 39.91,-67.56 79.16,-135.53 117.74,-203.86 15.63,-27.78 37.57,-39.95 69.24,-39.57 75.01,0.89 150.06,0.89 225.07,0 31.76,-0.38 53.48,12.15 69.11,39.85 38.48,68.39 77.84,136.28 117.69,203.88 14.4,24.43 13.16,46.76 -0.78,70.61 -38.76,66.27 -77.38,132.71 -115.05,199.62 -16.64,29.54 -40.54,42.19 -73.82,41.26 -35,-0.94 -70.02,-0.21 -105.03,-0.21z"/>
  <path class="fil1" d="M5775.1 2975.93c31.22,-0.45 61.47,-29.81 62.01,-60.15 0.56,-30.42 -29.6,-60.31 -61.1,-60.52 -33.91,-0.2 -66.65,31.26 -64.83,62.44 1.85,30.96 32.27,58.67 63.92,58.23zm-1.53 -338.26c38.36,0 76.71,0.58 115.05,-0.19 29.53,-0.61 50.73,10.93 65.55,36.98 39.59,69.69 79.76,139.03 120.31,208.19 13.2,22.56 12.84,43.83 -0.15,66.13 -40.32,69.28 -80.31,138.69 -120.31,208.12 -13.78,23.96 -34.26,35.3 -61.73,35.2 -78.4,-0.15 -156.75,-0.24 -235.08,0.14 -29.77,0.16 -50.46,-13.02 -65.03,-38.54 -38.97,-68.1 -78.07,-136.14 -117.76,-203.86 -14.15,-24.27 -12.91,-46.62 1.24,-70.6 39.04,-66.14 77.65,-132.56 115.09,-199.61 16.45,-29.37 38.9,-43.61 72.81,-42.35 36.62,1.36 73.32,0.3 110.01,0.3l0 0.09z"/>
  <path class="fil1" d="M5025.84 3408.5c31.64,-0.89 61.81,-31.33 60.47,-61.03 -1.4,-31.41 -30.61,-56.66 -64.61,-55.91 -32.64,0.72 -62.08,30.02 -60.47,60.09 1.64,30.91 32.18,57.73 64.61,56.84zm0.75 -338.84c38.24,0 76.6,0.38 114.96,-0.11 27.78,-0.4 47.02,11.44 60.77,35.8 39.41,69.79 79.36,139.22 119.98,208.28 14.23,24.25 14.28,46.69 0.29,70.7 -39.5,67.75 -78.66,135.76 -117.55,203.9 -13.76,24.2 -34.43,35.58 -61.53,35.63 -79.99,0.23 -159.98,0.09 -239.97,0.11 -29.81,0 -49.5,-14.93 -63.96,-40.35 -36.16,-63.98 -72.43,-127.84 -110.35,-190.75 -18.58,-30.82 -17.67,-57.92 0.89,-88.56 38.9,-64.21 76.22,-129.44 112.71,-195.15 15.59,-28.08 36.93,-40.79 68.71,-39.88 38.28,1.1 76.69,0.26 115.04,0.26l0 0.11z"/>
  <path class="fil1" d="M2024.73 3291.56c-33.87,-0.87 -62.21,22.93 -64.77,54.36 -2.47,30.93 29.16,62.65 62.44,62.57 31.4,-0.04 61.66,-27.92 62.66,-57.76 0.96,-29.65 -28.29,-58.38 -60.33,-59.18zm-1.33 -222.02c36.7,-0.03 73.36,0.81 110.02,-0.26 31.45,-0.91 53.57,10.46 69.3,38.89 37.3,67.09 75.74,133.61 115.04,199.55 16.14,27.11 18.47,51.83 1.97,79.69 -39.17,66.02 -77.2,132.74 -115.24,199.44 -13.62,23.94 -33.28,36.9 -60.74,36.98 -79.98,0.19 -160.02,0.12 -239.96,0.26 -29.48,0.04 -50.18,-13.25 -64.77,-39.04 -37.02,-65.37 -74.45,-130.49 -112.67,-195.18 -16.04,-27.05 -17.46,-51.79 -0.82,-79.67 40.27,-67.31 79.26,-135.43 117.61,-203.85 14.81,-26.47 35.74,-37.59 65.31,-36.96 38.3,0.8 76.65,0.19 114.95,0.15z"/>
  <path class="fil1" d="M821.51 5117.48l0 -67.26c11.38,23.05 11.27,44.34 0,67.26z"/>
  <path class="fil1" d="M3523.53 5026.17c-33.1,-0.14 -61.97,25.67 -63.03,56.35 -0.96,29.14 28.93,59.56 59.61,60.61 33.76,1.15 66.04,-28.27 65.57,-59.77 -0.39,-30.24 -29.48,-57.06 -62.15,-57.19zm0.58 -222.02c11.4,0 22.8,0.07 34.22,0.14 25.25,0.17 50.55,0.33 75.77,-0.4 31.43,-0.91 53.57,10.44 69.37,38.83 37.25,67.11 75.75,133.63 115,199.63 16.15,27.07 18.53,51.79 2.02,79.59 -39.15,66.09 -77.19,132.78 -115.22,199.5 -13.62,23.94 -33.23,36.93 -60.75,37 -79.99,0.19 -159.98,0.12 -239.97,0.26 -29.49,0.04 -50.22,-13.2 -64.82,-38.99 -36.98,-65.36 -74.44,-130.49 -112.66,-195.2 -15.96,-27.04 -17.46,-51.79 -0.82,-79.64 40.24,-67.35 79.27,-135.43 117.55,-203.88 14.87,-26.45 35.76,-37.61 65.31,-36.98 38.31,0.77 76.67,0.19 115,0.14z"/>
  <path class="fil1" d="M7276.55 2109.2c31.31,-0.7 60.28,-28.95 61.24,-59.58 0.96,-31.15 -31.31,-61.5 -64.52,-60.78 -30.96,0.69 -61.18,29.89 -61.36,59.21 -0.21,32.34 31.06,61.87 64.64,61.15zm-189.15 -289.98l375 0c32.58,57.67 65.51,115.17 98.91,172.36l0 113.55c-35.23,60.19 -69.97,120.72 -103.74,181.72 -16.43,29.61 -39.02,43.04 -72.78,41.78 -38.22,-1.45 -76.5,-0.35 -114.72,-0.35l0 -0.07c-36.63,0 -73.23,-0.63 -109.81,0.16 -29.6,0.68 -50.12,-11.09 -64.84,-37.35 -38.31,-68.29 -77.44,-136.06 -117.24,-203.48 -15.03,-25.44 -17.14,-48.98 -1.93,-75.03 37.59,-64.1 74.57,-128.58 111.15,-193.28z"/>
  <path class="fil1" d="M5773.41 2109.22c33.23,0.31 64.75,-30.39 63.84,-62.13 -0.82,-29.53 -31.32,-58.04 -62.3,-58.25 -31.67,-0.25 -61.71,26.56 -63.68,56.83 -1.96,31.43 29.14,63.23 62.14,63.56zm-186.42 -290l374.65 0c36.67,64.5 73.46,128.88 110.97,192.89 15.17,25.95 13.63,49.49 -1.47,75 -39.85,67.4 -78.93,135.22 -117.22,203.5 -14.67,26.15 -34.89,38.39 -64.63,37.75 -39.9,-0.8 -79.85,-0.16 -119.75,-0.16l0 -0.12c-38.26,0 -76.48,-0.21 -114.79,0.07 -25.53,0.2 -44.61,-10 -57.45,-32.58 -41.22,-72.33 -82.64,-144.6 -124.27,-216.73 -12.03,-20.85 -11.49,-41.05 0.31,-61.5 37.93,-66.01 75.87,-132.03 113.67,-198.13z"/>
  <path class="fil1" d="M1270.5 2109.2c33.51,0.59 64.91,-29.33 64.54,-61.41 -0.36,-29.39 -30.71,-58.46 -61.61,-58.96 -33.86,-0.56 -65.45,29.42 -64.31,61.06 1.14,30.94 29.94,58.74 61.38,59.3zm-186.09 -289.98l375.3 0c35.35,63.17 71.5,125.83 108.22,188.13 15.81,26.91 17.87,51.6 1.33,79.52 -39.17,65.83 -77.11,132.44 -114.27,199.44 -16.32,29.41 -38.53,43.64 -72.5,42.29 -36.52,-1.48 -73.18,-0.33 -109.74,-0.38 -38.26,-0.02 -76.52,-0.63 -114.77,0.19 -29.48,0.59 -50.37,-10.44 -65.18,-36.83 -38.26,-68.29 -77.29,-136.22 -117.33,-203.46 -16.45,-27.52 -16.22,-52.21 -0.13,-79.5 37.05,-62.72 73.28,-125.91 109.08,-189.39z"/>
  <path class="fil1" d="M2773.42 2109.22c32.91,-0.32 64.17,-32.27 62.16,-63.6 -1.92,-30.26 -32,-57.15 -63.58,-56.78 -31.13,0.33 -61.52,28.76 -62.39,58.25 -0.92,31.87 30.49,62.42 63.81,62.13zm-187.94 -290l374.69 0c36.58,64.43 73.54,128.61 110.76,192.7 13.76,23.64 15.59,46.03 1.19,70.53 -41.32,70.35 -81.95,141.15 -122.22,212.17 -13.99,24.74 -34.56,34.05 -61.85,33.68 -38.26,-0.54 -76.47,-0.14 -114.77,-0.09 -38.21,0 -76.51,-0.63 -114.72,0.21 -29.53,0.68 -50.65,-10.56 -65.36,-36.72 -39.17,-69.69 -78.94,-139.1 -119.3,-208.09 -14.17,-24.22 -13.89,-46.61 0,-70.53 37.53,-64.43 74.54,-129.15 111.59,-193.85z"/>
  <path class="fil1" d="M4273.85 2109.22c33.07,-0.26 64.29,-31.94 62.48,-63.3 -1.73,-30.17 -31.9,-57.33 -63.35,-57.08 -31.17,0.21 -61.59,28.39 -62.6,58.02 -1.1,31.78 30.3,62.55 63.46,62.36zm-187.95 -290l375.1 0c35.73,63.28 71.87,126.3 108.78,188.86 16.05,27.15 16.97,51.81 0.47,79.54 -39.13,65.81 -77.11,132.39 -114.22,199.41 -16.45,29.68 -39.22,42.87 -72.93,41.57 -36.5,-1.43 -73.13,-0.33 -109.74,-0.33l0 -0.23c-39.95,0 -79.8,-0.14 -119.74,0.09 -25.65,0.14 -44.26,-10.46 -57.11,-33.07 -40.35,-70.93 -80.9,-141.77 -122.2,-212.14 -14.37,-24.39 -13.13,-46.81 0.68,-70.56 37.33,-64.15 74.42,-128.51 110.92,-193.14z"/>
  <path class="fil1" d="M6525.31 5143.1c31.27,-0.32 61.59,-29.02 61.97,-58.55 0.47,-31.97 -30.84,-59.63 -66.04,-58.35 -31.88,1.1 -60.85,30.5 -59.28,60.03 1.64,30.3 31.66,57.26 63.35,56.86zm-5.69 215.72c-36.69,0 -73.35,-0.33 -110.02,0.07 -31.31,0.33 -53.57,-12.59 -69.15,-40.37 -36.79,-65.51 -74.28,-130.56 -112.57,-195.2 -16.24,-27.4 -15.92,-52.16 0.49,-79.66 40.24,-67.4 79.13,-135.55 117.64,-203.86 13.81,-24.39 33.15,-35.83 60.94,-35.68 78.31,0.39 156.63,0.37 234.98,0 27.78,-0.15 47.18,11.11 60.96,35.54 39.41,69.81 79.41,139.24 119.94,208.31 14.28,24.15 14.67,46.59 0.61,70.65 -39.5,67.8 -78.64,135.8 -117.48,203.97 -13.76,24.11 -34.1,35.83 -61.38,35.95 -41.63,0.14 -83.31,0.05 -124.97,0.05l0 0.23z"/>
 </g>
</svg>
