<?xml version="1.0" encoding="UTF-8"?>
<!DOCTYPE svg PUBLIC "-//W3C//DTD SVG 1.1//EN" "http://www.w3.org/Graphics/SVG/1.1/DTD/svg11.dtd">
<!-- Creator: CorelDRAW 2017 -->
<svg xmlns="http://www.w3.org/2000/svg" xml:space="preserve" width="811389mm" height="1.05003E+06mm" version="1.1" style="shape-rendering:geometricPrecision; text-rendering:geometricPrecision; image-rendering:optimizeQuality; fill-rule:evenodd; clip-rule:evenodd"
viewBox="0 0 81138888.89 105003267.97"
 xmlns:xlink="http://www.w3.org/1999/xlink">
 <defs>
  <style type="text/css">
   <![CDATA[
    .fil1 {fill:#F9EEE7;fill-rule:nonzero}
    .fil0 {fill:#F4E0DB;fill-rule:nonzero}
    .fil2 {fill:#E1ECED;fill-rule:nonzero}
    .fil3 {fill:#BCD8D9;fill-rule:nonzero}
   ]]>
  </style>
 </defs>
 <g id="Layer_x0020_1">
  <metadata id="CorelCorpID_0Corel-Layer"/>
  <polygon class="fil0" points="59908573.53,4955635.62 55023516.34,4955635.62 50138346.41,9098754.9 45253176.47,4955635.62 40368119.28,4955635.62 50138346.41,13241874.18 "/>
  <polygon class="fil0" points="84767401.96,4955635.62 79882232.03,4955635.62 74997099.67,9098754.9 70111929.74,4955635.62 65226872.55,4955635.62 74997099.67,13241874.18 "/>
  <polygon class="fil0" points="5306047.39,4955635.62 420877.45,9098754.9 420877.45,13241874.18 10191104.58,4955635.62 "/>
  <polygon class="fil0" points="35049857.84,4955635.62 30164763.07,4955635.62 25279630.72,9098754.9 20394460.78,4955635.62 15509403.59,4955635.62 25279630.72,13241874.18 "/>
  <polygon class="fil1" points="74997099.67,17384993.46 62567704.25,6843251.63 50138346.41,17384993.46 37708988.56,6843251.63 25279630.72,17384993.46 12850235.29,6843251.63 420877.45,17384993.46 420877.45,21528150.33 12850235.29,10986370.92 25279630.72,21528150.33 37708988.56,10986370.92 50138346.41,21528150.33 62567704.25,10986370.92 74997099.67,21528150.33 87426457.52,10986370.92 99855815.36,21528150.33 99855815.36,17384993.46 87426457.52,6843251.63 "/>
  <polygon class="fil2" points="74997099.67,25671269.61 62567704.25,15129490.2 50138346.41,25671269.61 37708988.56,15129490.2 25279630.72,25671269.61 12850235.29,15129490.2 420877.45,25671269.61 420877.45,29814351.31 12850235.29,19272609.48 25279630.72,29814351.31 37708988.56,19272609.48 50138346.41,29814351.31 62567704.25,19272609.48 74997099.67,29814351.31 87426457.52,19272609.48 99855815.36,29814351.31 99855815.36,25671269.61 87426457.52,15129490.2 "/>
  <polygon class="fil3" points="74997099.67,33957470.59 62567704.25,23415991.83 50138346.41,33957470.59 37708988.56,23415991.83 25279630.72,33957470.59 12850235.29,23415991.83 420877.45,33957470.59 420877.45,38100589.87 12850235.29,27559111.11 25279630.72,38100589.87 37708988.56,27559111.11 50138346.41,38100589.87 62567704.25,27559111.11 74997099.67,38100589.87 87426457.52,27559111.11 99855815.36,38100589.87 99855815.36,33957470.59 87426457.52,23415991.83 "/>
  <polygon class="fil1" points="74997099.67,42243746.73 62567704.25,31702230.39 50138346.41,42243746.73 37708988.56,31702230.39 25279630.72,42243746.73 12850235.29,31702230.39 420877.45,42243746.73 420877.45,46386866.01 12850235.29,35845349.67 25279630.72,46386866.01 37708988.56,35845349.67 50138346.41,46386866.01 62567704.25,35845349.67 74997099.67,46386866.01 87426457.52,35845349.67 99855815.36,46386866.01 99855815.36,42243746.73 87426457.52,31702230.39 "/>
  <polygon class="fil3" points="74997099.67,50529985.29 62567704.25,39988544.12 50138346.41,50529985.29 37708988.56,39988544.12 25279630.72,50529985.29 12850235.29,39988544.12 420877.45,50529985.29 420877.45,54673104.58 12850235.29,44131588.24 25279630.72,54673104.58 37708988.56,44131588.24 50138346.41,54673104.58 62567704.25,44131588.24 74997099.67,54673104.58 87426457.52,44131588.24 99855815.36,54673104.58 99855815.36,50529985.29 87426457.52,39988544.12 "/>
  <polygon class="fil2" points="74997099.67,58816223.86 62567704.25,48274707.52 50138346.41,58816223.86 37708988.56,48274707.52 25279630.72,58816223.86 12850235.29,48274707.52 420877.45,58816223.86 420877.45,62959343.14 12850235.29,52417826.8 25279630.72,62959343.14 37708988.56,52417826.8 50138346.41,62959343.14 62567704.25,52417826.8 74997099.67,62959343.14 87426457.52,52417826.8 99855815.36,62959343.14 99855815.36,58816223.86 87426457.52,48274707.52 "/>
  <polygon class="fil2" points="74997099.67,67102462.42 62567704.25,56560946.08 50138346.41,67102462.42 37708988.56,56560946.08 25279630.72,67102462.42 12850235.29,56560946.08 420877.45,67102462.42 420877.45,71245581.7 12850235.29,60704178.1 25279630.72,71245581.7 37708988.56,60704178.1 50138346.41,71245581.7 62567704.25,60704178.1 74997099.67,71245581.7 87426457.52,60704178.1 99855815.36,71245581.7 99855815.36,67102462.42 87426457.52,56560946.08 "/>
  <polygon class="fil1" points="74997099.67,75388700.98 62567704.25,64847184.64 50138346.41,75388700.98 37708988.56,64847184.64 25279630.72,75388700.98 12850235.29,64847184.64 420877.45,75388700.98 420877.45,79531820.26 12850235.29,68990341.5 25279630.72,79531820.26 37708988.56,68990341.5 50138346.41,79531820.26 62567704.25,68990341.5 74997099.67,79531820.26 87426457.52,68990341.5 99855815.36,79531820.26 99855815.36,75388700.98 87426457.52,64847184.64 "/>
  <polygon class="fil1" points="74997099.67,83674939.54 62567704.25,73133460.78 50138346.41,83674939.54 37708988.56,73133460.78 25279630.72,83674939.54 12850235.29,73133460.78 420877.45,83674939.54 420877.45,87818058.82 12850235.29,77276580.07 25279630.72,87818058.82 37708988.56,77276580.07 50138346.41,87818058.82 62567704.25,77276580.07 74997099.67,87818058.82 87426457.52,77276580.07 99855815.36,87818058.82 99855815.36,83674939.54 87426457.52,73133460.78 "/>
  <polygon class="fil2" points="74997099.67,91961215.69 62567704.25,81419699.35 50138346.41,91961215.69 37708988.56,81419699.35 25279630.72,91961215.69 12850235.29,81419699.35 420877.45,91961215.69 420877.45,96104334.97 12850235.29,85562781.05 25279630.72,96104334.97 37708988.56,85562781.05 50138346.41,96104334.97 62567704.25,85562781.05 74997099.67,96104334.97 87426457.52,85562781.05 99855815.36,96104334.97 99855815.36,91961215.69 87426457.52,81419699.35 "/>
  <polygon class="fil3" points="74997099.67,100247454.25 62567704.25,89705674.84 50138346.41,100247454.25 37708988.56,89705674.84 25279630.72,100247454.25 12850235.29,89705674.84 420877.45,100247454.25 420877.45,104390573.53 12850235.29,93848794.12 25279630.72,104390573.53 37708988.56,93848794.12 50138346.41,104390573.53 62567704.25,93848794.12 74997099.67,104390573.53 87426457.52,93848794.12 99855815.36,104390573.53 99855815.36,100247454.25 87426457.52,89705674.84 "/>
  <polygon class="fil0" points="79882232.03,104390573.53 84767401.96,104390573.53 87426457.52,102135070.26 90085513.07,104390573.53 94971058.82,104390573.53 87426457.52,97991950.98 "/>
  <polygon class="fil0" points="30164763.07,104390573.53 35049857.84,104390573.53 37708988.56,102135070.26 40368119.28,104390573.53 45253176.47,104390573.53 37708988.56,97991950.98 "/>
  <polygon class="fil0" points="5306047.39,104390573.53 10191104.58,104390573.53 12850235.29,102135070.26 15509403.59,104390573.53 20394460.78,104390573.53 12850235.29,97991950.98 "/>
  <polygon class="fil0" points="55023516.34,104390573.53 59908573.53,104390573.53 62567704.25,102135070.26 65226872.55,104390573.53 70111929.74,104390573.53 62567704.25,97991950.98 "/>
 </g>
</svg>
