<?xml version="1.0" encoding="UTF-8"?>
<!DOCTYPE svg PUBLIC "-//W3C//DTD SVG 1.1//EN" "http://www.w3.org/Graphics/SVG/1.1/DTD/svg11.dtd">
<!-- Creator: CorelDRAW 2017 -->
<svg xmlns="http://www.w3.org/2000/svg" xml:space="preserve" width="215.9mm" height="279.4mm" version="1.1" style="shape-rendering:geometricPrecision; text-rendering:geometricPrecision; image-rendering:optimizeQuality; fill-rule:evenodd; clip-rule:evenodd"
viewBox="0 0 21590 27940"
 xmlns:xlink="http://www.w3.org/1999/xlink">
 <defs>
  <style type="text/css">
   <![CDATA[
    .str0 {stroke:#685681;stroke-width:17.64;stroke-miterlimit:22.9256}
    .fil0 {fill:#4A235D}
    .fil1 {fill:#79C9E8;fill-rule:nonzero}
   ]]>
  </style>
 </defs>
 <g id="Layer_x0020_1">
  <metadata id="CorelCorpID_0Corel-Layer"/>
  <rect class="fil0 str0" x="780.82" y="3277.44" width="20587.64" height="20486.99"/>
  <g id="_2387677794464">
   <path class="fil1" d="M1636.92 21949.28c93.19,92.22 96.08,238.9 6.42,327.56 -89.65,88.68 -237.9,85.87 -331.11,-6.35l-488.12 -482.91 0 -343.38c90.42,-77.61 230.19,-71.27 319.5,17.04l493.31 488.04z"/>
   <path class="fil1" d="M2336.47 22567.24c114.72,113.49 118.24,293.98 7.91,403.13 -110.36,109.15 -292.8,105.67 -407.51,-7.81 -114.73,-113.5 -118.28,-293.99 -7.91,-403.16 110.35,-109.17 292.78,-105.68 407.51,7.84z"/>
   <path class="fil1" d="M2830.59 23771.46c-79.7,-92.51 -77.97,-228.86 7.13,-313.01 89.65,-88.73 237.88,-85.87 331.09,6.32l310 306.69 -648.22 0z"/>
   <path class="fil1" d="M824.11 22751.2l510.17 504.71c96.39,95.34 101.85,244.59 12.2,333.29 -89.65,88.66 -240.48,83.22 -336.89,-12.09l-185.48 -183.5 0 -642.41z"/>
   <path class="fil1" d="M1165.23 19728.41c89.66,88.68 89.66,232.52 0,321.2 -89.66,88.71 -235.04,88.71 -324.68,0l-16.44 -16.26 0 -642.41 341.12 337.47z"/>
   <path class="fil1" d="M2306.9 20857.84c89.65,88.71 89.65,232.51 0,321.24 -89.64,88.68 -235.01,88.68 -324.68,0l-474.51 -469.48c-89.66,-88.69 -89.66,-232.5 0,-321.19 89.65,-88.7 235.02,-88.7 324.68,0l474.51 469.43z"/>
   <path class="fil1" d="M2981.26 21450.83c110.33,109.2 110.33,286.16 0,395.35 -110.37,109.17 -289.27,109.17 -399.62,0 -110.34,-109.19 -110.34,-286.15 0,-395.35 110.35,-109.16 289.25,-109.16 399.62,0z"/>
   <path class="fil1" d="M4602.71 23771.46l-1146.91 -1134.64c-89.68,-88.68 -89.68,-232.53 0,-321.21 89.63,-88.68 234.98,-88.68 324.67,0l1471.6 1455.85 -649.36 0z"/>
   <path class="fil1" d="M2966.04 18149.66c93.21,92.19 96.08,238.86 6.44,327.53 -89.67,88.74 -237.92,85.87 -331.12,-6.35l-1817.25 -1797.76 0 -642.4 2141.93 2118.98z"/>
   <path class="fil1" d="M4152.94 19323.84c93.21,92.22 96.09,238.85 6.43,327.58 -89.66,88.69 -237.9,85.85 -331.1,-6.37l-493.33 -488.05c-93.22,-92.19 -96.1,-238.85 -6.43,-327.59 89.65,-88.67 237.89,-85.81 331.11,6.39l493.32 488.04z"/>
   <path class="fil1" d="M4852.49 19941.77c114.73,113.48 118.26,293.99 7.92,403.16 -110.35,109.17 -292.82,105.69 -407.52,-7.81 -114.72,-113.52 -118.28,-293.99 -7.91,-403.16 110.35,-109.16 292.78,-105.68 407.51,7.81z"/>
   <path class="fil1" d="M8366.63 23492.38c77.69,76.9 92.61,191.64 43.42,279.08l-410.67 0 -2639.25 -2610.95c-93.16,-92.17 -96.06,-238.82 -6.4,-327.53 89.65,-88.68 237.9,-85.84 331.09,6.35l2681.81 2653.05z"/>
   <path class="fil1" d="M6337.61 23733.49c-96.42,-95.32 -101.85,-244.58 -12.22,-333.23 89.69,-88.69 240.49,-83.3 336.91,12.04l363.04 359.16 -649.35 0 -38.38 -37.97z"/>
   <path class="fil1" d="M5110.06 22519.12c-96.44,-95.39 -101.9,-244.61 -12.27,-333.29 89.68,-88.71 240.5,-83.31 336.93,12.08l510.2 504.72c96.42,95.42 101.9,244.64 12.22,333.32 -89.63,88.69 -240.46,83.31 -336.88,-12.11l-510.2 -504.72z"/>
   <path class="fil1" d="M4387.77 21878.71c-118.64,-117.37 -125.38,-301.04 -15.03,-410.2 110.34,-109.18 295.98,-102.51 414.62,14.87 118.65,117.39 125.38,301 15.04,410.18 -110.35,109.16 -295.99,102.54 -414.63,-14.85z"/>
   <path class="fil1" d="M824.11 17822.81c83.27,-27.53 182.28,-5.79 252.46,63.62l2773.73 2744.01c96.39,95.37 101.87,244.59 12.19,333.29 -89.66,88.72 -240.49,83.29 -336.88,-12.08l-2701.5 -2672.56 0 -456.28z"/>
   <path class="fil1" d="M3681.23 17102.96c89.68,88.69 89.68,232.51 0,321.21 -89.63,88.69 -235.01,88.69 -324.67,0l-2532.45 -2505.37 0 -403.78c87.85,-50.48 202.27,-38.5 277.5,35.95l2579.62 2551.99z"/>
   <path class="fil1" d="M4822.94 18232.4c89.65,88.74 89.65,232.53 0,321.21 -89.69,88.69 -235.01,88.69 -324.69,0l-474.53 -469.43c-89.66,-88.71 -89.66,-232.5 0,-321.2 89.66,-88.72 235.01,-88.72 324.69,0l474.53 469.42z"/>
   <path class="fil1" d="M5497.26 18825.39c110.35,109.17 110.35,286.16 0,395.33 -110.34,109.19 -289.24,109.19 -399.59,0 -110.38,-109.17 -110.38,-286.16 0,-395.33 110.35,-109.16 289.25,-109.16 399.59,0z"/>
   <path class="fil1" d="M8876.08 22242.19c89.68,88.69 89.68,232.48 0,321.21 -89.63,88.69 -234.98,88.69 -324.67,0l-2579.62 -2552c-89.66,-88.73 -89.66,-232.54 0,-321.2 89.68,-88.73 235.01,-88.73 324.69,0l2579.6 2551.99z"/>
   <path class="fil1" d="M10017.78 23371.61c89.66,88.74 89.66,232.53 0,321.2 -89.62,88.74 -235,88.74 -324.66,0l-474.52 -469.42c-89.69,-88.74 -89.69,-232.5 0,-321.21 89.65,-88.69 235.01,-88.69 324.68,0l474.5 469.43z"/>
   <path class="fil1" d="M1268.36 11355.66c93.2,92.22 96.08,238.85 6.42,327.56 -89.65,88.71 -237.9,85.87 -331.09,-6.35l-119.58 -118.31 0 -642.39 444.25 439.49z"/>
   <path class="fil1" d="M1967.9 11973.6c114.73,113.49 118.28,293.98 7.91,403.15 -110.34,109.17 -292.77,105.69 -407.5,-7.84 -114.71,-113.47 -118.28,-293.95 -7.92,-403.15 110.37,-109.14 292.82,-105.64 407.51,7.84z"/>
   <path class="fil1" d="M5482.05 15524.22c93.22,92.19 96.11,238.88 6.43,327.56 -89.66,88.71 -237.88,85.84 -331.12,-6.35l-2681.79 -2653.07c-93.2,-92.19 -96.08,-238.88 -6.41,-327.56 89.64,-88.71 237.89,-85.84 331.09,6.35l2681.8 2653.07z"/>
   <path class="fil1" d="M6668.93 16698.43c93.24,92.16 96.11,238.84 6.45,327.51 -89.63,88.73 -237.87,85.86 -331.12,-6.35l-493.32 -488.01c-93.21,-92.24 -96.08,-238.87 -6.42,-327.58 89.65,-88.68 237.9,-85.87 331.11,6.38l493.3 488.05z"/>
   <path class="fil1" d="M7368.53 17316.34c114.73,113.49 118.24,293.98 7.89,403.15 -110.35,109.17 -292.81,105.63 -407.54,-7.83 -114.7,-113.5 -118.23,-293.99 -7.88,-403.13 110.34,-109.2 292.8,-105.67 407.53,7.81z"/>
   <path class="fil1" d="M10882.64 20866.96c93.19,92.19 96.08,238.86 6.41,327.53 -89.64,88.72 -237.89,85.84 -331.1,-6.32l-2681.81 -2653.1c-93.16,-92.19 -96.05,-238.85 -6.4,-327.53 89.68,-88.71 237.93,-85.84 331.09,6.32l2681.81 2653.1z"/>
   <path class="fil1" d="M12069.57 22041.16c93.19,92.19 96.06,238.83 6.4,327.54 -89.63,88.68 -237.87,85.86 -331.09,-6.35l-493.35 -488.05c-93.16,-92.19 -96.05,-238.86 -6.4,-327.54 89.68,-88.67 237.9,-85.86 331.06,6.36l493.38 488.04z"/>
   <path class="fil1" d="M12769.09 22659.1c114.73,113.48 118.27,293.99 7.91,403.14 -110.34,109.16 -292.8,105.65 -407.48,-7.82 -114.7,-113.5 -118.28,-294.01 -7.96,-403.16 110.34,-109.16 292.86,-105.63 407.53,7.84z"/>
   <path class="fil1" d="M13213.73 23771.46c-21.74,-77.29 -3.08,-162.08 56.63,-221.16 89.65,-88.73 237.9,-85.87 331.09,6.33l217.16 214.83 -604.88 0z"/>
   <path class="fil1" d="M8853.6 21108.07c-96.37,-95.34 -101.82,-244.56 -12.17,-333.25 89.64,-88.73 240.47,-83.3 336.86,12.04l2773.72 2744.01c67.59,66.87 90.5,160.21 67.27,240.59l-473.46 0 -2692.22 -2663.39z"/>
   <path class="fil1" d="M7626.08 19893.66c-96.45,-95.39 -101.93,-244.59 -12.25,-333.32 89.66,-88.69 240.5,-83.26 336.93,12.16l510.18 504.72c96.44,95.39 101.9,244.59 12.24,333.32 -89.66,88.66 -240.49,83.25 -336.93,-12.14l-510.17 -504.74z"/>
   <path class="fil1" d="M6903.76 19253.24c-118.62,-117.37 -125.33,-301 -15,-410.17 110.34,-109.17 295.98,-102.49 414.65,14.85 118.64,117.39 125.38,301.03 15.01,410.2 -110.35,109.17 -295.97,102.51 -414.66,-14.88z"/>
   <path class="fil1" d="M3267.91 15582.23c-96.38,-95.37 -101.85,-244.59 -12.19,-333.27 89.66,-88.74 240.49,-83.31 336.88,12.06l2773.69 2744.01c96.41,95.37 101.89,244.58 12.21,333.27 -89.62,88.68 -240.46,83.3 -336.85,-12.09l-2773.74 -2743.98z"/>
   <path class="fil1" d="M2040.35 14367.79c-96.43,-95.42 -101.88,-244.61 -12.24,-333.27 89.67,-88.73 240.5,-83.33 336.91,12.09l510.21 504.72c96.41,95.39 101.89,244.56 12.22,333.29 -89.64,88.69 -240.48,83.28 -336.88,-12.06l-510.22 -504.77z"/>
   <path class="fil1" d="M1318.09 13727.4c-118.65,-117.36 -125.38,-301.03 -15.02,-410.2 110.34,-109.17 295.97,-102.51 414.62,14.85 118.64,117.37 125.38,301 15.01,410.2 -110.33,109.17 -295.97,102.46 -414.61,-14.85z"/>
   <path class="fil1" d="M824.11 12535.79c43.14,75.85 43.58,167.07 0,237.38l0 -237.38z"/>
   <path class="fil1" d="M1002.41 9338.3c89.64,88.7 89.64,232.49 0,321.21 -48.9,48.36 -114.35,70.35 -178.3,65.97l0 -563.57 178.3 176.39z"/>
   <path class="fil1" d="M2144.07 10467.76c89.67,88.68 89.67,232.5 0,321.21 -89.64,88.68 -235.01,88.68 -324.67,0l-474.53 -469.46c-89.66,-88.7 -89.66,-232.52 0,-321.21 89.65,-88.7 235.03,-88.7 324.67,0l474.53 469.46z"/>
   <path class="fil1" d="M2818.41 11060.73c110.37,109.2 110.34,286.17 0,395.34 -110.32,109.14 -289.24,109.14 -399.59,0 -110.37,-109.2 -110.35,-286.17 0,-395.34 110.34,-109.14 289.25,-109.14 399.59,0z"/>
   <path class="fil1" d="M6197.27 14477.55c89.66,88.69 89.66,232.5 0,321.16 -89.65,88.73 -235.03,88.73 -324.66,0l-2579.67 -2552c-89.65,-88.68 -89.65,-232.53 0,-321.18 89.65,-88.71 235.02,-88.71 324.68,0l2579.65 2552.02z"/>
   <path class="fil1" d="M7338.95 15606.96c89.66,88.69 89.66,232.53 0,321.21 -89.68,88.68 -235.01,88.68 -324.66,0l-474.55 -469.45c-89.66,-88.71 -89.66,-232.51 0,-321.18 89.68,-88.72 235.03,-88.72 324.68,0l474.53 469.42z"/>
   <path class="fil1" d="M8013.28 16199.96c110.35,109.17 110.35,286.15 0,395.32 -110.32,109.17 -289.25,109.17 -399.6,0 -110.37,-109.17 -110.32,-286.15 0,-395.32 110.32,-109.15 289.28,-109.17 399.6,0z"/>
   <path class="fil1" d="M11392.12 19616.7c89.65,88.74 89.65,232.56 0,321.21 -89.63,88.73 -235.03,88.73 -324.66,0l-2579.66 -2551.99c-89.63,-88.69 -89.63,-232.48 0,-321.21 89.69,-88.69 235.04,-88.69 324.69,0l2579.63 2551.99z"/>
   <path class="fil1" d="M12533.83 20746.19c89.65,88.69 89.65,232.53 0,321.21 -89.63,88.69 -235.03,88.69 -324.69,0l-474.53 -469.43c-89.66,-88.74 -89.66,-232.53 0,-321.23 89.68,-88.71 235.04,-88.71 324.69,0l474.53 469.45z"/>
   <path class="fil1" d="M13208.15 21339.19c110.35,109.16 110.35,286.14 0,395.31 -110.34,109.15 -289.24,109.15 -399.59,0 -110.32,-109.17 -110.32,-286.15 0,-395.31 110.35,-109.18 289.25,-109.18 399.59,0z"/>
   <path class="fil1" d="M14942.49 23771.46l-1259.81 -1246.3c-89.66,-88.7 -89.66,-232.49 0,-321.18 89.68,-88.73 235.04,-88.73 324.69,0l1584.47 1567.48 -649.35 0z"/>
   <path class="fil1" d="M2597.49 7556.05c93.19,92.21 96.08,238.84 6.42,327.55 -89.67,88.68 -237.91,85.84 -331.11,-6.35l-1448.69 -1433.18 0 -642.41 1773.38 1754.39z"/>
   <path class="fil1" d="M3784.39 8730.22c93.21,92.22 96.08,238.88 6.42,327.56 -89.66,88.71 -237.9,85.84 -331.12,-6.35l-493.31 -488.05c-93.22,-92.21 -96.08,-238.88 -6.43,-327.56 89.66,-88.68 237.91,-85.84 331.11,6.38l493.33 488.02z"/>
   <path class="fil1" d="M4483.93 9348.16c114.73,113.49 118.26,293.98 7.94,403.15 -110.35,109.14 -292.81,105.66 -407.54,-7.84 -114.7,-113.49 -118.26,-293.98 -7.93,-403.15 110.34,-109.15 292.83,-105.66 407.53,7.84z"/>
   <path class="fil1" d="M7998.09 12898.78c93.19,92.22 96.09,238.85 6.41,327.56 -89.64,88.68 -237.88,85.84 -331.1,-6.37l-2681.8 -2653.08c-93.19,-92.19 -96.09,-238.85 -6.43,-327.53 89.65,-88.71 237.9,-85.87 331.12,6.35l2681.8 2653.07z"/>
   <path class="fil1" d="M9184.97 14072.96c93.22,92.19 96.11,238.88 6.43,327.56 -89.66,88.68 -237.9,85.87 -331.1,-6.35l-493.32 -488.02c-93.24,-92.25 -96.1,-238.91 -6.45,-327.59 89.68,-88.71 237.9,-85.86 331.14,6.35l493.3 488.05z"/>
   <path class="fil1" d="M9884.52 14690.92c114.72,113.47 118.26,293.93 7.88,403.1 -110.29,109.17 -292.75,105.69 -407.48,-7.81 -114.72,-113.47 -118.23,-293.98 -7.88,-403.12 110.32,-109.17 292.75,-105.72 407.48,7.83z"/>
   <path class="fil1" d="M13398.65 18241.52c93.22,92.19 96.06,238.83 6.44,327.53 -89.66,88.69 -237.91,85.87 -331.1,-6.34l-2681.8 -2653.05c-93.22,-92.22 -96.06,-238.88 -6.43,-327.56 89.65,-88.69 237.9,-85.87 331.11,6.35l2681.78 2653.07z"/>
   <path class="fil1" d="M14585.59 19415.7c93.21,92.19 96.06,238.85 6.43,327.56 -89.69,88.7 -237.91,85.84 -331.13,-6.35l-493.32 -488.05c-93.21,-92.19 -96.05,-238.85 -6.42,-327.53 89.65,-88.74 237.9,-85.85 331.09,6.32l493.35 488.05z"/>
   <path class="fil1" d="M15285.13 20033.64c114.73,113.46 118.27,294.01 7.89,403.15 -110.34,109.17 -292.81,105.66 -407.48,-7.81 -114.72,-113.47 -118.26,-293.98 -7.94,-403.15 110.35,-109.17 292.81,-105.67 407.53,7.81z"/>
   <path class="fil1" d="M18799.27 23584.24c52.4,51.85 76.26,120.92 71.16,187.22l-531.26 0 -2546.37 -2519.06c-93.19,-92.22 -96.08,-238.85 -6.4,-327.56 89.62,-88.69 237.88,-85.84 331.06,6.35l2681.81 2653.05z"/>
   <path class="fil1" d="M16887.13 23771.46c9.65,-35.61 28.27,-68.82 55.98,-96.24 89.68,-88.68 240.49,-83.3 336.91,12.09l85.06 84.15 -477.95 0z"/>
   <path class="fil1" d="M15727.76 22794.11c-96.35,-95.39 -101.88,-244.64 -12.22,-333.32 89.68,-88.71 240.57,-83.23 336.9,12.11l510.25 504.8c96.4,95.32 101.88,244.53 12.19,333.21 -89.63,88.69 -240.49,83.31 -336.85,-12.03l-510.27 -504.77z"/>
   <path class="fil1" d="M15005.52 22153.72c-118.62,-117.39 -125.41,-301.09 -15.06,-410.26 110.35,-109.14 296.01,-102.5 414.7,14.91 118.64,117.36 125.36,301.05 15.01,410.22 -110.35,109.17 -295.99,102.49 -414.65,-14.87z"/>
   <path class="fil1" d="M11369.64 18482.62c-96.39,-95.36 -101.87,-244.56 -12.19,-333.26 89.65,-88.69 240.48,-83.29 336.88,12.06l2773.72 2744.03c96.41,95.32 101.89,244.62 12.23,333.3 -89.62,88.68 -240.51,83.22 -336.93,-12.09l-2773.71 -2744.04z"/>
   <path class="fil1" d="M10142.07 17268.22c-96.4,-95.39 -101.88,-244.59 -12.19,-333.3 89.63,-88.68 240.46,-83.3 336.9,12.09l510.17 504.72c96.45,95.41 101.9,244.64 12.27,333.32 -89.71,88.73 -240.49,83.3 -336.93,-12.11l-510.22 -504.72z"/>
   <path class="fil1" d="M9419.8 16627.8c-118.61,-117.34 -125.35,-301.03 -15,-410.2 110.34,-109.17 295.98,-102.46 414.62,14.88 118.67,117.39 125.36,301.05 15.01,410.2 -110.35,109.14 -295.98,102.51 -414.63,-14.88z"/>
   <path class="fil1" d="M5783.92 12956.76c-96.36,-95.37 -101.84,-244.56 -12.18,-333.27 89.68,-88.71 240.48,-83.28 336.88,12.06l2773.71 2744.03c96.39,95.34 101.84,244.54 12.21,333.28 -89.62,88.67 -240.48,83.25 -336.88,-12.09l-2773.74 -2744.01z"/>
   <path class="fil1" d="M4556.35 11742.35c-96.39,-95.39 -101.87,-244.61 -12.21,-333.29 89.65,-88.69 240.49,-83.31 336.9,12.08l510.2 504.75c96.42,95.36 101.88,244.58 12.24,333.27 -89.68,88.7 -240.49,83.3 -336.9,-12.07l-510.23 -504.74z"/>
   <path class="fil1" d="M3834.11 11101.93c-118.64,-117.37 -125.38,-301.03 -15.03,-410.2 110.35,-109.12 295.99,-102.48 414.63,14.88 118.62,117.37 125.38,301.03 15.01,410.17 -110.32,109.17 -295.99,102.52 -414.61,-14.85z"/>
   <path class="fil1" d="M824.11 7407.68l2472.5 2446.02c96.42,95.36 101.87,244.58 12.23,333.26 -89.65,88.71 -240.48,83.31 -336.9,-12.06l-2147.83 -2124.84 0 -642.38z"/>
   <path class="fil1" d="M3518.41 6712.86c89.68,88.7 89.68,232.5 0,321.18 -89.66,88.71 -235,88.71 -324.67,0l-2369.63 -2344.24 0 -590.54c42.02,8.78 82.04,29.3 114.68,61.57l2579.62 2552.03z"/>
   <path class="fil1" d="M4660.12 7842.29c89.63,88.71 89.63,232.51 0,321.21 -89.68,88.71 -235.04,88.71 -324.69,0l-474.53 -469.43c-89.68,-88.71 -89.68,-232.49 0,-321.21 89.63,-88.7 235.01,-88.68 324.69,0l474.53 469.43z"/>
   <path class="fil1" d="M5334.44 8435.31c110.35,109.14 110.35,286.15 0,395.32 -110.35,109.14 -289.25,109.17 -399.62,0 -110.35,-109.17 -110.35,-286.18 0,-395.32 110.35,-109.17 289.25,-109.2 399.62,0z"/>
   <path class="fil1" d="M8713.28 11852.08c89.66,88.68 89.66,232.5 0,321.21 -89.65,88.68 -235.02,88.68 -324.66,0l-2579.65 -2552.02c-89.66,-88.68 -89.66,-232.5 0,-321.21 89.66,-88.68 235.01,-88.68 324.66,0l2579.65 2552.02z"/>
   <path class="fil1" d="M9854.94 12981.53c89.69,88.7 89.69,232.49 0,321.2 -89.63,88.71 -234.98,88.71 -324.66,0l-474.53 -469.46c-89.63,-88.67 -89.63,-232.49 0,-321.21 89.66,-88.67 235.06,-88.67 324.69,0l474.5 469.47z"/>
   <path class="fil1" d="M10529.29 13574.52c110.38,109.19 110.38,286.17 0,395.31 -110.32,109.17 -289.22,109.17 -399.59,0 -110.35,-109.14 -110.35,-286.14 0,-395.31 110.32,-109.17 289.25,-109.17 399.59,0z"/>
   <path class="fil1" d="M13908.16 16991.28c89.63,88.69 89.63,232.5 0,321.21 -89.65,88.69 -235.03,88.69 -324.69,0l-2579.62 -2551.99c-89.66,-88.71 -89.66,-232.56 0,-321.21 89.65,-88.68 235.01,-88.68 324.66,0l2579.65 2551.99z"/>
   <path class="fil1" d="M15049.82 18120.75c89.68,88.68 89.68,232.5 0,321.21 -89.63,88.68 -234.98,88.68 -324.64,0l-474.55 -469.48c-89.63,-88.66 -89.63,-232.48 0,-321.21 89.65,-88.66 235.06,-88.66 324.69,0l474.5 469.48z"/>
   <path class="fil1" d="M15724.19 18713.77c110.33,109.09 110.33,286.15 0,395.29 -110.34,109.17 -289.3,109.17 -399.64,0 -110.33,-109.14 -110.33,-286.2 0,-395.29 110.34,-109.17 289.3,-109.17 399.64,0z"/>
   <path class="fil1" d="M19103.01 22130.51c89.66,88.66 89.66,232.51 0,321.21 -89.65,88.66 -235.01,88.66 -324.66,0l-2579.66 -2552.02c-89.63,-88.71 -89.63,-232.47 0,-321.21 89.66,-88.68 235.04,-88.68 324.7,0l2579.62 2552.02z"/>
   <path class="fil1" d="M20244.72 23259.98c89.65,88.68 89.65,232.47 0,321.2 -89.68,88.69 -235.01,88.69 -324.66,0l-474.58 -469.47c-89.63,-88.69 -89.63,-232.48 0,-321.21 89.68,-88.69 235.06,-88.69 324.68,0l474.56 469.48z"/>
   <path class="fil1" d="M20705.31 23771.46c9.27,-0.45 18.57,-0.45 27.85,0l-27.85 0z"/>
   <path class="fil1" d="M5113.49 4930.6c93.22,92.19 96.11,238.85 6.46,327.56 -89.69,88.68 -237.91,85.84 -331.12,-6.35l-2002.86 -1981.41 649.35 0 1678.17 1660.2z"/>
   <path class="fil1" d="M6300.4 6104.78c93.21,92.19 96.08,238.85 6.43,327.56 -89.66,88.68 -237.9,85.86 -331.1,-6.35l-493.35 -488.05c-93.18,-92.22 -96.05,-238.85 -6.4,-327.56 89.66,-88.71 237.9,-85.84 331.09,6.35l493.33 488.05z"/>
   <path class="fil1" d="M6999.97 6722.71c114.7,113.5 118.24,294.02 7.89,403.16 -110.32,109.14 -292.79,105.66 -407.51,-7.81 -114.7,-113.53 -118.26,-294.01 -7.91,-403.18 110.34,-109.17 292.81,-105.66 407.53,7.83z"/>
   <path class="fil1" d="M10514.1 10273.34c93.22,92.19 96.09,238.88 6.44,327.56 -89.66,88.68 -237.91,85.84 -331.1,-6.35l-2681.8 -2653.07c-93.24,-92.22 -96.11,-238.88 -6.45,-327.59 89.67,-88.7 237.92,-85.84 331.13,6.38l2681.78 2653.07z"/>
   <path class="fil1" d="M11700.99 11447.52c93.21,92.21 96.11,238.88 6.43,327.56 -89.66,88.68 -237.91,85.86 -331.07,-6.38l-493.35 -488.02c-93.22,-92.21 -96.08,-238.88 -6.43,-327.58 89.63,-88.66 237.88,-85.84 331.12,6.4l493.3 488.02z"/>
   <path class="fil1" d="M12400.56 12065.45c114.7,113.5 118.24,293.99 7.89,403.16 -110.35,109.14 -292.76,105.66 -407.51,-7.84 -114.7,-113.49 -118.24,-293.99 -7.91,-403.16 110.32,-109.14 292.78,-105.65 407.53,7.84z"/>
   <path class="fil1" d="M15914.69 15616.06c93.2,92.19 96.06,238.84 6.41,327.56 -89.68,88.7 -237.91,85.84 -331.09,-6.33l-2681.81 -2653.1c-93.19,-92.19 -96.05,-238.83 -6.4,-327.53 89.65,-88.71 237.9,-85.87 331.09,6.32l2681.8 2653.08z"/>
   <path class="fil1" d="M17101.57 16790.26c93.22,92.22 96.11,238.88 6.44,327.53 -89.66,88.71 -237.91,85.86 -331.12,-6.33l-493.3 -488.02c-93.2,-92.21 -96.06,-238.85 -6.41,-327.55 89.66,-88.72 237.91,-85.87 331.07,6.32l493.32 488.05z"/>
   <path class="fil1" d="M17801.15 17408.2c114.7,113.49 118.26,294 7.91,403.12 -110.34,109.17 -292.8,105.69 -407.53,-7.81 -114.7,-113.44 -118.24,-294.01 -7.91,-403.15 110.37,-109.17 292.83,-105.61 407.53,7.84z"/>
   <path class="fil1" d="M21315.28 20958.82c3.43,3.38 6.71,6.85 9.89,10.38l0 313.64c-1.15,1.18 -2.3,2.37 -3.49,3.54 -89.65,88.68 -237.9,85.84 -331.08,-6.35l-2681.78 -2653.1c-93.2,-92.19 -96.09,-238.85 -6.44,-327.53 89.69,-88.69 237.94,-85.87 331.07,6.35l2681.83 2653.07z"/>
   <path class="fil1" d="M19471.36 21383.03c-96.41,-95.34 -101.84,-244.57 -12.21,-333.25 89.63,-88.65 240.49,-83.3 336.91,12.04l1529.11 1512.73 0 642.41 -1853.81 -1833.93z"/>
   <path class="fil1" d="M18243.8 20168.64c-96.4,-95.34 -101.88,-244.61 -12.25,-333.29 89.66,-88.71 240.57,-83.26 336.93,12.11l510.25 504.74c96.4,95.4 101.88,244.59 12.2,333.3 -89.66,88.68 -240.5,83.28 -336.88,-12.09l-510.25 -504.77z"/>
   <path class="fil1" d="M17521.56 19528.25c-118.67,-117.42 -125.41,-301.06 -15.06,-410.2 110.32,-109.17 296.01,-102.51 414.68,14.9 118.64,117.34 125.35,301.03 15.03,410.17 -110.35,109.17 -295.98,102.5 -414.65,-14.87z"/>
   <path class="fil1" d="M13885.68 15857.21c-96.42,-95.39 -101.87,-244.61 -12.24,-333.29 89.68,-88.69 240.49,-83.31 336.91,12.08l2773.71 2744.01c96.39,95.34 101.92,244.59 12.26,333.32 -89.68,88.69 -240.56,83.23 -336.95,-12.11l-2773.69 -2744.01z"/>
   <path class="fil1" d="M12658.11 14642.8c-96.45,-95.42 -101.9,-244.63 -12.24,-333.32 89.65,-88.74 240.46,-83.31 336.9,12.12l510.2 504.72c96.45,95.41 101.9,244.63 12.22,333.31 -89.63,88.66 -240.47,83.29 -336.91,-12.11l-510.17 -504.72z"/>
   <path class="fil1" d="M11935.82 14002.35c-118.62,-117.35 -125.36,-301.02 -15.04,-410.16 110.35,-109.17 296.04,-102.52 414.66,14.85 118.64,117.38 125.35,301.03 15.03,410.2 -110.34,109.14 -295.98,102.51 -414.65,-14.89z"/>
   <path class="fil1" d="M8299.96 10331.32c-96.41,-95.37 -101.86,-244.59 -12.21,-333.27 89.68,-88.68 240.49,-83.31 336.91,12.06l2773.71 2744.01c96.37,95.36 101.84,244.59 12.21,333.29 -89.7,88.69 -240.51,83.28 -336.9,-12.08l-2773.72 -2744.01z"/>
   <path class="fil1" d="M7072.37 9116.89c-96.4,-95.37 -101.85,-244.59 -12.22,-333.28 89.66,-88.7 240.5,-83.3 336.88,12.09l510.23 504.75c96.42,95.36 101.9,244.58 12.24,333.29 -89.68,88.68 -240.47,83.28 -336.91,-12.08l-510.22 -504.77z"/>
   <path class="fil1" d="M6350.13 8476.49c-118.64,-117.36 -125.35,-301.03 -15.03,-410.17 110.32,-109.17 296.01,-102.51 414.63,14.85 118.61,117.37 125.38,301.03 15.03,410.2 -110.35,109.14 -296.01,102.48 -414.63,-14.88z"/>
   <path class="fil1" d="M2714.28 4805.45c-96.42,-95.36 -101.89,-244.58 -12.24,-333.27 89.65,-88.7 240.48,-83.3 336.9,12.07l2773.72 2744c96.39,95.37 101.87,244.59 12.18,333.3 -89.65,88.68 -240.45,83.27 -336.88,-12.12l-2773.68 -2743.98z"/>
   <path class="fil1" d="M1486.67 3590.99c-91.96,-90.96 -101.17,-230.9 -24.05,-320.59l349.33 0 509.64 504.2c96.38,95.34 101.84,244.54 12.18,333.25 -89.65,88.7 -240.49,83.3 -336.87,-12.06l-510.23 -504.8z"/>
   <path class="fil1" d="M6034.45 4087.41c89.63,88.69 89.63,232.51 0,321.21 -89.68,88.69 -235.03,88.69 -324.68,0l-1150.55 -1138.22 649.38 0 825.85 817.01z"/>
   <path class="fil1" d="M7176.11 5216.85c89.66,88.71 89.66,232.53 0,321.21 -89.63,88.71 -235.01,88.71 -324.67,0l-474.53 -469.43c-89.65,-88.71 -89.65,-232.53 0,-321.21 89.66,-88.68 235.02,-88.68 324.7,0l474.5 469.43z"/>
   <path class="fil1" d="M7850.46 5809.84c110.34,109.17 110.34,286.18 0,395.35 -110.35,109.15 -289.25,109.15 -399.59,0 -110.36,-109.19 -110.36,-286.18 0,-395.35 110.34,-109.17 289.24,-109.17 399.59,0z"/>
   <path class="fil1" d="M11229.3 9226.62c89.66,88.7 89.66,232.52 0,321.2 -89.63,88.71 -235,88.71 -324.66,0l-2579.63 -2551.99c-89.68,-88.71 -89.68,-232.52 0,-321.21 89.63,-88.68 235.01,-88.68 324.66,0l2579.63 2552z"/>
   <path class="fil1" d="M12370.98 10356.08c89.64,88.68 89.69,232.5 0,321.21 -89.65,88.68 -235.01,88.68 -324.66,0l-474.53 -469.46c-89.68,-88.71 -89.68,-232.49 0,-321.2 89.63,-88.69 234.98,-88.69 324.69,0l474.5 469.45z"/>
   <path class="fil1" d="M13045.31 10949.07c110.4,109.17 110.34,286.15 0,395.32 -110.33,109.17 -289.25,109.17 -399.6,0 -110.35,-109.17 -110.35,-286.17 0,-395.32 110.35,-109.17 289.27,-109.17 399.6,0z"/>
   <path class="fil1" d="M16424.15 14365.87c89.68,88.65 89.68,232.47 0,321.19 -89.65,88.67 -235,88.67 -324.64,0l-2579.62 -2552.01c-89.69,-88.7 -89.69,-232.52 0,-321.2 89.63,-88.71 234.98,-88.71 324.66,0l2579.6 2552.02z"/>
   <path class="fil1" d="M17565.86 15495.29c89.68,88.73 89.68,232.52 0,321.21 -89.66,88.72 -235.04,88.72 -324.69,0l-474.5 -469.44c-89.68,-88.68 -89.68,-232.52 0,-321.21 89.65,-88.68 235,-88.68 324.69,0l474.5 469.44z"/>
   <path class="fil1" d="M18240.18 16088.28c110.33,109.17 110.33,286.19 0,395.31 -110.34,109.15 -289.25,109.15 -399.59,0 -110.35,-109.12 -110.35,-286.14 0,-395.31 110.34,-109.14 289.25,-109.14 399.59,0z"/>
   <path class="fil1" d="M21325.17 19851.84c-10.81,-7.5 -21.12,-16.02 -30.78,-25.58l-2579.65 -2552c-89.69,-88.68 -89.69,-232.5 0,-321.18 89.63,-88.71 235.01,-88.71 324.69,0l2285.74 2261.26 0 637.5z"/>
   <path class="fil1" d="M8816.41 3479.34c93.22,92.19 96.12,238.85 6.43,327.56 -89.65,88.71 -237.9,85.84 -331.09,-6.35l-493.32 -488.05c-13.19,-13.05 -24.57,-27.19 -34.13,-42.1l640.93 0 211.18 208.94z"/>
   <path class="fil1" d="M9515.96 4097.27c114.73,113.48 118.29,293.99 7.94,403.16 -110.34,109.14 -292.81,105.66 -407.53,-7.83 -114.73,-113.51 -118.24,-293.99 -7.89,-403.14 110.34,-109.17 292.76,-105.68 407.48,7.81z"/>
   <path class="fil1" d="M13030.12 7647.87c93.22,92.22 96.08,238.88 6.46,327.59 -89.68,88.68 -237.91,85.84 -331.15,-6.38l-2681.8 -2653.07c-93.19,-92.19 -96.06,-238.85 -6.43,-327.54 89.65,-88.7 237.9,-85.86 331.11,6.33l2681.81 2653.07z"/>
   <path class="fil1" d="M14217.03 8822.08c93.22,92.21 96.06,238.88 6.4,327.56 -89.63,88.68 -237.88,85.86 -331.07,-6.35l-493.34 -488.05c-93.22,-92.22 -96.11,-238.88 -6.43,-327.56 89.65,-88.71 237.9,-85.87 331.11,6.35l493.33 488.05z"/>
   <path class="fil1" d="M14916.58 9440.04c114.72,113.47 118.23,293.96 7.88,403.1 -110.31,109.17 -292.75,105.69 -407.48,-7.78 -114.75,-113.53 -118.29,-294.02 -7.91,-403.18 110.32,-109.15 292.78,-105.66 407.51,7.86z"/>
   <path class="fil1" d="M18430.71 12990.61c93.17,92.2 96.06,238.88 6.43,327.57 -89.68,88.67 -237.93,85.83 -331.12,-6.36l-2681.78 -2653.07c-93.22,-92.19 -96.08,-238.85 -6.4,-327.54 89.63,-88.7 237.88,-85.86 331.09,6.33l2681.78 2653.07z"/>
   <path class="fil1" d="M19617.61 14164.84c93.23,92.17 96.06,238.86 6.41,327.53 -89.63,88.69 -237.88,85.82 -331.09,-6.34l-493.32 -488.07c-93.2,-92.14 -96.06,-238.83 -6.44,-327.54 89.68,-88.68 237.94,-85.84 331.12,6.35l493.32 488.07z"/>
   <path class="fil1" d="M20317.14 14782.77c114.75,113.45 118.26,293.97 7.91,403.14 -110.32,109.17 -292.78,105.66 -407.48,-7.84 -114.7,-113.47 -118.28,-293.99 -7.94,-403.16 110.35,-109.17 292.84,-105.6 407.51,7.86z"/>
   <path class="fil1" d="M21325.17 16496.5l-500.34 -494.98c-93.22,-92.22 -96.06,-238.88 -6.41,-327.54 89.64,-88.71 237.89,-85.86 331.08,6.33l175.67 173.79 0 642.4z"/>
   <path class="fil1" d="M20759.84 17543.2c-96.4,-95.36 -101.93,-244.61 -12.24,-333.32 89.65,-88.71 240.51,-83.23 336.9,12.11l240.67 238.11 0 629.71c-19.64,-11.17 -38.22,-25.11 -55.13,-41.84l-510.2 -504.77z"/>
   <path class="fil1" d="M20037.6 16902.84c-118.67,-117.42 -125.41,-301.11 -15.06,-410.23 110.32,-109.14 295.96,-102.51 414.65,14.9 118.62,117.35 125.38,301.01 15.03,410.18 -110.34,109.17 -296,102.51 -414.62,-14.85z"/>
   <path class="fil1" d="M16401.69 13231.74c-96.41,-95.33 -101.86,-244.56 -12.21,-333.24 89.65,-88.71 240.49,-83.3 336.91,12.04l2773.71 2744c96.37,95.37 101.9,244.64 12.26,333.3 -89.7,88.74 -240.56,83.28 -336.95,-12.09l-2773.72 -2744.01z"/>
   <path class="fil1" d="M15174.13 12017.33c-96.43,-95.41 -101.88,-244.61 -12.22,-333.31 89.63,-88.69 240.46,-83.29 336.9,12.1l510.18 504.75c96.47,95.4 101.9,244.61 12.24,333.32 -89.66,88.68 -240.47,83.31 -336.91,-12.11l-510.19 -504.75z"/>
   <path class="fil1" d="M14451.86 11376.92c-118.67,-117.37 -125.38,-301.03 -15.06,-410.18 110.38,-109.17 296.04,-102.51 414.66,14.86 118.66,117.39 125.35,301.02 15,410.17 -110.29,109.17 -295.96,102.54 -414.6,-14.85z"/>
   <path class="fil1" d="M10816 7705.88c-96.41,-95.37 -101.86,-244.59 -12.21,-333.27 89.63,-88.69 240.46,-83.31 336.83,12.06l2773.77 2744.01c96.39,95.37 101.84,244.59 12.18,333.27 -89.65,88.71 -240.48,83.28 -336.9,-12.09l-2773.67 -2743.98z"/>
   <path class="fil1" d="M9588.41 6491.47c-96.42,-95.4 -101.9,-244.61 -12.22,-333.3 89.66,-88.7 240.47,-83.3 336.88,12.09l510.23 504.75c96.39,95.36 101.9,244.59 12.22,333.26 -89.66,88.72 -240.5,83.31 -336.91,-12.05l-510.2 -504.75z"/>
   <path class="fil1" d="M8866.12 5851.05c-118.62,-117.36 -125.33,-301.03 -15.01,-410.2 110.35,-109.14 295.99,-102.49 414.66,14.86 118.59,117.38 125.33,301.05 15,410.22 -110.34,109.14 -296.01,102.48 -414.65,-14.88z"/>
   <path class="fil1" d="M6981.83 3270.4l1346.82 1332.39c96.41,95.41 101.89,244.61 12.21,333.29 -89.63,88.71 -240.46,83.3 -336.88,-12.08l-1671.51 -1653.6 649.36 0z"/>
   <path class="fil1" d="M10425.8 3270.4c44.99,102.25 25.22,225.69 -59.3,309.33 -110.38,109.17 -289.28,109.19 -399.59,0 -84.58,-83.64 -104.35,-207.08 -59.34,-309.33l518.23 0z"/>
   <path class="fil1" d="M13745.29 6601.17c89.68,88.71 89.68,232.53 0,321.21 -89.63,88.71 -234.95,88.71 -324.61,0l-2579.68 -2552.02c-89.65,-88.68 -89.65,-232.47 0,-321.18 89.68,-88.71 235.03,-88.71 324.67,0l2579.62 2551.99z"/>
   <path class="fil1" d="M14887 7730.64c89.66,88.71 89.66,232.5 0,321.21 -89.68,88.69 -235.01,88.69 -324.64,0l-474.58 -469.45c-89.65,-88.72 -89.65,-232.51 0,-321.21 89.68,-88.69 235.04,-88.69 324.69,0l474.53 469.45z"/>
   <path class="fil1" d="M15561.35 8323.63c110.34,109.15 110.34,286.16 0,395.32 -110.35,109.15 -289.25,109.17 -399.59,0 -110.41,-109.16 -110.36,-286.17 0,-395.32 110.34,-109.17 289.24,-109.17 399.59,0z"/>
   <path class="fil1" d="M18940.19 11740.41c89.68,88.68 89.68,232.5 0,321.18 -89.65,88.7 -235,88.7 -324.69,0l-2579.62 -2552c-89.66,-88.68 -89.66,-232.5 0,-321.18 89.68,-88.71 235,-88.71 324.69,0l2579.62 2552z"/>
   <path class="fil1" d="M20081.9 12869.87c89.63,88.68 89.63,232.5 0,321.18 -89.66,88.71 -235.06,88.71 -324.69,0l-474.55 -469.45c-89.66,-88.66 -89.66,-232.5 0,-321.21 89.68,-88.66 235.03,-88.66 324.69,0l474.55 469.48z"/>
   <path class="fil1" d="M20756.23 13462.83c110.32,109.17 110.32,286.21 0,395.32 -110.35,109.17 -289.28,109.17 -399.62,0 -110.33,-109.11 -110.33,-286.15 0,-395.32 110.34,-109.14 289.27,-109.14 399.62,0z"/>
   <path class="fil1" d="M21325.17 14742.23l-94.42 -93.41c-89.68,-88.71 -89.68,-232.5 0,-321.24 27.34,-27.04 59.87,-45.83 94.42,-56.38l0 471.03z"/>
   <path class="fil1" d="M15546.14 5022.46c93.19,92.19 96.1,238.85 6.43,327.53 -89.66,88.71 -237.91,85.87 -331.1,-6.32l-2095.74 -2073.27 649.37 0 1771.04 1752.06z"/>
   <path class="fil1" d="M16733.02 6196.64c93.24,92.19 96.1,238.85 6.45,327.56 -89.68,88.68 -237.93,85.84 -331.12,-6.35l-493.32 -488.06c-93.19,-92.24 -96.08,-238.87 -6.46,-327.58 89.71,-88.68 237.91,-85.84 331.15,6.38l493.3 488.05z"/>
   <path class="fil1" d="M17432.62 6814.57c114.67,113.5 118.24,293.99 7.88,403.16 -110.31,109.14 -292.8,105.66 -407.53,-7.84 -114.7,-113.5 -118.23,-294.01 -7.89,-403.15 110.32,-109.15 292.76,-105.67 407.54,7.83z"/>
   <path class="fil1" d="M20946.7 10365.17c93.21,92.22 96.11,238.86 6.43,327.56 -89.66,88.69 -237.9,85.84 -331.09,-6.35l-2681.81 -2653.07c-93.19,-92.19 -96.06,-238.85 -6.4,-327.54 89.68,-88.7 237.88,-85.86 331.09,6.33l2681.78 2653.07z"/>
   <path class="fil1" d="M21325.17 11381.99l-9.55 -9.45c-93.19,-92.22 -96.06,-238.85 -6.41,-327.57 5.14,-5.07 10.46,-9.82 15.96,-14.3l0 351.32z"/>
   <path class="fil1" d="M18917.68 10606.31c-96.36,-95.37 -101.86,-244.57 -12.19,-333.28 89.66,-88.7 240.49,-83.3 336.89,12.07l2082.79 2060.48 0 642.42 -2407.49 -2381.69z"/>
   <path class="fil1" d="M17690.17 9391.92c-96.45,-95.42 -101.93,-244.64 -12.25,-333.32 89.66,-88.71 240.46,-83.31 336.93,12.11l510.18 504.72c96.44,95.39 101.87,244.61 12.24,333.3 -89.66,88.7 -240.47,83.3 -336.93,-12.12l-510.17 -504.69z"/>
   <path class="fil1" d="M16967.85 8751.48c-118.62,-117.37 -125.33,-301.03 -15.01,-410.18 110.35,-109.17 295.99,-102.5 414.66,14.85 118.66,117.4 125.33,301.03 15,410.2 -110.34,109.15 -295.98,102.51 -414.65,-14.87z"/>
   <path class="fil1" d="M13331.99 5080.44c-96.38,-95.37 -101.86,-244.59 -12.18,-333.27 89.65,-88.71 240.49,-83.28 336.85,12.06l2773.74 2744.01c96.42,95.37 101.87,244.58 12.22,333.29 -89.66,88.69 -240.49,83.28 -336.91,-12.09l-2773.72 -2744z"/>
   <path class="fil1" d="M12104.43 3866c-96.4,-95.37 -101.88,-244.59 -12.19,-333.29 89.63,-88.69 240.46,-83.28 336.88,12.08l510.22 504.77c96.39,95.37 101.85,244.59 12.19,333.3 -89.66,88.68 -240.47,83.28 -336.88,-12.12l-510.22 -504.74z"/>
   <path class="fil1" d="M11760.6 3270.4c-93.15,64.03 -220.38,63.31 -321.83,0l321.83 0z"/>
   <path class="fil1" d="M16261.33 3975.76c89.69,88.69 89.69,232.5 0,321.18 -89.65,88.71 -234.98,88.71 -324.66,0l-1037.66 -1026.54 649.33 0 712.99 705.36z"/>
   <path class="fil1" d="M17403.04 5105.2c89.66,88.68 89.66,232.5 0,321.21 -89.68,88.68 -235.01,88.68 -324.67,0l-474.55 -469.46c-89.65,-88.68 -89.65,-232.5 0,-321.2 89.63,-88.69 235.04,-88.69 324.67,0l474.55 469.45z"/>
   <path class="fil1" d="M18077.37 5698.19c110.34,109.17 110.34,286.18 0,395.32 -110.33,109.17 -289.23,109.17 -399.63,0 -110.34,-109.17 -110.32,-286.17 0,-395.32 110.35,-109.17 289.28,-109.17 399.63,0z"/>
   <path class="fil1" d="M21325.17 9500.56c-68.7,9.3 -140.84,-12.17 -193.65,-64.42l-2579.63 -2551.96c-89.63,-88.71 -89.63,-232.53 0,-321.21 89.66,-88.71 235.03,-88.71 324.67,0l2448.61 2422.36 0 515.23z"/>
   <path class="fil1" d="M19249.06 3571.2c93.19,92.22 96.08,238.85 6.4,327.56 -89.63,88.7 -237.88,85.84 -331.06,-6.36l-493.33 -488.04c-38.45,-38.02 -61.51,-85.3 -69.07,-133.96l583.03 0 304.03 300.8z"/>
   <path class="fil1" d="M19948.61 4189.13c114.72,113.5 118.23,293.96 7.89,403.13 -110.33,109.17 -292.76,105.69 -407.48,-7.81 -114.74,-113.52 -118.24,-294.01 -7.9,-403.15 110.33,-109.15 292.76,-105.67 407.49,7.83z"/>
   <path class="fil1" d="M21325.17 6267.46l-868.9 -859.59c-93.21,-92.19 -96.06,-238.85 -6.43,-327.53 89.66,-88.72 237.91,-85.87 331.12,6.32l544.21 538.38 0 642.42z"/>
   <path class="fil1" d="M20206.15 6766.46c-96.41,-95.42 -101.87,-244.62 -12.23,-333.33 89.67,-88.68 240.48,-83.27 336.93,12.14l510.22 504.72c96.44,95.39 101.87,244.61 12.22,333.32 -89.66,88.68 -240.5,83.28 -336.91,-12.11l-510.23 -504.74z"/>
   <path class="fil1" d="M19483.89 6126.04c-118.65,-117.37 -125.35,-301.03 -15.01,-410.2 110.3,-109.14 295.99,-102.49 414.61,14.88 118.67,117.39 125.38,301.03 15.05,410.17 -110.37,109.17 -296,102.53 -414.65,-14.85z"/>
   <path class="fil1" d="M17321.63 3270.4l1624.78 1607.37c96.4,95.37 101.88,244.59 12.22,333.3 -89.63,88.7 -240.52,83.27 -336.9,-12.09l-1949.44 -1928.58 649.34 0z"/>
   <path class="fil1" d="M20676.15 3270.4c0,71.55 -27.6,143.08 -82.77,197.67 -110.35,109.17 -289.25,109.17 -399.6,0 -55.16,-54.59 -82.76,-126.12 -82.76,-197.67l565.13 0z"/>
   <path class="fil1" d="M21325.17 4513.19l-257.23 -254.48c-89.66,-88.68 -89.66,-232.5 0,-321.21 69.55,-68.83 172.63,-84.24 257.23,-46.26l0 621.95z"/>
  </g>
 </g>
</svg>
