<svg clip-rule="evenodd" fill-rule="evenodd" height="279.4mm" image-rendering="optimizeQuality" shape-rendering="geometricPrecision" text-rendering="geometricPrecision" viewBox="0 0 21590 27940" width="215.9mm" xmlns="http://www.w3.org/2000/svg" xmlns:xlink="http://www.w3.org/1999/xlink"><linearGradient id="a" gradientUnits="userSpaceOnUse" x1="0" x2="21590" y1="10795" y2="10795"><stop offset="0" stop-color="#be965d"/><stop offset=".141176" stop-color="#ab834f"/><stop offset=".278431" stop-color="#976f40"/><stop offset=".631373" stop-color="#ffcb85"/><stop offset="1" stop-color="#976f40"/></linearGradient><linearGradient id="b" gradientUnits="userSpaceOnUse" x1="-.29" x2="21589.71" xlink:href="#a" y1="17991.55" y2="17991.55"/><path d="m21590 21590h-25.37l7.38-7.38v-1748.43l-856.23 856.23-899.58 899.58h-50.73l-899.59-899.58-856.22-856.23v1748.43l7.37 7.38h-50.8l7.45-7.38v-1748.43l-856.15 856.23-899.59 899.58h-50.88l-899.59-899.58-856.14-856.23v1748.43l7.44 7.38h-50.88l7.45-7.38v-1748.43l-856.15 856.23-899.58 899.58h-50.88l-899.59-899.58-856.15-856.23v1748.43l7.45 7.38h-50.88l7.45-7.38v-1748.43l-856.15 856.23-899.58 899.58h-50.89l-899.58-899.58-856.15-856.23v1748.43l7.45 7.38h-50.88l7.45-7.38v-1748.43l-856.15 856.23-899.59 899.58h-50.88l-899.58-899.58-856.15-856.23v1748.43l7.44 7.38h-50.87l7.44-7.38v-1748.43l-856.15 856.23-899.58 899.58h-50.88l-899.59-899.58-856.15-856.23v1748.43l7.45 7.38h-25.44v-1824.53l874.14-874.22-874.14-874.22v-1849.97l874.14-874.15-874.14-874.14v-1850.05l874.14-874.14-874.14-874.14v-1850.05l874.14-874.14-874.14-874.14v-1850.05l874.14-874.14-874.14-874.15v-1849.97l874.14-874.22-874.14-874.21v-25.37h25.44l874.14 874.22 874.15-874.22h50.88l874.14 874.22 874.15-874.22h50.87l874.15 874.22 874.14-874.22h50.88l874.15 874.22 874.14-874.22h50.88l874.14 874.22 874.14-874.22h50.89l874.14 874.22 874.14-874.22h50.88l874.14 874.22 874.15-874.22h50.88l874.14 874.22 874.14-874.22h50.88l874.15 874.22 874.14-874.22h50.88l874.14 874.22 874.15-874.22h50.8l874.22 874.22 874.22-874.22h50.73l874.22 874.22 874.21-874.22h25.37v25.37l-874.22 874.21 874.22 874.22v1849.97l-874.22 874.15 874.22 874.14v1850.05l-874.22 874.14 874.22 874.14v1850.05l-874.22 874.14 874.22 874.14v1850.05l-874.22 874.14 874.22 874.15v1849.97l-874.22 874.22 874.22 874.22zm-1799.17-1773.79-874.21 874.21 874.21 874.21 874.22-874.21zm-3598.33 0-874.14 874.21 874.14 874.21 874.14-874.21zm-3598.33 0-874.15 874.21 874.15 874.21 874.14-874.21zm-3598.34 0-874.14 874.21 874.14 874.21 874.15-874.21zm-3598.33 0-874.14 874.21 874.14 874.21 874.14-874.21zm-3598.33 0-874.14 874.21 874.14 874.21 874.14-874.21zm18009.66-1781.18v1748.42l881.59 881.59 874.21-874.21-899.58-899.58zm-35.99 0-856.22 856.22-899.59 899.58 874.22 874.21 881.59-881.59zm-3562.35 0v1748.42l881.59 881.59 874.15-874.21-899.59-899.58zm-35.98 0-856.15 856.22-899.59 899.58 874.15 874.21 881.59-881.59zm-3562.35 0v1748.42l881.59 881.59 874.14-874.21-899.58-899.58zm-35.99 0-856.15 856.22-899.58 899.58 874.14 874.21 881.59-881.59zm-3562.34 0v1748.42l881.59 881.59 874.14-874.21-899.58-899.58zm-35.99 0-856.15 856.22-899.58 899.58 874.14 874.21 881.59-881.59zm-3562.34 0v1748.42l881.59 881.59 874.14-874.21-899.59-899.58zm-35.99 0-856.15 856.22-899.59 899.58 874.15 874.21 881.59-881.59zm-3562.35 0v1748.42l881.59 881.59 874.15-874.21-899.59-899.58zm-35.99 0-856.14 856.22-899.59 899.58 874.14 874.21 881.59-881.59zm16210.5-18-874.14 874.22 874.14 874.22 874.21-874.22zm-3598.33 0-874.15 874.22 874.15 874.22 874.13-874.22zm-3598.34 0-874.14 874.22 874.14 874.22 874.14-874.22zm-3598.33 0-874.14 874.22 874.14 874.22 874.14-874.22zm-3598.34 0-874.14 874.22 874.14 874.22 874.15-874.22zm17973.68-1781.1-856.23 856.15-899.58 899.59 874.22 874.21 881.59-881.67zm-3562.35 0v1748.28l881.59 881.67 874.22-874.21-899.59-899.59zm-35.98 0-856.15 856.15-899.59 899.59 874.14 874.21 881.6-881.67zm-3562.35 0v1748.28l881.59 881.67 874.14-874.21-899.59-899.59zm-35.99 0-856.15 856.15-899.58 899.59 874.14 874.21 881.59-881.67zm-3562.35 0v1748.28l881.59 881.67 874.15-874.21-899.59-899.59zm-35.98 0-856.15 856.15-899.58 899.59 874.14 874.21 881.59-881.67zm-3562.35 0v1748.28l881.59 881.67 874.14-874.21-899.58-899.59zm-35.98 0-856.15 856.15-899.59 899.59 874.15 874.21 881.59-881.67zm-3562.35 0v1748.28l881.59 881.67 874.14-874.21-899.58-899.59zm-35.99 0-856.15 856.15-899.58 899.59 874.14 874.21 881.59-881.67zm-3562.35 0v1748.28l881.59 881.67 874.15-874.21-899.59-899.59zm19772.84-17.99-874.21 874.14 874.21 874.15 874.22-874.15zm-3598.33 0-874.14 874.14 874.14 874.15 874.14-874.15zm-3598.33 0-874.15 874.14 874.15 874.15 874.14-874.15zm-3598.34 0-874.14 874.14 874.14 874.15 874.15-874.15zm-3598.33 0-874.14 874.14 874.14 874.15 874.14-874.15zm-3598.33 0-874.14 874.14 874.14 874.15 874.14-874.15zm18009.66-1781.18v1748.29l881.59 881.59 874.21-874.14-899.58-899.59zm-35.99 0-856.22 856.15-899.59 899.59 874.22 874.14 881.59-881.59zm-3562.35 162.29v1586l881.59 881.59 874.15-874.14-899.59-899.59-693.86-693.86h50.88l668.42 668.42 881.6-881.59v-1748.28l-856.15 856.15-255.38 255.37v-50.88l204.49-204.49-204.49-204.49v-50.89l229.93 229.94 874.15-874.14-899.59-899.59-204.49-204.49v-50.88l229.93 229.93 881.6-881.59v-1748.29l-856.15 856.16-255.38 255.37v-50.88l204.49-204.49-204.49-204.5v-50.88l229.93 229.94 874.15-874.15-899.59-899.58-856.15-856.15v558.21c-3.67-2.4-7.39-4.72-11.15-6.99-8.03-6.32-16.32-12.34-24.83-18.02v-533.2l-386.55 386.55h-50.88l429.98-429.99-899.59-899.58-856.14-856.15v1748.29l437.42 437.43h-50.87l-404.54-404.54-404.55 404.54h-50.88l437.43-437.43v-1748.29l-856.15 856.15-899.58 899.58 429.98 429.99h-50.88l-386.55-386.55v386.55h-35.99v-386.55l-386.54 386.55h-50.89l429.99-429.99-899.59-899.58-856.15-856.15v1748.29l437.43 437.43h-50.88l-404.54-404.54-404.54 404.54h-50.88l437.43-437.43v-1748.29l-856.15 856.15-899.58 899.58 429.98 429.99h-50.89l-386.54-386.55v386.55h-35.99v-386.55l-386.55 386.55h-50.88l429.98-429.99-899.58-899.58-856.15-856.15v1748.29l437.43 437.43h-50.88l-404.54-404.54-404.54 404.54h-50.88l437.43-437.43v-1748.29l-856.15 856.15-899.59 899.58 429.98 429.99h-50.88l-386.54-386.55v577.37c-15.1 25.91-27.24 53.72-35.99 83.05v-660.42l-856.15 856.15-899.59 899.58 874.15 874.15 865.63-865.64v50.88l-840.19 840.2 840.19 840.19v50.88l-891.07-891.07-856.15-856.16v1748.29l881.59 881.59 865.63-865.65v50.9l-840.19 840.19-899.59 899.59 874.15 874.14 865.63-865.64v50.89l-840.19 840.19 874.14 874.14 202.05-202.05c4.89 11.58 10.33 22.85 16.28 33.81.07.18.16.38.23.56l-193.12 193.12 874.15 874.14 668.42-668.42h50.88l-693.86 693.86 874.14 874.15 874.14-874.15-693.87-693.86h50.88l668.43 668.42 668.43-668.42h50.88l-693.87 693.86-899.58 899.59 874.14 874.14 881.59-881.59v-1586h35.99v1586l881.59 881.59 874.14-874.14-899.58-899.59-693.87-693.86h50.88l668.43 668.42 668.42-668.42h50.89l-693.87 693.86 874.14 874.15 874.14-874.15-693.86-693.86h50.88l668.42 668.42 668.43-668.42h50.88l-693.87 693.86-899.58 899.59 874.14 874.14 881.59-881.59v-1586h35.99v1586l881.59 881.59 874.14-874.14-899.58-899.59-693.87-693.86h50.89l668.42 668.42 668.43-668.42h50.88l-693.87 693.86 874.15 874.15 874.13-874.15-693.86-693.86h50.88l668.43 668.42 668.43-668.42h50.87l-693.86 693.86-899.59 899.59 874.15 874.14 881.59-881.59v-1586h35.98zm-10794.99-162.29v1748.29l881.59 881.59 874.14-874.14-899.59-899.59zm-35.99 0-856.15 856.15-899.59 899.59 874.15 874.14 881.59-881.59zm-3562.35 0v1748.29l881.59 881.59 874.15-874.14-899.59-899.59zm-35.99 0-856.14 856.15-899.59 899.59 874.14 874.14 881.59-881.59zm16210.5-17.99-874.14 874.14 874.14 874.15 874.21-874.15zm-14393.34 0-874.14 874.14 874.14 874.15 874.15-874.15zm17973.68-1781.17-856.23 856.15-899.58 899.58 874.22 874.14 881.59-881.59zm-3562.35 0v1748.28l881.59 881.59 874.22-874.14-899.59-899.58zm-14393.33 0v1748.28l881.59 881.59 874.14-874.14-899.58-899.58zm-35.99 0-856.15 856.15-899.58 899.58 874.14 874.14 881.59-881.59zm-3562.35 0v1748.28l881.59 881.59 874.15-874.14-899.59-899.58zm19772.84-17.99-874.21 874.14 874.21 874.14 874.22-874.14zm-17991.66 0-874.14 874.14 874.14 874.14 874.14-874.14zm18009.66-1781.18v1748.29l881.59 881.59 874.21-874.14-899.58-899.59zm-35.99 0-856.22 856.15-899.59 899.59 874.22 874.14 881.59-881.59zm-17955.68 0v1748.29l881.59 881.59 874.15-874.14-899.59-899.59zm-35.99 0-856.14 856.15-899.59 899.59 874.14 874.14 881.59-881.59zm16210.5-17.99-874.14 874.14 874.14 874.14 874.21-874.14zm-14393.34 0-874.14 874.14 874.14 874.14 874.15-874.14zm17973.68-1781.18-856.23 856.16-899.58 899.58 874.22 874.14 881.59-881.59zm-3562.35 0v1748.29l881.59 881.59 874.22-874.14-899.59-899.58zm-14429.32 0-856.15 856.16-899.58 899.58 874.14 874.14 881.59-881.59zm-3562.35 0v1748.29l881.59 881.59 874.15-874.14-899.59-899.58zm19772.84-17.99-874.21 874.15 874.21 874.14 874.22-874.14zm-17991.66 0-874.14 874.15 874.14 874.14 874.14-874.14zm18009.66-1781.17v1748.29l881.59 881.59 874.21-874.15-899.58-899.58zm-35.99 0-856.22 856.15-899.59 899.58 874.22 874.15 881.59-881.59zm-17955.68 0v1748.29l881.59 881.59 874.15-874.15-899.59-899.58zm-35.99 0-856.14 856.15-899.59 899.58 874.14 874.15 881.59-881.59zm16210.5-17.99-874.14 874.14 874.14 874.14 874.21-874.14zm-14393.34 0-874.14 874.14 874.14 874.14 874.15-874.14zm17973.68-1781.18-856.23 856.15-899.58 899.58 874.22 874.15 881.59-881.59zm-3562.35 0v1748.29l881.59 881.59 874.22-874.15-899.59-899.58zm-35.98 0-856.15 856.15-899.59 899.58 874.14 874.15 881.6-881.59zm-14357.35 0v1748.29l881.59 881.59 874.14-874.15-899.58-899.58zm-35.99 0-856.15 856.15-899.58 899.58 874.14 874.15 881.59-881.59zm-3562.35 0v1748.29l881.59 881.59 874.15-874.15-899.59-899.58zm19772.84-17.99-874.21 874.14 874.21 874.15 874.22-874.15zm-3598.33 0-874.14 874.14 874.14 874.15 874.14-874.15zm-3598.33 0-874.15 874.14 874.15 874.15 874.14-874.15zm-3598.34 0-874.14 874.14 874.14 874.15 874.15-874.15zm-3598.33 0-874.14 874.14 874.14 874.15 874.14-874.15zm-3598.33 0-874.14 874.14 874.14 874.15 874.14-874.15zm18009.66-1781.17v1748.28l881.59 881.59 874.21-874.14-899.58-899.58zm-35.99 0-856.22 856.15-899.59 899.58 874.22 874.14 881.59-881.59zm-3562.35 0v1748.28l881.59 881.59 874.15-874.14-899.59-899.58zm-35.98 0-856.15 856.15-899.59 899.58 874.15 874.14 881.59-881.59zm-3562.35 0v1748.28l881.59 881.59 874.14-874.14-899.58-899.58zm-35.99 0-856.15 856.15-899.58 899.58 874.14 874.14 881.59-881.59zm-3562.34 0v1748.28l881.59 881.59 874.14-874.14-899.58-899.58zm-35.99 0-856.15 856.15-899.58 899.58 874.14 874.14 881.59-881.59zm-3562.34 0v1748.28l881.59 881.59 874.14-874.14-899.59-899.58zm-35.99 0-856.15 856.15-899.59 899.58 874.15 874.14 881.59-881.59zm-3562.35 0v1748.28l881.59 881.59 874.15-874.14-899.59-899.58zm-35.99 0-856.14 856.15-899.59 899.58 874.14 874.14 881.59-881.59zm16210.5-18-874.14 874.15 874.14 874.14 874.21-874.14zm-3598.33 0-874.15 874.15 874.15 874.14 874.13-874.14zm-3598.34 0-874.14 874.15 874.14 874.14 874.14-874.14zm-3598.33 0-874.14 874.15 874.14 874.14 874.14-874.14zm-3598.34 0-874.14 874.15 874.14 874.14 874.15-874.14zm17973.68-1781.24-856.23 856.22-899.58 899.58 874.22 874.14 881.59-881.51zm-3562.35 0v1748.43l881.59 881.51 874.22-874.14-899.59-899.58zm-35.98 0-856.15 856.22-899.59 899.58 874.14 874.14 881.6-881.51zm-3562.35 0v1748.43l881.59 881.51 874.14-874.14-899.59-899.58zm-35.99 0-856.15 856.22-899.58 899.58 874.14 874.14 881.59-881.51zm-3562.35 0v1748.43l881.59 881.51 874.15-874.14-899.59-899.58zm-35.98 0-856.15 856.22-899.58 899.58 874.14 874.14 881.59-881.51zm-3562.35 0v1748.43l881.59 881.51 874.14-874.14-899.58-899.58zm-35.98 0-856.15 856.22-899.59 899.58 874.15 874.14 881.59-881.51zm-3562.35 0v1748.43l881.59 881.51 874.14-874.14-899.58-899.58zm-35.99 0-856.15 856.22-899.58 899.58 874.14 874.14 881.59-881.51zm-3562.35 0v1748.43l881.59 881.51 874.15-874.14-899.59-899.58zm19772.84-18-874.21 874.22 874.21 874.22 874.22-874.22zm-3598.33 0-874.14 874.22 874.14 874.22 874.14-874.22zm-3598.33 0-874.15 874.22 874.15 874.22 874.14-874.22zm-3598.34 0-874.14 874.22 874.14 874.22 874.15-874.22zm-3598.33 0-874.14 874.22 874.14 874.22 874.14-874.22zm-3598.33 0-874.14 874.22 874.14 874.22 874.14-874.22zm18009.66-1781.17v1748.43l881.59 881.59 874.21-874.21-899.58-899.59-856.22-856.22zm-35.99 0-856.22 856.22-899.59 899.59 874.22 874.21 881.59-881.59zm-3562.35 0v1748.43l881.59 881.59 874.15-874.21-899.59-899.59-856.15-856.22zm-35.98 0-856.15 856.22-899.59 899.59 874.15 874.21 881.59-881.59zm-3562.35 0v1748.43l881.59 881.59 874.14-874.21-899.58-899.59-856.15-856.22zm-35.99 0-856.15 856.22-899.58 899.59 874.14 874.21 881.59-881.59zm-3562.34 0v1748.43l881.59 881.59 874.14-874.21-899.58-899.59-856.15-856.22zm-35.99 0-856.15 856.22-899.58 899.59 874.14 874.21 881.59-881.59zm-3562.34 0v1748.43l881.59 881.59 874.14-874.21-899.59-899.59-856.14-856.22zm-35.99 0-856.15 856.22-899.59 899.59 874.15 874.21 881.59-881.59zm-3562.35 0v1748.43l881.59 881.59 874.15-874.21-899.59-899.59-856.15-856.22zm-35.99 0-856.14 856.22-899.59 899.59 874.14 874.21 881.59-881.59zm16210.5-17.99-874.14 874.21 874.14 874.22 874.21-874.22zm-3598.33 0-874.15 874.21 874.15 874.22 874.13-874.22zm-3598.34 0-874.14 874.21 874.14 874.22 874.14-874.22zm-3598.33 0-874.14 874.21 874.14 874.22 874.14-874.22zm-3598.34 0-874.14 874.21 874.14 874.22 874.15-874.22z" fill="url(#a)"/><path d="m5450.02 7223.92 846.78 846.85 846.77-846.85h50.81l-872.14 872.21 874.14 874.22 874.14-874.22-872.14-872.21h50.81l846.77 846.85 846.77-846.85h105.63l846.77 846.85 846.77-846.85h50.81l-872.14 872.21 874.14 874.22 874.14-874.22-872.14-872.21h50.81l846.77 846.85 846.78-846.85h105.62l846.77 846.85 846.77-846.85h50.82l-872.15 872.21 874.15 874.22 874.13-874.22-872.13-872.21h50.8l846.78 846.85 846.77-846.85h105.62l846.77 846.85 241.39-241.41v50.81l-215.94 215.96 215.94 215.96v50.87l-266.83-266.83-856.15-856.22v1748.43l881.59 881.59 241.39-241.41v50.82l-215.94 215.96-899.59 899.58 874.14 874.14 241.39-241.37v50.88l-215.94 215.94 215.94 215.94v50.89l-266.83-266.83-856.15-856.15v1748.28l881.59 881.59 241.39-241.39v50.89l-215.94 215.94-899.59 899.58 373.65 373.65h-50.89l-330.21-330.21v330.21h-35.98v-330.21l-330.21 330.21h-50.88l373.64-373.65-899.59-899.58-856.14-856.15v1748.29l381.08 381.09h-50.87l-348.2-348.2-348.21 348.2h-50.88l381.09-381.09v-1748.29l-856.15 856.15-899.58 899.58 373.64 373.65h-50.88l-330.21-330.21v330.21h-35.99v-330.21l-330.2 330.21h-50.89l373.65-373.65-899.59-899.58-856.15-856.15v1748.29l381.09 381.09h-50.88l-348.2-348.2-348.2 348.2h-50.88l381.09-381.09v-1748.29l-856.15 856.15-899.58 899.58 373.64 373.65h-50.89l-330.2-330.21v330.21h-35.99v-330.21l-330.21 330.21h-50.88l373.64-373.65-899.58-899.58-856.15-856.15v1748.29l381.09 381.09h-50.88l-348.2-348.2-348.2 348.2h-50.88l381.09-381.09v-1748.29l-856.15 856.15-899.59 899.58 373.64 373.65h-50.88l-330.2-330.21v330.21h-35.99v-330.21-86.86l17.99 17.99 874.14-874.15-874.14-874.14-17.99 17.99v-50.88-1748.28-86.79l17.99 17.99 874.14-874.22-874.14-874.22-17.99 17.99v-50.73-1748.43-15.99h70.8zm10742.19 5395.57-874.14 874.14 874.14 874.15 874.14-874.15zm-3598.33 0-874.15 874.14 874.15 874.15 874.14-874.15zm-3598.34 0-874.14 874.14 874.14 874.15 874.15-874.15zm7178.68-1781.17-856.15 856.15-899.59 899.58 874.15 874.14 881.59-881.59zm-3562.35 0v1748.28l881.59 881.59 874.14-874.14-899.58-899.58zm-35.99 0-856.15 856.15-899.58 899.58 874.14 874.14 881.59-881.59zm-3562.34 0v1748.28l881.59 881.59 874.14-874.14-899.58-899.58zm-35.99 0-856.15 856.15-899.58 899.58 874.14 874.14 881.59-881.59zm-3562.34 0v1748.28l881.59 881.59 874.14-874.14-899.59-899.58zm8977.84-18-874.15 874.15 874.15 874.14 874.13-874.14zm-3598.34 0-874.14 874.15 874.14 874.14 874.14-874.14zm-3598.33 0-874.14 874.15 874.14 874.14 874.14-874.14zm7214.66-1781.24v1748.43l881.59 881.51 874.14-874.14-899.59-899.58zm-35.99 0-856.15 856.22-899.58 899.58 874.14 874.14 881.59-881.51zm-3562.35 0v1748.43l881.59 881.51 874.15-874.14-899.59-899.58zm-35.98 0-856.15 856.22-899.58 899.58 874.14 874.14 881.59-881.51zm-3562.35 0v1748.43l881.59 881.51 874.14-874.14-899.58-899.58zm-35.98 0-856.15 856.22-899.59 899.58 874.15 874.14 881.59-881.51zm9013.82-18-874.14 874.22 874.14 874.22 874.14-874.22zm-3598.33 0-874.15 874.22 874.15 874.22 874.14-874.22zm-3598.34 0-874.14 874.22 874.14 874.22 874.15-874.22zm7178.68-1781.17-856.15 856.22-899.59 899.59 874.15 874.21 881.59-881.59zm-3562.35 0v1748.43l881.59 881.59 874.14-874.21-899.58-899.59zm-35.99 0-856.15 856.22-899.58 899.59 874.14 874.21 881.59-881.59zm-3562.34 0v1748.43l881.59 881.59 874.14-874.21-899.58-899.59zm-35.99 0-856.15 856.22-899.58 899.59 874.14 874.21 881.59-881.59zm-3562.34 0v1748.43l881.59 881.59 874.14-874.21-899.59-899.59z" fill="url(#b)"/></svg>