<?xml version="1.0" encoding="UTF-8"?>
<!DOCTYPE svg PUBLIC "-//W3C//DTD SVG 1.1//EN" "http://www.w3.org/Graphics/SVG/1.1/DTD/svg11.dtd">
<!-- Creator: CorelDRAW 2017 -->
<svg xmlns="http://www.w3.org/2000/svg" xml:space="preserve" width="230mm" height="297.647mm" version="1.1" style="shape-rendering:geometricPrecision; text-rendering:geometricPrecision; image-rendering:optimizeQuality; fill-rule:evenodd; clip-rule:evenodd"
viewBox="0 0 23000 29764.71"
 xmlns:xlink="http://www.w3.org/1999/xlink">
 <defs>
  <style type="text/css">
   <![CDATA[
    .str0 {stroke:#2B2A29;stroke-width:18.79;stroke-miterlimit:22.9256}
    .fil0 {fill:#2C354D}
    .fil1 {fill:url(#id0)}
    .fil2 {fill:url(#id1)}
   ]]>
  </style>
  <linearGradient id="id0" gradientUnits="userSpaceOnUse" x1="-0" y1="11500" x2="23000" y2="11500">
   <stop offset="0" style="stop-opacity:1; stop-color:#BE965D"/>
   <stop offset="0.141176" style="stop-opacity:1; stop-color:#AB834F"/>
   <stop offset="0.278431" style="stop-opacity:1; stop-color:#976F40"/>
   <stop offset="0.631373" style="stop-opacity:1; stop-color:#FFCB85"/>
   <stop offset="1" style="stop-opacity:1; stop-color:#976F40"/>
  </linearGradient>
  <linearGradient id="id1" gradientUnits="userSpaceOnUse" xlink:href="#id0" x1="-0.31" y1="19166.54" x2="22999.69" y2="19166.54">
  </linearGradient>
 </defs>
 <g id="Layer_x0020_1">
  <metadata id="CorelCorpID_0Corel-Layer"/>
  <rect class="fil0 str0" x="-0.01" width="22972.97" height="23000"/>
  <path class="fil1" d="M23000 23000l-27.03 0 7.86 -7.86 0 -1862.62 -912.15 912.15 -958.33 958.33 -54.04 0 -958.34 -958.33 -912.14 -912.15 0 1862.62 7.85 7.86 -54.12 0 7.94 -7.86 0 -1862.62 -912.06 912.15 -958.34 958.33 -54.2 0 -958.34 -958.33 -912.05 -912.15 0 1862.62 7.93 7.86 -54.2 0 7.94 -7.86 0 -1862.62 -912.06 912.15 -958.33 958.33 -54.2 0 -958.34 -958.33 -912.06 -912.15 0 1862.62 7.94 7.86 -54.2 0 7.94 -7.86 0 -1862.62 -912.06 912.15 -958.33 958.33 -54.21 0 -958.33 -958.33 -912.06 -912.15 0 1862.62 7.94 7.86 -54.2 0 7.94 -7.86 0 -1862.62 -912.06 912.15 -958.34 958.33 -54.2 0 -958.33 -958.33 -912.06 -912.15 0 1862.62 7.93 7.86 -54.19 0 7.93 -7.86 0 -1862.62 -912.06 912.15 -958.33 958.33 -54.2 0 -958.34 -958.33 -912.06 -912.15 0 1862.62 7.94 7.86 -27.1 0 0 -1943.69 931.23 -931.31 -931.23 -931.31 0 -1970.79 931.23 -931.24 -931.23 -931.23 0 -1970.87 931.23 -931.23 -931.23 -931.23 0 -1970.87 931.23 -931.23 -931.23 -931.23 0 -1970.87 931.23 -931.23 -931.23 -931.24 0 -1970.79 931.23 -931.31 -931.23 -931.3 0 -27.03 27.1 0 931.23 931.31 931.24 -931.31 54.2 0 931.23 931.31 931.24 -931.31 54.19 0 931.24 931.31 931.23 -931.31 54.2 0 931.24 931.31 931.23 -931.31 54.2 0 931.23 931.31 931.23 -931.31 54.21 0 931.23 931.31 931.23 -931.31 54.2 0 931.23 931.31 931.24 -931.31 54.2 0 931.23 931.31 931.23 -931.31 54.2 0 931.24 931.31 931.23 -931.31 54.2 0 931.23 931.31 931.24 -931.31 54.12 0 931.31 931.31 931.31 -931.31 54.04 0 931.31 931.31 931.3 -931.31 27.03 0 0 27.03 -931.31 931.3 931.31 931.31 0 1970.79 -931.31 931.24 931.31 931.23 0 1970.87 -931.31 931.23 931.31 931.23 0 1970.87 -931.31 931.23 931.31 931.23 0 1970.87 -931.31 931.23 931.31 931.24 0 1970.79 -931.31 931.31 931.31 931.31 0 1943.69zm-1916.67 -1889.63l-931.3 931.3 931.3 931.3 931.31 -931.3 -931.31 -931.3zm-3833.33 0l-931.23 931.3 931.23 931.3 931.23 -931.3 -931.23 -931.3zm-3833.33 0l-931.24 931.3 931.24 931.3 931.23 -931.3 -931.23 -931.3zm-3833.34 0l-931.23 931.3 931.23 931.3 931.24 -931.3 -931.24 -931.3zm-3833.33 0l-931.23 931.3 931.23 931.3 931.23 -931.3 -931.23 -931.3zm-3833.33 0l-931.23 931.3 931.23 931.3 931.23 -931.3 -931.23 -931.3zm19185.84 -1897.51l0 1862.61 939.16 939.16 931.3 -931.3 -958.33 -958.33 -912.14 -912.14zm-38.34 0l-912.14 912.14 -958.34 958.33 931.31 931.3 939.16 -939.16 0 -1862.61zm-3795 0l0 1862.61 939.16 939.16 931.24 -931.3 -958.34 -958.33 -912.06 -912.14zm-38.33 0l-912.06 912.14 -958.34 958.33 931.24 931.3 939.16 -939.16 0 -1862.61zm-3795 0l0 1862.61 939.16 939.16 931.23 -931.3 -958.33 -958.33 -912.06 -912.14zm-38.34 0l-912.06 912.14 -958.33 958.33 931.23 931.3 939.16 -939.16 0 -1862.61zm-3794.99 0l0 1862.61 939.16 939.16 931.23 -931.3 -958.33 -958.33 -912.06 -912.14zm-38.34 0l-912.06 912.14 -958.33 958.33 931.23 931.3 939.16 -939.16 0 -1862.61zm-3794.99 0l0 1862.61 939.16 939.16 931.23 -931.3 -958.34 -958.33 -912.05 -912.14zm-38.34 0l-912.06 912.14 -958.34 958.33 931.24 931.3 939.16 -939.16 0 -1862.61zm-3795 0l0 1862.61 939.16 939.16 931.24 -931.3 -958.34 -958.33 -912.06 -912.14zm-38.34 0l-912.05 912.14 -958.34 958.33 931.23 931.3 939.16 -939.16 0 -1862.61zm17269.18 -19.18l-931.23 931.31 931.23 931.31 931.3 -931.31 -931.3 -931.31zm-3833.33 0l-931.24 931.31 931.24 931.31 931.22 -931.31 -931.22 -931.31zm-3833.34 0l-931.23 931.31 931.23 931.31 931.23 -931.31 -931.23 -931.31zm-3833.33 0l-931.23 931.31 931.23 931.31 931.23 -931.31 -931.23 -931.31zm-3833.34 0l-931.23 931.31 931.23 931.31 931.24 -931.31 -931.24 -931.31zm19147.51 -1897.42l-912.15 912.06 -958.33 958.34 931.31 931.3 939.16 -939.25 0 -1862.46zm-3795 0l0 1862.46 939.16 939.25 931.31 -931.3 -958.34 -958.34 -912.14 -912.06zm-38.33 0l-912.06 912.06 -958.34 958.34 931.23 931.3 939.18 -939.25 0 -1862.46zm-3795 0l0 1862.46 939.16 939.25 931.23 -931.3 -958.34 -958.34 -912.05 -912.06zm-38.34 0l-912.06 912.06 -958.33 958.34 931.23 931.3 939.16 -939.25 0 -1862.46zm-3795 0l0 1862.46 939.16 939.25 931.24 -931.3 -958.34 -958.34 -912.06 -912.06zm-38.33 0l-912.06 912.06 -958.33 958.34 931.23 931.3 939.16 -939.25 0 -1862.46zm-3795 0l0 1862.46 939.16 939.25 931.23 -931.3 -958.33 -958.34 -912.06 -912.06zm-38.33 0l-912.06 912.06 -958.34 958.34 931.24 931.3 939.16 -939.25 0 -1862.46zm-3795 0l0 1862.46 939.16 939.25 931.23 -931.3 -958.33 -958.34 -912.06 -912.06zm-38.34 0l-912.06 912.06 -958.33 958.34 931.23 931.3 939.16 -939.25 0 -1862.46zm-3795 0l0 1862.46 939.16 939.25 931.24 -931.3 -958.34 -958.34 -912.06 -912.06zm21064.16 -19.16l-931.3 931.23 931.3 931.24 931.31 -931.24 -931.31 -931.23zm-3833.33 0l-931.23 931.23 931.23 931.24 931.23 -931.24 -931.23 -931.23zm-3833.33 0l-931.24 931.23 931.24 931.24 931.23 -931.24 -931.23 -931.23zm-3833.34 0l-931.23 931.23 931.23 931.24 931.24 -931.24 -931.24 -931.23zm-3833.33 0l-931.23 931.23 931.23 931.24 931.23 -931.24 -931.23 -931.23zm-3833.33 0l-931.23 931.23 931.23 931.24 931.23 -931.24 -931.23 -931.23zm19185.84 -1897.51l0 1862.47 939.16 939.16 931.3 -931.23 -958.33 -958.34 -912.14 -912.06zm-38.34 0l-912.14 912.06 -958.34 958.34 931.31 931.23 939.16 -939.16 0 -1862.47zm-3795 172.89l0 1689.58 939.16 939.16 931.24 -931.23 -958.34 -958.34 -739.17 -739.17 54.2 0 712.07 712.07 939.18 -939.16 0 -1862.46 -912.06 912.06 -272.06 272.05 0 -54.2 217.84 -217.84 -217.84 -217.84 0 -54.21 244.95 244.96 931.24 -931.23 -958.34 -958.34 -217.84 -217.84 0 -54.2 244.95 244.95 939.18 -939.16 0 -1862.47 -912.06 912.07 -272.06 272.05 0 -54.2 217.84 -217.84 -217.84 -217.86 0 -54.2 244.95 244.96 931.24 -931.24 -958.34 -958.33 -912.06 -912.06 0 594.67c-3.91,-2.56 -7.87,-5.03 -11.88,-7.45 -8.55,-6.73 -17.39,-13.15 -26.45,-19.2l0 -568.02 -411.79 411.79 -54.2 0 458.06 -458.07 -958.34 -958.33 -912.05 -912.06 0 1862.47 465.99 466 -54.19 0 -430.96 -430.96 -430.97 430.96 -54.2 0 466 -466 0 -1862.47 -912.06 912.06 -958.33 958.33 458.06 458.07 -54.2 0 -411.79 -411.79 0 411.79 -38.34 0 0 -411.79 -411.78 411.79 -54.21 0 458.07 -458.07 -958.34 -958.33 -912.06 -912.06 0 1862.47 466 466 -54.2 0 -430.96 -430.96 -430.96 430.96 -54.2 0 466 -466 0 -1862.47 -912.06 912.06 -958.33 958.33 458.06 458.07 -54.21 0 -411.78 -411.79 0 411.79 -38.34 0 0 -411.79 -411.79 411.79 -54.2 0 458.06 -458.07 -958.33 -958.33 -912.06 -912.06 0 1862.47 466 466 -54.2 0 -430.96 -430.96 -430.96 430.96 -54.2 0 466 -466 0 -1862.47 -912.06 912.06 -958.34 958.33 458.06 458.07 -54.2 0 -411.78 -411.79 0 615.08c-16.09,27.6 -29.02,57.23 -38.34,88.47l0 -703.55 -912.06 912.06 -958.34 958.33 931.24 931.24 922.16 -922.17 0 54.2 -895.06 895.07 895.06 895.06 0 54.2 -949.26 -949.26 -912.06 -912.07 0 1862.47 939.16 939.16 922.16 -922.18 0 54.22 -895.06 895.06 -958.34 958.34 931.24 931.23 922.16 -922.17 0 54.21 -895.06 895.06 931.23 931.23 215.25 -215.25c5.21,12.34 11,24.34 17.34,36.02 0.07,0.19 0.17,0.4 0.25,0.6l-205.73 205.73 931.24 931.23 712.07 -712.07 54.2 0 -739.17 739.17 931.23 931.24 931.23 -931.24 -739.19 -739.17 54.2 0 712.08 712.07 712.08 -712.07 54.2 0 -739.19 739.17 -958.33 958.34 931.23 931.23 939.16 -939.16 0 -1689.58 38.34 0 0 1689.58 939.16 939.16 931.23 -931.23 -958.33 -958.34 -739.19 -739.17 54.2 0 712.08 712.07 712.07 -712.07 54.21 0 -739.19 739.17 931.23 931.24 931.23 -931.24 -739.17 -739.17 54.2 0 712.07 712.07 712.08 -712.07 54.2 0 -739.19 739.17 -958.33 958.34 931.23 931.23 939.16 -939.16 0 -1689.58 38.34 0 0 1689.58 939.16 939.16 931.23 -931.23 -958.33 -958.34 -739.19 -739.17 54.21 0 712.07 712.07 712.08 -712.07 54.2 0 -739.19 739.17 931.24 931.24 931.22 -931.24 -739.17 -739.17 54.2 0 712.08 712.07 712.08 -712.07 54.19 0 -739.17 739.17 -958.34 958.34 931.24 931.23 939.16 -939.16 0 -1689.58 38.33 0zm-11499.99 -172.89l0 1862.47 939.16 939.16 931.23 -931.23 -958.34 -958.34 -912.05 -912.06zm-38.34 0l-912.06 912.06 -958.34 958.34 931.24 931.23 939.16 -939.16 0 -1862.47zm-3795 0l0 1862.47 939.16 939.16 931.24 -931.23 -958.34 -958.34 -912.06 -912.06zm-38.34 0l-912.05 912.06 -958.34 958.34 931.23 931.23 939.16 -939.16 0 -1862.47zm17269.18 -19.16l-931.23 931.23 931.23 931.24 931.3 -931.24 -931.3 -931.23zm-15333.34 0l-931.23 931.23 931.23 931.24 931.24 -931.24 -931.24 -931.23zm19147.51 -1897.49l-912.15 912.06 -958.33 958.33 931.31 931.23 939.16 -939.16 0 -1862.46zm-3795 0l0 1862.46 939.16 939.16 931.31 -931.23 -958.34 -958.33 -912.14 -912.06zm-15333.33 0l0 1862.46 939.16 939.16 931.23 -931.23 -958.33 -958.33 -912.06 -912.06zm-38.34 0l-912.06 912.06 -958.33 958.33 931.23 931.23 939.16 -939.16 0 -1862.46zm-3795 0l0 1862.46 939.16 939.16 931.24 -931.23 -958.34 -958.33 -912.06 -912.06zm21064.16 -19.16l-931.3 931.23 931.3 931.23 931.31 -931.23 -931.31 -931.23zm-19166.66 0l-931.23 931.23 931.23 931.23 931.23 -931.23 -931.23 -931.23zm19185.84 -1897.51l0 1862.47 939.16 939.16 931.3 -931.23 -958.33 -958.34 -912.14 -912.06zm-38.34 0l-912.14 912.06 -958.34 958.34 931.31 931.23 939.16 -939.16 0 -1862.47zm-19128.33 0l0 1862.47 939.16 939.16 931.24 -931.23 -958.34 -958.34 -912.06 -912.06zm-38.34 0l-912.05 912.06 -958.34 958.34 931.23 931.23 939.16 -939.16 0 -1862.47zm17269.18 -19.16l-931.23 931.23 931.23 931.23 931.3 -931.23 -931.3 -931.23zm-15333.34 0l-931.23 931.23 931.23 931.23 931.24 -931.23 -931.24 -931.23zm19147.51 -1897.51l-912.15 912.07 -958.33 958.33 931.31 931.23 939.16 -939.16 0 -1862.47zm-3795 0l0 1862.47 939.16 939.16 931.31 -931.23 -958.34 -958.33 -912.14 -912.07zm-15371.67 0l-912.06 912.07 -958.33 958.33 931.23 931.23 939.16 -939.16 0 -1862.47zm-3795 0l0 1862.47 939.16 939.16 931.24 -931.23 -958.34 -958.33 -912.06 -912.07zm21064.16 -19.16l-931.3 931.24 931.3 931.23 931.31 -931.23 -931.31 -931.24zm-19166.66 0l-931.23 931.24 931.23 931.23 931.23 -931.23 -931.23 -931.24zm19185.84 -1897.49l0 1862.47 939.16 939.16 931.3 -931.24 -958.33 -958.33 -912.14 -912.06zm-38.34 0l-912.14 912.06 -958.34 958.33 931.31 931.24 939.16 -939.16 0 -1862.47zm-19128.33 0l0 1862.47 939.16 939.16 931.24 -931.24 -958.34 -958.33 -912.06 -912.06zm-38.34 0l-912.05 912.06 -958.34 958.33 931.23 931.24 939.16 -939.16 0 -1862.47zm17269.18 -19.16l-931.23 931.23 931.23 931.23 931.3 -931.23 -931.3 -931.23zm-15333.34 0l-931.23 931.23 931.23 931.23 931.24 -931.23 -931.24 -931.23zm19147.51 -1897.51l-912.15 912.06 -958.33 958.33 931.31 931.24 939.16 -939.16 0 -1862.47zm-3795 0l0 1862.47 939.16 939.16 931.31 -931.24 -958.34 -958.33 -912.14 -912.06zm-38.33 0l-912.06 912.06 -958.34 958.33 931.23 931.24 939.18 -939.16 0 -1862.47zm-15295 0l0 1862.47 939.16 939.16 931.23 -931.24 -958.33 -958.33 -912.06 -912.06zm-38.34 0l-912.06 912.06 -958.33 958.33 931.23 931.24 939.16 -939.16 0 -1862.47zm-3795 0l0 1862.47 939.16 939.16 931.24 -931.24 -958.34 -958.33 -912.06 -912.06zm21064.16 -19.16l-931.3 931.23 931.3 931.24 931.31 -931.24 -931.31 -931.23zm-3833.33 0l-931.23 931.23 931.23 931.24 931.23 -931.24 -931.23 -931.23zm-3833.33 0l-931.24 931.23 931.24 931.24 931.23 -931.24 -931.23 -931.23zm-3833.34 0l-931.23 931.23 931.23 931.24 931.24 -931.24 -931.24 -931.23zm-3833.33 0l-931.23 931.23 931.23 931.24 931.23 -931.24 -931.23 -931.23zm-3833.33 0l-931.23 931.23 931.23 931.24 931.23 -931.24 -931.23 -931.23zm19185.84 -1897.49l0 1862.46 939.16 939.16 931.3 -931.23 -958.33 -958.33 -912.14 -912.06zm-38.34 0l-912.14 912.06 -958.34 958.33 931.31 931.23 939.16 -939.16 0 -1862.46zm-3795 0l0 1862.46 939.16 939.16 931.24 -931.23 -958.34 -958.33 -912.06 -912.06zm-38.33 0l-912.06 912.06 -958.34 958.33 931.24 931.23 939.16 -939.16 0 -1862.46zm-3795 0l0 1862.46 939.16 939.16 931.23 -931.23 -958.33 -958.33 -912.06 -912.06zm-38.34 0l-912.06 912.06 -958.33 958.33 931.23 931.23 939.16 -939.16 0 -1862.46zm-3794.99 0l0 1862.46 939.16 939.16 931.23 -931.23 -958.33 -958.33 -912.06 -912.06zm-38.34 0l-912.06 912.06 -958.33 958.33 931.23 931.23 939.16 -939.16 0 -1862.46zm-3794.99 0l0 1862.46 939.16 939.16 931.23 -931.23 -958.34 -958.33 -912.05 -912.06zm-38.34 0l-912.06 912.06 -958.34 958.33 931.24 931.23 939.16 -939.16 0 -1862.46zm-3795 0l0 1862.46 939.16 939.16 931.24 -931.23 -958.34 -958.33 -912.06 -912.06zm-38.34 0l-912.05 912.06 -958.34 958.33 931.23 931.23 939.16 -939.16 0 -1862.46zm17269.18 -19.18l-931.23 931.24 931.23 931.23 931.3 -931.23 -931.3 -931.24zm-3833.33 0l-931.24 931.24 931.24 931.23 931.22 -931.23 -931.22 -931.24zm-3833.34 0l-931.23 931.24 931.23 931.23 931.23 -931.23 -931.23 -931.24zm-3833.33 0l-931.23 931.24 931.23 931.23 931.23 -931.23 -931.23 -931.24zm-3833.34 0l-931.23 931.24 931.23 931.23 931.24 -931.23 -931.24 -931.24zm19147.51 -1897.57l-912.15 912.14 -958.33 958.33 931.31 931.23 939.16 -939.08 0 -1862.62zm-3795 0l0 1862.62 939.16 939.08 931.31 -931.23 -958.34 -958.33 -912.14 -912.14zm-38.33 0l-912.06 912.14 -958.34 958.33 931.23 931.23 939.18 -939.08 0 -1862.62zm-3795 0l0 1862.62 939.16 939.08 931.23 -931.23 -958.34 -958.33 -912.05 -912.14zm-38.34 0l-912.06 912.14 -958.33 958.33 931.23 931.23 939.16 -939.08 0 -1862.62zm-3795 0l0 1862.62 939.16 939.08 931.24 -931.23 -958.34 -958.33 -912.06 -912.14zm-38.33 0l-912.06 912.14 -958.33 958.33 931.23 931.23 939.16 -939.08 0 -1862.62zm-3795 0l0 1862.62 939.16 939.08 931.23 -931.23 -958.33 -958.33 -912.06 -912.14zm-38.33 0l-912.06 912.14 -958.34 958.33 931.24 931.23 939.16 -939.08 0 -1862.62zm-3795 0l0 1862.62 939.16 939.08 931.23 -931.23 -958.33 -958.33 -912.06 -912.14zm-38.34 0l-912.06 912.14 -958.33 958.33 931.23 931.23 939.16 -939.08 0 -1862.62zm-3795 0l0 1862.62 939.16 939.08 931.24 -931.23 -958.34 -958.33 -912.06 -912.14zm21064.16 -19.18l-931.3 931.31 931.3 931.31 931.31 -931.31 -931.31 -931.31zm-3833.33 0l-931.23 931.31 931.23 931.31 931.23 -931.31 -931.23 -931.31zm-3833.33 0l-931.24 931.31 931.24 931.31 931.23 -931.31 -931.23 -931.31zm-3833.34 0l-931.23 931.31 931.23 931.31 931.24 -931.31 -931.24 -931.31zm-3833.33 0l-931.23 931.31 931.23 931.31 931.23 -931.31 -931.23 -931.31zm-3833.33 0l-931.23 931.31 931.23 931.31 931.23 -931.31 -931.23 -931.31zm19185.84 -1897.49l0 1862.62 939.16 939.16 931.3 -931.3 -958.33 -958.34 -912.14 -912.14zm-38.34 0l-912.14 912.14 -958.34 958.34 931.31 931.3 939.16 -939.16 0 -1862.62zm-3795 0l0 1862.62 939.16 939.16 931.24 -931.3 -958.34 -958.34 -912.06 -912.14zm-38.33 0l-912.06 912.14 -958.34 958.34 931.24 931.3 939.16 -939.16 0 -1862.62zm-3795 0l0 1862.62 939.16 939.16 931.23 -931.3 -958.33 -958.34 -912.06 -912.14zm-38.34 0l-912.06 912.14 -958.33 958.34 931.23 931.3 939.16 -939.16 0 -1862.62zm-3794.99 0l0 1862.62 939.16 939.16 931.23 -931.3 -958.33 -958.34 -912.06 -912.14zm-38.34 0l-912.06 912.14 -958.33 958.34 931.23 931.3 939.16 -939.16 0 -1862.62zm-3794.99 0l0 1862.62 939.16 939.16 931.23 -931.3 -958.34 -958.34 -912.05 -912.14zm-38.34 0l-912.06 912.14 -958.34 958.34 931.24 931.3 939.16 -939.16 0 -1862.62zm-3795 0l0 1862.62 939.16 939.16 931.24 -931.3 -958.34 -958.34 -912.06 -912.14zm-38.34 0l-912.05 912.14 -958.34 958.34 931.23 931.3 939.16 -939.16 0 -1862.62zm17269.18 -19.16l-931.23 931.3 931.23 931.31 931.3 -931.31 -931.3 -931.3zm-3833.33 0l-931.24 931.3 931.24 931.31 931.22 -931.31 -931.22 -931.3zm-3833.34 0l-931.23 931.3 931.23 931.31 931.23 -931.31 -931.23 -931.3zm-3833.33 0l-931.23 931.3 931.23 931.31 931.23 -931.31 -931.23 -931.3zm-3833.34 0l-931.23 931.3 931.23 931.31 931.24 -931.31 -931.24 -931.3z"/>
  <path class="fil2" d="M5805.95 7695.7l902.08 902.16 902.07 -902.16 54.13 0 -929.1 929.17 931.23 931.31 931.23 -931.31 -929.1 -929.17 54.13 0 902.07 902.16 902.07 -902.16 112.53 0 902.07 902.16 902.07 -902.16 54.13 0 -929.1 929.17 931.23 931.31 931.23 -931.31 -929.1 -929.17 54.13 0 902.07 902.16 902.08 -902.16 112.52 0 902.07 902.16 902.07 -902.16 54.14 0 -929.11 929.17 931.24 931.31 931.22 -931.31 -929.09 -929.17 54.12 0 902.08 902.16 902.07 -902.16 112.52 0 902.07 902.16 257.15 -257.18 0 54.13 -230.04 230.06 230.04 230.06 0 54.19 -284.26 -284.26 -912.06 -912.14 0 1862.62 939.16 939.16 257.15 -257.18 0 54.14 -230.04 230.06 -958.34 958.33 931.23 931.23 257.15 -257.13 0 54.2 -230.04 230.04 230.04 230.04 0 54.21 -284.26 -284.26 -912.06 -912.06 0 1862.46 939.16 939.16 257.15 -257.15 0 54.21 -230.04 230.04 -958.34 958.33 398.05 398.05 -54.21 0 -351.78 -351.78 0 351.78 -38.33 0 0 -351.78 -351.78 351.78 -54.2 0 398.04 -398.05 -958.34 -958.33 -912.05 -912.06 0 1862.47 405.97 405.98 -54.19 0 -370.94 -370.94 -370.95 370.94 -54.2 0 405.98 -405.98 0 -1862.47 -912.06 912.06 -958.33 958.33 398.04 398.05 -54.2 0 -351.78 -351.78 0 351.78 -38.34 0 0 -351.78 -351.76 351.78 -54.21 0 398.05 -398.05 -958.34 -958.33 -912.06 -912.06 0 1862.47 405.98 405.98 -54.2 0 -370.94 -370.94 -370.94 370.94 -54.2 0 405.98 -405.98 0 -1862.47 -912.06 912.06 -958.33 958.33 398.04 398.05 -54.21 0 -351.76 -351.78 0 351.78 -38.34 0 0 -351.78 -351.78 351.78 -54.2 0 398.04 -398.05 -958.33 -958.33 -912.06 -912.06 0 1862.47 405.98 405.98 -54.2 0 -370.94 -370.94 -370.94 370.94 -54.2 0 405.98 -405.98 0 -1862.47 -912.06 912.06 -958.34 958.33 398.04 398.05 -54.2 0 -351.76 -351.78 0 351.78 -38.34 0 0 -351.78 0 -92.53 19.16 19.16 931.23 -931.24 -931.23 -931.23 -19.16 19.16 0 -54.2 0 -1862.46 0 -92.46 19.16 19.16 931.23 -931.31 -931.23 -931.31 -19.16 19.16 0 -54.04 0 -1862.62 0 -17.03 75.42 0zm11443.74 5747.94l-931.23 931.23 931.23 931.24 931.23 -931.24 -931.23 -931.23zm-3833.33 0l-931.24 931.23 931.24 931.24 931.23 -931.24 -931.23 -931.23zm-3833.34 0l-931.23 931.23 931.23 931.24 931.24 -931.24 -931.24 -931.23zm7647.51 -1897.49l-912.06 912.06 -958.34 958.33 931.24 931.23 939.16 -939.16 0 -1862.46zm-3795 0l0 1862.46 939.16 939.16 931.23 -931.23 -958.33 -958.33 -912.06 -912.06zm-38.34 0l-912.06 912.06 -958.33 958.33 931.23 931.23 939.16 -939.16 0 -1862.46zm-3794.99 0l0 1862.46 939.16 939.16 931.23 -931.23 -958.33 -958.33 -912.06 -912.06zm-38.34 0l-912.06 912.06 -958.33 958.33 931.23 931.23 939.16 -939.16 0 -1862.46zm-3794.99 0l0 1862.46 939.16 939.16 931.23 -931.23 -958.34 -958.33 -912.05 -912.06zm9564.16 -19.18l-931.24 931.24 931.24 931.23 931.22 -931.23 -931.22 -931.24zm-3833.34 0l-931.23 931.24 931.23 931.23 931.23 -931.23 -931.23 -931.24zm-3833.33 0l-931.23 931.24 931.23 931.23 931.23 -931.23 -931.23 -931.24zm7685.84 -1897.57l0 1862.62 939.16 939.08 931.23 -931.23 -958.34 -958.33 -912.05 -912.14zm-38.34 0l-912.06 912.14 -958.33 958.33 931.23 931.23 939.16 -939.08 0 -1862.62zm-3795 0l0 1862.62 939.16 939.08 931.24 -931.23 -958.34 -958.33 -912.06 -912.14zm-38.33 0l-912.06 912.14 -958.33 958.33 931.23 931.23 939.16 -939.08 0 -1862.62zm-3795 0l0 1862.62 939.16 939.08 931.23 -931.23 -958.33 -958.33 -912.06 -912.14zm-38.33 0l-912.06 912.14 -958.34 958.33 931.24 931.23 939.16 -939.08 0 -1862.62zm9602.49 -19.18l-931.23 931.31 931.23 931.31 931.23 -931.31 -931.23 -931.31zm-3833.33 0l-931.24 931.31 931.24 931.31 931.23 -931.31 -931.23 -931.31zm-3833.34 0l-931.23 931.31 931.23 931.31 931.24 -931.31 -931.24 -931.31zm7647.51 -1897.49l-912.06 912.14 -958.34 958.34 931.24 931.3 939.16 -939.16 0 -1862.62zm-3795 0l0 1862.62 939.16 939.16 931.23 -931.3 -958.33 -958.34 -912.06 -912.14zm-38.34 0l-912.06 912.14 -958.33 958.34 931.23 931.3 939.16 -939.16 0 -1862.62zm-3794.99 0l0 1862.62 939.16 939.16 931.23 -931.3 -958.33 -958.34 -912.06 -912.14zm-38.34 0l-912.06 912.14 -958.33 958.34 931.23 931.3 939.16 -939.16 0 -1862.62zm-3794.99 0l0 1862.62 939.16 939.16 931.23 -931.3 -958.34 -958.34 -912.05 -912.14z"/>
 </g>
</svg>
