<?xml version="1.0" encoding="UTF-8"?>
<!DOCTYPE svg PUBLIC "-//W3C//DTD SVG 1.1//EN" "http://www.w3.org/Graphics/SVG/1.1/DTD/svg11.dtd">
<!-- Creator: CorelDRAW 2017 -->
<svg xmlns="http://www.w3.org/2000/svg" xml:space="preserve" width="215.9mm" height="279.4mm" version="1.1" style="shape-rendering:geometricPrecision; text-rendering:geometricPrecision; image-rendering:optimizeQuality; fill-rule:evenodd; clip-rule:evenodd"
viewBox="0 0 21590 27940"
 xmlns:xlink="http://www.w3.org/1999/xlink">
 <defs>
  <style type="text/css">
   <![CDATA[
    .fil0 {fill:url(#id0)}
    .fil1 {fill:url(#id1)}
   ]]>
  </style>
  <linearGradient id="id0" gradientUnits="userSpaceOnUse" x1="-0" y1="10795" x2="21590" y2="10795">
   <stop offset="0" style="stop-opacity:1; stop-color:#BE965D"/>
   <stop offset="0.141176" style="stop-opacity:1; stop-color:#AB834F"/>
   <stop offset="0.278431" style="stop-opacity:1; stop-color:#976F40"/>
   <stop offset="0.631373" style="stop-opacity:1; stop-color:#FFCB85"/>
   <stop offset="1" style="stop-opacity:1; stop-color:#976F40"/>
  </linearGradient>
  <linearGradient id="id1" gradientUnits="userSpaceOnUse" xlink:href="#id0" x1="-0.29" y1="17991.55" x2="21589.71" y2="17991.55">
  </linearGradient>
 </defs>
 <g id="Layer_x0020_1">
  <metadata id="CorelCorpID_0Corel-Layer"/>
  <path class="fil0" d="M21590 21590l-25.37 0 7.38 -7.38 0 -1748.43 -856.23 856.23 -899.58 899.58 -50.73 0 -899.59 -899.58 -856.22 -856.23 0 1748.43 7.37 7.38 -50.8 0 7.45 -7.38 0 -1748.43 -856.15 856.23 -899.59 899.58 -50.88 0 -899.59 -899.58 -856.14 -856.23 0 1748.43 7.44 7.38 -50.88 0 7.45 -7.38 0 -1748.43 -856.15 856.23 -899.58 899.58 -50.88 0 -899.59 -899.58 -856.15 -856.23 0 1748.43 7.45 7.38 -50.88 0 7.45 -7.38 0 -1748.43 -856.15 856.23 -899.58 899.58 -50.89 0 -899.58 -899.58 -856.15 -856.23 0 1748.43 7.45 7.38 -50.88 0 7.45 -7.38 0 -1748.43 -856.15 856.23 -899.59 899.58 -50.88 0 -899.58 -899.58 -856.15 -856.23 0 1748.43 7.44 7.38 -50.87 0 7.44 -7.38 0 -1748.43 -856.15 856.23 -899.58 899.58 -50.88 0 -899.59 -899.58 -856.15 -856.23 0 1748.43 7.45 7.38 -25.44 0 0 -1824.53 874.14 -874.22 -874.14 -874.22 0 -1849.97 874.14 -874.15 -874.14 -874.14 0 -1850.05 874.14 -874.14 -874.14 -874.14 0 -1850.05 874.14 -874.14 -874.14 -874.14 0 -1850.05 874.14 -874.14 -874.14 -874.15 0 -1849.97 874.14 -874.22 -874.14 -874.21 0 -25.37 25.44 0 874.14 874.22 874.15 -874.22 50.88 0 874.14 874.22 874.15 -874.22 50.87 0 874.15 874.22 874.14 -874.22 50.88 0 874.15 874.22 874.14 -874.22 50.88 0 874.14 874.22 874.14 -874.22 50.89 0 874.14 874.22 874.14 -874.22 50.88 0 874.14 874.22 874.15 -874.22 50.88 0 874.14 874.22 874.14 -874.22 50.88 0 874.15 874.22 874.14 -874.22 50.88 0 874.14 874.22 874.15 -874.22 50.8 0 874.22 874.22 874.22 -874.22 50.73 0 874.22 874.22 874.21 -874.22 25.37 0 0 25.37 -874.22 874.21 874.22 874.22 0 1849.97 -874.22 874.15 874.22 874.14 0 1850.05 -874.22 874.14 874.22 874.14 0 1850.05 -874.22 874.14 874.22 874.14 0 1850.05 -874.22 874.14 874.22 874.15 0 1849.97 -874.22 874.22 874.22 874.22 0 1824.53zm-1799.17 -1773.79l-874.21 874.21 874.21 874.21 874.22 -874.21 -874.22 -874.21zm-3598.33 0l-874.14 874.21 874.14 874.21 874.14 -874.21 -874.14 -874.21zm-3598.33 0l-874.15 874.21 874.15 874.21 874.14 -874.21 -874.14 -874.21zm-3598.34 0l-874.14 874.21 874.14 874.21 874.15 -874.21 -874.15 -874.21zm-3598.33 0l-874.14 874.21 874.14 874.21 874.14 -874.21 -874.14 -874.21zm-3598.33 0l-874.14 874.21 874.14 874.21 874.14 -874.21 -874.14 -874.21zm18009.66 -1781.18l0 1748.42 881.59 881.59 874.21 -874.21 -899.58 -899.58 -856.22 -856.22zm-35.99 0l-856.22 856.22 -899.59 899.58 874.22 874.21 881.59 -881.59 0 -1748.42zm-3562.35 0l0 1748.42 881.59 881.59 874.15 -874.21 -899.59 -899.58 -856.15 -856.22zm-35.98 0l-856.15 856.22 -899.59 899.58 874.15 874.21 881.59 -881.59 0 -1748.42zm-3562.35 0l0 1748.42 881.59 881.59 874.14 -874.21 -899.58 -899.58 -856.15 -856.22zm-35.99 0l-856.15 856.22 -899.58 899.58 874.14 874.21 881.59 -881.59 0 -1748.42zm-3562.34 0l0 1748.42 881.59 881.59 874.14 -874.21 -899.58 -899.58 -856.15 -856.22zm-35.99 0l-856.15 856.22 -899.58 899.58 874.14 874.21 881.59 -881.59 0 -1748.42zm-3562.34 0l0 1748.42 881.59 881.59 874.14 -874.21 -899.59 -899.58 -856.14 -856.22zm-35.99 0l-856.15 856.22 -899.59 899.58 874.15 874.21 881.59 -881.59 0 -1748.42zm-3562.35 0l0 1748.42 881.59 881.59 874.15 -874.21 -899.59 -899.58 -856.15 -856.22zm-35.99 0l-856.14 856.22 -899.59 899.58 874.14 874.21 881.59 -881.59 0 -1748.42zm16210.5 -18l-874.14 874.22 874.14 874.22 874.21 -874.22 -874.21 -874.22zm-3598.33 0l-874.15 874.22 874.15 874.22 874.13 -874.22 -874.13 -874.22zm-3598.34 0l-874.14 874.22 874.14 874.22 874.14 -874.22 -874.14 -874.22zm-3598.33 0l-874.14 874.22 874.14 874.22 874.14 -874.22 -874.14 -874.22zm-3598.34 0l-874.14 874.22 874.14 874.22 874.15 -874.22 -874.15 -874.22zm17973.68 -1781.1l-856.23 856.15 -899.58 899.59 874.22 874.21 881.59 -881.67 0 -1748.28zm-3562.35 0l0 1748.28 881.59 881.67 874.22 -874.21 -899.59 -899.59 -856.22 -856.15zm-35.98 0l-856.15 856.15 -899.59 899.59 874.14 874.21 881.6 -881.67 0 -1748.28zm-3562.35 0l0 1748.28 881.59 881.67 874.14 -874.21 -899.59 -899.59 -856.14 -856.15zm-35.99 0l-856.15 856.15 -899.58 899.59 874.14 874.21 881.59 -881.67 0 -1748.28zm-3562.35 0l0 1748.28 881.59 881.67 874.15 -874.21 -899.59 -899.59 -856.15 -856.15zm-35.98 0l-856.15 856.15 -899.58 899.59 874.14 874.21 881.59 -881.67 0 -1748.28zm-3562.35 0l0 1748.28 881.59 881.67 874.14 -874.21 -899.58 -899.59 -856.15 -856.15zm-35.98 0l-856.15 856.15 -899.59 899.59 874.15 874.21 881.59 -881.67 0 -1748.28zm-3562.35 0l0 1748.28 881.59 881.67 874.14 -874.21 -899.58 -899.59 -856.15 -856.15zm-35.99 0l-856.15 856.15 -899.58 899.59 874.14 874.21 881.59 -881.67 0 -1748.28zm-3562.35 0l0 1748.28 881.59 881.67 874.15 -874.21 -899.59 -899.59 -856.15 -856.15zm19772.84 -17.99l-874.21 874.14 874.21 874.15 874.22 -874.15 -874.22 -874.14zm-3598.33 0l-874.14 874.14 874.14 874.15 874.14 -874.15 -874.14 -874.14zm-3598.33 0l-874.15 874.14 874.15 874.15 874.14 -874.15 -874.14 -874.14zm-3598.34 0l-874.14 874.14 874.14 874.15 874.15 -874.15 -874.15 -874.14zm-3598.33 0l-874.14 874.14 874.14 874.15 874.14 -874.15 -874.14 -874.14zm-3598.33 0l-874.14 874.14 874.14 874.15 874.14 -874.15 -874.14 -874.14zm18009.66 -1781.18l0 1748.29 881.59 881.59 874.21 -874.14 -899.58 -899.59 -856.22 -856.15zm-35.99 0l-856.22 856.15 -899.59 899.59 874.22 874.14 881.59 -881.59 0 -1748.29zm-3562.35 162.29l0 1586 881.59 881.59 874.15 -874.14 -899.59 -899.59 -693.86 -693.86 50.88 0 668.42 668.42 881.6 -881.59 0 -1748.28 -856.15 856.15 -255.38 255.37 0 -50.88 204.49 -204.49 -204.49 -204.49 0 -50.89 229.93 229.94 874.15 -874.14 -899.59 -899.59 -204.49 -204.49 0 -50.88 229.93 229.93 881.6 -881.59 0 -1748.29 -856.15 856.16 -255.38 255.37 0 -50.88 204.49 -204.49 -204.49 -204.5 0 -50.88 229.93 229.94 874.15 -874.15 -899.59 -899.58 -856.15 -856.15 0 558.21c-3.67,-2.4 -7.39,-4.72 -11.15,-6.99 -8.03,-6.32 -16.32,-12.34 -24.83,-18.02l0 -533.2 -386.55 386.55 -50.88 0 429.98 -429.99 -899.59 -899.58 -856.14 -856.15 0 1748.29 437.42 437.43 -50.87 0 -404.54 -404.54 -404.55 404.54 -50.88 0 437.43 -437.43 0 -1748.29 -856.15 856.15 -899.58 899.58 429.98 429.99 -50.88 0 -386.55 -386.55 0 386.55 -35.99 0 0 -386.55 -386.54 386.55 -50.89 0 429.99 -429.99 -899.59 -899.58 -856.15 -856.15 0 1748.29 437.43 437.43 -50.88 0 -404.54 -404.54 -404.54 404.54 -50.88 0 437.43 -437.43 0 -1748.29 -856.15 856.15 -899.58 899.58 429.98 429.99 -50.89 0 -386.54 -386.55 0 386.55 -35.99 0 0 -386.55 -386.55 386.55 -50.88 0 429.98 -429.99 -899.58 -899.58 -856.15 -856.15 0 1748.29 437.43 437.43 -50.88 0 -404.54 -404.54 -404.54 404.54 -50.88 0 437.43 -437.43 0 -1748.29 -856.15 856.15 -899.59 899.58 429.98 429.99 -50.88 0 -386.54 -386.55 0 577.37c-15.1,25.91 -27.24,53.72 -35.99,83.05l0 -660.42 -856.15 856.15 -899.59 899.58 874.15 874.15 865.63 -865.64 0 50.88 -840.19 840.2 840.19 840.19 0 50.88 -891.07 -891.07 -856.15 -856.16 0 1748.29 881.59 881.59 865.63 -865.65 0 50.9 -840.19 840.19 -899.59 899.59 874.15 874.14 865.63 -865.64 0 50.89 -840.19 840.19 874.14 874.14 202.05 -202.05c4.89,11.58 10.33,22.85 16.28,33.81 0.07,0.18 0.16,0.38 0.23,0.56l-193.12 193.12 874.15 874.14 668.42 -668.42 50.88 0 -693.86 693.86 874.14 874.15 874.14 -874.15 -693.87 -693.86 50.88 0 668.43 668.42 668.43 -668.42 50.88 0 -693.87 693.86 -899.58 899.59 874.14 874.14 881.59 -881.59 0 -1586 35.99 0 0 1586 881.59 881.59 874.14 -874.14 -899.58 -899.59 -693.87 -693.86 50.88 0 668.43 668.42 668.42 -668.42 50.89 0 -693.87 693.86 874.14 874.15 874.14 -874.15 -693.86 -693.86 50.88 0 668.42 668.42 668.43 -668.42 50.88 0 -693.87 693.86 -899.58 899.59 874.14 874.14 881.59 -881.59 0 -1586 35.99 0 0 1586 881.59 881.59 874.14 -874.14 -899.58 -899.59 -693.87 -693.86 50.89 0 668.42 668.42 668.43 -668.42 50.88 0 -693.87 693.86 874.15 874.15 874.13 -874.15 -693.86 -693.86 50.88 0 668.43 668.42 668.43 -668.42 50.87 0 -693.86 693.86 -899.59 899.59 874.15 874.14 881.59 -881.59 0 -1586 35.98 0zm-10794.99 -162.29l0 1748.29 881.59 881.59 874.14 -874.14 -899.59 -899.59 -856.14 -856.15zm-35.99 0l-856.15 856.15 -899.59 899.59 874.15 874.14 881.59 -881.59 0 -1748.29zm-3562.35 0l0 1748.29 881.59 881.59 874.15 -874.14 -899.59 -899.59 -856.15 -856.15zm-35.99 0l-856.14 856.15 -899.59 899.59 874.14 874.14 881.59 -881.59 0 -1748.29zm16210.5 -17.99l-874.14 874.14 874.14 874.15 874.21 -874.15 -874.21 -874.14zm-14393.34 0l-874.14 874.14 874.14 874.15 874.15 -874.15 -874.15 -874.14zm17973.68 -1781.17l-856.23 856.15 -899.58 899.58 874.22 874.14 881.59 -881.59 0 -1748.28zm-3562.35 0l0 1748.28 881.59 881.59 874.22 -874.14 -899.59 -899.58 -856.22 -856.15zm-14393.33 0l0 1748.28 881.59 881.59 874.14 -874.14 -899.58 -899.58 -856.15 -856.15zm-35.99 0l-856.15 856.15 -899.58 899.58 874.14 874.14 881.59 -881.59 0 -1748.28zm-3562.35 0l0 1748.28 881.59 881.59 874.15 -874.14 -899.59 -899.58 -856.15 -856.15zm19772.84 -17.99l-874.21 874.14 874.21 874.14 874.22 -874.14 -874.22 -874.14zm-17991.66 0l-874.14 874.14 874.14 874.14 874.14 -874.14 -874.14 -874.14zm18009.66 -1781.18l0 1748.29 881.59 881.59 874.21 -874.14 -899.58 -899.59 -856.22 -856.15zm-35.99 0l-856.22 856.15 -899.59 899.59 874.22 874.14 881.59 -881.59 0 -1748.29zm-17955.68 0l0 1748.29 881.59 881.59 874.15 -874.14 -899.59 -899.59 -856.15 -856.15zm-35.99 0l-856.14 856.15 -899.59 899.59 874.14 874.14 881.59 -881.59 0 -1748.29zm16210.5 -17.99l-874.14 874.14 874.14 874.14 874.21 -874.14 -874.21 -874.14zm-14393.34 0l-874.14 874.14 874.14 874.14 874.15 -874.14 -874.15 -874.14zm17973.68 -1781.18l-856.23 856.16 -899.58 899.58 874.22 874.14 881.59 -881.59 0 -1748.29zm-3562.35 0l0 1748.29 881.59 881.59 874.22 -874.14 -899.59 -899.58 -856.22 -856.16zm-14429.32 0l-856.15 856.16 -899.58 899.58 874.14 874.14 881.59 -881.59 0 -1748.29zm-3562.35 0l0 1748.29 881.59 881.59 874.15 -874.14 -899.59 -899.58 -856.15 -856.16zm19772.84 -17.99l-874.21 874.15 874.21 874.14 874.22 -874.14 -874.22 -874.15zm-17991.66 0l-874.14 874.15 874.14 874.14 874.14 -874.14 -874.14 -874.15zm18009.66 -1781.17l0 1748.29 881.59 881.59 874.21 -874.15 -899.58 -899.58 -856.22 -856.15zm-35.99 0l-856.22 856.15 -899.59 899.58 874.22 874.15 881.59 -881.59 0 -1748.29zm-17955.68 0l0 1748.29 881.59 881.59 874.15 -874.15 -899.59 -899.58 -856.15 -856.15zm-35.99 0l-856.14 856.15 -899.59 899.58 874.14 874.15 881.59 -881.59 0 -1748.29zm16210.5 -17.99l-874.14 874.14 874.14 874.14 874.21 -874.14 -874.21 -874.14zm-14393.34 0l-874.14 874.14 874.14 874.14 874.15 -874.14 -874.15 -874.14zm17973.68 -1781.18l-856.23 856.15 -899.58 899.58 874.22 874.15 881.59 -881.59 0 -1748.29zm-3562.35 0l0 1748.29 881.59 881.59 874.22 -874.15 -899.59 -899.58 -856.22 -856.15zm-35.98 0l-856.15 856.15 -899.59 899.58 874.14 874.15 881.6 -881.59 0 -1748.29zm-14357.35 0l0 1748.29 881.59 881.59 874.14 -874.15 -899.58 -899.58 -856.15 -856.15zm-35.99 0l-856.15 856.15 -899.58 899.58 874.14 874.15 881.59 -881.59 0 -1748.29zm-3562.35 0l0 1748.29 881.59 881.59 874.15 -874.15 -899.59 -899.58 -856.15 -856.15zm19772.84 -17.99l-874.21 874.14 874.21 874.15 874.22 -874.15 -874.22 -874.14zm-3598.33 0l-874.14 874.14 874.14 874.15 874.14 -874.15 -874.14 -874.14zm-3598.33 0l-874.15 874.14 874.15 874.15 874.14 -874.15 -874.14 -874.14zm-3598.34 0l-874.14 874.14 874.14 874.15 874.15 -874.15 -874.15 -874.14zm-3598.33 0l-874.14 874.14 874.14 874.15 874.14 -874.15 -874.14 -874.14zm-3598.33 0l-874.14 874.14 874.14 874.15 874.14 -874.15 -874.14 -874.14zm18009.66 -1781.17l0 1748.28 881.59 881.59 874.21 -874.14 -899.58 -899.58 -856.22 -856.15zm-35.99 0l-856.22 856.15 -899.59 899.58 874.22 874.14 881.59 -881.59 0 -1748.28zm-3562.35 0l0 1748.28 881.59 881.59 874.15 -874.14 -899.59 -899.58 -856.15 -856.15zm-35.98 0l-856.15 856.15 -899.59 899.58 874.15 874.14 881.59 -881.59 0 -1748.28zm-3562.35 0l0 1748.28 881.59 881.59 874.14 -874.14 -899.58 -899.58 -856.15 -856.15zm-35.99 0l-856.15 856.15 -899.58 899.58 874.14 874.14 881.59 -881.59 0 -1748.28zm-3562.34 0l0 1748.28 881.59 881.59 874.14 -874.14 -899.58 -899.58 -856.15 -856.15zm-35.99 0l-856.15 856.15 -899.58 899.58 874.14 874.14 881.59 -881.59 0 -1748.28zm-3562.34 0l0 1748.28 881.59 881.59 874.14 -874.14 -899.59 -899.58 -856.14 -856.15zm-35.99 0l-856.15 856.15 -899.59 899.58 874.15 874.14 881.59 -881.59 0 -1748.28zm-3562.35 0l0 1748.28 881.59 881.59 874.15 -874.14 -899.59 -899.58 -856.15 -856.15zm-35.99 0l-856.14 856.15 -899.59 899.58 874.14 874.14 881.59 -881.59 0 -1748.28zm16210.5 -18l-874.14 874.15 874.14 874.14 874.21 -874.14 -874.21 -874.15zm-3598.33 0l-874.15 874.15 874.15 874.14 874.13 -874.14 -874.13 -874.15zm-3598.34 0l-874.14 874.15 874.14 874.14 874.14 -874.14 -874.14 -874.15zm-3598.33 0l-874.14 874.15 874.14 874.14 874.14 -874.14 -874.14 -874.15zm-3598.34 0l-874.14 874.15 874.14 874.14 874.15 -874.14 -874.15 -874.15zm17973.68 -1781.24l-856.23 856.22 -899.58 899.58 874.22 874.14 881.59 -881.51 0 -1748.43zm-3562.35 0l0 1748.43 881.59 881.51 874.22 -874.14 -899.59 -899.58 -856.22 -856.22zm-35.98 0l-856.15 856.22 -899.59 899.58 874.14 874.14 881.6 -881.51 0 -1748.43zm-3562.35 0l0 1748.43 881.59 881.51 874.14 -874.14 -899.59 -899.58 -856.14 -856.22zm-35.99 0l-856.15 856.22 -899.58 899.58 874.14 874.14 881.59 -881.51 0 -1748.43zm-3562.35 0l0 1748.43 881.59 881.51 874.15 -874.14 -899.59 -899.58 -856.15 -856.22zm-35.98 0l-856.15 856.22 -899.58 899.58 874.14 874.14 881.59 -881.51 0 -1748.43zm-3562.35 0l0 1748.43 881.59 881.51 874.14 -874.14 -899.58 -899.58 -856.15 -856.22zm-35.98 0l-856.15 856.22 -899.59 899.58 874.15 874.14 881.59 -881.51 0 -1748.43zm-3562.35 0l0 1748.43 881.59 881.51 874.14 -874.14 -899.58 -899.58 -856.15 -856.22zm-35.99 0l-856.15 856.22 -899.58 899.58 874.14 874.14 881.59 -881.51 0 -1748.43zm-3562.35 0l0 1748.43 881.59 881.51 874.15 -874.14 -899.59 -899.58 -856.15 -856.22zm19772.84 -18l-874.21 874.22 874.21 874.22 874.22 -874.22 -874.22 -874.22zm-3598.33 0l-874.14 874.22 874.14 874.22 874.14 -874.22 -874.14 -874.22zm-3598.33 0l-874.15 874.22 874.15 874.22 874.14 -874.22 -874.14 -874.22zm-3598.34 0l-874.14 874.22 874.14 874.22 874.15 -874.22 -874.15 -874.22zm-3598.33 0l-874.14 874.22 874.14 874.22 874.14 -874.22 -874.14 -874.22zm-3598.33 0l-874.14 874.22 874.14 874.22 874.14 -874.22 -874.14 -874.22zm18009.66 -1781.17l0 1748.43 881.59 881.59 874.21 -874.21 -899.58 -899.59 -856.22 -856.22zm-35.99 0l-856.22 856.22 -899.59 899.59 874.22 874.21 881.59 -881.59 0 -1748.43zm-3562.35 0l0 1748.43 881.59 881.59 874.15 -874.21 -899.59 -899.59 -856.15 -856.22zm-35.98 0l-856.15 856.22 -899.59 899.59 874.15 874.21 881.59 -881.59 0 -1748.43zm-3562.35 0l0 1748.43 881.59 881.59 874.14 -874.21 -899.58 -899.59 -856.15 -856.22zm-35.99 0l-856.15 856.22 -899.58 899.59 874.14 874.21 881.59 -881.59 0 -1748.43zm-3562.34 0l0 1748.43 881.59 881.59 874.14 -874.21 -899.58 -899.59 -856.15 -856.22zm-35.99 0l-856.15 856.22 -899.58 899.59 874.14 874.21 881.59 -881.59 0 -1748.43zm-3562.34 0l0 1748.43 881.59 881.59 874.14 -874.21 -899.59 -899.59 -856.14 -856.22zm-35.99 0l-856.15 856.22 -899.59 899.59 874.15 874.21 881.59 -881.59 0 -1748.43zm-3562.35 0l0 1748.43 881.59 881.59 874.15 -874.21 -899.59 -899.59 -856.15 -856.22zm-35.99 0l-856.14 856.22 -899.59 899.59 874.14 874.21 881.59 -881.59 0 -1748.43zm16210.5 -17.99l-874.14 874.21 874.14 874.22 874.21 -874.22 -874.21 -874.21zm-3598.33 0l-874.15 874.21 874.15 874.22 874.13 -874.22 -874.13 -874.21zm-3598.34 0l-874.14 874.21 874.14 874.22 874.14 -874.22 -874.14 -874.21zm-3598.33 0l-874.14 874.21 874.14 874.22 874.14 -874.22 -874.14 -874.21zm-3598.34 0l-874.14 874.21 874.14 874.22 874.15 -874.22 -874.15 -874.21z"/>
  <path class="fil1" d="M5450.02 7223.92l846.78 846.85 846.77 -846.85 50.81 0 -872.14 872.21 874.14 874.22 874.14 -874.22 -872.14 -872.21 50.81 0 846.77 846.85 846.77 -846.85 105.63 0 846.77 846.85 846.77 -846.85 50.81 0 -872.14 872.21 874.14 874.22 874.14 -874.22 -872.14 -872.21 50.81 0 846.77 846.85 846.78 -846.85 105.62 0 846.77 846.85 846.77 -846.85 50.82 0 -872.15 872.21 874.15 874.22 874.13 -874.22 -872.13 -872.21 50.8 0 846.78 846.85 846.77 -846.85 105.62 0 846.77 846.85 241.39 -241.41 0 50.81 -215.94 215.96 215.94 215.96 0 50.87 -266.83 -266.83 -856.15 -856.22 0 1748.43 881.59 881.59 241.39 -241.41 0 50.82 -215.94 215.96 -899.59 899.58 874.14 874.14 241.39 -241.37 0 50.88 -215.94 215.94 215.94 215.94 0 50.89 -266.83 -266.83 -856.15 -856.15 0 1748.28 881.59 881.59 241.39 -241.39 0 50.89 -215.94 215.94 -899.59 899.58 373.65 373.65 -50.89 0 -330.21 -330.21 0 330.21 -35.98 0 0 -330.21 -330.21 330.21 -50.88 0 373.64 -373.65 -899.59 -899.58 -856.14 -856.15 0 1748.29 381.08 381.09 -50.87 0 -348.2 -348.2 -348.21 348.2 -50.88 0 381.09 -381.09 0 -1748.29 -856.15 856.15 -899.58 899.58 373.64 373.65 -50.88 0 -330.21 -330.21 0 330.21 -35.99 0 0 -330.21 -330.2 330.21 -50.89 0 373.65 -373.65 -899.59 -899.58 -856.15 -856.15 0 1748.29 381.09 381.09 -50.88 0 -348.2 -348.2 -348.2 348.2 -50.88 0 381.09 -381.09 0 -1748.29 -856.15 856.15 -899.58 899.58 373.64 373.65 -50.89 0 -330.2 -330.21 0 330.21 -35.99 0 0 -330.21 -330.21 330.21 -50.88 0 373.64 -373.65 -899.58 -899.58 -856.15 -856.15 0 1748.29 381.09 381.09 -50.88 0 -348.2 -348.2 -348.2 348.2 -50.88 0 381.09 -381.09 0 -1748.29 -856.15 856.15 -899.59 899.58 373.64 373.65 -50.88 0 -330.2 -330.21 0 330.21 -35.99 0 0 -330.21 0 -86.86 17.99 17.99 874.14 -874.15 -874.14 -874.14 -17.99 17.99 0 -50.88 0 -1748.28 0 -86.79 17.99 17.99 874.14 -874.22 -874.14 -874.22 -17.99 17.99 0 -50.73 0 -1748.43 0 -15.99 70.8 0zm10742.19 5395.57l-874.14 874.14 874.14 874.15 874.14 -874.15 -874.14 -874.14zm-3598.33 0l-874.15 874.14 874.15 874.15 874.14 -874.15 -874.14 -874.14zm-3598.34 0l-874.14 874.14 874.14 874.15 874.15 -874.15 -874.15 -874.14zm7178.68 -1781.17l-856.15 856.15 -899.59 899.58 874.15 874.14 881.59 -881.59 0 -1748.28zm-3562.35 0l0 1748.28 881.59 881.59 874.14 -874.14 -899.58 -899.58 -856.15 -856.15zm-35.99 0l-856.15 856.15 -899.58 899.58 874.14 874.14 881.59 -881.59 0 -1748.28zm-3562.34 0l0 1748.28 881.59 881.59 874.14 -874.14 -899.58 -899.58 -856.15 -856.15zm-35.99 0l-856.15 856.15 -899.58 899.58 874.14 874.14 881.59 -881.59 0 -1748.28zm-3562.34 0l0 1748.28 881.59 881.59 874.14 -874.14 -899.59 -899.58 -856.14 -856.15zm8977.84 -18l-874.15 874.15 874.15 874.14 874.13 -874.14 -874.13 -874.15zm-3598.34 0l-874.14 874.15 874.14 874.14 874.14 -874.14 -874.14 -874.15zm-3598.33 0l-874.14 874.15 874.14 874.14 874.14 -874.14 -874.14 -874.15zm7214.66 -1781.24l0 1748.43 881.59 881.51 874.14 -874.14 -899.59 -899.58 -856.14 -856.22zm-35.99 0l-856.15 856.22 -899.58 899.58 874.14 874.14 881.59 -881.51 0 -1748.43zm-3562.35 0l0 1748.43 881.59 881.51 874.15 -874.14 -899.59 -899.58 -856.15 -856.22zm-35.98 0l-856.15 856.22 -899.58 899.58 874.14 874.14 881.59 -881.51 0 -1748.43zm-3562.35 0l0 1748.43 881.59 881.51 874.14 -874.14 -899.58 -899.58 -856.15 -856.22zm-35.98 0l-856.15 856.22 -899.59 899.58 874.15 874.14 881.59 -881.51 0 -1748.43zm9013.82 -18l-874.14 874.22 874.14 874.22 874.14 -874.22 -874.14 -874.22zm-3598.33 0l-874.15 874.22 874.15 874.22 874.14 -874.22 -874.14 -874.22zm-3598.34 0l-874.14 874.22 874.14 874.22 874.15 -874.22 -874.15 -874.22zm7178.68 -1781.17l-856.15 856.22 -899.59 899.59 874.15 874.21 881.59 -881.59 0 -1748.43zm-3562.35 0l0 1748.43 881.59 881.59 874.14 -874.21 -899.58 -899.59 -856.15 -856.22zm-35.99 0l-856.15 856.22 -899.58 899.59 874.14 874.21 881.59 -881.59 0 -1748.43zm-3562.34 0l0 1748.43 881.59 881.59 874.14 -874.21 -899.58 -899.59 -856.15 -856.22zm-35.99 0l-856.15 856.22 -899.58 899.59 874.14 874.21 881.59 -881.59 0 -1748.43zm-3562.34 0l0 1748.43 881.59 881.59 874.14 -874.21 -899.59 -899.59 -856.14 -856.22z"/>
 </g>
</svg>
