<?xml version="1.0" encoding="UTF-8"?>
<!DOCTYPE svg PUBLIC "-//W3C//DTD SVG 1.1//EN" "http://www.w3.org/Graphics/SVG/1.1/DTD/svg11.dtd">
<!-- Creator: CorelDRAW 2017 -->
<svg xmlns="http://www.w3.org/2000/svg" xml:space="preserve" width="215.9mm" height="279.4mm" version="1.1" style="shape-rendering:geometricPrecision; text-rendering:geometricPrecision; image-rendering:optimizeQuality; fill-rule:evenodd; clip-rule:evenodd"
viewBox="0 0 21590 27940"
 xmlns:xlink="http://www.w3.org/1999/xlink">
 <defs>
  <style type="text/css">
   <![CDATA[
    .fil0 {fill:#FEFEFE}
    .fil1 {fill:#27302C}
   ]]>
  </style>
 </defs>
 <g id="Layer_x0020_1">
  <metadata id="CorelCorpID_0Corel-Layer"/>
  <polygon class="fil0" points="2086.64,21740.01 19205.72,21740.01 19205.72,4620.81 2086.64,4620.81 "/>
  <path class="fil1" d="M19205.72 21022.5c-67.26,116.94 -134.49,233.94 -201.69,351 -29.77,52.23 -74.06,82.26 -133.62,82.44 -257.92,1 -515.79,0.84 -773.76,0.17 -69.79,-0.17 -118.42,-35.6 -152.89,-96.06 -123.64,-217.19 -248.35,-433.86 -373.52,-650.18 -32.59,-56.16 -36.33,-109.54 -2.57,-167.5 125.67,-216.08 250.31,-432.79 373.53,-650.29 40.02,-70.63 96.83,-99.63 177.14,-97.44 122.51,3.29 245.32,0.85 368.07,0.85 118.3,0.11 236.82,1.95 355.1,-0.64 74.66,-1.57 130.49,22.62 168.47,89.43 64.94,114.09 130.21,228.01 195.74,341.78l0 -1408.35c-63.89,110.6 -126.98,221.68 -189.91,332.84 -39.95,70.38 -95.47,102.46 -175.54,101.16 -122.75,-1.97 -245.32,-0.49 -368.07,-0.49 -37.32,0.07 -74.66,-0.12 -111.98,-0.23 -81.15,-0.24 -162.28,-0.53 -243.36,0.89 -79.89,1.31 -135.83,-29.89 -175.78,-100.69 -118.87,-210.29 -239.3,-419.66 -362.23,-627.54 -44.1,-74.52 -39.82,-140.81 3.26,-213.85 118.17,-200.75 235.23,-402.44 347.92,-606.39 46.67,-84.28 110.21,-119.7 205.26,-118.41 228.37,3.05 456.86,3.05 685.25,0 94.81,-1.29 157.88,33.01 204.65,118.24 58.84,107.25 119.16,213.67 180.53,319.49l0 -1404.98c-66.99,116.93 -133.87,233.89 -200.49,351.01 -30.2,52.92 -74.43,81.57 -133.99,81.8 -257.86,0.83 -515.96,0.61 -774,-0.3 -69.67,-0.23 -118.47,-34.94 -153.06,-95.64 -123.64,-217.31 -248.53,-433.93 -373.71,-650.28 -32.64,-56.18 -36.8,-109.51 -2.98,-167.59 125.61,-216.11 250.37,-432.78 373.59,-650.34 40.07,-70.62 96.72,-99.81 177.14,-97.67 122.63,3.34 245.32,0.95 368.07,0.95 118.42,0 236.94,1.85 355.34,-0.76 74.66,-1.62 130.37,22.7 168.46,89.51 64.89,114.05 130.15,227.9 195.63,341.66l0 -1408.22c-63.64,110.33 -126.69,221 -189.32,331.86 -39.84,70.19 -94.87,103.37 -175.12,102.06 -122.69,-2.14 -245.44,-0.59 -368.12,-0.59 -36.68,0 -73.36,-0.07 -110.03,-0.19 -81.8,-0.24 -163.59,-0.47 -245.26,0.89 -79.72,1.32 -136.18,-28.83 -176.37,-99.8 -118.75,-210.18 -239.25,-419.54 -362.06,-627.53 -44.05,-74.24 -41.13,-140.51 2.08,-213.74 122.92,-207.94 243.48,-417.23 362.48,-627.42 37.45,-66.4 90.41,-96.71 164.95,-96.65 245.44,0.53 490.75,1.01 736.19,-0.42 80.91,-0.47 133.28,35.56 172.74,105.57 61.96,110.13 124.6,219.88 187.84,329.27l0 -1403.98c-64.84,112.81 -129.39,225.73 -193.42,338.93 -37.52,66.29 -91.96,96.6 -165.78,96.6 -245.33,-0.24 -490.53,-0.66 -735.85,-0.89 -79.88,-0.05 -133.85,-37.51 -173.09,-107.12 -118.41,-210.42 -239.02,-419.66 -360.81,-628.12 -37.87,-64.55 -43.45,-123.34 -3.99,-190.27 122.28,-208.11 242.65,-417.52 360.75,-628.24 44.35,-79.36 105.63,-113.13 196.23,-109.62 118.29,4.53 236.81,1.07 355.23,1.07l0 0.59c122.62,0 245.32,1.55 368,-0.65 70.85,-1.25 121.15,26.8 156.09,87.97 65.43,114.31 130.93,228.6 196.64,342.79l0 -1408.17c-62.9,108.84 -125.08,218.06 -186.59,327.65 -42.26,75.25 -100.39,108.24 -185.52,106.45 -122.56,-2.61 -245.31,-0.64 -368,-0.64l0 -0.42c-118.53,0 -236.94,-1.19 -355.41,0.42 -74.96,0.9 -128.28,-28.94 -165.78,-95.05 -121.44,-213.63 -243.77,-426.85 -368.49,-638.53 -41.43,-70.62 -37.03,-133.62 3.51,-202.4 122.22,-208.28 243.42,-417.22 361.76,-627.77 40.02,-71.21 96.01,-101.76 175.42,-101.34 241.1,0.95 482.26,1.37 723.53,-0.42 86.13,-0.65 140.22,38.29 181.66,112.58 60.52,108.29 121.8,216.16 183.91,323.59l0 -1404.1c-66.56,116.13 -132.93,232.38 -199.01,348.79 -32.69,57.95 -81.62,84.99 -145.35,85.06 -253.87,0.47 -507.68,-0.07 -761.39,-1.32 -69.06,-0.23 -119.53,-32.38 -154.24,-93.5 -123.76,-217.32 -248.35,-434.1 -374.2,-650.11 -35.77,-61.35 -35.42,-117.46 0.47,-178.98 124.12,-212.15 246.47,-425.44 367.78,-639.12 39.58,-70.03 94.63,-102.25 175.76,-99.92 122.64,3.44 245.34,0.94 368.2,0.94l0 0.24c122.57,0 245.32,1.55 368,-0.66 70.62,-1.25 121.56,25.63 156.75,87.1 65.62,114.59 131.31,229.17 197.23,343.65l0 -1408.07c-65.29,113.32 -130.28,226.78 -194.92,340.52 -37.86,66.52 -92.79,93.8 -167.2,92.98 -122.58,-1.37 -245.19,-0.36 -368.01,-0.36l0 0.47c-114.13,0 -228.5,-2.32 -342.74,0.83 -88.94,2.49 -151.94,-28.11 -196.99,-108.9 -115.44,-207.27 -234.85,-412.47 -355.3,-616.82 -43.27,-73.48 -44.09,-139.75 -0.23,-213.75 93.18,-157.28 184.76,-315.57 275.41,-474.36l-625.67 0c-40.79,71.18 -81.33,142.48 -121.53,213.99 -40.29,71.7 -97.43,100.77 -176.12,100.04 -122.63,-1.06 -245.33,-0.29 -367.83,-0.29 -118.53,-0.06 -236.82,-1.07 -355.22,0.17 -79.41,0.96 -134.7,-31.02 -174.65,-102.17 -39.71,-70.76 -79.77,-141.32 -120.09,-211.74l-625.69 0c90.97,159.69 183.29,318.61 276.43,477.02 40.59,68.9 44.59,131.97 3.15,202.41 -124.6,211.79 -246.98,424.95 -368.55,638.64 -37.44,65.92 -91.12,95.59 -166.02,94.75 -122.57,-1.42 -245.25,-0.41 -368,-0.41 -122.68,0 -245.31,-1.19 -368.01,0.41 -75.26,0.89 -128.1,-29.42 -165.6,-95.46 -121.44,-213.7 -243.77,-426.8 -368.49,-638.58 -41.55,-70.57 -36.43,-133.69 3.88,-202.28 92.97,-158.36 185.22,-317.05 276.16,-476.5l-625.63 0c-41.21,71.92 -82.22,143.95 -123.05,216.08 -37.27,66.04 -89.64,97.48 -164.4,97.36 -249.36,-0.54 -498.91,-0.47 -748.38,-0.54 -69.8,0 -119.01,-30.97 -154.08,-92.54 -41.77,-73.51 -83.67,-146.98 -125.73,-220.36l-625.6 0c88.51,156 178.63,311.12 270.44,465.14 46.25,77.34 50.65,146.34 3.98,225.11 -121.2,204.05 -239.72,409.67 -355.94,616.53 -42.26,75.19 -100.45,108.53 -185.46,106.7 -122.57,-2.62 -245.43,-0.66 -368,-0.66l0 -0.41c-118.52,0 -236.94,-1.07 -355.41,0.41 -74.83,0.89 -128.14,-28.83 -165.78,-94.87 -121.44,-213.75 -243.89,-426.8 -368.47,-638.65 -41.56,-70.48 -37.39,-133.5 3.15,-202.28 93.13,-158.49 185.56,-317.35 276.57,-477.02l-625.87 0c-39.44,68.97 -78.53,138.14 -117.2,207.52 -42.52,76.2 -101.59,107.88 -185.28,106.75 -118.31,-1.49 -236.83,-0.36 -355.18,-0.36 -118.4,0 -236.82,-1.13 -355.23,0.36 -83.81,1.13 -142.71,-30.2 -185.16,-106.7 -38.63,-69.42 -77.74,-138.58 -117.19,-207.57l-626.12 0c95.02,165.6 190.51,330.91 286.33,496.04 32.98,56.84 33.79,111.16 0.81,168.11 -127.47,219.99 -254.48,440.17 -380.57,660.88 -35.28,62.06 -87.65,87.79 -156.95,87.5 -127.02,-0.84 -253.79,-0.3 -380.81,-0.3l0 0.66c-114.12,0 -228.48,-1.86 -342.6,0.65 -83.95,1.89 -144.42,-26.92 -187.27,-103.25 -118.06,-210.67 -239.5,-419.54 -361.64,-627.89 -40.75,-69.3 -41.45,-132.37 -0.22,-202.35 93.82,-159.35 186.35,-319.49 278.2,-480.05l-625.59 0c-41.25,71.92 -82.3,143.97 -123.18,216.08 -37.49,66.16 -89.74,97.48 -164.38,97.36 -249.5,-0.54 -498.87,-0.47 -748.37,-0.54 -69.89,0 -119,-31.14 -153.95,-92.67 -41.79,-73.48 -83.69,-146.9 -125.77,-220.23l-625.64 0c88.27,155.68 178.33,310.36 269.96,464.06 45.97,77.04 52,146.05 4.99,225.11 -121.08,203.95 -239.62,409.69 -355.83,616.6 -42.04,74.9 -99.5,109.54 -184.73,107.77 -122.71,-2.63 -245.43,-0.72 -368.13,-0.72 -114.12,0 -228.5,-1.96 -342.62,0.72 -84.62,2.02 -143.71,-29.43 -186.21,-105.22 -116.11,-206.92 -234.87,-412.35 -355.73,-616.54 -45.96,-77.93 -45.16,-146.92 1.85,-225.16 92.48,-154.38 182.66,-310.13 271.59,-466.62l-521.77 0 0 1344.19c47.6,82.56 95.37,165.03 143.37,247.37 35.54,61 37.75,117.29 1.76,178.93 -48.56,83.39 -96.96,166.86 -145.13,250.45l0 1527.51c45.33,78.15 90.95,156.13 136.89,233.91 43.87,74.36 40.5,141 -2.56,213.94 -44.99,76.25 -89.81,152.59 -134.33,229.12l0 1525c45.81,79.3 91.95,158.39 138.5,237.25 41.34,70.08 41.45,131.71 0.24,201.67 -46.61,79.03 -92.84,158.29 -138.74,237.72l0 1527.53c46.27,79.9 92.79,159.67 139.67,239.26 41.21,70.15 38.08,133.57 -2.45,202.4 -45.93,78.22 -91.69,156.54 -137.22,235.01l0 1524.74c46.49,80.58 93.2,161.02 140.24,241.26 38.08,65.26 40.88,124.23 2.33,190.26 -47.77,81.57 -95.31,163.28 -142.57,245.15l0 1527.55c45.07,77.64 90.42,155.15 136.06,232.47 43.42,73.69 42.61,140.33 -0.81,213.81 -45.39,76.82 -90.46,153.82 -135.25,230.97l0 1525c45.11,77.93 90.57,155.66 136.53,233.09 44.47,74.83 41.57,139.61 -1.85,212.98 -45.22,76.49 -90.15,153.21 -134.68,230.15l0 1527.63c46.24,79.81 92.69,159.51 139.43,239.06 23.14,39.29 32.44,76.52 28.98,113.82l1953.8 0c-3.66,-42.06 7.17,-84.15 34.42,-129.59 121.91,-203.39 239.5,-409.31 356.3,-615.69 39.95,-70.45 95.56,-102.31 175.66,-100.93 122.6,2.06 245.2,0.52 367.8,0.52 39.07,-0.06 78.18,0.05 117.29,0.24 79.31,0.3 158.64,0.54 237.85,-0.94 80.22,-1.54 135.61,30.19 175.44,100.74 118.87,210.01 239.38,419.37 362.1,627.11 24.28,41.13 33.85,79.84 30.33,118.54l1952.43 0c-3.54,-36.21 4.87,-72.66 27.6,-111.34 124.58,-211.67 246.68,-424.78 368.11,-638.17 37.39,-65.61 90,-97.07 165.26,-96.18 126.85,1.44 253.64,0.36 380.54,0.36 39.95,-0.05 79.9,0.06 119.83,0.11 78.47,0.19 156.94,0.38 235.28,-0.69 74.77,-1.14 128.58,27.52 166.27,93.79 121.32,213.52 243.95,426.48 368.42,638.17 23.15,39.34 32.52,76.58 29.06,113.95l1951.54 0c-3.54,-36.28 4.94,-72.74 27.65,-111.46 124.47,-211.73 246.68,-424.76 368.23,-638.23 37.39,-65.68 90,-96.4 165.2,-96.06 245.19,1.02 490.51,1.14 735.71,-0.16 74.89,-0.48 128.51,27.74 166.13,93.97 121.46,213.51 243.84,426.3 368.44,638.12 23.1,39.29 32.4,76.52 28.95,113.82l1950.77 0c-3.31,-35.89 5.7,-71.58 27.45,-108.83 125.95,-215.78 250.68,-432.28 374.67,-649.12 35.49,-61.94 87.62,-87.92 156.81,-87.5 127.03,0.84 253.82,0.18 380.6,0.18l0 -0.64c114.26,0 228.5,2.14 342.57,-0.79 84.11,-2.14 144.32,26.81 187.18,103.02 118.05,210.49 239.37,419.26 361.53,627.42 23.37,39.91 33.65,77.88 30.28,116.26l1703.17 0 0 -717.51zm-105.02 -16401.69l105.02 0 0 182.75c-35.1,-60.87 -70.11,-121.79 -105.02,-182.75zm-1621.23 10581.58c-125.37,216.08 -250.09,432.63 -373.97,649.59 -37.74,66.1 -92.65,93.14 -167.38,91.78 -122.75,-2.21 -245.43,-0.61 -367.95,-0.61 -122.68,-0.05 -245.43,-1.9 -368,0.54 -75.97,1.55 -128.27,-30.08 -165.43,-95.03 -123.76,-217.09 -248.23,-433.76 -373.66,-650.01 -32.92,-57.07 -32.45,-110.57 0.49,-167.51 127.62,-219.82 254.05,-440.23 380.13,-660.81 32.39,-56.72 79.53,-87.92 144.08,-88.11 257.8,-0.76 515.67,-0.64 773.52,0.42 59.33,0.19 104.62,28.06 134.82,80.55 128.51,224.03 257.14,448.13 386.85,671.58 33.53,57.77 29,111.34 -3.5,167.62zm-1810.79 2023.34c126.07,-215.76 250.67,-432.43 374.67,-649.22 35.42,-61.87 87.31,-88.32 156.73,-87.85 126.87,0.83 253.76,0.25 380.55,0.25l0 -0.42c118.42,0 236.71,1.84 355.18,-0.6 80.78,-1.72 134.75,32.16 174.46,102.12 116.8,206.51 235.09,412.11 356.05,616.18 45.9,77.34 47.86,146.76 1.08,225.14 -121.45,203.72 -239.62,409.47 -355.95,616.08 -39.34,70.37 -92.91,105.28 -173.1,104.92 -245.31,-1.02 -490.51,-0.79 -735.82,-0.25 -74.43,0.19 -127.03,-30.48 -164.66,-96.83 -120.73,-213.93 -243.88,-426.42 -367.88,-638.51 -37.99,-65.04 -39.48,-125.66 -1.31,-191.01zm1810.67 2383.16c-123.65,212.21 -246.21,425.14 -367.12,638.94 -42.38,75.2 -102.72,105.09 -187.73,102.48 -118.16,-3.6 -236.68,-0.89 -355.04,-0.89 -118.4,-0.12 -236.94,-2.33 -355.22,0.64 -79.42,1.97 -137.61,-24.77 -177.85,-95.98 -123.22,-217.39 -248.11,-433.86 -373.42,-650.06 -33.17,-57.12 -32.04,-110.8 0.84,-167.62 127.74,-219.7 254.34,-440 380.13,-660.83 35.48,-62.11 88.91,-88.56 156.92,-88.68 249.54,-0.49 499.02,-0.25 748.38,0.17 69.54,0.19 119.6,32 154.43,93.08 123.52,217.16 247.99,433.93 373.82,649.82 35.44,60.93 37.87,117.11 1.86,178.93zm-1900.2 -12125.93c-129.1,223.96 -258.03,447.83 -386.36,672.22 -32.7,57.61 -82.39,84.41 -145.93,84.53 -253.76,0.52 -507.59,-0.12 -761.22,-1.2 -69.66,-0.35 -118.59,-34.82 -153.3,-95.52 -123.65,-217.21 -248.05,-433.98 -373.83,-649.99 -35.96,-61.77 -32.81,-117.88 2.8,-178.86 123.99,-212.22 246.49,-425.25 367.57,-639.01 39.95,-70.38 96.13,-100.39 176.74,-98.2 122.56,3.39 245.25,0.89 368,0.89l0 0.36c122.68,0 245.43,1.73 367.99,-0.54 71.11,-1.37 120.99,27.29 155.81,88.34 126.31,220.58 252.99,440.99 380.61,660.93 30.61,52.79 31.32,103.49 1.12,156.05zm-1811.07 6425.44c122.21,-208.35 243.53,-417.29 361.81,-627.71 40.31,-71.69 96.96,-101.28 176.02,-100.46 122.75,1.32 245.31,0.36 368.06,0.36 118.42,0 236.94,1.13 355.34,-0.47 79.79,-0.85 134.82,31.44 174.77,102.41 118.28,210.6 239.37,419.54 361.76,627.72 40.59,69.07 43.63,132.18 2.33,202.45 -124.6,211.8 -246.93,424.95 -368.61,638.54 -37.62,66.21 -91.61,94.56 -166.25,94.27 -245.45,-1.08 -490.77,-1.25 -736.2,-0.07 -75.37,0.36 -127.81,-30.31 -165.19,-96.11 -121.44,-213.64 -243.72,-426.8 -368.42,-638.65 -41.67,-70.86 -35.49,-133.98 4.58,-202.28zm4.4 -4414.93c121.55,-203.79 239.72,-409.62 356.05,-616.42 39.83,-70.92 94.88,-103.56 174.65,-102.6 122.68,1.37 245.26,0.36 368.11,0.36l0 -0.61c114.14,0 228.5,2.21 342.64,-0.59 89.22,-2.26 150.67,30.68 195.49,111.4 112.94,203.89 229.28,405.92 349.53,605.54 50.16,82.92 47.74,154.85 -1.13,236.45 -119.24,200.14 -235.57,402.26 -349.7,605.36 -42.02,74.9 -99.39,108.67 -184.8,107.96 -236.88,-2.21 -473.94,-2.09 -710.76,0 -84.52,0.82 -143.73,-29.37 -186.22,-105.16 -116.1,-207.03 -234.5,-412.53 -355.83,-616.48 -46.48,-78.4 -44.34,-147.47 1.97,-225.21zm0 2204.63c117.15,-196.52 231.34,-394.87 342.03,-595.01 48.86,-88.45 114.66,-123.7 215.71,-121.32 228.2,5.29 456.81,4.34 685.19,0.54 90.66,-1.55 151.4,30.61 195.86,110.03 115.85,206.96 233.37,413.17 355.11,616.76 45.53,76.1 38.22,140.41 -4.51,212.92 -120.14,204.48 -238.92,409.92 -354.47,617.18 -42.14,75.56 -101.59,109.02 -185.16,108.43 -118.29,-0.66 -236.81,-0.05 -355.23,-0.05 -114.12,-0.13 -228.48,-0.89 -342.5,0.05 -92.66,0.95 -158.59,-34 -205.6,-119.29 -112.05,-204.19 -228.74,-406.12 -348.4,-605.95 -47.25,-78.94 -44.34,-146.65 1.97,-224.29zm1803.24 4603.56c-127.03,220.21 -253.59,440.82 -378.83,661.99 -32.52,57.43 -79.18,87.57 -143.73,87.74 -253.83,0.59 -507.7,0.14 -761.39,-0.4 -74.9,-0.12 -126.21,-36.74 -163.12,-101.59 -121.2,-213.87 -243.35,-427.14 -367.46,-639.35 -38.89,-66.23 -35.02,-125.14 3.27,-190.28 122.26,-208.25 242.51,-417.71 361.27,-628.07 42.28,-74.95 101.23,-106.22 186.95,-103.19 118.42,4.21 236.94,0.94 355.34,0.94l0 0.36c122.87,0 245.57,2.2 368.19,-0.71 76.27,-1.79 128.27,29.67 165.43,94.74 123.99,217.1 248.34,434 374.08,650.13 33.39,57.36 32.8,110.81 0,167.69zm-1277.36 2949.68c-74.95,0.94 -128.4,-28.88 -165.79,-95.03 -121.55,-213.66 -243.88,-426.74 -368.48,-638.59 -41.54,-70.45 -37.14,-133.52 3.28,-202.42 122.45,-208.22 243.53,-417.19 361.88,-627.82 40.05,-71.15 96.11,-101.58 175.41,-101.33 241.15,0.99 482.25,1.53 723.41,-0.25 86.25,-0.71 140.46,38.16 181.89,112.4 113.72,203.43 230.1,405.34 349.35,605.48 46.37,77.41 50.53,146.34 3.74,225.18 -121.09,204 -239.49,409.62 -355.77,616.53 -42.31,75.13 -100.39,108.48 -185.51,106.58 -122.57,-2.62 -245.44,-0.59 -368.12,-0.59l0 -0.49c-118.3,0 -236.82,-1.18 -355.29,0.35zm1275.03 1460.45c-127.03,220.23 -253.45,440.74 -379.3,661.77 -29.96,52.66 -73.42,82.62 -133.03,82.85 -257.97,0.9 -516.19,0.76 -774.18,0 -69.3,-0.3 -119.11,-33.81 -153.72,-94.69 -123.74,-217.31 -248.23,-434.12 -374.06,-650.13 -35.84,-61.62 -34.12,-117.68 1.72,-178.98 123.99,-212.19 246.39,-425.35 367.59,-639.11 39.83,-70.26 95.64,-101.05 176.48,-98.86 122.57,3.46 245.44,0.96 368.14,0.96l0 0.36c122.63,0 245.31,1.6 368.06,-0.66 70.91,-1.3 121.08,26.86 156.03,88.02 126.44,220.67 252.86,441.2 380.91,660.88 33.88,58.45 27.65,111.72 -4.64,167.59zm-1909.93 -12108.24c-126.2,215.59 -250.67,432.21 -374.79,649.12 -32.62,57.23 -79.88,86.18 -144.32,86.3 -253.87,0.66 -507.46,0.42 -761.1,0.66 -69.77,0 -119.36,-30.15 -154.43,-91.78 -121.31,-213.59 -243.83,-426.57 -368.25,-638.29 -41.01,-69.49 -41.48,-132.92 -0.47,-202.53 124.35,-211.67 246.93,-424.6 368.49,-638.05 37.86,-66.62 93.03,-93.38 167.21,-92.61 122.57,1.49 245.2,0.36 367.77,0.36l0 -0.24c118.4,0 236.87,1.6 355.15,-0.59 79.43,-1.36 136.79,26.74 177.03,98.02 120.79,213.87 243.83,426.43 367.71,638.64 37.86,64.97 38.16,125.61 0,190.99zm-3.62 11020.09c-120.26,204.37 -238.54,409.97 -354.57,616.76 -44.59,79.25 -106.12,113.32 -196.4,110.15 -118.24,-4.15 -236.76,-1.13 -355.18,-1.13l0 -0.59c-122.56,0 -245.19,-1.36 -367.76,0.47 -70.62,1.01 -121.32,-26.94 -156.28,-88.04 -126.31,-220.53 -252.75,-440.92 -380.25,-660.69 -33.63,-58.08 -27.94,-111.46 4.4,-167.52 125.43,-216.17 250.32,-432.6 373.42,-649.98 37.63,-66.29 91.95,-96.55 165.67,-96.67 78.69,0 157.39,0 236.1,0.07 166.56,0.05 333.05,0.12 499.61,-0.3 80.66,-0.22 133.03,38.77 172.02,107.89 118.54,210.36 238.25,420.01 361.12,627.9 41.67,70.6 38.99,132.3 -1.9,201.68zm4.09 -8818.78c-122.87,207.83 -242.52,417.59 -361.29,627.6 -41.96,73.89 -99.5,108.95 -185.8,106.04 -118.3,-3.86 -236.59,-1.01 -354.99,-1.01 -36.09,0.07 -72.12,-0.24 -108.19,-0.47 -82.38,-0.59 -164.78,-1.13 -247.11,1.48 -85.17,2.8 -144.5,-28.48 -186.76,-103.31 -118.65,-210.25 -238.49,-419.84 -361.22,-627.7 -41.92,-70.85 -37.46,-132.62 3.13,-201.69 122.52,-208.11 242.77,-417.47 361.06,-627.77 39.71,-70.38 95.59,-103.91 174.88,-103.78 241.04,0.24 482.02,0.52 723.06,-0.49 85,-0.35 140.93,38.47 182.36,112.53 115.91,206.86 234.45,412.36 354.45,616.95 40.07,68 48.75,129.76 6.42,201.62zm-1799.43 6404.95c120.96,-203.95 239.38,-409.51 355.65,-616.18 42.32,-75.25 100.76,-108 185.63,-105.98 118.3,2.68 236.82,0.54 355.11,0.54l0 0.47c122.75,0 245.19,1.31 367.94,-0.47 75.32,-1.03 127.93,29.42 165.44,95.33 121.43,213.39 243.64,426.5 368.11,638.12 41.55,70.62 36.68,133.99 -3.55,202.57 -122.16,208.24 -243.25,416.94 -361.65,627.35 -40.07,71.29 -96.6,101.31 -175.66,101.01 -240.92,-0.91 -482.07,-0.96 -723.05,0 -79.18,0.3 -135.05,-30.03 -175.12,-101.47 -116.08,-206.74 -234.5,-412.29 -355.82,-616.06 -46.07,-77.47 -49.69,-146.78 -3.03,-225.23zm-3.03 -4400.02c122.86,-207.8 243.24,-417.16 362.13,-627.29 39.82,-70.5 95.76,-101.12 175.64,-100.51 241.04,1.6 482.21,1.65 723.06,-0.12 80.25,-0.61 135.52,30.48 175.35,100.93 118.89,210.13 239.13,419.35 361.83,627.23 44.17,74.59 39.46,141.17 -3.45,213.87 -120.54,204.19 -239.86,409.2 -355.29,616.42 -42.5,76.38 -101.71,107.65 -185.4,106.57 -118.4,-1.36 -236.69,-0.35 -355.16,-0.35 -118.4,0 -236.82,-1.13 -355.23,0.35 -83.81,1.13 -142.54,-30.5 -185.04,-106.81 -115.2,-207.22 -234.68,-412.23 -355.18,-616.53 -42.96,-72.83 -47.36,-139.21 -3.26,-213.76zm-5.23 2212.44c124.24,-211.92 246.51,-424.9 366.99,-639.01 39.71,-70.55 96.06,-103.25 175.12,-103.19 240.98,0.31 482.02,0.66 723.05,-0.35 85.31,-0.35 140.7,39.34 182.01,113.11 115.86,207.03 233.73,412.82 354.83,616.77 44.21,74.42 42.84,139.28 -0.85,213.05 -118.64,200.49 -234.85,402.3 -348.03,605.88 -46.65,83.76 -110.08,120.49 -205.97,116.26 -113.89,-4.92 -228.24,-1.18 -342.38,-1.18 -118.41,-0.05 -236.93,-2.9 -355.23,0.84 -85.48,2.78 -144.2,-29.36 -186.34,-104.09 -118.66,-210.3 -239.08,-419.54 -360.94,-627.76 -38.21,-65.04 -41.25,-124.06 -2.26,-190.33zm-2.44 -8806.64c125.31,-216.25 250.2,-432.62 373.42,-650.06 37.39,-66.27 91.72,-96.65 165.43,-96.65 89.93,-0.07 179.92,-0.07 269.92,-0.07 155.27,0.07 310.52,0.12 465.79,-0.29 80.54,-0.18 133.15,38.45 172.14,107.71 118.54,210.3 238.25,420.01 361,627.82 41.79,70.61 39.47,132.2 -1.43,201.64 -120.37,204.35 -238.66,410.02 -354.68,616.81 -44.47,79.18 -105.87,113.54 -196.17,110.27 -118.23,-4.16 -236.87,-1.01 -355.17,-1.01l0 -0.59c-122.69,0 -245.32,-1.37 -367.88,0.42 -70.5,1.13 -121.32,-26.64 -156.4,-87.8 -126.19,-220.53 -252.87,-440.88 -380.37,-660.63 -33.51,-58.03 -28.17,-111.46 4.4,-167.57zm-88.09 1270.52c-128.87,224.27 -257.62,448.37 -385.54,672.87 -30.31,53.32 -75.72,79.96 -134.93,80.07 -257.99,0.71 -515.91,0.17 -773.99,-0.89 -70.15,-0.23 -117.65,-37.15 -151.89,-97.37 -121.67,-213.51 -243.95,-426.91 -368.11,-638.94 -38.12,-65.45 -39.36,-124.29 -0.73,-190.27 122.47,-208.23 242.54,-417.94 361.29,-628.24 41.79,-73.72 98.09,-109.8 185.05,-106.7 122.51,4.45 245.31,1.18 367.95,1.18 118.65,0.12 237.17,2.14 355.46,-0.65 75.25,-1.67 129.71,25.2 167.33,91.42 125.84,221 252.75,441.36 380.08,661.35 31.14,53.62 27.75,104.15 -1.97,156.17zm-1.48 13220.61c-127.27,220.01 -253.95,440.47 -379.9,661.18 -32.28,56.46 -78.7,88.63 -143.49,88.88 -253.82,0.76 -507.46,0.46 -761.15,0 -74.9,-0.06 -126.21,-36.8 -162.87,-101.65 -121.34,-213.69 -243.83,-426.74 -367.24,-639.19 -35.13,-60.44 -39.6,-116.45 -2.97,-178.92 123.93,-212.15 246.45,-425.18 367.18,-639.11 42.25,-74.84 100.98,-106.65 186.69,-103.45 118.3,4.16 236.82,0.91 355.23,0.91l0 0.4c122.75,0 245.45,2.04 368.18,-0.82 76.03,-1.67 128.39,29.23 165.55,94.27 124,217.21 248.35,433.93 374.08,650 33.39,57.25 33.75,110.56 0.71,167.5zm-1908.34 -5504.62c-125.36,216.13 -250.06,432.67 -373.94,649.71 -37.63,65.97 -92.56,93.31 -167.5,91.95 -122.52,-2.21 -245.2,-0.61 -367.83,-0.61 -122.59,-0.05 -245.32,-1.9 -367.78,0.54 -76.08,1.55 -128.52,-29.84 -165.67,-94.85 -123.74,-217.09 -248.09,-433.76 -373.52,-649.89 -33.06,-57.12 -32.84,-110.62 0.11,-167.64 127.62,-219.87 254.06,-440.21 380.13,-660.81 32.29,-56.58 79.3,-88.02 143.85,-88.21 257.87,-0.83 515.72,-0.71 773.52,0.3 59.4,0.24 104.74,27.94 134.93,80.36 128.63,224.1 257.28,448.2 386.86,671.58 33.53,57.71 29.48,111.34 -3.16,167.57zm-1810.78 2023.36c125.96,-215.79 250.67,-432.29 374.67,-649.25 35.43,-61.87 87.43,-88.02 156.87,-87.55 126.84,0.83 253.64,0.25 380.67,0.25l0 -0.79c114.12,0 228.36,2.97 342.38,-0.89 91.01,-3.15 149.85,34.94 193.84,113.78 113.7,203.28 230.34,404.97 349.09,605.36 46.02,77.51 47.62,146.88 0.85,225.27 -121.32,203.59 -239.51,409.33 -355.82,616.07 -39.6,70.25 -93.14,104.98 -173.45,104.62 -245.1,-1.02 -490.41,-0.79 -735.61,-0.25 -74.66,0.07 -127.15,-30.73 -164.54,-97.12 -120.84,-213.89 -243.88,-426.5 -367.76,-638.52 -38.1,-65.09 -39.36,-125.67 -1.19,-190.98zm1808.34 2387.9c-124.23,211.85 -246.21,425 -367.52,638.58 -39.94,70.25 -97.19,99.97 -177.2,98 -118.28,-2.85 -236.82,-0.64 -355.17,-0.64 -122.68,-0.12 -245.32,-2.32 -367.88,0.64 -80.9,2.09 -136.06,-30.18 -175.78,-99.98 -121.08,-213.73 -243.46,-426.72 -367.1,-638.86 -35.86,-61.42 -36.1,-117.7 -0.36,-179 125.77,-215.94 250.31,-432.54 373.48,-649.97 37.62,-66.46 92.67,-95.73 166.14,-95.73 245.19,-0.05 490.51,0 735.7,0 74.31,0 127.51,31.98 164.78,97.78 121.08,213.83 243.48,426.81 367.47,638.89 38.05,64.74 42.33,123.83 3.44,190.29zm-1905.95 -12114.95c-125.75,216.06 -249.97,432.92 -373.97,649.93 -31.93,56.12 -77.2,90.29 -142.33,90.53 -258.08,0.49 -515.94,0.18 -773.79,-1.06 -64.43,-0.31 -111.91,-31.44 -144.2,-88.04 -126.3,-220.65 -252.86,-440.99 -380.45,-660.88 -32.97,-57 -32.16,-110.44 1.05,-167.51 125.73,-216.06 250.18,-432.85 374.06,-649.99 37.27,-65.21 89.98,-95.71 166.02,-93.99 122.48,2.68 245.32,0.73 367.92,0.73 37.62,-0.07 75.25,0.11 112.86,0.28 85.04,0.37 170.09,0.78 255.17,-1.24 75.7,-1.67 129.1,26.69 166.61,92.55 123.88,217.21 248.09,434.05 374.28,649.76 36.58,62.48 31.95,118.47 -3.23,178.93zm-1798.83 1995.29c121.55,-203.9 239.74,-409.56 355.95,-616.53 39.95,-70.8 94.86,-103.14 174.61,-102.72 241.26,0.95 482.39,1.25 723.41,-0.42 85.68,-0.65 141.07,36.15 182.86,110.92 113.55,203.46 229.4,405.75 349.68,605.41 49.92,82.8 47.95,154.85 -0.81,236.52 -119.58,200.09 -235.68,402.19 -349.92,605.31 -41.9,74.83 -99.14,109.9 -184.71,107.99 -122.59,-2.66 -245.19,-0.64 -368.03,-0.64 -34.45,0 -68.95,-0.18 -103.39,-0.35 -79.78,-0.37 -159.55,-0.78 -239.33,1.13 -84.4,1.89 -143.73,-29.2 -186.34,-104.99 -115.98,-206.97 -234.63,-412.52 -355.72,-616.42 -46.43,-78.33 -44.82,-147.46 1.74,-225.21zm1798.59 2411.57c-124,212.02 -246.6,425 -366.99,639.22 -39.81,70.74 -96.36,103.09 -175.3,102.79 -122.6,-0.36 -245.32,-0.07 -368.03,-0.07 -114.13,-0.12 -228.37,-0.89 -342.61,0.19 -88.22,0.82 -151.16,-33.77 -195.51,-113.72 -115.52,-207.34 -233.94,-412.94 -354.8,-617.07 -44.11,-74.41 -42.14,-139.1 1.75,-212.92 118.88,-200.32 235.21,-402.3 348.29,-606.01 46.79,-84.12 110.29,-117.51 205.95,-115.61 232.54,4.45 465.44,3.79 697.98,0.29 86.04,-1.25 143.97,30.07 185.99,104.62 118.77,210.32 238.95,419.84 361.19,628 38.43,65.45 40.74,124.19 2.09,190.29zm-1802.53 2002.54c122.12,-208.28 242.99,-417.36 361.98,-627.54 37.27,-65.75 87.89,-99.5 163.36,-99.33 249.61,0.66 499.1,0.47 748.71,0.31 69.9,-0.07 119.82,29.25 154.87,91.05 123.64,217.33 248.33,434.05 374.54,649.78 38.89,66.45 33.31,126.72 -4.18,190.92 -124,212.21 -246.83,425.12 -368.39,638.76 -37.72,66.28 -92.05,94.51 -166.71,93.75 -118.42,-1.5 -236.96,-0.37 -355.26,-0.37 -126.89,-0.17 -253.91,-1.25 -380.8,0.18 -75.46,0.9 -127.71,-30.73 -164.98,-96.41 -121.32,-213.64 -243.68,-426.92 -368.25,-638.64 -41.8,-71.04 -35.06,-134.17 5.11,-202.46zm1801.6 2405.02c-125.97,216.02 -250.08,432.97 -373.03,650.82 -35.4,62.79 -87.99,88.58 -156.27,88.87 -122.83,0.61 -245.43,0.18 -368.13,0.18l0 0.91c-114.24,0 -228.48,-1.44 -342.72,0.39 -98.1,1.74 -166.26,-36.73 -215.02,-125.75 -112.04,-204.43 -229.65,-405.69 -347.6,-606.74 -40.4,-68.76 -45.39,-130.42 -3.13,-201.74 123.05,-207.71 242.75,-417.54 361.53,-627.89 42.37,-74.84 101.23,-104.74 186.68,-103.56 236.95,3.39 474.15,3.58 710.99,0 86.72,-1.36 143.37,31.98 185.17,106.06 118.64,210.3 238.93,419.84 361.3,628.12 38.65,65.85 38.55,124.72 0.23,190.33zm-1799.51 1996.43c120.62,-204.36 240.09,-409.38 355.49,-616.72 42.48,-76.33 101.47,-107.23 185.52,-106.64 236.84,1.24 473.79,1.43 710.75,-0.12 84.28,-0.59 142.45,31.27 184.83,107.3 115.52,207.32 234.75,412.51 355.49,616.82 43.07,72.94 47.25,139.23 3.14,213.75 -122.96,207.88 -243.35,417.25 -362.24,627.47 -39.93,70.68 -95.89,101.89 -175.88,100.71 -122.71,-2.09 -245.31,-0.61 -368.15,-0.61 -118.42,0 -236.84,-1.6 -355.26,0.61 -80.1,1.36 -135.48,-30.8 -175.42,-101.23 -118.89,-210.31 -239.28,-419.73 -362.12,-627.59 -44.11,-74.73 -39.12,-141.01 3.85,-213.75zm1793.24 2421.54c-122.59,208.11 -242.41,417.95 -360.48,628.66 -37.27,66.45 -88.93,99.26 -163.58,99.26 -122.61,-0.1 -245.45,0 -367.93,0l-0.11 0.19c-118.53,0 -236.96,-0.83 -355.38,0.23 -88.8,0.85 -150.57,-35.74 -194.8,-115.3 -115.29,-207.29 -234.3,-412.78 -354.57,-617.39 -40.74,-69 -44.35,-130.59 -2.33,-201.49 120.75,-204.25 239.29,-409.97 354.46,-617.49 47.12,-84.92 112.15,-115.44 207.11,-113.65 228.37,4.34 457.08,4.77 685.33,-0.12 96.94,-2.02 158.25,34.64 204.56,117.98 113.31,203.66 229.19,405.94 348.53,606.15 44.71,74.77 42.6,139.32 -0.81,212.97zm-1900.05 -7721.71c-126.21,215.61 -250.9,432.26 -374.78,649.12 -32.62,57.12 -79.63,86.54 -144.41,86.66 -257.86,0.3 -515.71,0 -773.56,-0.47 -65.83,-0.19 -109.72,-34.36 -141.76,-90.47 -121.79,-213.28 -244.05,-426.38 -368.62,-638.11 -40.74,-69.49 -41.78,-132.8 -0.81,-202.52 124.46,-211.67 247.06,-424.6 368.61,-638.12 37.74,-66.45 92.66,-93.68 166.95,-92.91 122.59,1.5 245.19,0.37 367.79,0.37l0 -0.25c118.44,0 236.86,1.67 355.28,-0.52 79.06,-1.55 136.75,26.08 177.16,97.59 120.74,213.83 243.91,426.32 367.67,638.54 37.97,65.02 38.67,125.65 0.48,191.09zm-2.8 6612.69c-120.39,204.37 -238.46,410.16 -354.55,616.97 -44.13,78.57 -104.39,115.12 -195.39,111.8 -118.3,-4.38 -236.84,-1.13 -355.14,-1.13 -118.42,-0.12 -236.86,-2.44 -355.28,0.64 -79.99,2.02 -137.11,-26.86 -177.04,-97.48 -121.22,-213.75 -243.34,-426.83 -367.56,-638.7 -38.79,-66.2 -35.3,-125.43 2.66,-190.32 124.23,-212.04 246.48,-425.02 367.56,-638.84 37.27,-65.78 90.45,-98.08 164.64,-98.08 245.32,-0.24 490.51,0.07 735.83,-0.59 80.1,-0.22 133.73,36.45 172.86,106.24 118.42,210.35 238.36,420.01 361.07,627.87 41.33,69.97 41.69,131.73 0.34,201.62zm-5.46 -2191.14c-120.38,204.24 -239.74,409.2 -355.14,616.42 -42.72,76.43 -102.52,106.23 -185.99,105.81 -236.82,-1.21 -473.56,-1.26 -710.4,0 -84.05,0.42 -142.21,-31.74 -184.47,-107.78 -115.29,-207.22 -234.63,-412.3 -355.26,-616.54 -43.07,-73.01 -46.1,-139.61 -2.33,-213.8 122.96,-207.89 243.35,-417.05 362.24,-627.23 40.05,-70.75 96.46,-100.93 176.11,-99.63 122.6,1.97 245.32,0.48 367.92,0.48 118.42,0 236.84,1.84 355.14,-0.48 80.57,-1.72 135.13,31.5 174.83,101.65 118.89,210.12 239.18,419.42 362,627.28 44.23,74.9 38.08,141.29 -4.65,213.82zm-1798.81 -2408.76c123.64,-212.34 246.36,-425.02 366.99,-639.08 39.59,-70.67 96.24,-102.95 175.07,-102.83 241.01,0.37 482.03,0.72 723.17,-0.29 85.46,-0.35 140.49,39.88 181.81,113.58 115.87,206.92 233.7,412.84 354.92,616.72 44.23,74.54 42.14,139.52 -1.28,212.98 -118.66,200.44 -234.99,402.3 -348.3,605.88 -46.66,84.01 -110.52,119.96 -206.07,115.91 -118.19,-4.8 -236.61,-1.06 -355.14,-1.06l0 -0.54c-118.42,0 -236.84,-1.79 -355.26,0.61 -75.24,1.6 -128.99,-27.7 -166.38,-93.28 -123.88,-217.01 -248.09,-433.8 -373.83,-649.69 -36.34,-62.3 -30.88,-118.53 4.3,-178.91zm5.34 -6619.13c122.84,-207.81 243.35,-416.98 362.22,-627.16 40.05,-70.81 96.72,-100.82 176.25,-99.57 122.6,2.07 245.2,0.54 367.91,0.54 118.3,0.05 236.84,1.89 355.14,-0.54 80.68,-1.6 135.02,31.8 174.74,101.94 116.78,206.44 234.96,411.99 355.95,615.99 45.84,77.28 48.29,146.71 1.5,225.3 -121.32,203.7 -239.51,409.37 -355.84,616.11 -39.48,70.08 -92.52,105.45 -172.98,105.16 -245.31,-1.01 -490.53,-0.72 -735.82,-0.37 -74.43,0.12 -127.25,-29.84 -164.76,-96.41 -118.88,-210.12 -239.5,-419.24 -362.1,-627.05 -43.19,-73.23 -45.98,-139.8 -2.21,-213.94zm-0.59 2203.47c122.74,-208.06 242.77,-417.35 361.19,-627.84 39.58,-70.38 95.32,-104.13 174.38,-104.08 241.14,0.19 482.16,0.47 723.17,-0.54 84.88,-0.35 141.29,37.81 182.74,112 115.76,207.04 233.82,412.77 354.8,616.82 43.64,73.95 44.34,138.81 0.46,213.1 -120.98,203.83 -238.48,409.99 -355.38,616.36 -41.67,73.82 -99.02,109.26 -185.28,106.46 -118.32,-3.86 -236.86,-1.01 -355.14,-1.01 -36.08,0.07 -72.13,-0.24 -108.19,-0.47 -82.38,-0.59 -164.79,-1.13 -247.09,1.48 -84.97,2.8 -144.65,-27.87 -186.91,-102.89 -118.64,-210.36 -238.69,-419.79 -361.41,-627.71 -41.69,-70.74 -37.96,-132.44 2.66,-201.68zm-4.51 -4396.7c123.64,-212.32 246.59,-425.07 366.98,-639.12 39.82,-70.86 96.94,-102.3 175.54,-102.18 241.12,0.3 482.04,0.47 723.18,-0.12 78.94,-0.12 135.13,32.45 174.83,103.02 118.42,210.35 238.12,420.13 361.41,627.7 44.36,74.78 41.33,139.64 -1.85,212.98 -118.66,200.5 -235.09,402.31 -348.29,605.83 -46.79,84.12 -111.11,119.42 -206.42,115.44 -114.01,-4.87 -228.37,-1.19 -342.37,-1.19l0 -0.59c-122.62,0 -245.32,-1.67 -367.92,0.65 -75.47,1.44 -128.75,-28.41 -166.14,-93.85 -123.87,-216.97 -248.11,-433.76 -373.84,-649.64 -36.45,-62.43 -30.18,-118.71 4.89,-178.93zm-90.45 1275.27c-128.75,224.1 -257.5,448.26 -385.44,672.88 -30.18,53.09 -74.76,81.08 -134.09,81.27 -257.97,0.77 -516.06,0.42 -774.03,-0.66 -69.89,-0.12 -118.3,-35.6 -152.79,-96.11 -121.55,-213.59 -243.8,-426.86 -368.03,-639.01 -37.96,-64.91 -41.22,-123.81 -2.21,-190.27 122.26,-208.23 242.89,-417.58 360.84,-628.31 44.82,-79.88 107.28,-111.39 197.26,-108 118.3,4.39 236.96,1.06 355.38,1.06l0 0.3c118.42,0 237.05,1.97 355.36,-0.77 74.89,-1.67 130.14,23.48 168.11,90.11 125.75,221.02 252.74,441.36 380.11,661.23 30.99,53.33 29.6,103.96 -0.47,156.28zm-0.24 8812c-128.63,224.09 -257.5,448.26 -385.32,672.93 -30.19,53.08 -75,80.78 -134.32,80.96 -257.97,0.71 -515.94,0.37 -774.15,-0.47 -69.77,-0.3 -117.95,-35.96 -152.42,-96.46 -123.66,-217.35 -248.58,-433.88 -373.85,-650.32 -32.62,-56.39 -35.51,-109.77 -1.97,-167.55 125.74,-216.13 250.54,-432.8 373.71,-650.42 40.17,-70.8 97.41,-98.86 177.63,-96.72 122.6,3.27 245.32,0.83 368.15,0.83 118.42,0.12 236.96,2.09 355.26,-0.64 74.88,-1.67 130.03,23.89 167.88,90.47 125.85,220.88 252.86,441.24 380.23,661.16 31.1,53.38 29.25,103.96 -0.83,156.23zm-1274.16 2954.92c-80.22,1.42 -135.49,-31.02 -175.3,-101.47 -118.78,-210.18 -239.17,-419.72 -362.12,-627.6 -44.23,-74.88 -38.43,-141.1 4.3,-213.74 118.18,-200.86 235.32,-402.44 347.94,-606.42 46.8,-84.7 111.11,-118.77 205.84,-117.48 228.25,2.9 456.85,3.05 685.21,0 95.2,-1.29 157.43,34.38 204.1,119.25 110.18,200.49 225.23,398.45 343.08,594.59 48.86,81.56 52.81,153.37 2.9,236.52 -119.7,199.79 -235.8,401.95 -349.58,605.48 -44.59,79.6 -105.65,114.07 -195.63,111.44 -118.42,-3.25 -236.94,-0.75 -355.36,-0.75l0 -0.36c-118.44,0 -236.96,-1.55 -355.38,0.54zm1271.62 1456.22c-127.25,219.97 -254.03,440.34 -380.12,661.03 -32.38,56.77 -79.53,87.76 -143.94,87.94 -253.79,0.69 -507.47,0.34 -761.26,-0.12 -74.99,-0.18 -125.73,-38.11 -162.31,-102.68 -121.2,-213.74 -243.56,-426.84 -367.1,-639.28 -35.41,-60.76 -38.09,-116.82 -1.74,-178.99 124,-212.11 246.6,-425.07 367.22,-639.06 42.5,-75.18 102.04,-105.4 187.39,-102.41 118.3,4.23 236.82,1.01 355.24,1.01 118.42,0.12 237.08,2.56 355.38,-0.83 79.76,-2.21 137.58,24.42 177.98,95.69 123.29,217.5 247.98,434.1 373.73,650.11 33.55,57.5 32.38,110.81 -0.47,167.59zm-17.54 -6575.01c-119.45,200.14 -235.78,402.18 -349.92,605.36 -42.03,74.83 -99.36,108.64 -184.71,107.82 -236.96,-2.09 -474.01,-1.96 -710.87,0.12 -84.4,0.7 -143.71,-29.54 -186.21,-105.21 -116.11,-206.98 -234.63,-412.53 -355.85,-616.48 -46.67,-78.34 -44.23,-147.47 1.97,-225.17 121.56,-203.76 239.76,-409.61 356.09,-616.36 39.93,-70.97 94.96,-103.59 174.71,-102.65 122.6,1.43 245.32,0.36 368.04,0.36l0 -0.59c114.24,0 228.48,2.19 342.72,-0.59 89.29,-2.26 150.7,30.71 195.51,111.39 112.84,203.88 229.29,405.86 349.56,605.53 50.04,83.03 47.6,154.85 -1.04,236.47zm-1789.88 -4630.37c122.26,-208.21 243.34,-417.22 361.76,-627.71 40.29,-71.51 96.95,-100.81 175.9,-100.5 241.13,0.99 482.39,1.12 723.4,0 79.87,-0.49 134.9,31.2 174.72,102.29 118.32,210.49 239.52,419.47 361.88,627.59 40.64,69.18 43.89,132.25 2.44,202.46 -124.57,211.79 -246.95,425 -368.5,638.64 -37.61,66.17 -91.59,95.05 -166.36,94.22 -122.6,-1.43 -245.31,-0.42 -368.03,-0.42 -122.71,-0.07 -245.43,-1.19 -368.03,0.42 -75.23,0.83 -127.82,-30.14 -165.33,-96.06 -121.44,-213.58 -243.68,-426.73 -368.37,-638.53 -41.8,-70.79 -35.75,-133.98 4.52,-202.4zm-9.98 2223.08c124,-212.09 246.48,-425.07 367.23,-639.19 42.24,-74.65 100.52,-106.93 186.44,-103.9 118.42,4.28 236.84,1.13 355.38,1.13l0 0.24c122.59,0 245.31,2.09 367.91,-0.71 76.04,-1.79 128.75,28.48 166.02,93.73 123.88,217.21 248.33,433.94 374.06,650 33.21,57.07 34.26,110.5 1.28,167.52 -127.25,219.99 -254.02,440.33 -379.76,661.35 -35.18,61.76 -87.41,90.35 -156.02,90.35 -249.5,0.17 -498.99,-0.3 -748.6,-1.01 -74.66,-0.24 -126.09,-36.33 -163.01,-101.47 -121.08,-213.81 -243.8,-426.74 -367.34,-639.06 -35.16,-60.39 -40.17,-116.4 -3.59,-178.98zm7525.44 1290.72c-122.21,208.17 -243.17,417.05 -361.53,627.54 -39.83,70.78 -94.81,103.42 -174.46,102.65 -122.63,-1.18 -245.19,-0.31 -367.83,-0.31l0 0.12c-118.52,0 -236.82,-0.76 -355.22,0.3 -78.64,0.71 -135.95,-27.51 -176.25,-99.32 -118.29,-210.54 -238.95,-419.6 -361.88,-627.35 -43.78,-74.12 -42.26,-140.7 0.96,-213.93 122.44,-207.94 242.75,-417.23 362.28,-627.06 37.28,-65.44 89.53,-96.89 164.9,-96.53 245.33,1.13 490.52,1.13 735.72,-0.3 74.71,-0.36 128.75,27.11 166.44,93.56 121.44,213.45 243.95,426.38 368.42,638.17 41.06,69.84 39.23,133.21 -1.55,202.46zm-1801.1 -2404.55c124.07,-211.97 246.33,-425.12 367.29,-638.76 37.27,-65.81 90.6,-98.08 164.78,-98.15 245.45,-0.17 490.52,0.07 735.72,-0.64 80.31,-0.3 133.74,36.55 172.98,106.22 118.52,210.35 238.47,420.02 361.04,627.89 41.43,69.96 41.67,131.66 0.49,201.62 -120.44,204.31 -238.61,410.14 -354.71,616.84 -44.09,78.64 -104.24,115.18 -195.25,111.86 -118.3,-4.28 -236.89,-1.12 -355.29,-1.12 -118.41,-0.07 -236.83,-2.33 -355.11,0.7 -80.12,2.03 -137.14,-26.8 -177.31,-97.47 -121.08,-213.64 -243.31,-426.81 -367.43,-638.71 -38.78,-66.17 -35.3,-125.36 2.8,-190.28zm1799.5 -1997.84c-122.7,207.74 -243.48,416.8 -361.88,627.16 -40.3,71.75 -97.85,100.23 -176.48,99.64 -122.47,-0.96 -245.2,-0.24 -367.78,-0.24 -118.29,-0.25 -236.76,-1.2 -355.16,0.12 -79.65,0.94 -134.53,-31.7 -174.35,-102.6 -118.35,-210.49 -239.31,-419.37 -361.52,-627.53 -40.66,-69.19 -42.63,-132.56 -1.55,-202.47 124.47,-211.78 246.86,-424.65 368.37,-638.1 37.74,-66.45 92.3,-93.8 166.72,-93.45 245.2,1.06 490.52,1.37 735.71,-0.12 75.74,-0.35 127.4,31.21 164.66,96.6 119.43,209.83 239.85,419.12 362.18,627.05 43.22,73.18 44.94,139.8 1.08,213.94zm-1796.28 -2414.36c122.38,-208.05 242.64,-417.47 361.06,-627.84 39.69,-70.36 95.69,-103.54 174.86,-103.42 241.04,0.23 482.02,0.54 722.94,-0.36 85.29,-0.42 141.05,38.76 182.48,112.71 115.79,206.92 233.86,412.75 354.71,616.7 44.09,74.19 43.43,139.16 -0.38,213.05 -118.63,200.38 -234.85,402.3 -348.14,605.88 -46.43,83.64 -109.73,120.85 -205.6,116.75 -113.91,-4.99 -228.27,-1.19 -342.51,-1.19 -118.42,-0.24 -236.82,-3.02 -355.17,0.84 -85.3,2.8 -144.39,-28.95 -186.65,-103.73 -118.4,-210.3 -238.35,-419.89 -361.17,-627.7 -41.92,-70.92 -37.05,-132.68 3.57,-201.69zm3168.32 11386.55c80.12,-1.03 134.46,32.32 174.16,103.12 118.42,210.61 239.38,419.59 361.88,627.72 40.84,69.3 42.44,132.49 1.38,202.4 -124.6,211.83 -247.17,424.95 -368.6,638.59 -37.86,66.45 -92.44,93.85 -166.87,93.5 -245.31,-1.13 -490.74,-1.32 -736.18,-0.26 -75.43,0.37 -127.33,-31.2 -164.6,-96.75 -119.47,-209.96 -239.84,-419.37 -362.59,-627.48 -43.15,-73.28 -44.47,-139.59 -0.66,-213.69 118.66,-200.75 235.98,-402.2 347.68,-606.74 49.22,-90.11 117.64,-124.82 216.32,-121.56 114.12,3.69 228.36,0.78 342.62,0.78l0 0.84c118.52,0 237.06,1.18 355.46,-0.47zm-1266.95 -1464.29c122.33,-208.31 242.4,-417.89 361.29,-628.19 41.91,-74.26 99.45,-108.31 185.76,-105.16 118.28,4.33 236.94,1.06 355.46,1.06l0 0.19c122.75,0 245.43,2.14 368.06,-0.71 75.79,-1.79 129.05,27.09 166.56,92.84 123.76,217.21 248.11,434.17 374.3,649.88 36.68,62.64 31.16,118.65 -3.79,179.04 -125.55,216.32 -249.66,433.21 -372.95,650.82 -32.27,56.89 -77.63,89.42 -142.65,89.54 -257.99,0.22 -516.09,-0.3 -773.94,-1.36 -70.69,-0.39 -116.99,-38.83 -151.16,-98.69 -121.74,-213.5 -243.78,-426.97 -368.02,-638.94 -38.51,-65.87 -37.5,-124.66 1.08,-190.32zm1814.7 -6435.75c-129.46,223.68 -258.69,447.54 -386.95,671.88 -36.33,63.36 -92.74,81.72 -160.21,81.44 -122.87,-0.49 -245.43,-0.19 -368.18,-0.19l0 0.3c-118.41,0 -236.83,-1.5 -355.35,0.41 -79.17,1.31 -136.65,-27.28 -176.83,-98.56 -120.85,-213.92 -244.02,-426.66 -367.9,-638.87 -38.1,-65.33 -37.51,-125.6 0.72,-190.99 126.31,-215.59 250.96,-432.33 374.96,-649.34 32.87,-57.25 80.25,-86.02 144.81,-86.08 258.08,-0.17 516.12,-0.12 773.99,0.53 60.15,0.19 104.03,28.3 134.34,80.9 126.42,220.48 253.57,440.7 381.14,660.59 32.15,55.64 38.99,110.03 5.46,167.98zm-17.17 4441.15c-121.08,203.95 -239.43,409.68 -356.19,616.24 -39.81,70.15 -94.51,103.61 -174.98,102.3 -122.7,-2.14 -245.45,-0.59 -368.01,-0.59 -36.69,0 -73.35,-0.07 -110.03,-0.19 -81.79,-0.24 -163.58,-0.47 -245.37,0.89 -79.55,1.32 -136.31,-28.46 -176.36,-99.49 -118.83,-210.25 -239.51,-419.61 -362.43,-627.47 -43.75,-74.14 -41.19,-140.53 2.08,-213.82 122.81,-207.93 243.36,-417.22 362.49,-627.47 37.5,-66.22 90.04,-96.95 164.7,-96.77 245.32,0.41 490.63,0.89 736.2,-0.54 80.66,-0.47 133.26,35.18 172.73,105.21 116.33,206.87 234.49,412.72 356.06,616.48 47.01,78.57 44.94,147.71 -0.89,225.22zm10.35 -2221.99c-124.24,212.02 -246.75,425 -367.01,639.34 -39.95,70.81 -96.83,102.79 -175.52,102.6 -122.63,-0.24 -245.33,-0.12 -367.95,-0.12 -114.26,0 -228.5,-0.65 -342.57,0.31 -88.28,0.82 -151.16,-33.77 -195.62,-113.72 -115.44,-207.34 -233.96,-412.94 -354.93,-617.07 -44.11,-74.41 -41.9,-139.1 1.84,-212.92 119.01,-200.32 235.22,-402.3 348.38,-606.01 46.8,-84.12 110.22,-117.51 205.86,-115.61 232.66,4.45 465.32,3.79 697.96,0.29 86.21,-1.3 144.1,30.19 186.01,104.62 118.75,210.25 238.94,419.72 361.34,628 38.4,65.33 40.61,124.19 2.21,190.29zm4441.5 1840.8c-74.83,0.28 -126.54,-32.05 -163.93,-98.21 -118.78,-210.13 -239.15,-419.3 -361.95,-627.11 -43.57,-73.83 -43.34,-140.46 0,-213.87 122.56,-207.88 242.87,-417.28 362.3,-627.06 37.27,-65.26 88.87,-97.72 164.42,-97.36 249.48,1.31 499.07,1.13 748.48,0.35 70.92,-0.17 119.25,31.44 153.96,92.14 121.86,213.28 243.78,426.68 368.96,637.93 44.7,75.62 35.36,141.96 -7.01,213.82 -120.26,204.42 -239.25,409.55 -355.46,616.35 -39.6,70.68 -94.16,104.26 -174.04,103.44 -122.59,-1.27 -245.22,-0.26 -367.78,-0.26l0 -0.47c-122.75,0 -245.32,-0.4 -367.95,0.31zm-536.93 -3121.48c127.62,-219.77 254.34,-440 380.01,-660.83 35.48,-62.11 88.91,-88.51 156.92,-88.68 249.54,-0.36 499.02,-0.19 748.38,0.17 69.54,0.13 119.6,32.04 154.43,93.09 123.52,217.19 247.87,433.98 373.82,649.88 35.44,60.93 37.75,117.1 1.74,178.92 -123.53,212.33 -246.09,425.12 -367,638.95 -42.5,75.13 -102.72,105.09 -187.73,102.41 -118.16,-3.74 -236.68,-0.94 -355.04,-0.94 -118.52,-0.07 -236.94,-2.21 -355.22,0.77 -79.53,1.96 -137.66,-24.97 -177.85,-96.06 -123.29,-217.5 -248.23,-433.93 -373.48,-650.06 -33.11,-57.24 -31.98,-110.81 1.02,-167.62zm1805.19 -2008.56c-122.82,207.76 -243.29,416.98 -362.18,627.12 -37.51,66.16 -90.12,97.12 -164.66,96.95 -245.31,-0.3 -490.51,-0.71 -735.83,0.42 -80.25,0.47 -133.63,-34.07 -173.21,-104.45 -116.1,-206.8 -234.26,-412.47 -355.7,-616.18 -46.72,-78.4 -45.43,-147.77 0.64,-225.33 121.03,-203.9 239.2,-409.57 356.12,-615.89 39.6,-69.96 94.04,-103.9 174.46,-102.41 122.63,2.07 245.33,0.47 367.83,0.47l0 -0.17c118.42,0 236.82,1.65 355.23,-0.66 79.66,-1.48 136.29,28.06 176.36,99.03 118.89,210.06 239.5,419.19 362.24,627.18 43.4,73.82 41.92,140.46 -1.3,213.92zm-1800.32 -2406.51c123.52,-212.32 246.51,-425.13 367,-639.18 39.81,-70.8 96.94,-102.24 175.52,-102.12 241.04,0.3 482.02,0.47 723.18,-0.12 79.17,-0.12 135.16,32.52 174.88,103.07 120.49,214.11 242.82,427.16 367.17,639.01 38.87,66.27 36.03,125.29 -1.97,190.27 -122.14,208.34 -242.28,417.7 -361.16,627.77 -42.02,74.54 -100.99,107.18 -186.59,104.38 -118.29,-3.74 -236.71,-0.96 -355.23,-0.96l0 -0.35c-122.63,0 -245.19,-1.79 -367.83,0.65 -75.55,1.55 -128.74,-28.41 -166.13,-93.85 -123.77,-216.97 -248.12,-433.88 -373.83,-649.76 -36.33,-62.43 -30.08,-118.7 4.99,-178.81z"/>
  <path class="fil1" d="M8945.49 10859.91c83.69,1.08 156.92,-64.43 161.38,-144.55 4.52,-79.9 -76.98,-159.74 -161.62,-158.12 -78.7,1.41 -155.15,76.26 -155.15,152.1 0,77.93 74,149.56 155.39,150.57zm5.34 555.96c-97.31,-0.05 -194.73,-1.72 -292.04,0.3 -74.95,1.67 -129.05,-26.45 -166.68,-93.03 -100.46,-176.95 -202.45,-353.08 -305.47,-528.49 -33.41,-57.25 -33.76,-111.11 -0.7,-167.92 102.53,-175.85 204.11,-352.08 305.58,-528.44 34.95,-60.81 86.73,-90 156.52,-89.83 198.89,0.35 397.84,0.66 596.73,-0.35 75.32,-0.48 128.51,32.04 165.67,97.07 98.91,172.98 198.18,345.59 298.93,517.62 36.02,61.47 33.46,118.05 -2.68,179.16 -99.14,167.98 -196.99,336.56 -292.21,506.79 -41.55,74.55 -97.96,111.35 -184.33,107.96 -64.37,-2.49 -128.87,-1.9 -193.37,-1.37 -28.65,0.24 -57.29,0.53 -85.95,0.53z"/>
  <path class="fil1" d="M16574.94 10860.03c81.48,-1.13 155.56,-72.57 155.79,-150.34 0.24,-75.84 -76.26,-151.04 -154.85,-152.45 -84.65,-1.62 -166.14,77.86 -161.86,157.81 4.34,80.31 77.21,146.11 160.92,144.98zm8.85 -851.74c93.09,-0.07 186.24,0.95 279.31,-0.37 74.19,-0.99 130.25,26.76 168,92.67 101.09,176.61 202.93,352.74 305.11,528.63 33.28,57.36 29.96,111.28 -3.27,167.92 -102.95,175.48 -204.77,351.61 -305.65,528.38 -34.95,61.23 -84.54,90.65 -155.39,90.3 -198.83,-0.96 -397.72,-0.96 -596.62,0.05 -70.19,0.49 -121.31,-26.32 -156.56,-88.09 -103.02,-180.41 -207.15,-360.17 -311.66,-539.62 -30.85,-52.9 -30.14,-104.14 0.24,-156.51 101.82,-176.12 203.88,-352.2 304.76,-528.85 37.39,-65.51 92.07,-95.7 166.96,-94.74 101.47,1.18 203.06,0.28 304.77,0.23z"/>
  <path class="fil1" d="M2086.64 10795.07l0 -169.59 1.52 2.61c33.04,56.73 31.35,110.45 -1.52,166.98z"/>
  <path class="fil1" d="M5135.95 15265.94c82.78,0.24 156.5,-67.72 159.16,-146.94 2.56,-75.02 -73.36,-153.18 -151.27,-155.98 -85.79,-2.97 -167.19,73.06 -165.32,154.54 1.5,78.83 75,148.08 157.43,148.38zm5.34 555.84c-97.29,-0.07 -194.7,-2.32 -291.87,0.59 -81.26,2.43 -135.37,-31.86 -174.85,-102.01 -97.74,-173.57 -197.83,-345.77 -298.59,-517.6 -33.33,-56.84 -36.23,-110.69 -3.02,-167.88 102.28,-175.94 203.87,-352.19 305.22,-528.61 34.83,-60.64 85.91,-91.61 155.69,-91.61 203.17,0.12 406.33,0.31 609.39,0.12 70.82,-0.12 119.46,34.66 153.83,94.46 99.38,172.68 198.53,345.42 299.31,517.32 35.75,61.05 35.99,117.69 -0.48,179.28 -101.23,171.55 -201.08,343.94 -298.83,517.51 -39.93,71.03 -96.12,101.45 -176.36,99.02 -93.11,-2.8 -186.21,-0.59 -279.44,-0.59z"/>
  <path class="fil1" d="M16571.37 19671.84c82.75,0.36 156.63,-67.7 159.36,-146.81 2.43,-74.85 -73.34,-153.18 -151.34,-156.11 -85.72,-3.09 -167.08,72.77 -165.48,154.44 1.53,78.69 75.25,148.15 157.46,148.48zm-1.43 556.03c-88.92,0 -177.97,-3.17 -266.65,0.89 -89.64,4.16 -152.54,-27.3 -197.13,-108.19 -94.39,-170.61 -192.88,-338.99 -292.04,-506.86 -36.07,-61.23 -38.38,-117.86 -2.42,-179.28 100.69,-171.97 200.07,-344.66 299,-517.57 37.01,-65.01 90.16,-97.36 165.65,-97.01 198.89,1.13 397.85,0.79 596.75,0.37 69.9,-0.06 121.55,29.19 156.5,90 101.46,176.31 203.05,352.61 305.41,528.44 33.11,56.8 32.76,110.79 -0.77,167.92 -102.89,175.58 -205.01,351.54 -305.35,528.49 -37.75,66.58 -91.95,94.58 -166.85,93.02 -97.25,-2.13 -194.68,-0.58 -292.1,-0.58l0 0.36z"/>
  <path class="fil1" d="M8946.97 19368.92c-79.29,0.84 -155.56,74.07 -156.87,150.63 -1.25,82.87 78.4,155.8 166.37,152.29 79.53,-3.27 154.31,-80.42 150.69,-155.69 -3.56,-77.49 -80.31,-147.99 -160.19,-147.23zm0.83 858.59c-97.43,0 -194.85,-1.67 -292.09,0.58 -75.86,1.56 -127.99,-29.83 -165.37,-95.68 -100.29,-176.97 -202.35,-353.03 -305.18,-528.57 -33.82,-57.78 -30.43,-111.77 2.19,-167.98 100.29,-172.22 200.28,-344.59 298.58,-517.86 39.95,-70.45 98.57,-99.26 177.86,-98.69 190.46,1.55 380.84,1.67 571.36,0 79.65,-0.57 137.19,29.98 177.12,100.11 96.25,169.54 193.56,338.53 292.58,506.5 38.34,65.04 39.95,124.49 0.59,190.59 -99.85,167.5 -197.46,336.44 -292.56,506.67 -42.04,75.18 -100.29,108.61 -185.88,105.39 -92.85,-3.57 -186.23,-0.75 -279.2,-0.75l0 -0.31z"/>
  <path class="fil1" d="M2086.64 19606.84l0 -169.82 0.57 0.98c32.98,56.7 33.57,110.55 0,167.86l-0.57 0.98z"/>
  <path class="fil1" d="M12760.77 15265.94c82.33,-0.18 156.16,-69.55 158.12,-148.07 1.67,-75.37 -74.31,-152.53 -152.53,-154.85 -85.42,-2.49 -166.86,74.66 -164.18,155.67 2.44,79.3 75.84,147.49 158.59,147.25zm-6.96 555.47c-97.31,0 -194.66,-0.99 -291.97,0.37 -70.5,0.96 -120.61,-28.05 -155.79,-89.52 -102.91,-180.41 -207.22,-360.05 -311.61,-539.56 -30.9,-53.2 -28.35,-104.49 1.72,-156.57 101.94,-176.06 203.65,-352.24 305,-528.79 34.61,-60.23 84.42,-92.85 154.85,-92.73 203.17,0.24 406.35,0.05 609.4,0.05 64.55,0 114.73,26.22 147.47,82.68 104.15,179.71 207.69,359.76 312.31,539.26 33.41,57.49 28.06,111.46 -4.87,167.81 -100.93,171.85 -201.08,344.12 -298.76,517.69 -39.7,70.67 -95.03,102.58 -175.76,100.27 -97.19,-2.8 -194.68,-0.59 -291.99,-0.59l0 -0.37z"/>
  <path class="fil1" d="M16577.37 8657.58c78.75,-2.14 155.03,-77.34 153.95,-151.81 -1.13,-81.98 -80.3,-149.49 -170.53,-145.16 -80.66,3.92 -153.13,80.73 -147.12,155.62 6.54,78.4 81.84,143.61 163.7,141.35zm-16.23 548.06c-93.15,0 -186.22,-0.83 -279.32,0.18 -79.18,0.71 -136.65,-30.68 -176.36,-101.47 -93.32,-166.32 -188.79,-331.51 -285.86,-495.8 -41.08,-69.2 -42.14,-132.08 -0.24,-202.28 102.18,-171.07 200.97,-344.17 298.88,-517.69 34.83,-61.75 82.97,-92.32 153.96,-91.95 198.83,0.94 397.96,0.94 596.85,-0.07 70.32,-0.35 120.38,27.4 155.56,89.41 100.29,177.07 201.27,353.79 305.11,528.79 39.6,66.81 34.36,126.73 -3.27,190.93 -98.67,168.28 -195.86,337.33 -292.57,506.69 -34.95,61.11 -85.77,92.08 -155.21,92.31 -105.91,0.36 -211.66,0.12 -317.53,0.12l0 0.83z"/>
  <path class="fil1" d="M8945.84 8657.58c81.01,1.02 157.04,-66.92 161.56,-143.96 4.46,-74.78 -69.31,-150.03 -149.85,-153.01 -90.35,-3.44 -168.93,65.75 -168.23,147.84 0.61,75.06 77.34,148.24 156.52,149.13zm3.08 547.94c-97.24,0 -194.66,-0.71 -291.85,0.19 -79.53,0.82 -136.3,-31.7 -175.89,-102.32 -93.44,-166.37 -188.79,-331.68 -286.03,-495.85 -41.26,-69.61 -40.18,-132.67 1.25,-202.42 101.94,-171.24 200.85,-344.22 298.86,-517.72 34.9,-61.94 83.95,-91.19 154.5,-90.84 199.01,1.01 397.95,1.01 596.97,0 70.38,-0.35 119.83,28.06 154.91,90.18 100.04,177.19 201.51,353.68 304.76,529.15 35.96,61.23 37.21,118.24 1.49,179.45 -100.34,172.16 -199.61,344.83 -298.28,517.98 -35.08,61.18 -86.49,91.19 -155.81,91.49 -101.58,0.36 -203.17,0.05 -304.88,0.05l0 0.66z"/>
  <path class="fil1" d="M5138.85 13063.48c79.41,-0.94 156.38,-73.77 157.19,-148.78 1.06,-81.13 -78.59,-151.39 -167.76,-148.24 -80.91,2.96 -154.52,77.69 -150.45,152.71 4.05,76.85 80.33,145.32 161.02,144.31zm-10.8 547.47c-97.29,0 -194.58,-0.12 -291.86,0.12 -74.66,0.18 -127.6,-33 -164.75,-98.49 -93.92,-165.85 -189.01,-331.17 -285.82,-495.33 -40.41,-68.36 -45.99,-131.19 -3.37,-202.17 100.07,-167.14 197,-336.27 292.32,-506.21 42.14,-75.3 103.8,-106.58 187.27,-106.22 190.28,0.82 380.8,1.31 571.09,-0.47 76.73,-0.66 125.61,33.81 162.41,99.61 95.2,169.95 192.37,338.95 291.99,506.34 41.1,68.94 46.34,131.73 4.41,202.23 -99.26,167.62 -196.09,336.72 -292.2,506.26 -37.63,66.22 -93.11,94.92 -166.97,94.75 -101.47,-0.42 -202.93,-0.12 -304.52,-0.12l0 -0.3z"/>
  <path class="fil1" d="M5135.95 6454.13c82.78,0.35 156.5,-67.77 159.16,-146.95 2.56,-74.89 -73.48,-153.11 -151.27,-155.86 -85.79,-3.08 -167.07,72.95 -165.32,154.43 1.5,78.77 75.12,148.14 157.43,148.38zm-3.61 555.84c-93.22,0 -186.34,-2.14 -279.31,0.66 -80.12,2.37 -136.65,-27.77 -176.59,-98.86 -97.64,-173.69 -197.49,-346.08 -298.84,-517.56 -36.47,-61.65 -36.33,-118.17 -0.58,-179.28 100.78,-171.9 200.04,-344.71 299.3,-517.39 34.36,-59.85 82.89,-94.69 153.71,-94.69 203.17,0.25 406.35,0.25 609.52,-0.17 70.11,-0.12 120.74,31.02 155.45,91.59 101.47,176.32 203.06,352.67 305.34,528.51 33.33,57.17 30.65,111.04 -2.68,167.93 -100.76,171.83 -201.42,343.75 -298.48,517.74 -42.49,76.31 -102.98,105.44 -187.62,102.34 -92.87,-3.27 -186.1,-0.7 -279.22,-0.82z"/>
  <path class="fil1" d="M12756.37 6454.18c83.93,1.62 156.99,-62.95 162.33,-143.54 4.89,-73.53 -70.97,-155.27 -147.7,-159.32 -85.78,-4.63 -168.11,68.95 -169.06,150.99 -0.77,77.28 73.42,150.27 154.43,151.87zm-1.48 555.43c-97.43,0 -194.62,-1.01 -292.11,0.36 -70.13,1.08 -120.89,-26.93 -156.14,-88.56 -103.02,-180.41 -207.27,-360.17 -311.72,-539.63 -30.79,-52.89 -29.54,-104.25 0.65,-156.5 104.27,-179.64 207.93,-359.58 312.19,-539.33 32.64,-56.34 82.69,-82.97 147.24,-83.1 203.17,0 406.23,0.13 609.4,-0.12 70.43,-0.05 120.38,32.17 154.97,92.39 101.47,176.53 202.94,352.83 305.23,528.72 33.3,57.43 29.49,111.28 -3.74,167.81 -102.95,175.47 -204.89,351.65 -305.77,528.32 -35.2,61.4 -85.01,90.94 -155.44,90 -101.59,-1.32 -203.06,-0.36 -304.76,-0.36z"/>
  <path class="fil1" d="M2086.64 8592.39l0 -169.78c28.26,57.01 31.04,110.79 0,169.78z"/>
  <path class="fil1" d="M12758.93 12766.46c-83.81,0.54 -159.19,71.74 -157.76,148.9 1.36,76.75 79.65,148.9 160.8,148.12 80.54,-0.76 158.35,-75.3 157.62,-151.21 -0.7,-78.11 -76.02,-146.4 -160.66,-145.81zm-8.02 844.49c-97.25,0 -194.56,-0.12 -291.87,0 -74.78,0.23 -127.26,-33.65 -164.3,-99.03 -94.04,-165.9 -188.84,-331.15 -285.91,-495.28 -40.3,-68.53 -45.05,-131.41 -2.56,-202.21 100.04,-167.15 196.64,-336.44 292.58,-506.1 39.35,-69.73 95.29,-104.97 174.7,-104.97 194.73,0 389.16,0.37 583.66,-0.88 70.19,-0.49 120.49,27.4 155.55,89.34 100.17,176.83 201.22,353.44 304.88,528.32 39.36,66.57 35.08,126.42 -2.66,190.81 -98.55,168.16 -196.11,336.91 -292.22,506.38 -37.63,66.34 -93.69,94.27 -167.34,94.04 -101.47,-0.42 -202.94,-0.12 -304.51,-0.12l0 -0.3z"/>
  <path class="fil1" d="M8437.87 4620.81l1021.4 0 -45.44 80.12c-37.16,65.63 -90.35,98.39 -165.01,98.39 -198.97,-0.19 -397.84,-0.42 -596.85,0.3 -80.45,0.36 -134.23,-36.75 -173.34,-106.4l-40.76 -72.41z"/>
  <path class="fil1" d="M16061.55 4620.81l1021.51 0 -45.55 80.31c-37.27,65.63 -90.48,98.2 -165.12,98.2 -198.9,-0.19 -397.98,-0.42 -596.87,0.3 -80.42,0.36 -134.22,-36.92 -173.33,-106.59l-40.64 -72.22z"/>
  <path class="fil1" d="M2086.64 6388.79l0 -168.43 5.46 9.43c30.41,52.96 26.47,104.2 -3.94,156.4l-1.52 2.6z"/>
  <path class="fil1" d="M8945.61 6454.18c83.57,1.13 156.8,-64.67 161.26,-144.74 4.17,-73.94 -71.74,-154.43 -148.96,-158.12 -85.37,-4.16 -167.93,70.69 -167.81,152.17 0,77.82 74,149.51 155.51,150.69zm-1.79 555.43c-97.38,0 -194.8,-0.96 -292.11,0.36 -70.08,1.08 -121.2,-26.15 -156.45,-87.97 -103,-180.35 -207.27,-360.1 -311.77,-539.57 -30.73,-52.77 -30.26,-104.08 0,-156.5 104.15,-179.7 207.81,-359.62 311.96,-539.37 32.64,-56.3 82.21,-83.58 146.88,-83.58 203.17,-0.13 406.34,0.12 609.52,-0.3 70.26,-0.12 120.61,31.39 155.44,91.9 101.23,176.36 202.82,352.73 305.11,528.56 33.35,57.3 30.08,111.15 -3.03,167.92 -100.75,171.85 -200.97,344.06 -298.7,517.67 -39.58,70.22 -93.8,104.27 -174.88,101.83 -97.24,-2.92 -194.66,-0.59 -291.97,-0.59l0 -0.36z"/>
  <path class="fil1" d="M16566.01 6454.13c84.42,2.54 157.65,-60.52 164.49,-141.47 6.65,-78.66 -74.5,-161.57 -158.24,-161.34 -79.6,0.07 -156.28,71.99 -158.59,148.97 -2.32,76.2 72.22,151.46 152.34,153.84zm6.49 555.37c-101.59,0 -203.18,-0.48 -304.76,0.11 -65.21,0.36 -113.18,-26.33 -146.06,-83.45 -105.51,-183.8 -211.85,-367.12 -317.95,-550.67 -27.99,-48.58 -26.27,-97.14 1.24,-144.99 103.56,-180.04 207.58,-359.91 311.37,-539.78 32.15,-55.71 79.3,-87.27 144.67,-87.27 207.34,-0.23 414.86,-0.23 622.2,-0.11 65.32,0.11 112.57,31.25 144.85,87.01 101.83,176.2 203.29,352.56 305.82,528.39 32.88,56.29 35.32,110.26 1.61,167.81 -105.03,179.26 -208.82,359.2 -312.31,539.25 -32.81,57.01 -80.55,84.17 -145.92,83.81 -101.59,-0.65 -203.06,-0.11 -304.76,-0.11z"/>
  <path class="fil1" d="M3236.48 7558.86c78.82,-2.44 155.32,-79.95 154.18,-156.16 -1.05,-78.35 -77.92,-151.22 -158.37,-150.21 -82.08,0.96 -159.17,72.23 -161.26,149.08 -2.44,81.56 80.11,160.02 165.45,157.29zm-16.49 549.31c-93.23,0.05 -186.23,-0.85 -279.46,0.35 -74.17,0.89 -130.6,-26.39 -168.33,-92.44 -101.13,-176.6 -202.93,-352.9 -305.23,-528.91 -33.19,-57.19 -30.77,-111.04 2.45,-167.93 100.89,-171.9 200.84,-344.34 298.82,-517.85 39.48,-70.03 93.82,-103.5 174.97,-102.54 190.4,2.26 380.92,2.2 571.43,-0.06 80.12,-0.9 136.77,28.47 176.82,99.33 97.76,173.57 197.59,346.12 298.95,517.86 36.34,61.58 35.99,118.23 0.23,179.28 -100.66,171.97 -200.14,344.69 -299.06,517.67 -37.39,65.39 -91.84,96.25 -166.72,95.35 -101.58,-1.19 -203.17,-0.23 -304.87,-0.11z"/>
  <path class="fil1" d="M10858.27 7558.86c78.75,-1.73 155.91,-77.76 156.16,-154.25 0.24,-78.05 -76.16,-152.41 -156.58,-152.24 -86.07,0.12 -168.94,81.55 -163.16,160.02 5.58,79.13 82.92,148.13 163.58,146.47zm-11.24 549.54c-93.08,-0.12 -186.34,-1.55 -279.44,0.36 -79.76,1.48 -137.24,-30.32 -176.95,-100.4 -98.32,-173.4 -198.31,-345.79 -298.34,-518.23 -33,-56.58 -34.36,-110.5 -0.71,-167.92 102.95,-175.64 205.01,-351.82 305.58,-528.79 37.46,-66.04 91.13,-94.94 166.33,-94.28 194.73,1.62 389.51,1.67 584.36,0.07 75.79,-0.59 128.16,30.5 165.32,96.11 100.52,177.02 202.58,353.27 305.3,528.91 33.81,57.78 30.07,111.77 -2.62,167.99 -100.22,172.33 -200.2,344.7 -298.76,518.03 -39.83,70.5 -98.55,99.99 -177.85,98.62 -97.42,-1.78 -194.8,-0.47 -292.22,-0.47z"/>
  <path class="fil1" d="M18472.32 7558.92c85.48,2.56 167.75,-75.44 165.78,-157.23 -1.6,-72.57 -73.7,-145.63 -146.69,-149.32 -88.04,-4.33 -171.5,68.19 -173.05,150.33 -1.36,75.84 75.51,153.89 153.96,156.22zm733.4 -297.67l0 289.27c-89.39,153.22 -177.66,306.89 -265.65,460.81 -37.16,64.91 -90.54,97.36 -165.9,96.95 -198.95,-0.96 -397.84,-0.72 -596.97,-0.35 -69.85,0.12 -121.44,-29.49 -156.45,-90.25 -101.42,-176.41 -203.06,-352.78 -305.49,-528.67 -32.99,-56.89 -32.74,-110.79 0.84,-168.05 102.84,-175.52 204.78,-351.72 305.42,-528.72 37.75,-66.34 92.19,-94.58 167.2,-93.03 97.26,1.9 194.68,0.47 292.11,0.47l0 -0.35c88.8,0 177.85,3.08 266.65,-0.9 89.87,-3.97 152.65,28.01 197.34,108.6 84.6,152.74 172.29,303.78 260.9,454.22z"/>
  <path class="fil1" d="M7045.29 14169.06c83.6,-1.2 162.65,-82.87 156.96,-162.16 -5.44,-77.22 -81.72,-144.62 -162.18,-143.49 -78.82,1.13 -156.05,74.05 -157.66,148.78 -1.64,81.25 78.13,158.12 162.88,156.87zm1.74 556.31c-29.88,0 -59.78,-0.12 -89.69,-0.24 -67.55,-0.3 -135.09,-0.58 -202.52,0.83 -74.78,1.48 -128.75,-25.02 -166.61,-92.54 -97.52,-173.94 -196.79,-347.03 -298.95,-518.11 -41.9,-70.25 -40.52,-133.2 0.36,-202.52 94.84,-160.66 187.96,-322.47 279.1,-485.4 41.21,-73.82 98.1,-112.81 183.66,-112.22 194.81,1.19 389.63,0.82 584.43,0.3 79.89,-0.18 135.73,34.71 175.09,104.49 93.68,166.32 189.12,331.68 285.58,496.46 37.63,64.45 42.04,124.48 2.56,191.05 -103.67,175.17 -204.91,351.96 -305.09,529.15 -35.19,62.36 -85.45,90 -155.7,88.99 -97.29,-1.32 -194.81,-0.36 -292.22,-0.24z"/>
  <path class="fil1" d="M14663.39 13863.41c-78.71,1.24 -155.91,74.54 -157.16,149.25 -1.43,81.32 78.45,157.82 163.23,156.52 79.95,-1.38 153.24,-71.63 156.56,-150.17 3.27,-79.29 -77.86,-156.92 -162.63,-155.6zm-2.55 861.84c-97.42,0 -194.91,-0.96 -292.22,0.36 -70.43,1.01 -120.02,-27.75 -155.2,-90 -99.99,-177.26 -201.69,-353.79 -304.88,-529.33 -35.79,-61.1 -37.98,-118.12 -2.07,-179.52 100.27,-172.32 199.29,-345.42 298.2,-518.45 34.85,-60.74 86.61,-91.66 155.93,-91.83 203.29,-0.61 406.58,-0.61 609.88,-0.18 69.06,0.18 121.79,29.72 156.73,90.7 99.16,173.04 198.07,346.07 298.34,518.28 35.67,61.05 35.44,118.12 -0.64,179.58 -103.13,175.53 -204.6,352.13 -304.76,529.44 -34.96,61.77 -83.64,92.13 -154.43,91.19 -101.72,-1.2 -203.29,-0.36 -304.88,-0.24z"/>
  <path class="fil1" d="M3224.52 16370.59c84.28,2.52 165.78,-73.04 166.14,-154 0.33,-76.03 -74.66,-151.04 -153.49,-153.3 -86.49,-2.43 -166.84,71.75 -166.25,153.6 0.47,75.44 76.39,151.46 153.6,153.7zm12.99 -858.86c97.41,0 194.82,0.94 292.22,-0.3 70.47,-0.9 120.63,28.47 155.81,89.82 102.97,180.41 207.24,360.12 311.72,539.73 30.89,53.16 28.09,104.49 -1.97,156.57 -101.94,176.2 -203.86,352.31 -304.99,529.03 -37.5,65.82 -93.22,93.97 -167.64,93.64 -194.82,-1.03 -389.52,-1.03 -584.22,0.11 -74.88,0.34 -130.03,-29.18 -167.4,-94.51 -101.25,-176.56 -202.82,-352.85 -305.11,-528.86 -33.55,-57.66 -28.33,-111.51 4.65,-167.92 100.88,-171.97 201.08,-344.23 298.95,-517.93 39.71,-70.5 95.43,-102.53 176.01,-100.39 97.27,2.68 194.58,0.66 291.97,0.66l0 0.35z"/>
  <path class="fil1" d="M10850.06 16063.41c-79.88,2.32 -154.78,75.55 -155.37,151.88 -0.66,80.78 80.59,157.51 164.54,155.3 77.68,-1.93 153.7,-76.61 155.32,-152.33 1.65,-81.27 -79.18,-157.3 -164.49,-154.85zm-2.54 856.72c-93.28,0 -186.36,-1.41 -279.46,0.42 -79.76,1.57 -137.47,-29.94 -177.19,-100.08 -98.32,-173.34 -198.05,-345.96 -298.57,-518.05 -36.38,-62.11 -30.55,-118.82 5.12,-179.33 99.26,-167.86 197.34,-336.62 292.56,-506.74 41.91,-75.2 100.29,-107.42 185.82,-106.05 186.24,2.91 372.7,3.03 558.94,0 85.88,-1.37 143.37,32.4 185.16,107.18 95.22,170.23 192.83,339.23 292.58,506.81 39.7,66.57 35.96,126.01 -2.21,190.68 -96.83,164.49 -192.95,329.36 -285.74,496.04 -44.58,79.94 -108.19,113.06 -197.69,110.15 -92.98,-3.08 -186.24,-0.64 -279.32,-0.64l0 -0.39z"/>
  <path class="fil1" d="M18476.18 16370.59c83.59,0.85 164.6,-78.26 161.92,-158.08 -2.56,-77.47 -77.98,-148.61 -157.64,-148.98 -84.99,-0.48 -165.77,78.06 -162.21,157.52 3.62,77.11 79.29,148.84 157.93,149.54zm729.54 -295.99l0 286.34c-90.35,156.9 -180.97,313.66 -271.42,470.58 -32.14,55.77 -79.29,87.33 -144.8,87.38 -207.46,0.17 -414.89,0.17 -622.3,0 -65.44,-0.05 -112.7,-31.58 -144.85,-87.25 -103.91,-180 -207.69,-359.92 -311.6,-540 -30.55,-52.94 -26.27,-104.25 4.16,-156.5 102.54,-175.81 204.77,-351.89 305.23,-528.91 37.63,-65.92 90.42,-96.72 165.9,-95.17 97.31,1.97 194.8,0.42 292.11,0.42l0 0.48c101.7,0 203.29,0.35 305,-0.19 65.09,-0.35 113.18,26.88 145.93,83.76 91.85,159.89 184.25,319.47 276.64,479.06z"/>
  <path class="fil1" d="M3232.76 18575.08c83.83,-1.01 162.88,-82.16 157.66,-161.73 -5.1,-77.12 -81.38,-144.99 -161.72,-144.04 -78.94,1.01 -156.27,73.46 -158.14,148.31 -2.09,80.96 77.92,158.47 162.2,157.46zm-8.24 555.95c-97.41,0 -194.82,-0.87 -292.23,0.42 -70.58,1 -119.7,-28.54 -154.76,-90.46 -100.07,-177.33 -201.66,-353.81 -304.86,-529.4 -35.88,-61.23 -37.16,-118.36 -1.52,-179.59 100.31,-172.18 199.35,-345.3 298.38,-518.33 34.82,-60.93 87.07,-91.22 156.26,-91.41 203.29,-0.42 406.47,-0.42 609.88,0 69.06,0.12 121.55,30.18 156.26,91.11 101,176.84 202.47,353.34 303.93,529.87 30.32,52.69 29.04,104.1 -1.39,156.75 -106.22,183.57 -212.11,367.29 -317.17,551.56 -33.21,58.39 -83.59,80.26 -147.92,79.72 -101.59,-0.59 -203.27,-0.24 -304.86,-0.24z"/>
  <path class="fil1" d="M7038.55 18575.18c85.11,1.67 164.86,-73.92 164.17,-155.61 -0.57,-74.73 -77.56,-148.88 -155.93,-150.26 -84.85,-1.49 -166.35,75.68 -163.79,154.68 2.54,78.26 75.92,149.65 155.55,151.19zm-3.13 555.85c-97.41,0 -194.8,-0.87 -292.21,0.42 -70.82,1 -119.46,-29.48 -154.29,-91.29 -100.09,-177.37 -201.56,-353.91 -304.76,-529.42 -36.11,-61.5 -36.11,-118.57 -0.71,-179.66 100.32,-172.22 199.35,-345.19 298.38,-518.28 35.06,-61 87.77,-90.42 156.85,-90.61 203.29,-0.35 406.45,-0.35 609.74,0.19 69.44,0.19 121.22,31.09 156.05,91.83 98.9,173.17 197.93,346.13 298.25,518.52 35.64,61.35 33.67,118.47 -2.32,179.58 -103.11,175.54 -204.69,352.01 -304.88,529.39 -35.18,62.05 -84.76,90.75 -155.22,89.75 -101.59,-1.24 -203.18,-0.3 -304.88,-0.42z"/>
  <path class="fil1" d="M10849.71 18575.08c85.41,1.97 164.96,-72.64 164.96,-154.84 -0.12,-74.44 -77.11,-149.28 -155.21,-150.93 -84.89,-1.79 -166.74,74.61 -164.65,153.83 1.9,77.88 75.6,150.17 154.9,151.94zm4.75 555.84c-101.59,0 -203.29,-0.34 -304.88,0.11 -65.56,0.42 -112.4,-27.39 -144.86,-84.89 -102.76,-180.64 -206.44,-360.92 -311.18,-540.38 -33.28,-57.12 -34.24,-111.26 -1.24,-168.2 101.94,-176.14 203.05,-352.91 304.64,-529.3 32.4,-56.34 82.26,-85.05 146.41,-85.36 207.57,-0.71 415.14,-0.71 622.48,0 64.19,0.31 113.88,29.09 146.28,85.48 101.59,176.38 202.81,353.1 304.88,529.28 32.86,56.94 31.92,111.16 -1.5,168.22 -104.73,179.46 -208.28,359.69 -311.04,540.38 -32.76,57.38 -79.55,85.19 -144.99,84.77 -101.71,-0.45 -203.41,-0.11 -305,-0.11z"/>
  <path class="fil1" d="M14669.57 18269.31c-85,-1.13 -166.14,76.49 -162.8,155.67 3.39,78.82 76.38,148.9 156.5,150.2 84.77,1.33 164.77,-75.52 163.36,-156.72 -1.26,-74.73 -78.59,-148.14 -157.06,-149.15zm-0.94 861.96c-97.54,0 -194.92,-1.53 -292.23,0.54 -75.36,1.6 -128.04,-27.4 -165.66,-94.46 -97.43,-173.99 -196.57,-347.02 -298.75,-518.15 -42.32,-70.8 -38.04,-133.7 2.43,-202.41 94.76,-160.78 188.14,-322.47 279.15,-485.39 41.43,-74.36 99.8,-110.97 184.81,-110.44 190.5,1 381.02,0.95 571.76,-0.18 83.93,-0.54 144.92,31.66 186.83,106.88 93.21,166.62 188.78,331.85 285.26,496.64 37.81,64.89 39.7,124.94 0.54,190.98 -103.79,175.17 -204.91,351.89 -305.18,529.15 -35.55,62.71 -86.96,88.1 -156.75,87.09 -97.55,-1.31 -194.9,-0.37 -292.21,-0.25z"/>
  <path class="fil1" d="M18481.18 18574.91c83.69,-1.45 162.4,-83.1 156.57,-162.52 -5.64,-77.34 -81.86,-144.4 -162.52,-143.08 -78.7,1.31 -155.91,74.54 -157.15,149.15 -1.44,81.53 78.21,157.86 163.1,156.45zm724.54 -299.27l0 288.45c-93.26,158.54 -184.71,318.22 -275.16,478.38 -35.19,62.41 -85.42,90.06 -155.79,89.05 -97.19,-1.31 -194.68,-0.37 -292.11,-0.25 -97.42,0.07 -194.91,-1.42 -292.22,0.54 -74.64,1.6 -128.75,-25.09 -166.73,-92.56 -97.36,-173.87 -196.63,-346.9 -298.81,-518.02 -41.79,-70.27 -40.66,-133.22 0.24,-202.52 94.98,-160.7 188.07,-322.42 279.19,-485.34 41.14,-73.84 98.14,-112.78 183.57,-112.25 194.9,1.14 389.75,0.79 584.55,0.3 79.76,-0.3 135.7,34.71 175.05,104.45 84.9,150.62 171.06,300.4 258.22,449.77z"/>
  <path class="fil1" d="M3232.99 20469.32c-84.75,-0.65 -165.78,78.24 -162.19,157.63 3.6,77.16 79.29,148.85 157.9,149.56 83.71,0.84 164.62,-78.3 161.96,-158.12 -2.68,-77.44 -77.92,-148.6 -157.67,-149.07zm-5.34 -551.86c97.41,-0.12 194.92,1.3 292.21,-0.54 74.78,-1.55 129.46,26.03 167.3,92.56 100.66,176.95 202.6,353.08 305.69,528.67 33.33,57.07 34.25,110.98 1.16,167.91 -102.39,176.01 -203.86,352.4 -305.45,528.88 -34.83,60.63 -86.15,90.8 -156.05,90.65 -203.39,-0.37 -406.56,-0.3 -609.85,-0.49 -64.89,-0.11 -113.66,-28.96 -146.06,-85.05 -104.13,-179.89 -207.92,-359.93 -311.84,-539.82 -30.53,-52.47 -29.36,-103.83 1.29,-156.5 104.6,-179.57 208.86,-359.32 312.19,-539.61 35.28,-62.01 87.53,-87.84 157.31,-86.96 97.4,1.29 194.81,0.35 292.1,0.3z"/>
  <path class="fil1" d="M10848.16 20776.51c84.41,2.68 165.85,-72.76 166.27,-153.94 0.47,-76.09 -74.61,-151.11 -153.6,-153.37 -86.26,-2.39 -166.68,71.87 -166.14,153.49 0.35,75.49 76.43,151.51 153.47,153.82zm-2.85 549.01c-97.43,0 -194.85,-0.3 -292.09,0.07 -70.15,0.27 -121.57,-29.79 -156.4,-90.48 -101.47,-176.49 -203.05,-352.85 -305.35,-528.86 -33.23,-56.89 -32.52,-110.86 1.06,-167.84 102.95,-175.66 205.03,-351.81 305.54,-528.7 37.74,-66.45 92.44,-93.58 167.21,-92.91 194.67,1.65 389.59,1.39 584.32,0.36 69.77,-0.36 122.09,24.8 157.51,86.72 103.32,180.31 207.45,360.17 312.07,539.68 30.67,52.66 31.93,103.9 1.55,156.57 -104.03,179.8 -207.92,359.81 -311.77,539.73 -35.36,61.42 -89.82,86.49 -158.77,86 -101.59,-0.57 -203.18,-0.15 -304.88,-0.15l0 -0.19z"/>
  <path class="fil1" d="M18477.68 20469.32c-80.8,0.66 -155.81,70.32 -159.32,147.77 -3.55,79.59 77.34,159.89 160.61,159.42 82.87,-0.34 163.77,-82.21 159.13,-160.9 -4.75,-78.59 -79.76,-147.01 -160.42,-146.29zm728.04 9.71l0 289.32c-89.71,153.64 -178.49,307.9 -266.78,462.36 -37.27,65.16 -91.71,96.25 -166.73,95.34 -101.59,-1.12 -203.17,-0.31 -304.76,-0.19 -93.1,0 -186.36,-0.87 -279.55,0.25 -74.08,1.08 -130.61,-26.26 -168.35,-92.32 -101,-176.53 -202.94,-352.83 -305.11,-528.84 -33.3,-57.19 -30.74,-111.18 2.44,-167.99 100.81,-171.9 200.97,-344.28 298.86,-517.86 39.48,-69.96 93.8,-103.54 174.95,-102.6 190.51,2.38 380.91,2.26 571.41,-0.07 80.26,-0.87 136.79,28.5 176.72,99.28 87.38,155.31 176.55,309.61 266.9,463.32z"/>
  <path class="fil1" d="M2086.64 21740.01l0 -98.72c19.23,33.51 27.21,66.05 23.71,98.72l-23.71 0 0 0z"/>
  <path class="fil1" d="M9106.94 21740.01c0.51,-3.81 0.83,-7.63 0.94,-11.47 2.43,-80.85 -76.86,-152.71 -165.9,-150.27 -81.26,2.24 -155.34,75.25 -152.54,150.74 0.14,3.69 0.46,7.36 0.93,11l-624.38 0c-3.69,-39.85 6.97,-79.46 32.6,-121.92 100.69,-167.02 197.41,-336.51 292.7,-506.61 37.15,-66.34 87.67,-99.02 163.83,-97.42 97.29,2.02 194.66,0.4 292.09,0.4 97.3,0 194.66,1.53 291.97,-0.52 75.5,-1.64 127.87,27.97 165.31,94.96 95.35,170.09 192.19,339.49 292.7,506.62 25.81,43.09 37.67,83.48 34.13,124.49l-624.38 0z"/>
  <path class="fil1" d="M16730.38 21740.01c0.37,-2.93 0.66,-5.88 0.82,-8.85 4.23,-74.91 -69.53,-149.97 -150.21,-152.89 -89.88,-3.22 -168.94,66.52 -168.09,148.06 0.05,4.58 0.38,9.15 0.99,13.68l-623.51 0c-3.57,-42.85 9.02,-85.02 36.3,-130.05 98.9,-163.24 193.77,-328.9 286.44,-495.7 39.72,-71.63 94.51,-102.83 174.94,-100.62 97.3,2.78 194.8,0.64 292.1,0.75 93.27,0 186.36,1.5 279.32,-0.45 74.54,-1.64 129.1,24.41 166.98,92.07 97.54,173.78 196.57,346.66 298.7,517.79 24.11,40.3 34.08,78.18 30.48,116.21l-625.26 0z"/>
  <path class="fil1" d="M8944.53 17172.35c-81.98,1.49 -156.27,72.42 -155.32,148.27 1.01,75.18 77.99,148.12 157.05,148.78 85.11,0.84 165.9,-78 160.9,-156.82 -4.87,-79.11 -77.51,-141.64 -162.63,-140.23zm16.59 -563.45c97.43,0 194.85,0.42 292.09,-0.15 65.52,-0.37 112.41,27.28 145.16,84.75 102.6,180.56 206.33,360.69 311,540.15 33.34,57.06 34.19,111.26 1.31,167.96 -102.06,176.2 -203.41,352.63 -304.88,529.12 -32.52,56.65 -81.73,85 -146.05,85.31 -207.33,0.45 -414.84,0.38 -622.17,0.11 -70.39,-0.18 -118.66,-35.73 -153.02,-96.06 -96.46,-169.4 -193.65,-338.71 -292.32,-506.82 -38.59,-65.43 -37.39,-125.29 1.24,-190.85 103.66,-175.17 204.59,-351.96 305.35,-528.82 32.64,-57.34 79.54,-85.22 144.93,-84.85 105.75,0.57 211.61,0.15 317.36,0.15z"/>
  <path class="fil1" d="M12764.27 17469.33c80.14,-1.6 157.3,-77.93 155.09,-153.6 -2.43,-78.99 -77.09,-144.79 -162.87,-143.38 -83.1,1.37 -158.24,74.68 -155.09,151.23 3.11,77.81 80.9,147.47 162.87,145.75zm-7.54 -860.83c97.3,0.06 194.68,1.48 291.98,-0.48 74.78,-1.48 128.64,25.5 166.38,92.98 97.42,173.79 196.63,346.78 298.69,517.84 42.14,70.33 39.95,133.27 -0.77,202.28 -97.19,164.24 -192.41,329.72 -286.33,495.81 -36.8,65.09 -88.81,99.98 -163.95,99.98 -198.94,0 -397.84,-0.42 -596.97,0.54 -79.95,0.36 -134.88,-35.01 -174.1,-104.97 -91.48,-162.63 -184.63,-324.27 -280.03,-484.58 -43.34,-72.81 -47.73,-138.49 -2.32,-213.69 100.87,-166.91 197.81,-336.25 292.34,-506.81 40,-71.79 95.52,-102 175.64,-99.68 92.98,2.8 186.24,0.66 279.44,0.78z"/>
  <path class="fil1" d="M16574.57 17469.4c79.41,-1.03 156.28,-74.14 156.99,-149.09 0.84,-81.9 -77.86,-151.21 -167.98,-147.96 -80.72,2.97 -154.31,78.07 -150.15,152.95 4.34,77.22 80.48,145.21 161.14,144.1zm-3.32 -860.53c101.7,0 203.29,0.45 304.76,-0.12 65.21,-0.49 112.69,26.32 145.57,83.86 102.71,180.58 206.2,360.7 311.01,540.13 33.22,56.89 35.18,111.04 2.19,168.06 -102.01,176.13 -203.34,352.55 -304.65,529.1 -32.45,56.58 -81.24,85.77 -145.68,85.95 -207.33,0.64 -414.79,0.57 -622.24,0.34 -70.03,-0.15 -118.89,-34.71 -153.49,-95.22 -96.58,-169.52 -193.53,-338.63 -292.32,-506.86 -38.35,-65.2 -38.59,-125.05 0.4,-190.85 101.59,-171.52 200.99,-344.24 298.41,-518.06 37.16,-66.39 87.86,-98.66 163.93,-97.13 97.38,2.09 194.68,0.53 292.11,0.53l0 0.27z"/>
  <path class="fil1" d="M7042.85 20470.15c-81.72,1.62 -158.83,73.93 -160.09,150.4 -1.28,81.59 81.62,159.25 166.95,155.96 78.01,-2.97 154.76,-81.91 152.77,-157.39 -1.97,-78.89 -78.82,-150.52 -159.63,-148.97zm0 -552.34c101.59,0 203.17,0.49 304.76,-0.05 65.24,-0.42 113.43,26.98 146.05,83.8 105.77,183.86 211.99,367.29 318.11,550.92 28.09,48.73 25.76,97.3 -1.73,145.09 -103.68,180.04 -207.83,359.93 -311.39,540.03 -35.18,61.17 -88.1,88.26 -157.66,88.11 -198.88,-0.42 -397.97,-0.72 -596.97,0.03 -75.81,0.37 -127.7,-34.45 -164.5,-99.02 -98.93,-173.03 -198.31,-345.76 -298.85,-517.84 -36.21,-62.06 -31.1,-118.85 4.65,-179.29 99.03,-168.11 197.13,-336.74 292.44,-507.04 41.93,-75.01 99.86,-109.32 185.64,-106.24 93.01,3.41 186.22,0.73 279.45,0.73l0 0.77z"/>
  <path class="fil1" d="M12754.18 19671.84c84.28,2.48 157.63,-60.45 164.52,-141.52 6.61,-78.65 -74.52,-161.59 -158.28,-161.4 -79.72,0.12 -156.22,72.05 -158.59,148.98 -2.33,76.13 72.1,151.5 152.35,153.94zm18.65 -851.8c93.03,0 186.13,1.01 279.27,-0.24 74.54,-1.01 130.11,27.52 167.74,93.25 101,176.68 202.94,352.75 305,528.81 30.07,52.18 32.63,103.44 1.6,156.52 -104.25,179.58 -208.52,359.32 -311.59,539.74 -35.08,61.39 -85.12,89.97 -155.55,89.56 -198.9,-1.08 -397.91,-1.08 -596.87,0 -70.27,0.41 -120.78,-27.3 -156.03,-88.86 -102.9,-180.58 -207.29,-360.1 -311.6,-539.75 -30.9,-52.96 -29.19,-104.18 1.01,-156.38 101.94,-176.18 203.88,-352.23 304.76,-528.92 37.63,-65.49 92.91,-94.93 167.38,-93.97 101.59,1.25 203.3,0.36 304.88,0.24z"/>
  <path class="fil1" d="M5140.25 10860.1c81.03,-1.37 155.45,-74.08 154.98,-151.28 -0.34,-76.16 -76.85,-150.52 -155.81,-151.58 -84.4,-1.13 -165.77,78.99 -160.9,158.71 4.87,80.47 77.9,145.68 161.73,144.15zm-2.33 555.29c-101.58,0 -203.17,-0.4 -304.64,0.19 -65.12,0.4 -113.65,-25.51 -146.51,-82.68 -105.66,-183.75 -212,-367.12 -318.22,-550.57 -27.99,-48.49 -27.18,-97.05 0.45,-145.02 105.89,-183.63 211.77,-367.17 318.34,-550.26 30.3,-51.9 77.56,-77.23 137.13,-77.46 207.45,-0.35 414.8,-0.35 622.27,-0.35 65.25,0 112.96,30.38 145.25,86.3 103.89,179.82 207.57,359.76 311.48,539.63 30.65,52.77 27.28,104.08 -3.25,156.45 -102.4,175.83 -204.67,351.72 -305.11,528.68 -37.26,65.79 -89.27,97.54 -165.08,95.87 -97.29,-2.14 -194.7,-0.47 -292.11,-0.47l0 -0.31z"/>
  <path class="fil1" d="M12757.2 10557.24c-78.76,1.41 -155.14,76.19 -155.26,152.1 -0.11,83.22 79.65,154.8 168.05,150.69 78.82,-3.81 153.65,-82.73 149.25,-157.28 -4.87,-77.93 -81.74,-146.94 -162.04,-145.51zm3.45 858.1c-101.59,0 -203.17,-0.48 -304.64,0.17 -65.21,0.36 -113.3,-26.45 -146.05,-83.45 -105.62,-183.85 -211.97,-367.18 -318.08,-550.62 -28.1,-48.68 -26.27,-97.24 1.25,-145.02 103.56,-180.06 207.45,-359.93 311.3,-539.75 32.22,-55.76 79.36,-87.32 144.75,-87.43 207.32,-0.12 414.84,-0.12 622.18,0 65.38,0 112.57,31.32 144.74,87.02 103.89,179.93 207.74,359.86 311.53,539.67 30.62,53.09 26.34,104.26 -4.09,156.46 -102.6,175.83 -204.91,351.71 -305.18,528.73 -37.39,65.98 -90,96.72 -165.72,95.05 -97.26,-2.14 -194.56,-0.47 -291.99,-0.47l0 -0.36z"/>
  <path class="fil1" d="M7045.18 11964.76c78.36,-1.19 154.29,-73.53 157.42,-150.26 3.25,-80.61 -77.32,-158.47 -162.29,-156.99 -80.34,1.36 -155.11,72.57 -157.43,149.67 -2.33,80.36 78.47,158.83 162.3,157.58zm-11.14 548.88c-97.41,0 -194.7,-0.35 -292.11,0.12 -69.89,0.37 -121.55,-29.18 -156.5,-89.93 -101.59,-176.48 -203.29,-352.85 -305.69,-528.74 -32.97,-56.77 -32.97,-110.79 0.59,-168.04 102.97,-175.53 205.03,-351.59 305.45,-528.61 37.85,-66.34 92.07,-94.04 166.95,-93.38 194.92,1.6 389.62,1.24 584.32,0.28 69.54,-0.35 122.24,24.15 157.9,86.26 103.2,180.29 207.23,360.21 312.17,539.49 33.9,57.96 28.91,112 -3.59,167.99 -100.31,172.26 -200.39,344.7 -298.85,517.98 -40.15,70.67 -99.36,99.14 -178.43,97.71 -97.41,-1.77 -194.82,-0.47 -292.21,-0.47l0 -0.66z"/>
  <path class="fil1" d="M3232.19 11964.76c79.63,-0.82 156.36,-74.35 158.35,-151.93 2.09,-77.11 -74.43,-153.84 -154.06,-154.5 -86.5,-0.94 -169.74,78.17 -165.68,157.65 3.94,78.28 81.26,149.56 161.39,148.78zm-10.81 548.88c-97.4,0 -194.69,-0.35 -292.1,0.12 -70.13,0.37 -121.32,-30.08 -156.15,-90.7 -101.59,-176.42 -203.17,-352.9 -305.57,-528.8 -33.21,-57.07 -32.05,-110.97 1.28,-168.04 103.09,-175.54 205.03,-351.65 305.69,-528.74 37.84,-66.51 92.76,-93.08 167.52,-92.42 194.7,1.6 389.51,1.6 584.31,0.17 75.83,-0.59 128.65,31.15 165.69,96.36 100.42,177.14 201.54,353.79 303.48,530.11 30.41,52.77 31.79,103.96 1.5,156.57 -104.02,179.92 -207.93,359.85 -311.84,539.96 -35.4,61.4 -89.86,86.26 -158.83,85.83 -101.58,-0.65 -203.39,-0.23 -304.98,-0.23l0 -0.19z"/>
  <path class="fil1" d="M7042.16 16063.41c-81.03,0.72 -155.81,70.26 -159.4,147.77 -3.49,79.55 77.31,159.95 160.56,159.5 82.9,-0.42 163.82,-82.28 159.16,-160.98 -4.63,-78.47 -79.75,-146.95 -160.32,-146.29zm-2.56 -551.92c30.13,0 60.25,0.12 90.41,0.24 67.25,0.24 134.52,0.54 201.7,-0.77 74.88,-1.49 129.57,26.1 167.3,92.6 100.54,176.97 202.7,353.04 305.68,528.7 33.43,57 34.36,110.97 1.27,167.92 -102.52,176.01 -204.09,352.36 -305.45,528.9 -34.95,60.69 -86.26,90.65 -156.27,90.6 -203.16,-0.49 -406.45,-0.36 -609.62,-0.54 -65.02,-0.07 -113.67,-28.88 -146.29,-85.01 -104.03,-179.92 -207.69,-359.93 -311.72,-539.78 -30.41,-52.5 -29.37,-103.86 1.28,-156.52 104.6,-179.63 208.85,-359.32 312.07,-539.68 35.52,-61.94 87.77,-87.85 157.43,-86.89 97.51,1.3 194.8,0.35 292.21,0.23z"/>
  <path class="fil1" d="M14660 16370.59c84.42,2.52 165.79,-72.92 166.26,-154 0.37,-76.03 -74.66,-151.04 -153.59,-153.18 -86.37,-2.45 -166.79,71.74 -166.15,153.48 0.49,75.44 76.45,151.46 153.48,153.7zm4.35 -859.16c97.24,0 194.78,1.5 292.21,-0.47 74.84,-1.49 129,27.11 166.79,93.49 100.58,176.96 202.64,353.11 305.47,528.77 33.53,57.15 33.23,111.14 0.37,167.84 -102.43,176.01 -204.13,352.37 -305.48,528.86 -35.07,60.88 -86.96,89.94 -156.74,89.81 -198.96,-0.36 -398.09,-0.66 -596.92,0.3 -75.5,0.49 -128.58,-32.4 -165.73,-97.24 -98.91,-173.05 -198.17,-345.77 -298.93,-517.88 -35.96,-61.45 -33.53,-118.2 2.44,-179.28 99.14,-167.97 197.23,-336.72 292.44,-506.97 41.67,-74.41 98.2,-111.33 184.64,-108.24 93.08,3.5 186.18,0.84 279.44,0.84l0 0.17z"/>
  <path class="fil1" d="M2086.64 17403.87l0 -169.98c30.45,58.86 28.78,112.74 0,169.98z"/>
  <path class="fil1" d="M5133.27 17469.4c81.15,1.36 157.21,-65.68 162.2,-143.19 4.98,-74.73 -68.62,-150.7 -149.19,-153.86 -89.74,-3.55 -168.92,65.53 -168.68,147.12 0.1,75.01 76.61,148.75 155.67,149.93zm7.33 -860.9c93.21,-0.12 186.33,2.02 279.32,-0.78 80.34,-2.32 135.72,27.94 175.54,99.8 94.73,170.49 191.56,339.89 292.46,506.69 45.49,75.27 40.98,141 -2.33,213.69 -95.43,160.31 -188.54,322.06 -279.9,484.65 -39.36,69.96 -94.39,105.14 -174.38,104.9 -194.82,-0.72 -389.52,-0.65 -584.21,0.19 -79.06,0.35 -136.89,-29.79 -176.83,-100.71 -93.44,-166.36 -188.88,-331.62 -285.93,-495.87 -41,-69.05 -42.97,-131.95 -0.83,-202.33 102.18,-171.03 201.2,-344.06 298.61,-517.85 37.73,-67.43 91.61,-94.34 166.48,-92.86 97.3,1.96 194.69,0.54 292,0.48z"/>
  <path class="fil1" d="M4626.03 4620.81l1021.19 0 -48.04 84.54c-37.62,66.33 -93.46,94.44 -167.42,94.15 -101.58,-0.37 -203.17,0 -304.64,0l0 0.24c-93.23,0 -186.34,-0.78 -279.55,0.24 -78.84,0.77 -137.01,-29.31 -177.06,-100.34 -14.78,-26.31 -29.6,-52.58 -44.48,-78.83z"/>
  <path class="fil1" d="M12249.68 4620.81l1021.48 0 -45.37 80.01c-37.09,65.57 -90.11,98.5 -165.01,98.5 -198.9,-0.19 -397.74,-0.42 -596.87,0.3 -80.3,0.36 -134.32,-36.56 -173.33,-106.24l-40.9 -72.57z"/>
  <path class="fil1" d="M5136.3 19671.84c82.43,0.19 156.37,-68.31 158.81,-147.23 2.33,-75.1 -73.48,-152.95 -151.73,-155.69 -85.44,-2.9 -166.83,73.43 -164.97,154.78 1.73,78.84 75.47,147.96 157.89,148.14zm-1.39 555.98c-93.12,0 -186.35,-2.82 -279.34,0.75 -86.37,3.32 -142.8,-32.99 -184.49,-107.63 -95.18,-170.25 -193.18,-338.9 -292.2,-506.86 -36.11,-60.93 -39.13,-117.59 -3.02,-179.16 100.66,-171.97 200.28,-344.46 298.71,-517.69 40.05,-70.64 99.16,-98.61 178.34,-97.92 190.38,1.55 380.9,1.67 571.31,0.07 79.98,-0.59 137,30.97 176.7,100.86 98.22,173.34 198.19,345.73 298.26,517.95 32.97,56.75 33.31,110.67 -0.36,167.97 -102.73,175.42 -204.79,351.54 -305.33,528.49 -37.61,66.34 -91.36,95 -166.48,93.44 -97.41,-2.13 -194.7,-0.58 -292.1,-0.58l0 0.31z"/>
  <path class="fil1" d="M12918.75 21740.01c0.49,-3.76 0.83,-7.51 0.96,-11.29 2.8,-80.66 -76.49,-152.78 -165.53,-150.45 -81.38,2.12 -155.57,75.13 -152.89,150.45 0.13,3.78 0.43,7.55 0.92,11.29l-625.61 0c-3.64,-35.86 5.22,-71.66 27.6,-109.56 103.66,-175 204.77,-351.65 305,-528.79 35.36,-62.65 86.72,-88.45 156.45,-87.48 97.42,1.41 194.73,0.4 292.09,0.28 97.3,0 194.73,1.43 292.04,-0.52 75.08,-1.45 128.39,27.28 165.9,94.19 97.61,173.75 196.63,346.78 298.93,517.76 23.72,39.75 32.82,76.98 29.08,114.12l-624.94 0z"/>
  <path class="fil1" d="M5295.08 21740.01c0.49,-3.76 0.83,-7.51 0.96,-11.29 2.8,-80.66 -76.62,-152.78 -165.55,-150.45 -81.38,2.12 -155.57,75.13 -152.89,150.45 0.11,3.78 0.42,7.55 0.91,11.29l-624.52 0c-3.54,-41.03 8.39,-81.42 34.29,-124.49 100.42,-167.13 197.26,-336.53 292.56,-506.67 37.51,-66.94 89.86,-96.39 165.33,-94.91 97.29,2.05 194.7,0.52 292.11,0.52l0 -0.18c93.11,0 186.34,1.95 279.31,-0.64 79.53,-2.21 136.42,25.25 176.59,97.71 94.74,170.53 191.92,339.72 292.68,506.74 25.56,42.46 36.21,82.07 32.48,121.92l-624.26 0z"/>
  <path class="fil1" d="M3232.52 14169.18c83.71,-0.84 163.01,-81.98 158.02,-161.46 -4.89,-76.8 -81.27,-145.09 -161.49,-144.31 -78.96,0.82 -156.28,72.92 -158.37,148 -2.43,80.78 77.44,158.64 161.84,157.77zm-0.81 555.89c-101.7,0 -203.41,-0.41 -304.99,0.18 -65.25,0.36 -112.61,-26.69 -145.23,-84.23 -102.87,-180.58 -206.55,-360.75 -311.27,-540.32 -33.19,-56.95 -35.18,-111.04 -2.09,-168.18 101.95,-176.18 203.06,-352.9 304.65,-529.31 32.26,-56.37 81.5,-85.72 145.93,-86.02 207.47,-0.89 414.93,-0.89 622.4,-0.19 64.2,0.19 114.24,28.19 146.88,84.71 101.57,176.31 202.82,353.03 304.86,529.33 32.74,56.65 32.74,110.75 -0.69,168.11 -104.72,179.52 -208.52,359.51 -310.91,540.44 -35.54,62.9 -87.89,87.03 -157.31,86.13 -97.41,-1.43 -194.94,-0.35 -292.23,-0.35l0 -0.3z"/>
  <path class="fil1" d="M18468.28 11964.76c85.66,4.33 168.81,-70.68 169.94,-153.3 0.84,-71.46 -70.31,-147.72 -143.02,-152.82 -89.03,-6.37 -172.2,62.22 -176.84,145.98 -4.04,74.07 72.83,156.28 149.92,160.14zm737.44 -298.07l0 290.09c-88.12,150.77 -175.59,301.93 -261.19,454.1 -42.37,75.2 -103.72,106.4 -188.02,104.14 -93.2,-2.39 -186.29,-0.53 -279.56,-0.53l0 -0.54c-97.24,0 -194.78,-0.95 -292.21,0.3 -74.72,1.01 -129.4,-29.49 -166.91,-94.93 -98.91,-173.05 -198.54,-345.84 -299.18,-517.81 -35.66,-60.93 -36.73,-117.7 -0.24,-179.33 101.35,-171.67 201.15,-344.23 299.07,-517.91 39.93,-70.8 96.34,-100.53 176.6,-99.57 190.5,2.26 381.14,2.26 571.64,0.05 80.43,-0.89 136.84,30.5 176.37,100.65 86.81,154.39 174.46,308.23 263.63,461.29z"/>
  <path class="fil1" d="M10852.5 14169.18c84.41,0.64 164.47,-77.34 162.4,-157.77 -2.2,-75.08 -79.65,-147.36 -158.47,-148 -80.42,-0.66 -156.75,67.51 -161.62,144.31 -5.01,79.72 74.05,160.8 157.69,161.46zm2.68 555.89c-101.58,0 -203.29,-0.41 -304.87,0.18 -65.4,0.36 -112.65,-26.8 -145.28,-84.41 -102.84,-180.63 -206.4,-360.87 -311.13,-540.26 -33.35,-57.02 -34.83,-111.27 -1.96,-168.22 101.94,-176.25 203.06,-352.97 304.65,-529.46 32.38,-56.29 81.85,-85.53 146.05,-85.78 207.45,-0.82 415.02,-0.82 622.53,-0.12 64.08,0.19 114.19,28.43 146.57,84.89 101.73,176.42 202.82,353.16 304.88,529.34 32.76,56.7 32.64,110.85 -0.76,168.04 -104.85,179.57 -208.65,359.67 -310.94,540.5 -35.67,63.01 -88.09,86.85 -157.53,85.95 -97.42,-1.43 -194.85,-0.35 -292.21,-0.35l0 -0.3z"/>
  <path class="fil1" d="M14661.55 11964.76c84.17,1.96 165.32,-74.71 164.59,-155.38 -0.52,-76.81 -75.42,-150.27 -154.85,-151.87 -86.12,-1.79 -166.49,73.7 -164.77,154.85 1.55,76.07 77.34,150.62 155.03,152.4zm5.23 -859.18c97.37,0 194.8,1.55 292.22,-0.41 75.55,-1.55 128.16,29.73 165.67,95.46 100.39,177.14 202.82,353.08 305.35,528.98 30.38,52.25 34.24,103.54 3.69,156.52 -103.8,179.92 -207.81,359.74 -311.37,539.96 -35.3,61.12 -88.44,88.04 -157.81,87.86 -199.08,-0.48 -398.09,-0.48 -597.04,-0.12 -69.55,0.23 -122.16,-27.47 -157.34,-88.51 -101.59,-176.37 -203.06,-352.9 -305.89,-528.56 -36.38,-62.06 -30.9,-118.71 4.87,-179.28 99.04,-167.98 197.22,-336.61 292.46,-506.93 42.02,-75.13 100.15,-109.13 185.87,-106.03 92.97,3.45 186.17,0.82 279.32,0.82l0 0.24z"/>
  <path class="fil1" d="M18488.49 13863.29c-85.71,-3.93 -168.58,68.48 -170.41,148.71 -1.79,75.09 72.99,153.37 149.96,157.18 86.84,4.4 165.9,-65.21 169.83,-149.63 3.5,-73.53 -72.17,-152.64 -149.38,-156.26zm717.23 6.81l0 288.38c-91.73,155.64 -181.76,312.34 -270.17,469.94 -37.03,66.33 -87.73,98.97 -163.93,97.37 -97.26,-2.02 -194.8,-0.54 -292.22,-0.66 -101.59,-0.06 -203.3,-0.47 -305,0.12 -65.09,0.47 -112.59,-26.27 -145.46,-83.93 -102.72,-180.59 -206.08,-360.98 -311.24,-540.21 -36.68,-62.47 -31.56,-119.54 3.39,-179.57 98.08,-168.77 195.39,-337.87 291.74,-507.58 37.03,-65.26 91.14,-98.09 165.55,-98.09 199.19,0.12 398.21,0 597.22,-0.05 74.19,-0.11 129.45,30.43 166.79,96.12 87.08,153.09 174.48,306.02 263.33,458.16z"/>
  <path class="fil1" d="M10858.15 11964.76c78.87,-1.66 156.03,-77.86 156.4,-154.19 0.12,-78 -76.28,-152.47 -156.59,-152.24 -86.06,0.19 -169.05,81.32 -163.27,159.91 5.58,79.11 82.68,148.19 163.46,146.52zm-6.49 -859.18c30.45,-0.05 60.88,0.12 91.31,0.3 67,0.42 133.99,0.83 200.92,-0.89 80.89,-2.19 136.18,32.22 175.42,102.01 97.78,173.75 196.8,346.78 296.96,518.99 33.23,57.12 34.84,110.97 1.67,167.97 -102.42,176.01 -204,352.5 -305.47,528.98 -34.83,60.46 -85.9,91.01 -156.05,90.82 -203.17,-0.47 -406.58,-0.29 -609.75,-0.64 -64.79,-0.12 -113.89,-28.9 -146.39,-85.01 -104.03,-179.87 -207.95,-359.81 -311.96,-539.73 -30.38,-52.67 -29.25,-103.91 1.53,-156.56 104.57,-179.59 208.72,-359.34 312.08,-539.75 35.36,-61.94 87.85,-87.67 157.52,-86.66 97.43,1.25 194.79,0.29 292.21,0.17z"/>
  <path class="fil1" d="M14674.21 20470.05c-87.44,-1.87 -170.42,75 -167.81,155.6 2.56,77.82 79.55,150.76 159.31,150.86 80.12,0.19 157.23,-71.86 160.55,-149.74 3.39,-76.08 -73.35,-155.12 -152.05,-156.72zm-14.33 856c-93.19,0 -186.17,-1.42 -279.43,0.49 -79.65,1.48 -137.55,-29.37 -177.38,-99.7 -98.43,-173.32 -198.05,-345.95 -298.69,-518.03 -36.26,-61.99 -31.16,-118.78 4.63,-179.32 99.03,-168.01 197.23,-336.64 292.46,-506.94 41.91,-75.01 99.92,-107.72 185.63,-106.42 186.18,2.98 372.53,2.98 558.88,0 85.78,-1.3 143.61,31.78 185.51,106.73 95.35,170.3 192.85,339.23 292.58,506.85 39.6,66.39 36.45,125.84 -1.6,190.69 -96.84,164.42 -192.95,329.36 -285.86,496.11 -44.46,79.78 -107.65,113.53 -197.22,110.56 -93.15,-3.05 -186.36,-0.65 -279.51,-0.65l0 -0.37z"/>
  <path class="fil1" d="M2086.64 15202.02l0 -172.33c31.39,58.52 32.35,112.9 0,172.33z"/>
  <path class="fil1" d="M18478.5 9763.26c83.93,-0.17 163.6,-79.83 159.72,-159.9 -3.69,-76.14 -80.54,-146.16 -160.07,-145.87 -79.65,0.24 -156.52,70.8 -159.9,146.48 -3.56,80.35 75.97,159.41 160.25,159.29zm727.22 -299.2l0 288.3c-93.65,159.11 -185.41,319.54 -276.28,480.32 -35.56,62.71 -87.08,87.97 -156.88,87.15 -101.58,-1.44 -203.29,-0.43 -304.87,-0.43 -93.22,0 -186.48,-1.43 -279.56,0.54 -75.13,1.55 -127.92,-27.34 -165.55,-94.51 -97.42,-173.94 -196.57,-347.03 -298.76,-518.04 -42.31,-70.92 -37.91,-133.92 2.44,-202.47 94.87,-160.84 188.2,-322.52 279.27,-485.45 41.42,-74.36 99.8,-110.81 184.67,-110.32 190.76,1.13 381.28,0.99 571.9,-0.25 83.93,-0.52 144.81,31.93 186.83,106.99 83.95,150.29 169.95,299.51 256.79,448.17z"/>
  <path class="fil1" d="M8952.19 14963.02c-80.47,-1.37 -157.22,67.28 -162.26,145.33 -4.94,74.49 69.96,153.79 148.72,157.59 88.2,4.28 168.11,-67.11 168.39,-150.33 0.24,-75.74 -76.26,-151.04 -154.85,-152.59zm-6.23 858.88c-88.87,0 -177.8,-2.97 -266.6,0.96 -89.76,3.96 -152.52,-28 -197.11,-108.66 -94.51,-170.61 -192.82,-339 -292.1,-506.81 -36.14,-61.28 -37.86,-117.93 -2.02,-179.35 100.69,-171.9 200.09,-344.52 298.88,-517.55 37.27,-65.03 90.77,-96.89 166.02,-96.54 198.89,1.13 397.72,0.71 596.73,0.43 69.79,-0.07 121.33,29.58 156.4,90.23 101.35,176.36 202.94,352.66 305.3,528.49 33.11,56.83 32.27,110.8 -1.13,167.8 -102.95,175.54 -204.91,351.54 -305.37,528.56 -37.86,66.64 -92.18,94.28 -166.91,92.63 -97.31,-2.04 -194.85,-0.38 -292.09,-0.38l0 0.19z"/>
  <path class="fil1" d="M14668.98 9763.26c83.58,-1.18 162.52,-82.8 156.92,-162.33 -5.29,-77.1 -81.6,-144.62 -162.16,-143.44 -78.69,1.01 -155.91,73.95 -157.51,148.9 -1.78,81.15 77.98,158 162.75,156.87zm-9.87 556.09c-97.43,0 -194.85,-0.96 -292.21,0.24 -70.85,1.06 -119.48,-29.44 -154.31,-91.31 -99.98,-177.31 -201.64,-353.79 -304.76,-529.33 -36.09,-61.47 -36.09,-118.59 -0.61,-179.64 100.23,-172.25 199.39,-345.3 298.41,-518.28 34.95,-61.04 87.74,-90.51 156.76,-90.58 203.29,-0.47 406.51,-0.36 609.69,0.07 69.42,0.23 121.26,31.2 156.02,91.94 98.98,173.1 198.01,346.08 298.3,518.45 35.65,61.42 33.64,118.42 -2.33,179.52 -103.07,175.59 -204.66,352.02 -304.88,529.4 -35.06,62.11 -84.64,90.82 -155.08,89.88 -101.71,-1.32 -203.41,-0.36 -305,-0.36z"/>
  <path class="fil1" d="M16562.74 15265.83c88.04,4.21 168.23,-67.61 168.11,-150.69 -0.12,-75.86 -76.73,-150.81 -155.44,-152.12 -80.3,-1.25 -157.05,67.82 -161.74,145.75 -4.65,75.2 69.54,153.3 149.07,157.06zm9.28 555.41c-101.58,0 -203.05,-0.47 -304.71,0.17 -65.25,0.49 -113.11,-26.74 -145.75,-83.74 -103.54,-180.23 -207.45,-359.93 -312.31,-539.38 -30.36,-52.18 -34.71,-103.42 -4.04,-156.45 103.68,-179.82 207.69,-359.62 311.25,-539.73 35.18,-61.16 88.27,-87.97 157.7,-87.85 198.82,0.4 397.83,0.82 596.73,-0.12 75.79,-0.37 127.69,34.47 164.6,98.96 96.7,169.24 193.66,338.41 292.82,506.38 38.45,64.98 40.66,124.42 1.06,190.64 -99.75,167.5 -197.41,336.32 -292.34,506.57 -42.03,75.3 -99.86,109.19 -185.52,105.93 -93.03,-3.45 -186.22,-0.72 -279.49,-0.72l0 -0.66z"/>
  <path class="fil1" d="M10859.35 9763.26c79.17,-2.02 152.99,-74.42 154.95,-152.05 1.9,-79.34 -79.82,-155.79 -164.59,-153.65 -78.35,1.95 -155.09,76.68 -155.09,151.04 0,82.45 79.18,156.8 164.73,154.66zm-1.5 556.14c-97.55,0.12 -194.85,-1.43 -292.21,0.66 -75.02,1.6 -128.46,-26.27 -166.14,-93.45 -97.42,-173.92 -196.59,-346.95 -298.76,-518.14 -42.26,-70.62 -39.46,-133.52 1.31,-202.47 94.75,-160.73 188.55,-322.3 278.83,-485.52 44.47,-80.12 108.31,-112.76 197.29,-111.94 182.02,1.74 364.09,2.21 546.1,-0.35 94.04,-1.31 160.55,32.52 207.22,117.46 89.64,163.58 183.92,324.73 278.31,485.76 37.98,64.79 40.83,124.77 1.6,191.11 -103.78,175.17 -204.89,351.89 -305.18,529.22 -35.3,62.46 -86.19,89.03 -156.15,88.09 -97.42,-1.44 -194.73,-0.43 -292.22,-0.43z"/>
  <path class="fil1" d="M7040.19 9763.26c84.63,0.96 164.62,-76.33 162.65,-157.27 -1.74,-74.9 -79.06,-147.77 -157.66,-148.5 -80.7,-0.77 -156.86,66.81 -162.08,143.73 -5.46,79.66 73.26,161.03 157.09,162.04zm4.18 556.14c-97.41,0.12 -194.94,-1.48 -292.23,0.54 -75.35,1.72 -127.82,-27.81 -165.43,-94.81 -95.32,-170.25 -192.25,-339.59 -292.68,-506.86 -44.01,-73.36 -47.95,-139.21 -3.37,-213.82 95.78,-160.19 188.42,-322.4 279.32,-485.29 41.57,-74.41 100.21,-110.62 185.18,-110.01 190.52,1.13 381.04,0.99 571.79,-0.25 83.93,-0.52 144.66,32.4 186.56,107.3 93.12,166.67 188.79,331.99 285.15,496.69 38.07,65.04 39.23,124.96 0.1,191.05 -103.67,175.11 -204.79,351.9 -305.21,529.09 -35.52,62.79 -87.3,87.74 -157.08,86.8 -97.3,-1.37 -194.69,-0.43 -292.1,-0.43z"/>
  <path class="fil1" d="M3226.37 9763.38c85.33,1.74 164.86,-73.35 164.51,-155.25 -0.34,-74.55 -77.33,-149.09 -155.58,-150.64 -84.74,-1.6 -166.59,75.2 -164.27,154.38 2.33,78.1 75.81,149.61 155.34,151.51zm6.51 556.02c-97.41,0.12 -194.82,-1.48 -292.11,0.66 -75.34,1.6 -127.94,-27.46 -165.67,-94.58 -97.29,-173.92 -196.55,-346.95 -298.73,-518.09 -42.37,-70.85 -37.96,-133.8 2.57,-202.47 94.72,-160.78 188.07,-322.52 279.09,-485.39 41.45,-74.25 99.86,-110.87 184.83,-110.38 190.64,1.13 381.16,0.99 571.78,-0.25 83.94,-0.52 144.89,31.93 186.81,106.99 93.23,166.63 188.65,331.94 285.13,496.65 38.08,65.02 39.6,124.94 0.47,191.11 -103.67,175.05 -204.92,351.84 -305.11,529.03 -35.52,62.76 -87.08,88.09 -156.86,87.15 -97.29,-1.44 -194.8,-0.43 -292.2,-0.43z"/>
  <path class="fil1" d="M7045.65 7558.86c79.06,-1.38 156.14,-76.68 156.95,-153.48 0.81,-77.69 -75.69,-152.89 -155.81,-153.01 -86.25,-0.17 -169.15,80.37 -164.03,159.19 5.11,78.83 82.31,148.72 162.89,147.3zm9.28 549.71c-97.41,0 -194.81,-1.84 -292.11,0.54 -84.63,2.21 -145,-30.62 -187.14,-105.51 -95.66,-170 -193.66,-338.7 -292.09,-507.05 -35.54,-60.86 -37.75,-117.51 -1.29,-179.38 101.36,-171.61 201.07,-344.24 299.07,-517.81 39.7,-70.55 95.42,-101.47 175.88,-100.51 190.52,2.26 381.16,2.26 571.67,0 80.68,-0.96 135.83,30.86 175.55,101.22 97.74,173.7 197.71,346.14 298.94,517.86 36.57,62.06 33.43,118.77 -1.97,179.35 -98.45,168.33 -196.55,337.09 -292.22,507.04 -42.26,75.02 -102.97,107.16 -187.51,104.79 -88.91,-2.38 -177.85,-0.54 -266.78,-0.54z"/>
  <path class="fil1" d="M14668.75 7558.86c79.29,-1.14 156.14,-75.73 157.51,-152.77 1.43,-77.27 -75.18,-153.18 -155.2,-153.72 -86.12,-0.52 -169.29,79.41 -164.66,158.59 4.7,78.65 81.97,149.03 162.35,147.9zm-3.88 -859.18c97.43,0 194.85,1.48 292.23,-0.47 75.01,-1.55 128.86,27.75 166.49,93.92 100.57,177.01 202.58,353.14 305.6,528.79 33.52,57.31 32.62,111.33 -0.37,167.98 -102.41,175.96 -204,352.26 -305.59,528.62 -35.01,60.87 -87.02,89.65 -156.8,89.41 -199.13,-0.37 -398.14,-0.61 -597.1,0.35 -75.61,0.41 -128.16,-33.06 -165.18,-97.89 -98.98,-172.98 -198.3,-345.79 -299.12,-517.81 -35.95,-61.64 -32.8,-118.41 3.15,-179.33 99.15,-168 197.23,-336.69 292.33,-507 41.79,-74.59 98.81,-110.78 184.93,-107.58 93.02,3.45 186.24,0.77 279.43,0.77l0 0.24z"/>
  <path class="fil1" d="M12765.64 8657.58c80.37,-2.25 156.99,-79.59 153.6,-155.01 -3.55,-79.79 -77.74,-143.92 -164.12,-142.01 -82.91,1.83 -157.69,76.26 -153.6,152.64 4.16,78.52 81.74,146.64 164.12,144.38zm1.9 -860.66c97.14,0 194.57,0.96 291.99,-0.29 70.55,-1.01 119.42,29.07 154.36,90.94 100.11,177.26 201.58,353.62 304.76,529.03 36.15,61.59 36.26,118.59 0.73,179.58 -100.34,172.09 -199.79,344.82 -298.58,517.91 -34.96,61.47 -87.45,90.37 -156.28,90.49 -203.17,0.59 -406.35,0.23 -609.52,0.28 -75.73,0 -125.72,-37.93 -162.45,-102.48 -91.85,-162.51 -183.98,-324.72 -280.28,-484.51 -47.19,-78.28 -44.87,-147.12 2.26,-224.93 98.81,-163.1 193.6,-328.77 286.28,-495.68 39.59,-71.33 93.8,-103.61 174.53,-101.29 97.23,2.8 194.78,0.66 292.2,0.66l0 0.29z"/>
  <path class="fil1" d="M5142.81 8360.56c-86.04,-2.21 -158.02,58.25 -164.52,138.08 -6.27,78.57 74.07,159.13 158.59,158.94 79.76,-0.11 156.62,-70.92 159.16,-146.71 2.44,-75.3 -71.86,-148.29 -153.23,-150.31zm-3.39 -563.93c93.23,-0.07 186.34,2.07 279.45,-0.66 79.89,-2.32 136.08,26.58 176.02,98.79 94.73,170.42 192.37,339.36 292.2,506.86 41,68.85 46.91,131.66 5.01,202.4 -99.5,167.69 -196.1,337.16 -292.7,506.57 -34.59,60.81 -84.52,93.73 -154.29,93.92 -203.16,0.47 -406.45,0.3 -609.51,0.66 -74.88,0.11 -127.46,-33.65 -164.52,-99.15 -94.02,-166.03 -189.1,-331.45 -286.17,-495.75 -40.74,-68.71 -44.35,-131.55 -2.09,-202.35 102.28,-170.96 201.32,-343.99 298.73,-517.79 37.61,-67.23 90.78,-95.47 165.9,-93.87 97.29,2.02 194.7,0.49 291.97,0.37z"/>
  <path class="fil1" d="M2086.64 12998.41l0 -170.84c28.9,58.55 28.63,112.62 0,170.84z"/>
  <path class="fil1" d="M8949.77 12766.46c-84.07,-0.36 -157.41,65.2 -160.09,143.13 -2.43,74.01 73.48,151.28 151.41,153.96 85.76,2.92 167.74,-71.81 166.54,-151.82 -0.99,-76.8 -74.89,-144.92 -157.86,-145.27zm1.48 -563.93c28.95,0 57.9,0.18 86.91,0.35 64.13,0.42 128.4,0.85 192.46,-1.01 79.83,-2.31 136.08,26.52 176.2,98.62 94.62,170.47 192.4,339.41 292.09,507.05 41.01,68.76 47.07,131.54 5.12,202.16 -99.45,167.86 -196.05,337.26 -292.65,506.74 -34.59,60.81 -84.4,93.8 -154.31,93.97 -203.17,0.49 -406.35,0.3 -609.52,0.66 -74.9,0.11 -127.55,-33.52 -164.64,-99.03 -93.92,-166.02 -189.09,-331.45 -286.16,-495.8 -40.54,-68.67 -44.35,-131.55 -2.09,-202.28 102.2,-171.08 201.34,-343.99 298.58,-517.86 37.76,-67.18 90.84,-95.52 165.9,-93.92 97.31,1.95 194.74,0.47 292.11,0.35z"/>
  <path class="fil1" d="M18482.43 5357.36c79.53,-1.78 153.11,-73.53 155.56,-151.34 2.44,-79.11 -79.54,-156.21 -163.88,-154.38 -78.64,1.74 -155.39,75.91 -155.86,150.4 -0.54,82.15 78.89,157.16 164.18,155.32zm-480.44 -736.55l952.5 0c82.75,146.48 166.39,292.53 251.23,437.79l0 288.42c-89.49,152.89 -177.73,306.63 -263.51,461.56 -41.72,75.2 -99.1,109.32 -184.86,106.11 -97.07,-3.69 -194.31,-0.9 -291.38,-0.9l0 -0.17c-93.03,0 -186.01,-1.61 -278.92,0.41 -75.18,1.73 -127.31,-28.17 -164.7,-94.87 -97.31,-173.45 -196.71,-345.58 -297.8,-516.84 -38.17,-64.62 -43.53,-124.42 -4.89,-190.57 95.47,-162.82 189.42,-326.6 282.33,-490.94z"/>
  <path class="fil1" d="M14664.47 5357.41c84.4,0.78 164.47,-77.2 162.16,-157.81 -2.09,-75.01 -79.55,-147.42 -158.24,-147.96 -80.44,-0.64 -156.75,67.47 -161.75,144.34 -4.99,79.83 74.02,160.61 157.83,161.43zm-473.51 -736.6l951.6 0c93.13,163.82 186.58,327.36 281.86,489.93 38.52,65.91 34.61,125.71 -3.74,190.51 -101.23,171.2 -200.49,343.45 -297.75,516.9 -37.25,66.41 -88.61,97.5 -164.17,95.88 -101.35,-2.02 -202.82,-0.41 -304.17,-0.41l0 -0.3c-97.19,0 -194.26,-0.54 -291.56,0.19 -64.84,0.52 -113.3,-25.4 -145.92,-82.75 -104.69,-183.73 -209.9,-367.29 -315.65,-550.5 -30.55,-52.96 -29.18,-104.27 0.78,-156.21 96.33,-167.66 192.72,-335.36 288.72,-503.24z"/>
  <path class="fil1" d="M3227.06 5357.36c85.11,1.49 164.86,-74.49 163.93,-155.97 -0.92,-74.66 -78.01,-148.5 -156.5,-149.75 -86.01,-1.41 -166.24,74.73 -163.34,155.09 2.9,78.58 76.05,149.2 155.91,150.63zm-472.68 -736.55l953.25 0c89.8,160.45 181.61,319.61 274.89,477.86 40.17,68.36 45.39,131.07 3.37,201.98 -99.5,167.21 -195.86,336.39 -290.25,506.57 -41.45,74.71 -97.87,110.85 -184.14,107.42 -92.75,-3.76 -185.87,-0.85 -278.74,-0.97 -97.17,-0.05 -194.35,-1.6 -291.52,0.48 -74.88,1.5 -127.94,-26.51 -165.56,-93.55 -97.18,-173.45 -196.32,-346.01 -298.03,-516.8 -41.78,-69.89 -41.21,-132.61 -0.33,-201.93 94.1,-159.3 186.14,-319.82 277.06,-481.06z"/>
  <path class="fil1" d="M7044.48 5357.41c83.6,-0.82 162.99,-81.97 157.89,-161.55 -4.87,-76.87 -81.27,-145.16 -161.49,-144.22 -79.06,0.85 -156.27,73.06 -158.47,147.96 -2.33,80.96 77.44,158.54 162.07,157.81zm-477.36 -736.6l951.72 0c92.91,163.65 186.79,326.67 281.32,489.45 34.95,60.04 39.6,116.92 3.02,179.15 -104.96,178.69 -208.16,358.51 -310.44,538.9 -35.54,62.84 -87.77,86.49 -157.09,85.55 -97.17,-1.36 -194.23,-0.35 -291.52,-0.24 -97.05,0 -194.34,-1.61 -291.4,0.53 -75,1.73 -128.65,-26.81 -166.02,-93.27 -99.5,-177 -200.51,-353.32 -303.02,-528.56 -35.98,-61.51 -35.29,-118.4 0,-179.14 95.32,-163.66 189.34,-328.03 283.43,-492.37z"/>
  <path class="fil1" d="M10855.59 5357.41c83.99,-0.65 163.29,-81.13 158.71,-160.78 -4.4,-76.63 -81.02,-145.63 -160.9,-144.99 -79.18,0.54 -156.45,72.12 -159.01,147.37 -2.8,80.71 76.97,158.88 161.2,158.4zm-477.4 -736.6l952.76 0c90.76,160.72 182.54,320.8 276.29,479.7 40.77,68.95 43.1,131.61 1.19,202.04 -99.39,167.15 -195.86,336.27 -290.13,506.5 -41.79,75.39 -99.63,108.9 -185.23,105.59 -92.72,-3.64 -185.75,-0.85 -278.73,-0.85l0 -0.59c-101.47,0 -202.68,-0.35 -304.15,0.24 -65.16,0.35 -112.41,-26.57 -145.05,-84 -102.48,-180.15 -205.49,-360.09 -310.4,-538.83 -36.5,-61.94 -33.35,-118.9 1.72,-179.22 94.81,-162.95 189.03,-326.41 281.73,-490.58z"/>
  <path class="fil1" d="M16574.28 13063.48c79.42,-0.82 156.45,-73.7 157.4,-148.71 1.19,-81.2 -78.34,-151.46 -167.74,-148.2 -80.97,2.8 -154.55,77.46 -150.57,152.48 4.16,76.97 80.42,145.44 160.91,144.43zm-14.45 547.94c-93.2,0 -186.3,-0.83 -279.44,0.18 -79.53,0.83 -136.06,-31.98 -175.64,-102.53 -93.45,-166.39 -188.67,-331.63 -285.92,-495.82 -41.25,-69.6 -40.43,-132.49 1.24,-202.33 102.2,-171.19 200.99,-344.29 298.81,-517.81 35.09,-61.94 84.19,-91 154.8,-90.63 198.9,0.99 397.84,0.94 596.85,0 70.57,-0.37 119.84,28.22 154.85,90.28 100.11,177.33 201.69,353.68 304.65,529.1 36.26,61.35 37.27,118.35 1.55,179.45 -100.34,172.2 -199.74,344.94 -298.41,518.09 -34.95,61.23 -86.61,91.01 -155.91,91.31 -105.75,0.36 -211.62,0.12 -317.43,0.12l0 0.59z"/>
 </g>
</svg>
