<svg id="Layer_1" data-name="Layer 1" xmlns="http://www.w3.org/2000/svg" xmlns:xlink="http://www.w3.org/1999/xlink" viewBox="0 0 1645.89 1363.23"><defs><style>.cls-1{fill:#fce4eb;}.cls-2{clip-path:url(#clip-path);}.cls-3{fill:#65c5af;}.cls-4{fill:#cf56fd;}.cls-5{fill:#ff7dbc;}.cls-6{fill:#747ca7;}.cls-7{fill:#80c2d9;}.cls-8{fill:#ffb7b0;}.cls-9{fill:#818f95;}.cls-10{fill:#3b3f56;}.cls-11{fill:#43e4ff;}.cls-12{fill:#ff7f5f;}</style><clipPath id="clip-path" transform="translate(511.05 467.08)"><rect id="SVGID" class="cls-1" x="-411.02" y="-451.81" width="1440" height="1278.04"/></clipPath></defs><title>mephispink</title><rect id="SVGID-2" data-name="SVGID" class="cls-1" x="100.02" y="15.27" width="1440" height="1278.04"/><g class="cls-2"><path class="cls-3" d="M-478.62-426.89l.21-4.05a4.42,4.42,0,0,1,4.77-3.87l49.52,2a4.29,4.29,0,0,1,4.35,4.24l-.21,4.05a4.39,4.39,0,0,1-4.77,3.86l-49.51-2A4.29,4.29,0,0,1-478.62-426.89Z" transform="translate(511.05 467.08)"/><path class="cls-4" d="M-308.88-456.95l4.1,4.25a5.2,5.2,0,0,1-.68,7.9l-52,39.55a6.88,6.88,0,0,1-8.89-.61l-4.1-4.25a5.18,5.18,0,0,1,.68-7.89l52-39.56A6.89,6.89,0,0,1-308.88-456.95Z" transform="translate(511.05 467.08)"/><path class="cls-5" d="M-243.46-417.1l-2.94-4.65a5,5,0,0,1,2.29-7.26l56.85-28.36a6.46,6.46,0,0,1,8.18,2l2.94,4.65a5,5,0,0,1-2.3,7.26l-56.85,28.36A6.43,6.43,0,0,1-243.46-417.1Z" transform="translate(511.05 467.08)"/><path class="cls-4" d="M-131.42-419.29l-.68-4.68c-.37-2.58,1.7-4.95,4.6-5.28l57.27-6.5c2.9-.33,5.58,1.51,6,4.08l.67,4.69c.38,2.57-1.69,5-4.6,5.28l-57.26,6.5C-128.37-414.87-131-416.71-131.42-419.29Z" transform="translate(511.05 467.08)"/><path class="cls-6" d="M4.9-404.81,2.64-407.6a3.21,3.21,0,0,1,.87-4.81l34.12-21.84a4.2,4.2,0,0,1,5.41.78l2.26,2.79a3.21,3.21,0,0,1-.87,4.8L10.31-404A4.21,4.21,0,0,1,4.9-404.81Z" transform="translate(511.05 467.08)"/><path class="cls-6" d="M158.13-435l2.91,2.42a3.28,3.28,0,0,1,.18,5l-29.6,28.07a4.36,4.36,0,0,1-5.63.16l-2.92-2.42a3.28,3.28,0,0,1-.18-5l29.6-28.06A4.36,4.36,0,0,1,158.13-435Z" transform="translate(511.05 467.08)"/><path class="cls-4" d="M240.73-386.37l-5.34-2.33a5.06,5.06,0,0,1-2.71-7.08l28.53-51.46a6.34,6.34,0,0,1,8-2.41l5.33,2.34a5,5,0,0,1,2.72,7.07L248.7-388.78A6.34,6.34,0,0,1,240.73-386.37Z" transform="translate(511.05 467.08)"/><path class="cls-5" d="M372.29-442.14l5,.28a4.65,4.65,0,0,1,4.65,4.69l-3.38,47.87a4.83,4.83,0,0,1-5.28,4.13l-5-.27a4.67,4.67,0,0,1-4.66-4.69L367-438A4.82,4.82,0,0,1,372.29-442.14Z" transform="translate(511.05 467.08)"/><path class="cls-7" d="M510.89-441.17l4.3,2.84a4.44,4.44,0,0,1,1.11,6.67l-34.74,41.53a5.84,5.84,0,0,1-7.51,1L469.74-392a4.44,4.44,0,0,1-1.11-6.67l34.75-41.53A5.84,5.84,0,0,1,510.89-441.17Z" transform="translate(511.05 467.08)"/><path class="cls-4" d="M611-435.79l.9-3.83a4.44,4.44,0,0,1,5.21-3L663.91-434a4,4,0,0,1,3.42,4.63l-.9,3.83a4.43,4.43,0,0,1-5.21,3l-46.83-8.64A4,4,0,0,1,611-435.79Z" transform="translate(511.05 467.08)"/><path class="cls-8" d="M761.29-448.4l4.14,3.79a4.89,4.89,0,0,1-.15,7.47l-46.41,39.83a6.51,6.51,0,0,1-8.4-.13l-4.14-3.8a4.88,4.88,0,0,1,.15-7.46l46.41-39.83A6.49,6.49,0,0,1,761.29-448.4Z" transform="translate(511.05 467.08)"/><path class="cls-5" d="M885.84-408.77l-5.09,1.06a5.3,5.3,0,0,1-6.29-3.47l-13-49.14a4.67,4.67,0,0,1,3.91-5.58L870.5-467a5.3,5.3,0,0,1,6.29,3.47l13,49.13A4.68,4.68,0,0,1,885.84-408.77Z" transform="translate(511.05 467.08)"/><path class="cls-7" d="M1006.92-448.5l3.6,4.74a5.35,5.35,0,0,1-1.73,7.94L950.84-401.1a7,7,0,0,1-8.94-1.54l-3.6-4.74a5.34,5.34,0,0,1,1.74-7.93L998-450A7,7,0,0,1,1006.92-448.5Z" transform="translate(511.05 467.08)"/><path class="cls-9" d="M1117.74-444l3.94,2.35a4,4,0,0,1,1.29,5.85l-28.73,37.93a5.13,5.13,0,0,1-6.58,1.14l-3.94-2.34a4,4,0,0,1-1.29-5.85l28.73-37.93A5.15,5.15,0,0,1,1117.74-444Z" transform="translate(511.05 467.08)"/><path class="cls-5" d="M-397.44-351.18l4.67-1a4.85,4.85,0,0,1,5.74,3.2l11.69,45a4.29,4.29,0,0,1-3.6,5.1l-4.67.95a4.85,4.85,0,0,1-5.74-3.19l-11.69-45A4.28,4.28,0,0,1-397.44-351.18Z" transform="translate(511.05 467.08)"/><path class="cls-4" d="M-290.1-304.87l-3.07-3.2a3.9,3.9,0,0,1,.53-5.93l39.18-29.63a5.18,5.18,0,0,1,6.68.48l3.08,3.2a3.91,3.91,0,0,1-.54,5.94l-39.18,29.62A5.17,5.17,0,0,1-290.1-304.87Z" transform="translate(511.05 467.08)"/><path class="cls-5" d="M-161.93-295.2l-3.3-1.8a3.23,3.23,0,0,1-1.28-4.72l21.94-31.79a4.17,4.17,0,0,1,5.32-1.14l3.3,1.8a3.23,3.23,0,0,1,1.27,4.72l-21.93,31.79A4.18,4.18,0,0,1-161.93-295.2Z" transform="translate(511.05 467.08)"/><path class="cls-5" d="M-21.34-329.27l2.95,2.31A3.25,3.25,0,0,1-18-322l-28.29,28.4a4.3,4.3,0,0,1-5.55.31l-3-2.32a3.24,3.24,0,0,1-.34-4.93L-26.89-329A4.3,4.3,0,0,1-21.34-329.27Z" transform="translate(511.05 467.08)"/><path class="cls-4" d="M104.37-299.89l-3.8,1.66a4.5,4.5,0,0,1-5.67-1.71L74.56-336.56a3.59,3.59,0,0,1,1.92-5l3.8-1.67A4.52,4.52,0,0,1,86-341.55l20.34,36.62A3.6,3.6,0,0,1,104.37-299.89Z" transform="translate(511.05 467.08)"/><path class="cls-6" d="M185-334.61l4-1.76a4.75,4.75,0,0,1,6,1.79L216.59-296a3.79,3.79,0,0,1-2,5.32l-4,1.77a4.77,4.77,0,0,1-6-1.79L183-329.29A3.79,3.79,0,0,1,185-334.61Z" transform="translate(511.05 467.08)"/><path class="cls-4" d="M318-346.86l2.86-3.26a5.07,5.07,0,0,1,6.53-.72l39.88,27.57a3.85,3.85,0,0,1,.82,5.8l-2.86,3.26a5.09,5.09,0,0,1-6.54.72l-39.88-27.57A3.84,3.84,0,0,1,318-346.86Z" transform="translate(511.05 467.08)"/><path class="cls-6" d="M418.9-287,414-290a4.93,4.93,0,0,1-1.5-7.35l36.75-47.14a6.44,6.44,0,0,1,8.27-1.34l4.89,3a4.94,4.94,0,0,1,1.51,7.35l-36.75,47.15A6.46,6.46,0,0,1,418.9-287Z" transform="translate(511.05 467.08)"/><path class="cls-8" d="M599.91-364l4.79,4.95a6,6,0,0,1-.8,9.2l-60.55,46.14a8,8,0,0,1-10.36-.71l-4.79-4.95a6.05,6.05,0,0,1,.79-9.2l60.56-46.13A8,8,0,0,1,599.91-364Z" transform="translate(511.05 467.08)"/><path class="cls-7" d="M662.13-284.44l-5-2.54a4.81,4.81,0,0,1-2.09-7l31.15-47.86a6.14,6.14,0,0,1,7.83-1.86l5,2.54a4.81,4.81,0,0,1,2.09,7L670-286.3A6.15,6.15,0,0,1,662.13-284.44Z" transform="translate(511.05 467.08)"/><path class="cls-4" d="M839.77-347.61l2.93,6c1.61,3.29-.11,7.16-3.82,8.59L765.6-304.78c-3.71,1.43-8.06-.1-9.68-3.4l-2.92-6c-1.61-3.29.1-7.16,3.82-8.59L830.09-351C833.8-352.43,838.16-350.9,839.77-347.61Z" transform="translate(511.05 467.08)"/><path class="cls-5" d="M926-292.31l-5.89-1c-3.24-.54-5.39-3.34-4.79-6.22l12-56.81c.61-2.88,3.76-4.79,7-4.25l5.89,1c3.25.55,5.4,3.34,4.79,6.22l-12,56.81C932.41-293.68,929.26-291.77,926-292.31Z" transform="translate(511.05 467.08)"/><path class="cls-10" d="M1044.25-352.54l5.14-.28a5,5,0,0,1,5.47,4.3l3.41,49.62a4.83,4.83,0,0,1-4.84,4.85l-5.14.28c-2.84.15-5.29-1.78-5.47-4.29l-3.41-49.63C1039.24-350.2,1041.41-352.38,1044.25-352.54Z" transform="translate(511.05 467.08)"/><path class="cls-3" d="M-428.78-199.43l-3.57,1.74a4.35,4.35,0,0,1-5.53-1.43l-21.3-34.41a3.42,3.42,0,0,1,1.61-4.91l3.57-1.74a4.36,4.36,0,0,1,5.53,1.42l21.29,34.42A3.42,3.42,0,0,1-428.78-199.43Z" transform="translate(511.05 467.08)"/><path class="cls-5" d="M-330.77-188.26l-4.9-.73a4.5,4.5,0,0,1-4.08-5.07l8.83-47.21a5,5,0,0,1,5.71-3.63l4.89.73a4.51,4.51,0,0,1,4.09,5.07l-8.83,47.21A5,5,0,0,1-330.77-188.26Z" transform="translate(511.05 467.08)"/><path class="cls-6" d="M-252.47-214.47l-2.45-6c-1.35-3.32.61-7,4.35-8.21l73.85-23.63c3.75-1.2,7.91.54,9.26,3.86l2.45,6c1.35,3.32-.61,7-4.35,8.22l-73.86,23.63C-247-209.4-251.12-211.14-252.47-214.47Z" transform="translate(511.05 467.08)"/><path class="cls-4" d="M-132.76-184.35l-3.44-3.84a4.56,4.56,0,0,1,.88-6.9l47-33.21a6,6,0,0,1,7.77.78l3.44,3.84a4.56,4.56,0,0,1-.88,6.9L-125-183.57A6.05,6.05,0,0,1-132.76-184.35Z" transform="translate(511.05 467.08)"/><path class="cls-8" d="M-8.72-196.83-11-201.09a4.52,4.52,0,0,1,2.48-6.31l52-22.29a5.66,5.66,0,0,1,7.11,2.2l2.31,4.26a4.51,4.51,0,0,1-2.48,6.3l-52,22.3A5.66,5.66,0,0,1-8.72-196.83Z" transform="translate(511.05 467.08)"/><path class="cls-5" d="M109.09-221.17l1.3-5.15c.71-2.83,3.9-4.63,7.09-4l62.91,12.5c3.18.63,5.21,3.47,4.49,6.3l-1.29,5.14c-.72,2.83-3.91,4.63-7.09,4l-62.91-12.5C110.4-215.51,108.38-218.34,109.09-221.17Z" transform="translate(511.05 467.08)"/><path class="cls-4" d="M255.24-218.27l-1.06-3.87a4,4,0,0,1,3.31-4.8l47.29-10.17a4.56,4.56,0,0,1,5.41,2.93l1.06,3.87a4,4,0,0,1-3.3,4.81l-47.3,10.16A4.54,4.54,0,0,1,255.24-218.27Z" transform="translate(511.05 467.08)"/><path class="cls-5" d="M359-253.77l7-1.32c3.86-.73,7.68,1.47,8.5,4.89l16.22,67.5c.82,3.42-1.66,6.82-5.51,7.55l-7,1.32c-3.85.73-7.68-1.47-8.5-4.89l-16.22-67.5C352.64-249.64,355.12-253,359-253.77Z" transform="translate(511.05 467.08)"/><path class="cls-4" d="M469.52-179.72l-6.07-4a6.25,6.25,0,0,1-1.58-9.39l48.88-58.55a8.21,8.21,0,0,1,10.57-1.4l6.08,4a6.26,6.26,0,0,1,1.57,9.39l-48.88,58.55A8.21,8.21,0,0,1,469.52-179.72Z" transform="translate(511.05 467.08)"/><path class="cls-8" d="M594.91-254.15l4-5.56a8.06,8.06,0,0,1,10.29-2l68,38.75a6.2,6.2,0,0,1,2.25,9.13l-4,5.56a8,8,0,0,1-10.29,2l-68-38.74A6.2,6.2,0,0,1,594.91-254.15Z" transform="translate(511.05 467.08)"/><path class="cls-5" d="M750.6-184.41l-6.8.17c-3.74.1-6.89-2.54-7-5.86l-2.13-65.57c-.11-3.33,2.86-6.12,6.6-6.22l6.8-.17c3.75-.1,6.89,2.54,7,5.86l2.14,65.57C757.31-187.3,754.34-184.51,750.6-184.41Z" transform="translate(511.05 467.08)"/><path class="cls-4" d="M887.81-195.68,883.17-194a5.24,5.24,0,0,1-6.5-2.48L856.6-241.31a4.3,4.3,0,0,1,2.79-5.77l4.65-1.64a5.25,5.25,0,0,1,6.5,2.48l20.07,44.8A4.3,4.3,0,0,1,887.81-195.68Z" transform="translate(511.05 467.08)"/><path class="cls-5" d="M962.49-268.95l6.3-3.68a8.17,8.17,0,0,1,10.45,1.91l45,60.77a6.27,6.27,0,0,1-2.16,9.27l-6.3,3.69a8.17,8.17,0,0,1-10.45-1.92l-45-60.76A6.28,6.28,0,0,1,962.49-268.95Z" transform="translate(511.05 467.08)"/><path class="cls-3" d="M1127.16-242l4.32,3.89a5.05,5.05,0,0,1-.07,7.72l-47.55,41.6a6.72,6.72,0,0,1-8.69-.06l-4.32-3.89a5.05,5.05,0,0,1,.07-7.72l47.55-41.6A6.72,6.72,0,0,1,1127.16-242Z" transform="translate(511.05 467.08)"/><path class="cls-6" d="M-376.25-141.35l5.27,4.26a5.86,5.86,0,0,1,.48,9l-52.15,50.9a7.82,7.82,0,0,1-10.08.42L-438-81.09a5.87,5.87,0,0,1-.47-9l52.14-50.89A7.81,7.81,0,0,1-376.25-141.35Z" transform="translate(511.05 467.08)"/><path class="cls-6" d="M-290.26-64.82c-1.13,3.06-4.88,4.75-8.33,3.74l-6.26-1.82c-3.45-1-5.34-4.33-4.21-7.39l22.34-60.41c1.13-3.06,4.87-4.74,8.32-3.73l6.26,1.82c3.45,1,5.34,4.33,4.21,7.39" transform="translate(511.05 467.08)"/><path class="cls-4" d="M-187.89-52.23l-7.23-1.85c-4-1-6.31-4.73-5.16-8.27l22.58-69.79c1.15-3.53,5.34-5.59,9.32-4.58l7.24,1.85c4,1,6.3,4.74,5.16,8.28l-22.59,69.78C-179.71-53.27-183.9-51.21-187.89-52.23Z" transform="translate(511.05 467.08)"/><path class="cls-8" d="M-19.21-81.78l-4.24,2.13a5.24,5.24,0,0,1-6.64-1.64l-26-40.87A4.08,4.08,0,0,1-54.28-128l4.24-2.13a5.22,5.22,0,0,1,6.63,1.64l26,40.86A4.09,4.09,0,0,1-19.21-81.78Z" transform="translate(511.05 467.08)"/><path class="cls-7" d="M130.67-139.62l2.39,6c1.31,3.3-.66,7-4.38,8.11l-73.36,23c-3.72,1.16-7.83-.59-9.14-3.89l-2.38-6c-1.31-3.3.66-6.95,4.37-8.11l73.37-23C125.25-144.67,129.37-142.92,130.67-139.62Z" transform="translate(511.05 467.08)"/><path class="cls-8" d="M215.93-135.9l4.43.44a4.1,4.1,0,0,1,3.93,4.36L219-88.43a4.37,4.37,0,0,1-4.91,3.49l-4.43-.44a4.1,4.1,0,0,1-3.93-4.36L211-132.4A4.37,4.37,0,0,1,215.93-135.9Z" transform="translate(511.05 467.08)"/><path class="cls-8" d="M307.88-107l-.75-3.92a4.06,4.06,0,0,1,3.66-4.59l47.95-7.28a4.46,4.46,0,0,1,5.17,3.25l.76,3.92a4.06,4.06,0,0,1-3.66,4.59l-48,7.28A4.47,4.47,0,0,1,307.88-107Z" transform="translate(511.05 467.08)"/><path class="cls-6" d="M388.44-90.17l-3-6.17c-1.67-3.39.09-7.39,3.91-8.87l75.47-29.34c3.82-1.49,8.32.08,10,3.47l3.05,6.17c1.67,3.4-.09,7.39-3.91,8.88L398.44-86.7C394.62-85.21,390.12-86.77,388.44-90.17Z" transform="translate(511.05 467.08)"/><path class="cls-4" d="M549.07-132l2.2-4.66a6,6,0,0,1,7.46-2.7l57,21.25a4.87,4.87,0,0,1,3,6.61l-2.21,4.66a6,6,0,0,1-7.45,2.71l-57-21.25A4.89,4.89,0,0,1,549.07-132Z" transform="translate(511.05 467.08)"/><path class="cls-6" d="M683.08-137.36l5-.42a4.86,4.86,0,0,1,5.43,4L698.65-86a4.6,4.6,0,0,1-4.48,4.82l-5,.43a4.87,4.87,0,0,1-5.43-4l-5.18-47.81A4.61,4.61,0,0,1,683.08-137.36Z" transform="translate(511.05 467.08)"/><path class="cls-6" d="M802.26-75l-6.06-.83c-3.34-.45-5.65-3.25-5.13-6.21l10.11-58.46c.51-3,3.66-5,7-4.55l6.06.82c3.33.46,5.64,3.25,5.13,6.21L809.26-79.6C808.74-76.64,805.6-74.59,802.26-75Z" transform="translate(511.05 467.08)"/><path class="cls-5" d="M914.63-141.37l3.24-4a6,6,0,0,1,7.7-1.08L974-115.16a4.57,4.57,0,0,1,1.22,6.84l-3.25,4a6,6,0,0,1-7.7,1.08l-48.42-31.25A4.56,4.56,0,0,1,914.63-141.37Z" transform="translate(511.05 467.08)"/><path class="cls-3" d="M1045.65-148.45l6.15.21c3.38.12,6,2.67,5.9,5.67l-2.61,59.25c-.13,3-3,5.36-6.38,5.24l-6.15-.21c-3.38-.12-6-2.67-5.9-5.67l2.61-59.25C1039.4-146.21,1042.27-148.57,1045.65-148.45Z" transform="translate(511.05 467.08)"/><path class="cls-9" d="M-427.26,17.31l-5.9,2.73a7.1,7.1,0,0,1-9-2.52l-33.3-56.87c-1.69-2.88-.42-6.46,2.83-8l5.9-2.72a7.09,7.09,0,0,1,9,2.51l33.31,56.87A5.61,5.61,0,0,1-427.26,17.31Z" transform="translate(511.05 467.08)"/><path class="cls-4" d="M-344.3-45.92l7.5.63c4.13.34,7.18,3.62,6.8,7.28l-7.64,72.28c-.39,3.66-4.08,6.37-8.2,6l-7.5-.62c-4.12-.35-7.18-3.62-6.79-7.29l7.63-72.28C-352.11-43.55-348.42-46.26-344.3-45.92Z" transform="translate(511.05 467.08)"/><path class="cls-4" d="M-259.87-23.57l3.53-5.66a7.8,7.8,0,0,1,9.89-2.53l69.17,34c3.51,1.72,4.79,5.67,2.85,8.78l-3.52,5.66a7.82,7.82,0,0,1-9.9,2.53l-69.17-34C-260.53-16.51-261.81-20.46-259.87-23.57Z" transform="translate(511.05 467.08)"/><path class="cls-5" d="M-107.55,20.82l-2.9-2.45a3.29,3.29,0,0,1-.14-5l30-28A4.4,4.4,0,0,1-75-14.76l2.9,2.45a3.3,3.3,0,0,1,.14,5l-30,28A4.39,4.39,0,0,1-107.55,20.82Z" transform="translate(511.05 467.08)"/><path class="cls-5" d="M22.34,1.46,20.8-1.49a3.12,3.12,0,0,1,1.78-4.33L58.71-20.73a3.91,3.91,0,0,1,4.88,1.58l1.54,3a3.12,3.12,0,0,1-1.78,4.33L27.22,3A3.89,3.89,0,0,1,22.34,1.46Z" transform="translate(511.05 467.08)"/><path class="cls-6" d="M140.26,17.84l-3.9-2.38a3.93,3.93,0,0,1-1.22-5.84L164.22-28a5.14,5.14,0,0,1,6.58-1.08l3.9,2.38a3.92,3.92,0,0,1,1.23,5.84L146.84,16.75A5.13,5.13,0,0,1,140.26,17.84Z" transform="translate(511.05 467.08)"/><path class="cls-6" d="M217.94,35.79,213,31.42a5.72,5.72,0,0,1,0-8.75l53.46-47.52a7.63,7.63,0,0,1,9.85,0l4.93,4.37a5.72,5.72,0,0,1,0,8.75L227.79,35.78A7.63,7.63,0,0,1,217.94,35.79Z" transform="translate(511.05 467.08)"/><path class="cls-6" d="M375.79,25.15l-5-2.37A4.77,4.77,0,0,1,368.48,16l29-48.12a6.08,6.08,0,0,1,7.67-2.06l5,2.37A4.78,4.78,0,0,1,412.45-25l-29,48.12A6.06,6.06,0,0,1,375.79,25.15Z" transform="translate(511.05 467.08)"/><path class="cls-5" d="M484.67-14.34,487.14-18a5.14,5.14,0,0,1,6.54-1.42L537.9,4.42a4,4,0,0,1,1.61,5.81L537,13.84a5.14,5.14,0,0,1-6.54,1.43L486.27-8.53A4,4,0,0,1,484.67-14.34Z" transform="translate(511.05 467.08)"/><path class="cls-4" d="M581.7-35.95l5.17-4.93a8.31,8.31,0,0,1,10.72-.34l60.26,49.8a6.24,6.24,0,0,1,.39,9.52L653.07,23a8.31,8.31,0,0,1-10.72.34l-60.26-49.8A6.23,6.23,0,0,1,581.7-35.95Z" transform="translate(511.05 467.08)"/><path class="cls-7" d="M708.32-43.06l5.63-4.5a8.28,8.28,0,0,1,10.7.49L779.71,7.21a6.23,6.23,0,0,1-.56,9.5l-5.63,4.5a8.28,8.28,0,0,1-10.7-.5L707.76-33.56A6.23,6.23,0,0,1,708.32-43.06Z" transform="translate(511.05 467.08)"/><path class="cls-6" d="M839.16-42.08l3.72-5.63a7.9,7.9,0,0,1,10-2.34l68.85,35.81a6.15,6.15,0,0,1,2.63,8.92L920.69.31a7.9,7.9,0,0,1-10.05,2.34l-68.85-35.8C838.3-35,837.12-39,839.16-42.08Z" transform="translate(511.05 467.08)"/><path class="cls-6" d="M1004.64,20.62l-5.81,1.49c-3.2.82-6.58-.83-7.5-3.67L973.09-37.64c-.93-2.84.94-5.84,4.14-6.66L983-45.79c3.2-.82,6.57.83,7.5,3.67L1008.78,14C1009.7,16.8,1007.84,19.8,1004.64,20.62Z" transform="translate(511.05 467.08)"/><path class="cls-9" d="M1099.89-36.35l7,1.57c3.84.86,6.19,4.35,5.22,7.76L1093,40.29c-1,3.41-4.91,5.49-8.75,4.63l-7-1.56c-3.84-.86-6.19-4.36-5.22-7.77l19.14-67.31C1092.12-35.13,1096.05-37.21,1099.89-36.35Z" transform="translate(511.05 467.08)"/><path class="cls-4" d="M-432.16,106.44l-.24-5.17c-.13-2.84,2.39-5.26,5.58-5.37l63.16-2.27c3.2-.12,5.92,2.11,6.05,5l.24,5.17c.13,2.84-2.38,5.26-5.58,5.37l-63.16,2.27C-429.31,111.51-432,109.28-432.16,106.44Z" transform="translate(511.05 467.08)"/><path class="cls-4" d="M-291.77,71.6l4-3.65a6.29,6.29,0,0,1,8.13-.08L-235,106.61a4.72,4.72,0,0,1,.09,7.21l-4,3.65a6.31,6.31,0,0,1-8.13.08l-44.59-38.74A4.72,4.72,0,0,1-291.77,71.6Z" transform="translate(511.05 467.08)"/><path class="cls-8" d="M-179.21,94.14l3.54-2.49a4.93,4.93,0,0,1,6.35.65l30.49,34.15a3.72,3.72,0,0,1-.73,5.64l-3.54,2.49a4.93,4.93,0,0,1-6.35-.65l-30.49-34.15A3.72,3.72,0,0,1-179.21,94.14Z" transform="translate(511.05 467.08)"/><path class="cls-5" d="M-50.89,76l4.54-2.43a5.72,5.72,0,0,1,7.28,1.61L-9.41,119a4.43,4.43,0,0,1-1.8,6.46l-4.54,2.43A5.72,5.72,0,0,1-23,126.24L-52.69,82.47A4.42,4.42,0,0,1-50.89,76Z" transform="translate(511.05 467.08)"/><path class="cls-4" d="M61.59,54.34l6.6-3c3.63-1.63,8.1-.33,9.94,2.9l36.23,63.64c1.84,3.23.37,7.2-3.26,8.83l-6.6,3c-3.63,1.63-8.11.33-9.94-2.9L58.32,63.17C56.49,59.94,58,56,61.59,54.34Z" transform="translate(511.05 467.08)"/><path class="cls-4" d="M195.85,82.68l1.72-4.32a5.38,5.38,0,0,1,6.59-2.78L257,92.22a4.49,4.49,0,0,1,3.14,5.86l-1.73,4.31a5.37,5.37,0,0,1-6.59,2.79L199,88.53A4.48,4.48,0,0,1,195.85,82.68Z" transform="translate(511.05 467.08)"/><path class="cls-5" d="M352.62,79.81l3.53,5.56a6,6,0,0,1-2.73,8.7l-68,34.05a7.7,7.7,0,0,1-9.79-2.42l-3.53-5.57c-1.95-3.06-.72-7,2.73-8.7l68-34.05A7.73,7.73,0,0,1,352.62,79.81Z" transform="translate(511.05 467.08)"/><path class="cls-8" d="M414.28,114.44l-.21-4a4.27,4.27,0,0,1,4.33-4.24l49.42-2.1a4.39,4.39,0,0,1,4.77,3.84l.22,4a4.27,4.27,0,0,1-4.33,4.23l-49.43,2.11A4.39,4.39,0,0,1,414.28,114.44Z" transform="translate(511.05 467.08)"/><path class="cls-6" d="M536.41,80.43l2.27-5.72c1.25-3.14,5.16-4.8,8.7-3.69L617.23,92.9c3.53,1.11,5.41,4.59,4.16,7.73l-2.27,5.71c-1.25,3.14-5.17,4.81-8.7,3.7L540.57,88.15C537,87,535.16,83.57,536.41,80.43Z" transform="translate(511.05 467.08)"/><path class="cls-4" d="M684.56,134.73l-4.13-.84a3.79,3.79,0,0,1-3.18-4.51l10.34-39.83a4.3,4.3,0,0,1,5.08-2.83l4.13.85A3.79,3.79,0,0,1,700,92.08l-10.34,39.83A4.28,4.28,0,0,1,684.56,134.73Z" transform="translate(511.05 467.08)"/><path class="cls-4" d="M811.28,134l-5.49.2c-3,.11-5.59-2-5.71-4.68l-2.43-52.9c-.13-2.68,2.24-5,5.26-5.07l5.49-.2c3-.11,5.59,2,5.71,4.67L816.54,129C816.66,131.63,814.29,133.91,811.28,134Z" transform="translate(511.05 467.08)"/><path class="cls-6" d="M878.38,128.37l-3.29-5.06a5.53,5.53,0,0,1,2.42-8L939.45,83.6a7.06,7.06,0,0,1,9,2.15l3.29,5.06a5.52,5.52,0,0,1-2.41,8l-61.94,31.72A7.08,7.08,0,0,1,878.38,128.37Z" transform="translate(511.05 467.08)"/><path class="cls-6" d="M1030.94,133.39l-4.3-2.43a4.25,4.25,0,0,1-1.55-6.25l29.76-41.41a5.51,5.51,0,0,1,7-1.38l4.29,2.43a4.24,4.24,0,0,1,1.56,6.25L1038,132A5.51,5.51,0,0,1,1030.94,133.39Z" transform="translate(511.05 467.08)"/><path class="cls-9" d="M-426.46,202.26l1.62,3a3.16,3.16,0,0,1-1.73,4.4l-36.25,15.57a3.94,3.94,0,0,1-4.95-1.53l-1.62-3a3.16,3.16,0,0,1,1.73-4.4l36.25-15.56A3.94,3.94,0,0,1-426.46,202.26Z" transform="translate(511.05 467.08)"/><path class="cls-7" d="M-327,188.46l5.22,4.3a5.85,5.85,0,0,1,.39,8.94L-374,252.06a7.79,7.79,0,0,1-10.06.34l-5.22-4.3a5.85,5.85,0,0,1-.39-8.94l52.55-50.35A7.78,7.78,0,0,1-327,188.46Z" transform="translate(511.05 467.08)"/><path class="cls-4" d="M-246.35,253.38l-4.6-2.67a4.58,4.58,0,0,1-1.6-6.76l32.64-44.36a6,6,0,0,1,7.61-1.42l4.6,2.67a4.58,4.58,0,0,1,1.6,6.76L-238.74,252A6,6,0,0,1-246.35,253.38Z" transform="translate(511.05 467.08)"/><path class="cls-4" d="M-97.83,250.3l-7.3.37c-4,.2-7.47-2.55-7.7-6.11l-4.49-70.32c-.23-3.56,2.87-6.64,6.88-6.84l7.29-.37c4-.2,7.48,2.55,7.71,6.11l4.49,70.32C-90.72,247-93.82,250.1-97.83,250.3Z" transform="translate(511.05 467.08)"/><path class="cls-5" d="M4.3,225.44.46,221.37a4.92,4.92,0,0,1,.74-7.49L51,176.79a6.55,6.55,0,0,1,8.44.66l3.84,4.07a4.92,4.92,0,0,1-.74,7.49L12.74,226.1A6.55,6.55,0,0,1,4.3,225.44Z" transform="translate(511.05 467.08)"/><path class="cls-6" d="M123.9,189.66l1.57-5.22c.87-2.88,4.23-4.6,7.46-3.83l63.87,15.21c3.23.77,5.17,3.75,4.3,6.62l-1.58,5.22c-.86,2.88-4.22,4.6-7.45,3.83L128.2,196.28C125,195.51,123,192.53,123.9,189.66Z" transform="translate(511.05 467.08)"/><path class="cls-4" d="M236.89,163.09l6-3.94a8.14,8.14,0,0,1,10.46,1.42l48.12,58.09a6.18,6.18,0,0,1-1.59,9.28l-6,3.94a8.15,8.15,0,0,1-10.46-1.42l-48.12-58.09A6.18,6.18,0,0,1,236.89,163.09Z" transform="translate(511.05 467.08)"/><path class="cls-6" d="M362.27,195.1l3.83-2.62a5.27,5.27,0,0,1,6.78.78l32.05,36.89a4,4,0,0,1-.87,6l-3.83,2.63a5.27,5.27,0,0,1-6.78-.78l-32.06-36.9A4,4,0,0,1,362.27,195.1Z" transform="translate(511.05 467.08)"/><path class="cls-4" d="M509.34,186.08l3.44-1.43a4,4,0,0,1,5.05,1.62l17.47,33.19a3.22,3.22,0,0,1-1.83,4.48L530,225.37a4,4,0,0,1-5-1.63L507.5,190.56A3.23,3.23,0,0,1,509.34,186.08Z" transform="translate(511.05 467.08)"/><path class="cls-8" d="M568.7,223.22l-2.18-6.41c-1.19-3.52,1.07-7.27,5-8.33l78.3-21c4-1.06,8.19.95,9.39,4.47l2.17,6.4c1.2,3.53-1.07,7.28-5,8.34l-78.3,21C574.12,228.75,569.89,226.74,568.7,223.22Z" transform="translate(511.05 467.08)"/><path class="cls-6" d="M741,192.59l2.74-2.43a4.24,4.24,0,0,1,5.47,0l29.67,26.4a3.19,3.19,0,0,1,0,4.86l-2.74,2.42a4.24,4.24,0,0,1-5.47,0L741,197.44A3.17,3.17,0,0,1,741,192.59Z" transform="translate(511.05 467.08)"/><path class="cls-5" d="M856.85,180.14l5.24-1c2.88-.54,5.74,1.12,6.34,3.67l12,50.53c.61,2.56-1.25,5.09-4.14,5.63L871,240a5.41,5.41,0,0,1-6.34-3.68l-12-50.52C852.11,183.21,854,180.68,856.85,180.14Z" transform="translate(511.05 467.08)"/><path class="cls-4" d="M993.52,191.31l4.76,2.11a4.51,4.51,0,0,1,2.38,6.35L974.8,245.68a5.67,5.67,0,0,1-7.14,2.12l-4.76-2.12a4.51,4.51,0,0,1-2.39-6.34l25.87-45.92A5.65,5.65,0,0,1,993.52,191.31Z" transform="translate(511.05 467.08)"/><path class="cls-3" d="M1110.76,182.77l3.79-1.22a4.18,4.18,0,0,1,5.15,2.14l14.9,36.47a3.48,3.48,0,0,1-2.41,4.57l-3.78,1.22a4.18,4.18,0,0,1-5.15-2.14l-14.91-36.46A3.49,3.49,0,0,1,1110.76,182.77Z" transform="translate(511.05 467.08)"/><path class="cls-8" d="M-407,303.92l1.1-4.11a4.84,4.84,0,0,1,5.74-3.13L-350,307.34a4.24,4.24,0,0,1,3.52,5.09l-1.11,4.11a4.82,4.82,0,0,1-5.73,3.13L-403.52,309A4.23,4.23,0,0,1-407,303.92Z" transform="translate(511.05 467.08)"/><path class="cls-4" d="M-282.39,362.31l-6.24.91c-3.44.49-6.7-1.59-7.27-4.64L-307,298.38c-.57-3.05,1.78-5.95,5.22-6.45l6.24-.91c3.44-.5,6.71,1.59,7.27,4.64l11.09,60.2C-276.6,358.91-278.95,361.81-282.39,362.31Z" transform="translate(511.05 467.08)"/><path class="cls-5" d="M-147.82,289.15l4.14-.57a4.18,4.18,0,0,1,4.78,3.11l7,39.89a3.82,3.82,0,0,1-3.5,4.24l-4.14.57a4.16,4.16,0,0,1-4.78-3.1l-6.95-39.9A3.81,3.81,0,0,1-147.82,289.15Z" transform="translate(511.05 467.08)"/><path class="cls-8" d="M-43,323l-1.53-3.19a3.36,3.36,0,0,1,2.08-4.55l39.08-14.68a4.12,4.12,0,0,1,5.12,1.84l1.53,3.2a3.36,3.36,0,0,1-2.08,4.55L-37.89,324.8A4.11,4.11,0,0,1-43,323Z" transform="translate(511.05 467.08)"/><path class="cls-4" d="M87,344.88l-4-1a3.67,3.67,0,0,1-2.89-4.56l12.21-38.71A4.26,4.26,0,0,1,97.4,298l4,1a3.67,3.67,0,0,1,2.89,4.56L92.1,342.31A4.26,4.26,0,0,1,87,344.88Z" transform="translate(511.05 467.08)"/><path class="cls-5" d="M149.17,345.05l-3.9-5.63a6.21,6.21,0,0,1,2.44-9.09l68.84-37.59a8,8,0,0,1,10.24,2.17l3.9,5.63a6.22,6.22,0,0,1-2.45,9.09L159.4,347.22A8,8,0,0,1,149.17,345.05Z" transform="translate(511.05 467.08)"/><path class="cls-5" d="M360.61,289.62l3.1,5a5.39,5.39,0,0,1-2.5,7.74l-60.88,29.92a6.87,6.87,0,0,1-8.72-2.22l-3.1-5a5.38,5.38,0,0,1,2.5-7.73l60.88-29.93A6.87,6.87,0,0,1,360.61,289.62Z" transform="translate(511.05 467.08)"/><path class="cls-4" d="M442.28,311.78l4.11,1.19a3.79,3.79,0,0,1,2.78,4.84l-14.54,39.65a4.48,4.48,0,0,1-5.46,2.46l-4.11-1.19a3.77,3.77,0,0,1-2.77-4.84l14.54-39.64A4.48,4.48,0,0,1,442.28,311.78Z" transform="translate(511.05 467.08)"/><path class="cls-4" d="M562.89,296l2.66-2.67a4.38,4.38,0,0,1,5.67-.32l32.71,25.62a3.3,3.3,0,0,1,.36,5l-2.66,2.68a4.39,4.39,0,0,1-5.67.31l-32.71-25.61A3.31,3.31,0,0,1,562.89,296Z" transform="translate(511.05 467.08)"/><path class="cls-6" d="M720.73,283.25l3.82,4.31a5.1,5.1,0,0,1-1,7.71l-52.73,36.82a6.73,6.73,0,0,1-8.67-.92l-3.82-4.31a5.1,5.1,0,0,1,1-7.71l52.74-36.82A6.73,6.73,0,0,1,720.73,283.25Z" transform="translate(511.05 467.08)"/><path class="cls-5" d="M787.68,288.93l6.51.15c3.58.07,6.44,2.74,6.35,5.92l-1.74,62.78c-.09,3.18-3.09,5.72-6.67,5.64l-6.51-.15c-3.59-.07-6.44-2.74-6.35-5.92L781,294.57C781.1,291.39,784.1,288.85,787.68,288.93Z" transform="translate(511.05 467.08)"/><path class="cls-5" d="M940.74,309.18l2.9,4a4.5,4.5,0,0,1-1.65,6.62l-49.4,27.94a5.83,5.83,0,0,1-7.45-1.46l-2.9-4a4.51,4.51,0,0,1,1.65-6.62l49.41-28A5.83,5.83,0,0,1,940.74,309.18Z" transform="translate(511.05 467.08)"/><path class="cls-9" d="M1029.21,324.37l-1.15-3.55a3.67,3.67,0,0,1,2.85-4.57l43.35-11.06a4.26,4.26,0,0,1,5.14,2.52l1.15,3.55a3.66,3.66,0,0,1-2.85,4.56l-43.35,11.07A4.26,4.26,0,0,1,1029.21,324.37Z" transform="translate(511.05 467.08)"/><path class="cls-9" d="M-423.85,401.87l2.87,6c1.59,3.29-.15,7.13-3.86,8.54L-498,444.13c-3.7,1.4-8-.14-9.61-3.43l-2.88-6c-1.58-3.29.15-7.13,3.86-8.53l73.13-27.75C-429.76,397-425.44,398.58-423.85,401.87Z" transform="translate(511.05 467.08)"/><path class="cls-5" d="M-352.63,453.36l-3.72-2.52a3.87,3.87,0,0,1-.89-5.83l30.82-35.92a5.11,5.11,0,0,1,6.57-.79l3.72,2.52a3.87,3.87,0,0,1,.89,5.83l-30.82,35.92A5.11,5.11,0,0,1-352.63,453.36Z" transform="translate(511.05 467.08)"/><path class="cls-6" d="M-203.26,386.87-197,389c3.45,1.15,5.21,4.58,3.92,7.64L-218.55,457c-1.29,3.06-5.16,4.63-8.61,3.48l-6.26-2.08c-3.45-1.15-5.21-4.59-3.92-7.65l25.47-60.38C-210.58,387.29-206.7,385.72-203.26,386.87Z" transform="translate(511.05 467.08)"/><path class="cls-5" d="M-113.62,414.76l.49-4.48a5,5,0,0,1,5.54-4.06l54.83,4.71a4.69,4.69,0,0,1,4.56,4.91l-.49,4.49a5,5,0,0,1-5.54,4.05l-54.83-4.7A4.7,4.7,0,0,1-113.62,414.76Z" transform="translate(511.05 467.08)"/><path class="cls-7" d="M-8.88,405.6l2-5.77c1.07-3.18,4.88-5,8.45-4l70.61,18.83c3.58.95,5.63,4.33,4.55,7.5l-2,5.78c-1.08,3.17-4.88,5-8.46,4l-70.6-18.83C-7.91,412.16-10,408.78-8.88,405.6Z" transform="translate(511.05 467.08)"/><path class="cls-5" d="M141.93,455.78l-5.44-1.24c-3-.68-4.81-3.41-4-6.07l15.17-52.4c.77-2.65,3.85-4.26,6.84-3.58l5.43,1.24c3,.68,4.81,3.41,4,6.07l-15.17,52.4C148,454.85,144.92,456.46,141.93,455.78Z" transform="translate(511.05 467.08)"/><path class="cls-6" d="M299.89,405.29,302,410a5,5,0,0,1-3.22,6.64l-58.08,20.45a6.05,6.05,0,0,1-7.48-2.87l-2.12-4.75a5,5,0,0,1,3.23-6.63l58.08-20.45A6,6,0,0,1,299.89,405.29Z" transform="translate(511.05 467.08)"/><path class="cls-6" d="M371.81,462.08,365,460c-3.76-1.12-5.81-4.77-4.54-8.11L385.36,386c1.27-3.34,5.38-5.15,9.14-4l6.83,2c3.76,1.12,5.81,4.77,4.54,8.11L381,458C379.68,461.38,375.57,463.2,371.81,462.08Z" transform="translate(511.05 467.08)"/><path class="cls-4" d="M487.23,466.22l-4.44-1.57a4.12,4.12,0,0,1-2.66-5.52l19.3-42.78a5,5,0,0,1,6.21-2.36l4.44,1.58a4.11,4.11,0,0,1,2.66,5.52l-19.29,42.77A5,5,0,0,1,487.23,466.22Z" transform="translate(511.05 467.08)"/><path class="cls-7" d="M604.33,448.47l-4.8-3.49a5.12,5.12,0,0,1-.86-7.75L641.32,391a6.76,6.76,0,0,1,8.72-.77l4.79,3.49a5.11,5.11,0,0,1,.87,7.75L613.05,447.7A6.76,6.76,0,0,1,604.33,448.47Z" transform="translate(511.05 467.08)"/><path class="cls-7" d="M759.71,419.1l2.62,3.15a3.66,3.66,0,0,1-.94,5.49L722.79,453a4.81,4.81,0,0,1-6.18-.83L714,449a3.65,3.65,0,0,1,.93-5.48l38.61-25.24A4.81,4.81,0,0,1,759.71,419.1Z" transform="translate(511.05 467.08)"/><path class="cls-8" d="M891.56,415.2l1.85,4.12a4.29,4.29,0,0,1-2.79,5.76l-50.34,17.83a5.23,5.23,0,0,1-6.49-2.47l-1.85-4.12a4.29,4.29,0,0,1,2.79-5.76l50.34-17.84A5.24,5.24,0,0,1,891.56,415.2Z" transform="translate(511.05 467.08)"/><path class="cls-6" d="M997.54,415.87l3.19,2.93a3.76,3.76,0,0,1-.1,5.75l-35.72,30.76a5,5,0,0,1-6.48-.08l-3.19-2.92a3.77,3.77,0,0,1,.1-5.76l35.72-30.76A5,5,0,0,1,997.54,415.87Z" transform="translate(511.05 467.08)"/><path class="cls-3" d="M1116.73,401.55l4.79,2.46a4.64,4.64,0,0,1,2,6.72l-30,46.25a6,6,0,0,1-7.57,1.81l-4.79-2.46a4.65,4.65,0,0,1-2-6.72l30.05-46.25A6,6,0,0,1,1116.73,401.55Z" transform="translate(511.05 467.08)"/><path class="cls-8" d="M-440.53,539.46l-1-5.49c-.55-3,1.79-5.9,5.19-6.38l67.18-9.66c3.4-.49,6.63,1.58,7.18,4.61l1,5.49c.55,3-1.79,5.89-5.19,6.38l-67.18,9.66C-436.75,544.56-440,542.48-440.53,539.46Z" transform="translate(511.05 467.08)"/><path class="cls-8" d="M-280.46,541.06l-2.35-2.83a3.28,3.28,0,0,1,.84-4.92l34.67-22.66a4.33,4.33,0,0,1,5.55.74l2.35,2.84a3.28,3.28,0,0,1-.84,4.92l-34.67,22.66A4.32,4.32,0,0,1-280.46,541.06Z" transform="translate(511.05 467.08)"/><path class="cls-7" d="M-157.28,564.94l-3.66-.23a3.41,3.41,0,0,1-3.41-3.47l2.72-35.33a3.57,3.57,0,0,1,3.92-3l3.66.22a3.43,3.43,0,0,1,3.41,3.48l-2.72,35.32A3.58,3.58,0,0,1-157.28,564.94Z" transform="translate(511.05 467.08)"/><path class="cls-6" d="M-44.58,525.45l.26-3.57A3.9,3.9,0,0,1-40,518.54L3.66,521a3.77,3.77,0,0,1,3.76,3.81l-.26,3.57a3.91,3.91,0,0,1-4.28,3.35l-43.7-2.5A3.77,3.77,0,0,1-44.58,525.45Z" transform="translate(511.05 467.08)"/><path class="cls-7" d="M95.07,563.06l-6.82,1.64c-3.75.91-7.65-1.08-8.67-4.41L59.47,494.52c-1-3.33,1.22-6.8,5-7.7l6.82-1.65c3.75-.9,7.66,1.08,8.68,4.42L100,555.35C101.06,558.69,98.82,562.15,95.07,563.06Z" transform="translate(511.05 467.08)"/><path class="cls-4" d="M161.87,550.38l-3.31-5.17a5.61,5.61,0,0,1,2.51-8.1l63.12-31.88a7.17,7.17,0,0,1,9.12,2.22l3.31,5.16a5.61,5.61,0,0,1-2.51,8.1L171,552.6A7.18,7.18,0,0,1,161.87,550.38Z" transform="translate(511.05 467.08)"/><path class="cls-7" d="M355.09,495.72l4.42,3.56a4.91,4.91,0,0,1,.42,7.48l-43.51,42.65a6.53,6.53,0,0,1-8.43.37l-4.42-3.56a4.91,4.91,0,0,1-.42-7.48l43.51-42.65A6.53,6.53,0,0,1,355.09,495.72Z" transform="translate(511.05 467.08)"/><path class="cls-6" d="M426.12,539.17l-2-3.9a4.12,4.12,0,0,1,2.39-5.69l47.73-19.4a5.13,5.13,0,0,1,6.41,2.12l2,3.91a4.12,4.12,0,0,1-2.38,5.69l-47.74,19.39A5.12,5.12,0,0,1,426.12,539.17Z" transform="translate(511.05 467.08)"/><path class="cls-8" d="M544.38,506.39l2.77-4.57a6.26,6.26,0,0,1,7.92-2.12L611,526.41a4.94,4.94,0,0,1,2.38,7L610.61,538a6.26,6.26,0,0,1-7.92,2.12l-55.93-26.71A4.92,4.92,0,0,1,544.38,506.39Z" transform="translate(511.05 467.08)"/><path class="cls-4" d="M686.39,521.17l3.76.6a3.45,3.45,0,0,1,3.07,4L685.82,562a3.82,3.82,0,0,1-4.44,2.73l-3.76-.6a3.46,3.46,0,0,1-3.07-4L682,523.9A3.81,3.81,0,0,1,686.39,521.17Z" transform="translate(511.05 467.08)"/><path class="cls-5" d="M807.6,514.77l4.92,2.13a4.65,4.65,0,0,1,2.52,6.51l-26.1,47.46a5.82,5.82,0,0,1-7.32,2.23L776.69,571a4.65,4.65,0,0,1-2.51-6.51L800.27,517A5.83,5.83,0,0,1,807.6,514.77Z" transform="translate(511.05 467.08)"/><path class="cls-7" d="M916.65,516.57l.5-4.14a4.59,4.59,0,0,1,5.16-3.68l50.55,4.86A4.32,4.32,0,0,1,977,518.2l-.51,4.13a4.59,4.59,0,0,1-5.16,3.68l-50.54-4.86A4.32,4.32,0,0,1,916.65,516.57Z" transform="translate(511.05 467.08)"/><path class="cls-5" d="M1077,510.83l2.56,4.94a5.21,5.21,0,0,1-3,7.21l-60.37,24.68A6.48,6.48,0,0,1,1008,545l-2.56-4.94a5.21,5.21,0,0,1,3-7.21l60.37-24.68A6.48,6.48,0,0,1,1077,510.83Z" transform="translate(511.05 467.08)"/><path class="cls-8" d="M-437.63,658.27l-4.75.69a4.8,4.8,0,0,1-5.53-3.53l-8.42-45.78a4.37,4.37,0,0,1,4-4.91l4.75-.69a4.8,4.8,0,0,1,5.53,3.53l8.42,45.78A4.37,4.37,0,0,1-437.63,658.27Z" transform="translate(511.05 467.08)"/><path class="cls-6" d="M-364.85,659.33l-4.38-4.26a5.35,5.35,0,0,1,.43-8.15l52.12-42.15a7.09,7.09,0,0,1,9.17.38l4.38,4.26a5.34,5.34,0,0,1-.43,8.14l-52.12,42.16A7.09,7.09,0,0,1-364.85,659.33Z" transform="translate(511.05 467.08)"/><path class="cls-4" d="M-244.2,671.51l-6.28-3.67a6.25,6.25,0,0,1-2.14-9.24l44.86-60.48a8.13,8.13,0,0,1,10.4-1.9l6.27,3.67a6.24,6.24,0,0,1,2.15,9.23l-44.86,60.49A8.13,8.13,0,0,1-244.2,671.51Z" transform="translate(511.05 467.08)"/><path class="cls-6" d="M-143.5,657l-2.95-5.45c-1.62-3-.19-6.62,3.19-8.06l66.57-28.42a7.23,7.23,0,0,1,9.08,2.82l2.94,5.45c1.63,3,.19,6.62-3.18,8.06l-66.57,28.42A7.23,7.23,0,0,1-143.5,657Z" transform="translate(511.05 467.08)"/><path class="cls-5" d="M60.85,593.93,65.67,599a6.16,6.16,0,0,1-.91,9.36L2.58,654.82A8.17,8.17,0,0,1-8,654l-4.82-5.08a6.17,6.17,0,0,1,.91-9.37l62.18-46.44A8.17,8.17,0,0,1,60.85,593.93Z" transform="translate(511.05 467.08)"/><path class="cls-7" d="M105.23,678.54,100.29,675a5.22,5.22,0,0,1-1-7.9l43.07-47.55a6.89,6.89,0,0,1,8.89-.86l4.94,3.52a5.22,5.22,0,0,1,1,7.9l-43.06,47.55A6.91,6.91,0,0,1,105.23,678.54Z" transform="translate(511.05 467.08)"/><path class="cls-7" d="M245.58,596.62l7.51-.14c4.13-.07,7.57,2.87,7.66,6.53l1.67,72.36c.09,3.67-3.22,6.73-7.35,6.8l-7.5.14c-4.13.08-7.58-2.86-7.66-6.53l-1.68-72.36C238.15,599.76,241.45,596.7,245.58,596.62Z" transform="translate(511.05 467.08)"/><path class="cls-5" d="M375.57,620.86l1.76-3.85a4.91,4.91,0,0,1,6.09-2.28l47,16.95a4,4,0,0,1,2.57,5.4l-1.75,3.84a4.92,4.92,0,0,1-6.09,2.29l-47-17A4,4,0,0,1,375.57,620.86Z" transform="translate(511.05 467.08)"/><path class="cls-8" d="M542.28,618.08l1.92,4.52a4.7,4.7,0,0,1-3.16,6.22L485.8,647.37a5.69,5.69,0,0,1-7-2.81L476.87,640a4.69,4.69,0,0,1,3.16-6.22l55.23-18.55A5.7,5.7,0,0,1,542.28,618.08Z" transform="translate(511.05 467.08)"/><path class="cls-5" d="M593.22,629.38l1.3-5c.71-2.76,3.84-4.49,7-3.86L662.8,633c3.11.64,5.07,3.42,4.35,6.18l-1.3,5c-.71,2.76-3.84,4.5-7,3.86l-61.33-12.53C594.46,634.92,592.5,632.14,593.22,629.38Z" transform="translate(511.05 467.08)"/><path class="cls-4" d="M759.22,667.84,752.33,670c-3.79,1.18-8-.61-9.31-4l-26.25-66.46c-1.33-3.37.68-7.09,4.47-8.27l6.9-2.15c3.79-1.18,8,.61,9.31,4l26.25,66.47C765,662.93,763,666.65,759.22,667.84Z" transform="translate(511.05 467.08)"/><path class="cls-6" d="M837.44,650.73l-.07-3.76a4,4,0,0,1,4.16-3.82l45.94-.71a4.05,4.05,0,0,1,4.3,3.69l.08,3.76a4,4,0,0,1-4.16,3.82l-45.94.71A4,4,0,0,1,837.44,650.73Z" transform="translate(511.05 467.08)"/><path class="cls-5" d="M976.51,604.06l3.81-3.17a5.72,5.72,0,0,1,7.38.22l38.72,36.75a4.29,4.29,0,0,1-.25,6.55l-3.81,3.17a5.72,5.72,0,0,1-7.38-.22l-38.72-36.75A4.29,4.29,0,0,1,976.51,604.06Z" transform="translate(511.05 467.08)"/><path class="cls-10" d="M1115.89,668.61l-5.29,1.82a5.94,5.94,0,0,1-7.34-2.87l-22.26-51a4.9,4.9,0,0,1,3.24-6.52l5.28-1.82a5.94,5.94,0,0,1,7.34,2.88l22.26,51A4.89,4.89,0,0,1,1115.89,668.61Z" transform="translate(511.05 467.08)"/><path class="cls-6" d="M-426.61,721.86l5.27-2.33a6.28,6.28,0,0,1,7.89,2.36L-385,772.73a5,5,0,0,1-2.66,7l-5.27,2.32a6.26,6.26,0,0,1-7.89-2.36l-28.41-50.84A5,5,0,0,1-426.61,721.86Z" transform="translate(511.05 467.08)"/><path class="cls-5" d="M-305.93,730.82l.86-5.54c.48-3,3.67-5.19,7.1-4.77l67.71,8.32c3.43.42,5.85,3.25,5.38,6.3l-.87,5.54c-.47,3-3.66,5.19-7.09,4.77l-67.72-8.32C-304,736.7-306.4,733.87-305.93,730.82Z" transform="translate(511.05 467.08)"/><path class="cls-4" d="M-118.43,705l4.24,4.85a5.71,5.71,0,0,1-1.23,8.62l-59.38,40.87a7.55,7.55,0,0,1-9.71-1.09l-4.24-4.86a5.71,5.71,0,0,1,1.23-8.62l59.38-40.87A7.55,7.55,0,0,1-118.43,705Z" transform="translate(511.05 467.08)"/><path class="cls-6" d="M-26,714.09l5.6,1.72c3.08,1,4.73,4,3.66,6.7l-21,54c-1.06,2.74-4.46,4.2-7.54,3.26l-5.6-1.72c-3.08-.95-4.73-4-3.66-6.69l21-54C-32.45,714.61-29.06,713.15-26,714.09Z" transform="translate(511.05 467.08)"/><path class="cls-6" d="M64.1,727.69l1-5c.57-2.75,3.57-4.59,6.67-4.08l61.13,10c3.1.51,5.17,3.17,4.6,5.92l-1,5c-.57,2.75-3.57,4.59-6.66,4.08l-61.13-10C65.6,733.1,63.53,730.44,64.1,727.69Z" transform="translate(511.05 467.08)"/><path class="cls-5" d="M237.71,723.28l2.56,4.24a4.56,4.56,0,0,1-2.22,6.51l-51.8,24.64a5.8,5.8,0,0,1-7.33-2l-2.55-4.24a4.56,4.56,0,0,1,2.21-6.51l51.81-24.63A5.78,5.78,0,0,1,237.71,723.28Z" transform="translate(511.05 467.08)"/><path class="cls-5" d="M343.8,733.09l2.85,3.49a4,4,0,0,1-1.08,6l-42.72,27.46a5.29,5.29,0,0,1-6.79-1l-2.84-3.5a4,4,0,0,1,1.08-6L337,732.13A5.27,5.27,0,0,1,343.8,733.09Z" transform="translate(511.05 467.08)"/><path class="cls-11" d="M414.42,734.29l-.19-5.64c-.11-3.1,2.66-5.71,6.15-5.8L489.25,721c3.49-.09,6.43,2.37,6.54,5.47l.19,5.63c.1,3.1-2.67,5.71-6.16,5.8L421,739.75C417.46,739.84,414.52,737.38,414.42,734.29Z" transform="translate(511.05 467.08)"/><path class="cls-4" d="M563,718.78l5.83,1.36c3.21.75,5.14,3.69,4.29,6.53l-16.66,56.18c-.85,2.85-4.16,4.56-7.36,3.81l-5.83-1.36c-3.2-.75-5.14-3.69-4.29-6.54l16.66-56.17C556.5,719.74,559.81,718,563,718.78Z" transform="translate(511.05 467.08)"/><path class="cls-7" d="M641.55,725.59l2.66-6.17c1.47-3.39,5.79-5.11,9.61-3.8l75.43,25.67c3.82,1.3,5.75,5.14,4.28,8.53L730.87,756c-1.47,3.39-5.79,5.11-9.61,3.81l-75.43-25.68C642,732.82,640.08,729,641.55,725.59Z" transform="translate(511.05 467.08)"/><path class="cls-5" d="M775.48,769.81l-4.63-4a5.3,5.3,0,0,1-.14-8.1l48.76-44.65a7.08,7.08,0,0,1,9.13-.12l4.63,4a5.31,5.31,0,0,1,.13,8.1L784.6,769.69A7.05,7.05,0,0,1,775.48,769.81Z" transform="translate(511.05 467.08)"/><path class="cls-4" d="M928.14,713.69l5.11.17a4.81,4.81,0,0,1,4.91,4.71l-2,49.25c-.1,2.49-2.49,4.46-5.3,4.37L925.7,772a4.82,4.82,0,0,1-4.92-4.71l2.06-49.25C922.94,715.57,925.33,713.6,928.14,713.69Z" transform="translate(511.05 467.08)"/><path class="cls-6" d="M1075.8,707.49l4.56,5.17a6.12,6.12,0,0,1-1.27,9.23l-63.31,44a8.06,8.06,0,0,1-10.38-1.13l-4.56-5.18a6.1,6.1,0,0,1,1.27-9.22l63.3-43.95A8.06,8.06,0,0,1,1075.8,707.49Z" transform="translate(511.05 467.08)"/><path class="cls-9" d="M-466.85,834.64l1.82-3.92a5,5,0,0,1,6.23-2.3L-410.88,846a4.11,4.11,0,0,1,2.59,5.54l-1.82,3.92a5,5,0,0,1-6.23,2.3l-47.91-17.54A4.09,4.09,0,0,1-466.85,834.64Z" transform="translate(511.05 467.08)"/><path class="cls-9" d="M-354.69,846.82v-4.28c-.06-2.36,2.1-4.29,4.75-5.75h52.33a14.36,14.36,0,0,1,6.29,5.47v4.28c-1.41,2.35-3.57,4.29-6.22,4.34h-52.32A4.3,4.3,0,0,1-354.69,846.82Z" transform="translate(511.05 467.08)"/><path class="cls-9" d="M-214.89,825.6l5.8,1.64c3.19.89,5,4,4,6.78l-20,56c-1,2.83-4.45,4.42-7.64,3.52l-5.81-1.63c-3.19-.9-5-4-4-6.79l20-56C-221.53,826.29-218.09,824.71-214.89,825.6Z" transform="translate(511.05 467.08)"/><path class="cls-3" d="M-90.95,824.83l5.88,3.24a5.77,5.77,0,0,1,2.24,8.45l-39.53,56.72a7.46,7.46,0,0,1-9.53,2l-5.88-3.23a5.78,5.78,0,0,1-2.24-8.46l39.53-56.72A7.47,7.47,0,0,1-90.95,824.83Z" transform="translate(511.05 467.08)"/><path class="cls-12" d="M39.72,837.88l3.45,3.73a4.48,4.48,0,0,1-.75,6.8L-3.2,881.7a5.94,5.94,0,0,1-7.66-.66l-3.45-3.74a4.47,4.47,0,0,1,.75-6.79l45.62-33.29A5.94,5.94,0,0,1,39.72,837.88Z" transform="translate(511.05 467.08)"/><path class="cls-10" d="M146.52,822.71l3.4-2.09a4.48,4.48,0,0,1,5.74.94l25.46,32.76a3.42,3.42,0,0,1-1.05,5.1l-3.4,2.08a4.47,4.47,0,0,1-5.74-.93l-25.46-32.76A3.42,3.42,0,0,1,146.52,822.71Z" transform="translate(511.05 467.08)"/><path class="cls-4" d="M306.07,813l3.64,5.49a6,6,0,0,1-2.54,8.72l-67.1,35.08a7.73,7.73,0,0,1-9.82-2.26l-3.64-5.49a6,6,0,0,1,2.54-8.72l67.1-35.08A7.73,7.73,0,0,1,306.07,813Z" transform="translate(511.05 467.08)"/><path class="cls-3" d="M357.32,839.4l3.51-3a5.3,5.3,0,0,1,6.85.15l36.26,33.83a4,4,0,0,1-.17,6.08l-3.51,3a5.28,5.28,0,0,1-6.84-.15l-36.27-33.82A4,4,0,0,1,357.32,839.4Z" transform="translate(511.05 467.08)"/><path class="cls-5" d="M499.18,820.81l4.29-1.88a5.08,5.08,0,0,1,6.41,1.92L533,862.19a4.06,4.06,0,0,1-2.17,5.7l-4.28,1.89a5.11,5.11,0,0,1-6.42-1.93L497,826.51A4.07,4.07,0,0,1,499.18,820.81Z" transform="translate(511.05 467.08)"/><path class="cls-3" d="M592.6,875.59l-2.69-3.72a4.15,4.15,0,0,1,1.49-6.12l45.5-26a5.39,5.39,0,0,1,6.89,1.32l2.7,3.73A4.15,4.15,0,0,1,645,850.9l-45.51,26A5.4,5.4,0,0,1,592.6,875.59Z" transform="translate(511.05 467.08)"/><path class="cls-9" d="M728.26,867.58l-2.86-3.27a3.85,3.85,0,0,1,.82-5.82l40-27.62a5.1,5.1,0,0,1,6.55.73l2.86,3.28a3.84,3.84,0,0,1-.82,5.81l-40,27.62A5.09,5.09,0,0,1,728.26,867.58Z" transform="translate(511.05 467.08)"/><path class="cls-5" d="M859.22,814.41l6-.2c3.32-.11,6.14,2.21,6.27,5.16l2.49,58.2c.13,2.94-2.48,5.45-5.8,5.56l-6,.2c-3.32.12-6.14-2.2-6.27-5.15L853.41,820C853.28,817,855.9,814.52,859.22,814.41Z" transform="translate(511.05 467.08)"/><path class="cls-6" d="M972.05,877.14l-5.16-2.78a5,5,0,0,1-2-7.36l34-49.78a6.5,6.5,0,0,1,8.29-1.8l5.16,2.77a5.05,5.05,0,0,1,2,7.37l-34,49.77A6.52,6.52,0,0,1,972.05,877.14Z" transform="translate(511.05 467.08)"/><path class="cls-9" d="M1130.28,867.83l-4,1.76a4.77,4.77,0,0,1-6-1.8l-21.56-38.65a3.8,3.8,0,0,1,2-5.33l4-1.76a4.76,4.76,0,0,1,6,1.8l21.56,38.65A3.8,3.8,0,0,1,1130.28,867.83Z" transform="translate(511.05 467.08)"/></g></svg>