<svg xmlns="http://www.w3.org/2000/svg" xmlns:xlink="http://www.w3.org/1999/xlink" xmlns:fi="http://pattern.flaticon.com/" x="0" y="0" width="1000" height="500" viewBox="0 0 2692.3076923076924 1346.1538461538462"><rect x="0px" y="0px" width="100%" height="100%" opacity="1" fill="#2d2d4d"/><defs><g transform="matrix(0.11692168563604355 0 0 0.11692168563604355 276 225.00000034254413)" id="L1_2"><path d="M292.073,361.051L152.436,221.414l114.036-114.036C321.164,52.687,390.982,16.614,466.618,3.814  l20.945-3.491c1.164,0,2.327,0,3.491,0l0,0C502.691,0.323,512,9.632,512,21.269l0,0c0,1.164,0,2.327,0,3.491l-2.327,22.109  c-12.8,75.636-48.873,145.455-102.4,198.982L292.073,361.051z" fill="#d5e3ef"/><path d="M417.745,153.923l-166.4,166.4l40.727,40.727l114.036-114.036  c54.691-54.691,89.6-123.345,102.4-198.982l4.655-22.109c0-1.164,0-2.327,0-3.491c0-5.818-2.327-10.473-5.818-13.964  C489.891,61.996,459.636,112.032,417.745,153.923z" fill="#b0c4d9"/><g><path d="M297.891,471.596c-6.982-6.982-18.618-6.982-25.6,0c-9.309,9.309-15.127,38.4-16.291,39.564   c0,1.164,0,1.164,0,1.164s1.164,1.164,1.164,0c1.164,0,29.091-5.818,39.564-16.291   C306.036,489.051,306.036,478.578,297.891,471.596z" fill="#f79548"/><path d="M41.891,215.596c-6.982-6.982-18.618-6.982-25.6,0c-9.309,9.309-15.127,37.236-15.127,38.4   c0,1.164,0,1.164,0,1.164s1.164,1.164,1.164,0c1.164,0,29.091-5.818,39.564-16.291C50.036,233.051,50.036,222.578,41.891,215.596z" fill="#f79548"/><path d="M124.509,388.978c-20.945-20.945-55.855-20.945-76.8,0C18.618,418.069,1.164,503.014,0,506.505   c0,2.327,0,3.491,1.164,4.655c2.327,1.164,4.655,1.164,6.982,1.164c3.491-1.164,88.436-17.455,117.527-47.709   C146.618,443.669,146.618,409.923,124.509,388.978z" fill="#f79548"/></g><path d="M121.018,390.141c-10.473-10.473-27.927-10.473-38.4,0c-15.127,15.127-23.273,57.018-23.273,58.182  c0,1.164,0,2.327,1.164,2.327c1.164,1.164,1.164,1.164,2.327,1.164c2.327,0,44.218-9.309,58.182-23.273  C131.491,418.069,131.491,400.614,121.018,390.141z" fill="#fcbb76"/><path d="M303.709,419.232 268.8,384.323 338.618,314.505 338.618,384.323z" fill="#99b4cd"/><path d="M300.218,376.178l22.109-22.109c10.473-10.473,16.291-24.436,16.291-39.564l0,0L268.8,384.323  l34.909,34.909l11.636-11.636l-15.127-15.127C295.564,387.814,295.564,380.832,300.218,376.178z" fill="#6c9abb"/><path d="M326.982,489.051l-46.545-46.545l83.782-83.782c5.818-5.818,13.964-9.309,23.273-9.309l0,0  c18.618,0,32.582,15.127,32.582,32.582l0,0c0,9.309-3.491,17.455-9.309,23.273L326.982,489.051z" fill="#d5e3ef"/><path d="M410.764,381.996l-83.782,83.782l-34.909-34.909l-11.636,11.636l46.545,46.545l83.782-83.782  c5.818-5.818,9.309-13.964,9.309-23.273c0-4.655-1.164-8.145-2.327-11.636C416.582,375.014,414.255,378.505,410.764,381.996z" fill="#b0c4d9"/><path d="M94.255,326.141L94.255,326.141c8.145-8.145,17.455-13.964,26.764-16.291l19.782-6.982l69.818,69.818  l-6.982,19.782c-3.491,10.473-9.309,19.782-16.291,26.764l0,0L94.255,326.141z" fill="#99b4cd"/><path d="M140.8,302.869l-17.455,5.818l38.4,38.4c9.309,9.309,11.636,22.109,8.145,33.745l0,0  c-1.164,4.655-3.491,9.309-6.982,13.964l24.436,24.436c8.145-8.145,13.964-17.455,16.291-26.764l6.982-19.782L140.8,302.869z" fill="#6c9abb"/><path d="M94.255,209.778 129.164,244.687 198.982,174.869 129.164,174.869z" fill="#99b4cd"/><path d="M125.673,217.923c-4.655-4.655-4.655-11.636,0-16.291l26.764-26.764h-23.273l-34.909,34.909  l34.909,34.909l0,0c6.982-6.982,6.982-16.291,0-23.273L125.673,217.923z" fill="#6c9abb"/><path d="M24.436,186.505l46.545,46.545l83.782-83.782c5.818-5.818,9.309-13.964,9.309-23.273l0,0  c0-17.455-15.127-32.582-32.582-32.582l0,0c-9.309,0-17.455,3.491-23.273,9.309L24.436,186.505z" fill="#d5e3ef"/><circle cx="326" cy="186" r="46" fill="#70b7e5"/><path d="M326.982,244.687c-32.582,0-58.182-25.6-58.182-58.182s25.6-58.182,58.182-58.182  s58.182,25.6,58.182,58.182S359.564,244.687,326.982,244.687z M326.982,151.596c-19.782,0-34.909,15.127-34.909,34.909  s15.127,34.909,34.909,34.909s34.909-15.127,34.909-34.909S346.764,151.596,326.982,151.596z" fill="#ec4a81"/><path d="M308.364,216.76c-3.491-5.818-4.655-11.636-4.655-18.618c0-19.782,15.127-34.909,34.909-34.909  c6.982,0,12.8,2.327,18.618,4.655c-6.982-9.309-17.455-16.291-30.255-16.291c-19.782,0-34.909,15.127-34.909,34.909  C292.073,199.305,299.055,209.778,308.364,216.76z" fill="#4c9cd6"/><path d="M292.073,361.051l-38.4,38.4c-4.655,4.655-11.636,4.655-16.291,0L114.036,276.105  c-4.655-4.655-4.655-11.636,0-16.291l38.4-38.4L292.073,361.051z" fill="#f04d4e"/><path d="M205.964,333.123l-73.309-73.309c-4.655-4.655-12.8-4.655-18.618,0l0,0  c-4.655,4.655-4.655,11.636,0,16.291l123.345,123.345c4.655,4.655,11.636,4.655,16.291,0l38.4-38.4l-40.727-40.727l-12.8,12.8  C229.236,342.432,215.273,342.432,205.964,333.123z" fill="#ec4a81"/><rect x="297px" y="415px" width="48px" height="66px" transform="matrix(-0.7071 0.7071 -0.7071 -0.7071 866.2393 538.6636)" fill="#f04d4e"/><path d="M350.255,442.505l-16.291,16.291c-6.982,6.982-16.291,6.982-23.273,0l-23.273-23.273l-6.982,6.982  l46.545,46.545l34.909-34.909L350.255,442.505z" fill="#ec4a81"/><g><path d="M198.982,215.596c-1.164,0-3.491,0-4.655-1.164c-2.327-2.327-2.327-5.818,0-8.145l58.182-58.182   c2.327-2.327,5.818-2.327,8.145,0c2.327,2.327,2.327,5.818,0,8.145l-58.182,58.182   C202.473,215.596,200.145,215.596,198.982,215.596z" fill="#ecf0f9"/><path d="M280.436,134.141c-1.164,0-3.491,0-4.655-1.164c-2.327-2.327-2.327-5.818,0-8.145l23.273-23.273   c2.327-2.327,5.818-2.327,8.145,0s2.327,5.818,0,8.145l-23.273,23.273C283.927,134.141,281.6,134.141,280.436,134.141z" fill="#ecf0f9"/></g><path d="M492.218,0.323c-1.164,0-2.327,0-3.491,0l-22.109,3.491c-36.073,5.818-69.818,17.455-102.4,33.745  c0,0,20.945,20.945,55.855,55.855s55.855,55.855,55.855,55.855c16.291-32.582,26.764-66.327,33.745-102.4l3.491-20.945  c0-1.164,0-2.327,0-3.491C513.164,9.632,503.855,0.323,492.218,0.323z" fill="#f04d4e"/><g><path d="M408.436,48.032c-2.327,0-4.655-1.164-5.818-3.491c-1.164-3.491,0-5.818,3.491-6.982   c23.273-9.309,46.545-15.127,70.982-19.782c3.491,0,5.818,1.164,6.982,4.655c0,3.491-1.164,5.818-4.655,6.982   c-23.273,3.491-46.545,10.473-68.655,18.618C409.6,48.032,409.6,48.032,408.436,48.032z" fill="#f26a56"/><path d="M326.982,129.487v-1.164c-32.582,0-58.182,25.6-58.182,58.182h1.164   c5.818,0,10.473-3.491,11.636-9.309c1.164-8.145,5.818-15.127,10.473-20.945c6.982-6.982,15.127-12.8,25.6-15.127   C323.491,139.96,326.982,135.305,326.982,129.487z" fill="#f26a56"/></g><path d="M326.982,243.523v1.164c32.582,0,58.182-25.6,58.182-58.182H384c-5.818,0-10.473,3.491-11.636,9.309  c-1.164,8.145-5.818,15.127-10.473,20.945c-6.982,6.982-15.127,12.8-25.6,15.127C330.473,233.051,326.982,237.705,326.982,243.523z" fill="#ec4a81"/><path d="M350.255,401.778c-1.164,0-3.491,0-4.655-1.164c-2.327-2.327-2.327-5.818,0-8.145l23.273-23.273  c2.327-2.327,5.818-2.327,8.145,0c2.327,2.327,2.327,5.818,0,8.145l-23.273,23.273C353.745,401.778,351.418,401.778,350.255,401.778  z" fill="#ecf0f9"/><path d="M154.764,125.996l-83.782,83.782l-34.909-34.909l-11.636,11.636l46.545,46.545l83.782-83.782  c5.818-5.818,9.309-13.964,9.309-23.273c0-4.655-1.164-8.145-2.327-11.636C160.582,119.014,158.255,122.505,154.764,125.996z" fill="#b0c4d9"/><path d="M94.255,145.778c-1.164,0-3.491,0-4.655-1.164c-2.327-2.327-2.327-5.818,0-8.145l23.273-23.273  c2.327-2.327,5.818-2.327,8.145,0s2.327,5.818,0,8.145l-23.273,23.273C97.745,145.778,95.418,145.778,94.255,145.778z" fill="#ecf0f9"/><rect x="41px" y="159px" width="48px" height="66px" transform="matrix(-0.7071 0.7071 -0.7071 -0.7071 248.1529 282.6833)" fill="#f04d4e"/><g><path d="M94.255,186.505l-16.291,16.291c-6.982,6.982-16.291,6.982-23.273,0l-23.273-23.273l-6.982,6.982   l46.545,46.545l34.909-34.909L94.255,186.505z" fill="#ec4a81"/><path d="M446.836,120.178l29.091,29.091c16.291-32.582,26.764-66.327,33.745-102.4l3.491-20.945   c0-1.164,0-2.327,0-3.491c0-5.818-2.327-10.473-5.818-13.964C494.545,48.032,473.6,86.432,446.836,120.178z" fill="#ec4a81"/></g></g><g transform="matrix(0.1171875 0 0 0.1171875 28.99999914169308 28)" id="L1_3"><path d="M306.18,310.122C185.685,248.037,185.729,97.674,185.744,18.047v-3.061  c0-6.311-3.953-11.948-9.884-14.101c-5.916-2.123-12.578-0.352-16.635,4.495L95.83,81.462l-0.051,0.06L32.332,5.381  c-4.056-4.847-10.719-6.618-16.635-4.495c-5.93,2.152-9.883,7.79-9.883,14.101c0,209.773,133.117,347.572,264.594,373.168  c0.967,0.19,1.933,0.278,2.885,0.278c7.028,0,13.31-4.964,14.701-12.124l8.5-15.864l16.144-30.129  C316.43,322.949,313.546,313.915,306.18,310.122z" fill="#fedb41"/><path d="M95.83,81.462l-0.051,0.06L32.332,5.381c-4.056-4.847-10.719-6.618-16.635-4.495  c-5.93,2.152-9.883,7.79-9.883,14.101c0,209.773,133.117,347.572,264.594,373.168c0.967,0.19,1.933,0.278,2.885,0.278  c7.028,0,13.31-4.964,14.701-12.124l8.5-15.864C202.739,318.787,118.588,219.955,95.83,81.462z" fill="#ffcc33"/><path d="M501.668,395.046l-57.279-55.779l13.495-78.569c1.201-5.698-1.199-11.396-5.998-14.694  c-4.497-3.299-10.495-3.898-15.593-1.199L365.82,281.99l-70.772-37.186c-5.097-2.7-11.096-2.099-15.893,1.199  c-4.499,3.299-6.898,8.997-5.698,14.694l13.494,78.569l-57.277,55.779c-3.898,3.897-5.398,9.895-3.898,15.292  c1.799,5.398,6.598,9.296,12.294,10.197l78.869,11.396l35.388,71.672c2.398,5.097,7.497,8.396,13.494,8.396  c5.698,0,10.797-3.299,13.195-8.396l35.386-71.672l78.869-11.396c5.698-0.901,10.497-4.799,12.296-10.197  C507.066,404.941,505.867,398.944,501.668,395.046z" fill="#fea832"/><path d="M505.567,410.339c-1.799,5.398-6.598,9.296-12.296,10.197l-78.869,11.396l-35.386,71.672  c-2.398,5.097-7.497,8.396-13.195,8.396c-5.997,0-11.096-3.299-13.494-8.396l-35.388-71.672l134.948-185.928  c4.799,3.299,7.199,8.997,5.998,14.694l-13.495,78.569l57.279,55.779C505.867,398.944,507.066,404.941,505.567,410.339z" fill="#fe9923"/><g><circle cx="470" cy="197" r="14" fill="#fea832"/><circle cx="410" cy="77" r="14" fill="#fea832"/><path d="M396.409,165.935c0,8.396-6.596,14.994-14.994,14.994h-14.994v14.994   c0,8.396-6.596,14.994-14.994,14.994c-8.398,0-14.994-6.598-14.994-14.994V180.93h-14.994c-8.398,0-14.994-6.598-14.994-14.994   c0-8.398,6.596-14.994,14.994-14.994h14.994v-14.994c0-8.398,6.596-14.994,14.994-14.994c8.398,0,14.994,6.596,14.994,14.994   v14.994h14.994C389.813,150.941,396.409,157.538,396.409,165.935z" fill="#fea832"/></g><path d="M396.409,165.935c0,8.396-6.596,14.994-14.994,14.994h-14.994v14.994  c0,8.396-6.596,14.994-14.994,14.994v-89.965c8.398,0,14.994,6.596,14.994,14.994v14.994h14.994  C389.813,150.941,396.409,157.538,396.409,165.935z" fill="#fe9923"/><path d="M186.491,435.83c0,8.396-6.596,14.994-14.994,14.994h-14.994v14.994  c0,8.396-6.596,14.994-14.994,14.994s-14.994-6.598-14.994-14.994v-14.994H111.52c-8.398,0-14.994-6.598-14.994-14.994  c0-8.398,6.596-14.994,14.994-14.994h14.994v-14.994c0-8.398,6.596-14.994,14.994-14.994s14.994,6.596,14.994,14.994v14.994h14.994  C179.894,420.836,186.491,427.433,186.491,435.83z" fill="#fea832"/><path d="M186.491,435.83c0,8.396-6.596,14.994-14.994,14.994h-14.994v14.994  c0,8.396-6.596,14.994-14.994,14.994v-89.965c8.398,0,14.994,6.596,14.994,14.994v14.994h14.994  C179.894,420.836,186.491,427.433,186.491,435.83z" fill="#fe9923"/></g><g transform="matrix(0.1190185695886612 0 0 0.1190185695886612 127 142.00000050850213)" id="L1_5"><ellipse cx="252px" cy="330px" rx="83px" ry="32px" fill="#ffaa00"/><path d="M252.069,297.504c46.167,0,83.566,14.675,83.566,32.8s-37.4,32.815-83.566,32.815" fill="#ff7f00"/><path d="M504.123,275.259c0,34.981-112.861,63.354-252.062,63.354C112.853,338.613,0,310.24,0,275.259  s112.853-79.525,252.062-79.525C391.263,195.742,504.123,240.278,504.123,275.259z" fill="#09b2a5"/><path d="M504.123,275.259c0,34.981-112.861,63.354-252.062,63.354C112.853,338.613,0,310.24,0,275.259  s112.853-70.601,252.062-70.601C391.263,204.658,504.123,240.278,504.123,275.259z" fill="#089992"/><path d="M504.123,275.259c0,34.981-112.861,63.354-252.062,63.354C112.853,338.613,0,310.24,0,275.259  s112.853-1.355,252.062-1.355C391.263,273.904,504.123,240.278,504.123,275.259z" fill="#048389"/><path d="M354.469,214.599c-6.451-41.511-49.782-73.633-102.408-73.633  c-52.602,0-95.941,32.122-102.392,73.633H354.469z" fill="#a0eaea"/><path d="M149.669,214.599h204.8c-6.451-41.511-49.782-73.633-102.408-73.633" fill="#79ccc8"/><g><path d="M304.301,214.599v-8.751c0-8.94-7.239-16.187-16.179-16.187h-72.105   c-8.94,0-16.187,7.247-16.187,16.187v8.751H304.301z" fill="#66bcb5"/><path d="M354.469,214.599c-6.451-41.511-49.782-73.633-102.408-73.633" fill="#66bcb5"/></g><path d="M366.931,215.906c0,0.969-0.796,1.772-1.772,1.772H141.241c-0.992,0-1.78-0.803-1.78-1.772l0,0  c0-0.969,0.788-1.772,1.78-1.772h223.925C366.135,214.142,366.931,214.938,366.931,215.906L366.931,215.906z" fill="#09b2a5"/><path d="M77.706,236c1.457,2.812-1.126,7.034-2.221,7.617l0,0c-1.119,0.567-6.042,0.244-7.499-2.568  l-24.781-54.721c-1.449-2.796-1.733-5.553-0.614-6.12l0,0c1.111-0.567,3.198,1.229,4.647,4.033L77.706,236z" fill="#048389"/><path d="M43.197,186.321c-1.449-2.796-1.733-5.553-0.614-6.12l0,0c1.111-0.567,3.198,1.229,4.647,4.033  L77.706,236c1.457,2.812-1.126,7.034-2.221,7.617l0,0" fill="#089992"/><path d="M65.843,278.843 34.706,273.243 69.742,238.214 75.335,243.814z" fill="#048389"/><circle cx="42" cy="179" r="8" fill="#ff7f00"/><path d="M36.384,173.694c3.426-3.434,8.972-3.419,12.398,0c3.411,3.419,3.434,8.972,0,12.398" fill="#ffaa00"/><path d="M426.417,236c-1.449,2.812,1.126,7.034,2.229,7.617l0,0c1.118,0.567,6.034,0.244,7.491-2.568  l24.781-54.721c1.457-2.796,1.741-5.553,0.614-6.12l0,0c-1.111-0.567-3.182,1.229-4.632,4.033L426.417,236z" fill="#048389"/><path d="M460.926,186.321c1.457-2.796,1.741-5.553,0.614-6.12l0,0c-1.111-0.567-3.182,1.229-4.632,4.033  L426.417,236c-1.449,2.812,1.126,7.034,2.229,7.617l0,0" fill="#089992"/><path d="M438.288,278.843 469.425,273.243 434.381,238.214 428.788,243.814z" fill="#048389"/><circle cx="461" cy="179" r="8" fill="#ff7f00"/><path d="M467.747,173.694c-3.426-3.434-8.972-3.419-12.398,0c-3.411,3.419-3.426,8.972,0,12.398" fill="#ffaa00"/><path d="M47.002,267.169c0,4.844,0.63,13.32-4.222,13.32c-4.829,0-13.296-8.476-13.296-13.32  c0-4.829,3.923-8.751,8.751-8.751C43.079,258.418,47.002,262.341,47.002,267.169z" fill="#04727a"/><circle cx="38" cy="267" r="8" fill="#bfd7e2"/><path d="M32.035,260.986c3.442-3.45,8.964-3.434,12.398-0.016c3.419,3.434,3.434,8.972,0,12.398" fill="#aac7d1"/><path d="M94.515,267.169c0,4.844,0.63,13.32-4.222,13.32c-4.829,0-13.296-8.476-13.296-13.32  c0-4.829,3.915-8.751,8.751-8.751C90.592,258.418,94.515,262.341,94.515,267.169z" fill="#04727a"/><circle cx="85" cy="267" r="8" fill="#bfd7e2"/><path d="M79.557,260.986c3.434-3.45,8.972-3.434,12.398-0.016c3.403,3.434,3.434,8.972,0,12.398" fill="#aac7d1"/><path d="M142.021,267.169c0,4.844,0.638,13.32-4.214,13.32c-4.829,0-13.296-8.476-13.296-13.32  c0-4.829,3.907-8.751,8.751-8.751S142.021,262.341,142.021,267.169z" fill="#04727a"/><circle cx="133" cy="267" r="8" fill="#bfd7e2"/><path d="M127.071,260.986c3.426-3.45,8.972-3.434,12.39-0.016c3.419,3.434,3.434,8.972,0,12.398" fill="#aac7d1"/><path d="M189.535,267.169c0,4.844,0.63,13.32-4.214,13.32c-4.829,0-13.304-8.476-13.304-13.32  c0-4.829,3.923-8.751,8.759-8.751C185.62,258.418,189.535,262.341,189.535,267.169z" fill="#04727a"/><circle cx="180" cy="267" r="8" fill="#bfd7e2"/><path d="M174.584,260.986c3.426-3.45,8.972-3.434,12.398-0.016c3.419,3.434,3.419,8.972,0,12.398" fill="#aac7d1"/><path d="M237.056,267.169c0,4.844,0.63,13.32-4.214,13.32c-4.829,0-13.296-8.476-13.296-13.32  c0-4.829,3.915-8.751,8.751-8.751C233.141,258.418,237.056,262.341,237.056,267.169z" fill="#04727a"/><circle cx="228" cy="267" r="8" fill="#bfd7e2"/><path d="M222.098,260.986c3.426-3.45,8.972-3.434,12.398-0.016c3.411,3.434,3.426,8.972,0,12.398" fill="#aac7d1"/><path d="M284.57,267.169c0,4.844,0.63,13.32-4.214,13.32c-4.836,0-13.296-8.476-13.296-13.32  c0-4.829,3.915-8.751,8.743-8.751C280.655,258.418,284.57,262.341,284.57,267.169z" fill="#04727a"/><circle cx="275" cy="267" r="8" fill="#bfd7e2"/><path d="M269.611,260.986c3.434-3.45,8.98-3.434,12.398-0.016c3.419,3.434,3.426,8.972,0,12.398" fill="#aac7d1"/><path d="M332.083,267.169c0,4.844,0.622,13.32-4.222,13.32c-4.829,0-13.296-8.476-13.296-13.32  c0-4.829,3.915-8.751,8.751-8.751C328.168,258.418,332.083,262.341,332.083,267.169z" fill="#04727a"/><circle cx="323" cy="267" r="8" fill="#bfd7e2"/><path d="M317.125,260.986c3.434-3.45,8.98-3.434,12.398-0.016c3.419,3.434,3.434,8.972,0,12.398" fill="#aac7d1"/><path d="M379.597,267.169c0,4.844,0.63,13.32-4.214,13.32c-4.836,0-13.296-8.476-13.296-13.32  c0-4.829,3.915-8.751,8.743-8.751C375.682,258.418,379.597,262.341,379.597,267.169z" fill="#04727a"/><circle cx="370" cy="267" r="8" fill="#bfd7e2"/><path d="M364.639,260.986c3.434-3.45,8.98-3.434,12.398-0.016c3.419,3.434,3.434,8.972,0,12.398" fill="#aac7d1"/><path d="M427.11,267.169c0,4.844,0.63,13.32-4.214,13.32c-4.829,0-13.296-8.476-13.296-13.32  c0-4.829,3.923-8.751,8.751-8.751C423.203,258.418,427.11,262.341,427.11,267.169z" fill="#04727a"/><circle cx="418" cy="267" r="8" fill="#bfd7e2"/><path d="M412.152,260.986c3.434-3.45,8.972-3.434,12.398-0.016c3.419,3.434,3.434,8.972,0,12.398" fill="#aac7d1"/><path d="M474.632,267.169c0,4.844,0.63,13.32-4.23,13.32c-4.829,0-13.296-8.476-13.296-13.32  c0-4.829,3.923-8.751,8.751-8.751C470.709,258.418,474.632,262.341,474.632,267.169z" fill="#04727a"/><circle cx="465" cy="267" r="8" fill="#bfd7e2"/><path d="M459.658,260.986c3.442-3.45,8.98-3.434,12.406-0.016c3.411,3.434,3.434,8.972,0,12.398" fill="#aac7d1"/><g><path d="M271.525,228.171c0,0.693-0.567,1.26-1.26,1.26h-36.399c-0.693,0-1.26-0.567-1.26-1.26l0,0   c0-0.709,0.567-1.26,1.26-1.26h36.399C270.95,226.911,271.525,227.462,271.525,228.171L271.525,228.171z" fill="#048389"/><path d="M271.525,237.261c0,0.709-0.567,1.26-1.26,1.26h-36.399c-0.693,0-1.26-0.551-1.26-1.26l0,0   c0-0.693,0.567-1.26,1.26-1.26h36.399C270.95,236,271.525,236.568,271.525,237.261L271.525,237.261z" fill="#048389"/><path d="M271.525,246.367c0,0.693-0.567,1.26-1.26,1.26h-36.399c-0.693,0-1.26-0.567-1.26-1.26l0,0   c0-0.709,0.567-1.276,1.26-1.276h36.399C270.95,245.09,271.525,245.658,271.525,246.367L271.525,246.367z" fill="#048389"/></g></g></defs><g fi:class="KUsePattern"><pattern id="pattern_L1_2" width="350" height="350" patternUnits="userSpaceOnUse"><use xlink:href="#L1_2" x="-350" y="-350"/><use xlink:href="#L1_2" x="0" y="-350"/><use xlink:href="#L1_2" x="350" y="-350"/><use xlink:href="#L1_2" x="-350" y="0"/><use xlink:href="#L1_2" x="0" y="0"/><use xlink:href="#L1_2" x="350" y="0"/><use xlink:href="#L1_2" x="-350" y="350"/><use xlink:href="#L1_2" x="0" y="350"/><use xlink:href="#L1_2" x="350" y="350"/></pattern><rect x="0" y="0" width="100%" height="100%" fill="url(#pattern_L1_2)"/></g><g fi:class="KUsePattern"><pattern id="pattern_L1_3" width="350" height="350" patternUnits="userSpaceOnUse"><use xlink:href="#L1_3" x="-350" y="-350"/><use xlink:href="#L1_3" x="0" y="-350"/><use xlink:href="#L1_3" x="350" y="-350"/><use xlink:href="#L1_3" x="-350" y="0"/><use xlink:href="#L1_3" x="0" y="0"/><use xlink:href="#L1_3" x="350" y="0"/><use xlink:href="#L1_3" x="-350" y="350"/><use xlink:href="#L1_3" x="0" y="350"/><use xlink:href="#L1_3" x="350" y="350"/></pattern><rect x="0" y="0" width="100%" height="100%" fill="url(#pattern_L1_3)"/></g><g fi:class="KUsePattern"><pattern id="pattern_L1_5" width="350" height="350" patternUnits="userSpaceOnUse"><use xlink:href="#L1_5" x="-350" y="-350"/><use xlink:href="#L1_5" x="0" y="-350"/><use xlink:href="#L1_5" x="350" y="-350"/><use xlink:href="#L1_5" x="-350" y="0"/><use xlink:href="#L1_5" x="0" y="0"/><use xlink:href="#L1_5" x="350" y="0"/><use xlink:href="#L1_5" x="-350" y="350"/><use xlink:href="#L1_5" x="0" y="350"/><use xlink:href="#L1_5" x="350" y="350"/></pattern><rect x="0" y="0" width="100%" height="100%" fill="url(#pattern_L1_5)"/></g></svg>