<svg viewBox="0 0 756.97 511.65" xmlns="http://www.w3.org/2000/svg" xmlns:xlink="http://www.w3.org/1999/xlink"><clipPath id="a"><path d="m0 1.93h750v500h-750z"/></clipPath><g clip-path="url(#a)"><path d="m0 1.93h750v500h-750z" fill="#e6e6e6"/><path d="m519.15 387.08c0 5.83-3.45 8.69-8.89 7-7.24-2.23-14.41-4.7-21.59-7.13-3.59-1.22-6.76-3.7-6-7.49a18.4 18.4 0 0 1 5.29-10c1.38-1.2 5.7.73 8.59 1.57 4.8 1.4 9.47 3.25 14.29 4.56 3.25.91 8.3 7.41 8.31 11.49z" fill="#3d464e"/><path d="m420.2 120.82c4.88 3.17 5.38 7.64 1 11.28-5.83 4.84-11.82 9.49-17.78 14.17-3 2.34-6.79 3.64-9.57 1a18.41 18.41 0 0 1 -5.49-9.91c-.25-1.81 3.73-4.37 6-6.33 3.8-3.25 7.9-6.15 11.63-9.47 2.58-2.3 10.82-2.95 14.21-.74z" fill="#c1d4d2"/><path d="m655.88 294.64c-3.19-1.89-6.2-2.71-7.57-4.67-3.63-5.21-8.9-9.54-9.68-16.48a8.51 8.51 0 0 0 -1.5-3.09c-2.18-3.6-1.36-7.61 2.42-9.51 1-.49 3.19.11 4 1a24 24 0 0 0 13.77 7.24 7.27 7.27 0 0 1 4.69 3.77c1.69 4.09 2.63 8.49 3.82 12.78.13.44.11 1.21-.16 1.42-3.21 2.55-6.51 5.04-9.79 7.54z" fill="#3d464e"/><path d="m592.67 19.56c-1.72 4.23-2.17 8-4.3 10.06-5.66 5.38-10 12.57-18.26 14.8-1.29.34-2.4 1.49-3.48 2.39-4 3.31-9 3-12-1.2-.77-1.09-.45-3.9.46-5.09a29.55 29.55 0 0 0 6.27-18.07 8.9 8.9 0 0 1 3.72-6.39c4.66-2.81 9.85-4.76 14.84-7 .51-.23 1.45-.35 1.76-.06 3.71 3.47 7.32 7 10.99 10.56z" fill="#3d464e"/><path d="m598.29 252c-1.37.86-2.95 2.58-4.72 2.82-3 .4-5 1.21-5.87 4.32-.87 2.92-3.47 3.72-5.38 1.63a37.55 37.55 0 0 1 -5.93-9.4c-1.07-2.27-2.48-5.91-1.46-7.37a59.27 59.27 0 0 1 10.83-11.5c3.28-2.74 5.73-1.49 8.52 4.87 1.84 4.14 2.49 8.83 4.01 14.63z" fill="#3d464e"/><path d="m356.73 341.49c-1.45-.75-3.73-1.24-4.83-2.65-1.85-2.36-3.55-3.65-6.69-2.88-3 .73-5-1.1-4.13-3.81a37.48 37.48 0 0 1 5.1-9.87c1.42-2.08 3.85-5.13 5.62-5a59.54 59.54 0 0 1 15.4 3.52c4 1.44 4.18 4.19.12 9.82-2.68 3.7-6.4 6.64-10.59 10.87z" fill="#7a8da0"/><path d="m603.73 109.49c-1.45-.75-3.73-1.24-4.83-2.65-1.85-2.36-3.55-3.65-6.69-2.88-3 .73-5-1.1-4.13-3.81a37.48 37.48 0 0 1 5.1-9.87c1.42-2.08 3.85-5.13 5.62-5a59.54 59.54 0 0 1 15.4 3.52c4 1.44 4.18 4.19.12 9.82-2.68 3.7-6.4 6.64-10.59 10.87z" fill="#c1d4d2"/><path d="m519.39 304.24c8.28 1.54 14.68 4.06 18.37 10.69 3.49 6.28.57 12-3.68 16.81a9 9 0 0 1 -6.57 2.49c-6.8-.52-13.55-1.79-20.32-2.67-2.64-.35-5.9.42-7.83-.87-3.1-2.09-6.21-5.12-7.55-8.46-.59-1.48 2.62-5.62 5-7 7.29-4.04 15.02-7.37 22.58-10.99z" fill="#dedede"/><path d="m283.64 247.34c-4.88.81-9.75 1.7-14.64 2.38-1.72.24-3.94.64-5.19-.17-3.43-2.24-6-16.79-3.53-20 3.71-4.85 9.12-3.88 13.85-2.45 5 1.49 9.66 4 14.28 6.41 3.47 1.81 5.77 4.89 3.49 8.76-1.65 2.82-4.45 5-6.74 7.42z" fill="#c1d4d2"/><path d="m129.07 420.44c.53 5.74 1.17 11.47 1.56 17.22.14 2 .42 4.63-.63 6-2.89 3.81-20 5.6-23.57 2.46-5.33-4.72-3.75-10.93-1.7-16.31 2.15-5.65 5.45-10.9 8.64-16.08 2.38-3.88 6.16-6.31 10.48-3.34 3.14 2.16 5.41 5.59 8.07 8.45z" fill="#dedede"/><path d="m383.7 232.78c-2.82-2.24-4.82-3.31-6.09-4.95a67.69 67.69 0 0 1 -5.81-9.12c-.49-.89-.5-2.78.1-3.4 3.07-3.17 6.06-6.69 9.8-8.84 1.9-1.09 5.87-.38 7.89 1 2.63 1.8 3.94 4.61 1.42 8.48-1.95 3-1.78 7.26-3 10.78-.74 1.93-2.46 3.49-4.31 6.05z" fill="#d7af85"/><path d="m395.17 291.76c-5.29.18-13.1-6.5-12.18-9.82.55-2 3.41-3.58 5.57-4.73 1.82-1 4.19-.83 6.18-1.57 5.12-1.89 10.18-.2 11.63 4.08 1.26 3.73-2.46 10.12-6.78 11.34a25.51 25.51 0 0 1 -4.42.7z" fill="#f1f1f1"/><path d="m514.17 469.76c-5.29.18-13.1-6.5-12.18-9.82.55-2 3.41-3.58 5.57-4.73 1.82-1 4.19-.83 6.18-1.57 5.12-1.89 10.18-.2 11.63 4.08 1.26 3.73-2.46 10.12-6.78 11.34a25.51 25.51 0 0 1 -4.42.7z" fill="#dedede"/><path d="m547 232.68c-2.08.06-7.44-7.93-7.38-11 .07-4.49 3-9.47 5.53-9.52 7-.15 14.78 6.56 14.54 12.45-.08 2.74-8.29 7.96-12.69 8.07z" fill="#a1acb7"/><path d="m340.06 272.47 5.55-3.83c5.07 1.45 8.28 10.5 5 16.27-5.36 9.54-14.82 13.93-24.84 16.61-4.27 1.14-7.51-4.37-6-9.1 2.2-6.72 4.18-13.53 6.76-20.1 1.19-3 3.57-5.61 5.42-8.39 1.84 2.14 3.66 4.29 5.54 6.4a31.42 31.42 0 0 0 2.57 2.14z" fill="#c1d4d2"/><path d="m454.38 237.79c1 5.56 1 10.59-4.27 13-6 2.69-10.84 0-15.07-4.51-3.92-4.22-4-6.51.51-8.77.83-.42 2.23-.88 2.76-.5 4.36 3.15 8.88 1.6 13.4.82a16.63 16.63 0 0 1 2.67-.04z" fill="#7a8da0"/><path d="m598.06 331.51c2.7.43 4.34.33 5.57 1 1.51.8 3.28 2 3.75 3.47.29.86-1.7 2.45-2.62 3.75-5.26 7.41-11.88 5.49-18.52 2.55a34 34 0 0 1 -5-3.33c1.54-1.33 2.87-3.22 4.66-3.88 4.26-1.6 8.77-2.61 12.16-3.56z" fill="#d7af85"/><path d="m522 138.51c15.35-4.42 23.29.46 22.19 16.14-.45 6.29-7.92 12.35-13 17.78-.85.91-5.82-1.76-8.7-3.15-.9-.43-.94-2.54-1.85-3.12-11.08-6.93-8.91-13.42.12-20.37 1.36-1.02.85-4.43 1.24-7.28z" fill="#d7af85"/><path d="m428 319.1c1.39.14 1.17 2 1.79 2.78 1.87 2.22 5.75 4.82 5.36 6.48-1 4.16-3.61 8-6.05 11.69-.83 1.23-3.38 2.45-4.55 2s-2.42-2.71-2.78-4.36c-1.23-5.43-.38-19.27 6.23-18.59z" fill="#d7af85"/><path d="m271.32 286.13c-1.39-3.41-.46-6.47 2.46-9a16 16 0 0 0 3-2.61c2.1-3.13 4.51-4.08 8-2.07 3.75 2.19 5.14 5.46 4.76 9.59a2.64 2.64 0 0 1 -1.22 2 58.63 58.63 0 0 1 -8.71 2.07 66.81 66.81 0 0 1 -8.29.02z" fill="#f1f1f1"/><path d="m508.54 268c.23-3.52 1.65-6.23 5.79-5.33a63.84 63.84 0 0 1 10.67 3.53 3.77 3.77 0 0 1 1.72 3.1c-.49 3.77-7.51 7.36-11.23 6.46-4.25-1.03-7.57-2.44-6.95-7.76z" fill="#dedede"/><path d="m164.73 443.14c-3.49-.48-6.09-2.11-4.88-6.17a64 64 0 0 1 4.29-10.35 3.75 3.75 0 0 1 3.22-1.49c3.72.76 6.78 8 5.61 11.68-1.34 4.19-2.97 7.34-8.24 6.33z" fill="#c1d4d2"/><path d="m303.81 29.3c3.12-3.33 4.94-6.08 7.48-7.62 1-.62 4.17.9 5.44 2.28 1.82 1.95 2.65 4.46-.3 6.84-1.35 1.1-1.89 3.21-2.8 4.86a26.42 26.42 0 0 1 -2.23 4 27.57 27.57 0 0 1 -3.4 3.1l-7.6.34c-1.42-4.51-1.42-4.51 9.35-7-1.47-2.45 1.77-7.4-5.94-6.8z" fill="#3d464e"/><path d="m271.81 323.83c-1.5 1.62-4.6 7.19-9.33 9.72-10.11 5.41-36.89-1.5-41.7-11.55-3.46-7.22-5.59-17.51-2.95-24.38 1.74-4.54 12.83-7.09 20-7.68 23.64-1.94 33.23 6.82 33.98 33.89z" fill="#dedede"/><path d="m563.94 278.8c-1.06 3.23-5.67 6.92-8.75 7-2.52.05-6.93-4.27-5.69-6.18 2.09-3.24 5.52-5.61 8.39-8.35z" fill="#f1f1f1"/><path d="m415.63 262.22c1.55 0 3.2-.35 4.62.07 3.58 1 9.53 10.15 9.09 13.89a4.33 4.33 0 0 1 -1.88 2.95c-.59.33-2.31-.36-2.84-1.1-3.45-4.72-6.72-9.59-10-14.41z" fill="#d7af85"/><path d="m452.82 292.16-6.07-5c-.38-.81-1.35-2.65-2.09-4.58-.38-1-.85-2.67-.41-3.05a5.33 5.33 0 0 1 3.45-1c2.34.11 4.67.81 7 .84 3.39 0 4.55 2.89 2.38 7.8-.91 2.05-3.01 3.58-4.26 4.99z" fill="#f1f1f1"/><path d="m568.07 304.48c1.35 1.82 3.14 3.46 4 5.5a54.72 54.72 0 0 1 2.72 10c.2 1-.48 2.91-1.21 3.18s-3-.36-3.27-1.1c-2-5.36-5-10.6-3.76-16.62z" fill="#f1f1f1"/><path d="m278 185.67c1.27 2.44 2.36 4.54 3.25 6.27a47.72 47.72 0 0 1 -3.09 6.25 15.1 15.1 0 0 1 -4.06 3.82c-.33.23-2.19-.76-2.34-1.42-1.2-5.48 1.9-12.29 6.24-14.92z" fill="#3d464e"/><path d="m390.62 343.17c-1.86 1.07-4.16 3.31-6.7 3.63a4.44 4.44 0 0 1 -5-5.31c.43-2.06 3.05-5.14 4.69-5.15 3.06-.01 6.69 1.23 7.01 6.83z" fill="#f1f1f1"/><path d="m297.21 154.07c-2.8.88-2.8.88-3.18 10.42l-8.68-1.13c-2.07-6.66 4.08-8 7.19-11.09.78-.76 3.22.18 4.9.34z" fill="#f1f1f1"/><path d="m227.22 205.67c-2.34 1.78-4.42 3.68-4.64 3.49-2.48-2.18-4.67-4.68-6.93-7.1l4.78-4.39c2.02 2.39 4.05 4.77 6.79 8z" fill="#f1f1f1"/><path d="m157.13 298c8-8.54 8-8.54 12.23-8.22-1.55 3.44-2.31 7.11-4.53 9.3-1.43 1.41-5 .66-7.6.88z" fill="#f1f1f1"/><path d="m598.5 163.45-7 7c-.69-1.5-2.36-3.53-1.89-4.4 1.36-2.51 3.58-4.56 5.46-6.78z" fill="#dedede"/><path d="m122.7 282.86 10.49 8.78c-5.37 3.36-9.96-.31-10.49-8.78z" fill="#f1f1f1"/><path d="m456 219.36c-1.17-1.59-2.26-2.69-2.11-2.91 1.75-2.43 3.68-4.73 5.56-7.07.91 1 2.74 2.62 2.58 2.84-1.69 2.34-3.69 4.46-6.03 7.14z" fill="#f1f1f1"/><path d="m360.75 162.16-6.71.33c-.09-2.28-.19-4.56-.28-6.84l7.52 3.39z" fill="#f1f1f1"/><path d="m223.75 252.87a67 67 0 0 1 -8.49-1.32c-.79-.22-1.73-2.15-1.51-3a3.58 3.58 0 0 1 2.71-2.17c3.34.3 6.37 1.44 7.29 6.49z" fill="#f1f1f1"/><path d="m508.47 251.25c-1.5-1.82-2.94-4.58.13-6.55 1.55-1 4.27-.18 6.46-.18.2.56.39 1.12.58 1.68z" fill="#f1f1f1"/><path d="m341.42 129.91-8.76-2c3.13-4.07 6.57-2.83 9.07-1.26 3.7 2.32 1 5.38-.76 8.09z" fill="#f1f1f1"/><path d="m490.62 246.21c-1.58 2.31-3.31 4.77-6.56 2.62-.9-.59-.73-2.79-1.05-4.26l7.44-.44c.06.7.11 1.39.17 2.08z" fill="#3d464e"/><g fill="#f1f1f1"><path d="m629.76 214.64c-2.15 2.08-3.44 5.56-6.84 3-.71-.55-.61-3.42.16-4.39 2.44-3.1 4.49-1.14 6.68 1.39z"/><path d="m246.43 180.54 10.57-6.77c.94 3.93 2.84 6.82-3 6-2.2-.32-4.66 1.26-7 2z"/><path d="m329.39 366.11-4.1 4.15c-1-1.28-2.55-2.44-2.87-3.88-.15-.69 1.84-2.35 3.11-2.69.79-.21 2.02 1.21 3.86 2.42z"/><path d="m250.39 358.11-4.1 4.15c-1-1.28-2.55-2.44-2.87-3.88-.15-.69 1.84-2.35 3.11-2.69.79-.21 2.02 1.21 3.86 2.42z"/><path d="m268.39 415.11-4.1 4.15c-1-1.28-2.55-2.44-2.87-3.88-.15-.69 1.84-2.35 3.11-2.69.79-.21 2.02 1.21 3.86 2.42z"/><path d="m199.39 447.11-4.1 4.15c-1-1.28-2.55-2.44-2.87-3.88-.15-.69 1.84-2.35 3.11-2.69.79-.21 2.02 1.21 3.86 2.42z"/><path d="m45.39 351.11-4.1 4.15c-1-1.28-2.55-2.44-2.87-3.88-.15-.69 1.84-2.35 3.11-2.69.79-.21 2.02 1.21 3.86 2.42z"/><path d="m171.39 368.11-4.1 4.15c-1-1.28-2.55-2.44-2.87-3.88-.15-.69 1.84-2.35 3.11-2.69.79-.21 2.02 1.21 3.86 2.42z"/><path d="m319.31 225.32c1 1.52 2.39 2.94 2.93 4.61.2.62-1.62 2.72-2.32 2.63-1.17-.16-2.87-1.4-3.07-2.43-.26-1.43.66-3.08 1.07-4.63z"/><path d="m374.77 258.92a35.14 35.14 0 0 1 -5.69 1.89c-.57.1-1.4-1.29-2.1-2 1.39-1.16 2.63-2.8 4.22-3.28.94-.29 2.44 1.24 3.69 2z"/><path d="m424.21 174.75c-2.2 5-5.25 5.74-10.85 2.4z"/><path d="m235.69 152.75c-3.41 3.71-2.73 7 1 10l-1.4.86c-1.81-2.19-4.32-4.15-5.14-6.67-.39-1.19 2.42-3.44 3.79-5.21z"/><path d="m458.53 167.35c2.49-.15 5-.36 7.48-.31a14.49 14.49 0 0 1 .48 2.89h-7.81z"/></g><path d="m388.41 55.8c1.87 1.7 3.22 6.5.9 9.06-5.09 5.61-15.79 4.56-22.5 0-1.4-1-6.17-5.26-3.58-9.06 4.44-6.54 18.02-6.48 25.18 0z" fill="#dedede"/><path d="m342 223.29-2.85 5.24c-1-1.28-2.93-2.73-2.73-3.78.25-1.3 2.27-2.26 3.53-3.36z" fill="#f1f1f1"/><path d="m486.09 198.86-7 4.49v-7.64z" fill="#3d464e"/><path d="m189.72 198.1-8.11 6.31c.43-2.5.18-5.12 1.37-6.54.73-.87 3.64.04 6.74.23z" fill="#f1f1f1"/><path d="m458.2 353.53c.42-1.74.49-3.61 1-3.72a78.46 78.46 0 0 1 8.14-1.1l.29 2z" fill="#f1f1f1"/><path d="m509.13 204.77-3.38-4.59 2.52-1.81 2.87 5.07z" fill="#3d464e"/><path d="m189.45 151.6 5.51-1.09.87 1.3c-1.23 1.17-2.29 2.78-3.75 3.32-.74.28-2.19-1.39-3.33-2.18.25-.45.47-.9.7-1.35z" fill="#3d464e"/><path d="m204.32 276 7.48.74c-3.37 4.26-5.07 4.09-7.48-.74z" fill="#f1f1f1"/><path d="m263.12 169.2c.88 1.92 1.74 3.08 1.83 4.3 0 .61-1.33 1.32-2.07 2a18.53 18.53 0 0 1 -1.83-3.64c-.12-.48.95-1.27 2.07-2.66z" fill="#f1f1f1"/><path d="m103.83 13.83c0-7.86 4.66-11.73 12-9.47 9.79 3 19.47 6.35 29.17 9.64 4.84 1.64 9.13 5 8.16 10.11-.92 4.9-3.51 10.36-7.15 13.52-1.87 1.62-7.69-1-11.6-2.12-6.49-1.9-12.8-4.38-19.31-6.16-4.44-1.22-11.26-10.05-11.27-15.52z" fill="#c1d4d2"/><path d="m24.52 35.12c3.2 1.9 6.2 2.72 7.57 4.68 3.64 5.2 8.9 9.54 9.68 16.48a8.55 8.55 0 0 0 1.5 3.08c2.18 3.6 1.36 7.61-2.41 9.51-1 .5-3.2-.11-4-1a24.06 24.06 0 0 0 -13.77-7.24 7.23 7.23 0 0 1 -4.69-3.76c-1.69-4.09-2.63-8.5-3.83-12.79-.12-.44-.1-1.2.17-1.42 3.2-2.54 6.51-5.04 9.78-7.54z" fill="#f1f1f1"/><path d="m18.11 117.81c1.38-.87 2.95-2.59 4.73-2.83 3-.4 4.94-1.21 5.87-4.31.87-2.93 3.47-3.73 5.38-1.63a37.78 37.78 0 0 1 5.91 9.39c1.07 2.28 2.47 5.92 1.46 7.38a59.81 59.81 0 0 1 -10.81 11.49c-3.28 2.74-5.74 1.49-8.53-4.86-1.83-4.18-2.48-8.88-4.01-14.63z" fill="#3d464e"/><path d="m100.47 65.87c-5.16-1-9.14-2.53-11.44-6.66-2.18-3.92-.36-7.51 2.29-10.47a5.62 5.62 0 0 1 4.09-1.56c4.24.33 8.44 1.12 12.67 1.67 1.64.21 3.67-.27 4.87.54a12.68 12.68 0 0 1 4.71 5.27c.37.92-1.63 3.5-3.12 4.33-4.54 2.55-9.36 4.62-14.07 6.88z" fill="#7a8da0"/><path d="m32.61 215.1c3.88-.65 7.74-1.35 11.63-1.9 1.37-.19 3.13-.51 4.12.14 2.73 1.78 4.77 13.34 2.81 15.9-3 3.85-7.25 3.08-11 1.94a66.13 66.13 0 0 1 -11.35-5.09c-2.75-1.44-4.58-3.88-2.77-7 1.32-2.24 3.54-3.95 5.36-5.9.39.66.8 1.28 1.2 1.91z" fill="#a1acb7"/><path d="m231.71 121c2.82 2.23 4.82 3.3 6.09 4.94a70.39 70.39 0 0 1 5.81 9.12c.49.89.5 2.78-.1 3.4-3.07 3.18-6.07 6.69-9.81 8.84-1.89 1.09-5.87.39-7.89-1-2.62-1.8-3.93-4.62-1.41-8.49 1.94-3 1.77-7.25 3-10.78.73-1.93 2.45-3.49 4.31-6.03z" fill="#7a8da0"/><path d="m220.23 66c5.29-.17 13.1 6.5 12.18 9.82-.54 2-3.41 3.58-5.56 4.73-1.82 1-4.2.83-6.19 1.57-5.12 1.88-10.18.21-11.66-4.12-1.26-3.73 2.46-10.12 6.77-11.34a27.9 27.9 0 0 1 4.46-.66z" fill="#c1d4d2"/><path d="m65.38 124.08c2.07 0 7.43 7.93 7.38 11-.08 4.48-3 9.46-5.54 9.51-6.94.16-14.77-6.55-14.53-12.45.11-2.72 8.31-7.94 12.69-8.06z" fill="#f1f1f1"/><path d="m267.06 74.22-3.36 2.33c-3.07-.88-5-6.37-3.05-9.86 3.24-5.78 9-8.44 15-10.06 2.59-.7 4.55 2.64 3.62 5.5-1.34 4.08-2.54 8.2-4.1 12.19-.72 1.84-2.17 3.39-3.28 5.08-1.12-1.3-2.22-2.6-3.36-3.88a17.44 17.44 0 0 0 -1.47-1.3z" fill="#d7af85"/><path d="m158 124c-1-5.55-1-10.59 4.28-13 6-2.69 10.84 0 15.06 4.52 3.93 4.21 4 6.5-.51 8.77-.82.42-2.22.88-2.76.49-4.35-3.14-8.87-1.6-13.4-.81a18 18 0 0 1 -2.67.03z" fill="#c1d4d2"/><path d="m17.35 26.26c-2.7-.43-4.34-.33-5.58-1-1.5-.79-3.27-2-3.74-3.47-.29-.86 1.69-2.45 2.61-3.74 5.27-7.42 11.88-5.5 18.52-2.56a35.5 35.5 0 0 1 5.05 3.33c-1.54 1.33-2.88 3.22-4.67 3.88-4.29 1.6-8.81 2.61-12.19 3.56z" fill="#3d464e"/><path d="m108 196.19c-8.15 2.34-12.37-.24-11.78-8.57.24-3.34 4.2-6.56 6.89-9.44.45-.48 3.09.93 4.62 1.67.48.23.5 1.35 1 1.66 5.88 3.68 4.73 7.13-.06 10.82-.67.54-.44 2.35-.67 3.86z" fill="#d7af85"/><path d="m196.43 28.67a26 26 0 0 0 -1.78-2.78c-1.88-2.22-5.75-4.83-5.37-6.48 1-4.16 3.62-8 6.06-11.69.82-1.24 3.38-2.46 4.54-2 1.31.47 2.43 2.7 2.79 4.35 1.19 5.43-1.67 13.84-6.24 18.6z" fill="#d7af85"/><path d="m338.09 77.63c1.39 3.42.46 6.47-2.46 9a16.38 16.38 0 0 0 -3 2.61c-2.11 3.13-4.52 4.09-8 2.08-3.76-2.19-5.15-5.47-4.77-9.6a2.66 2.66 0 0 1 1.23-2 58.37 58.37 0 0 1 8.71-2.08 66.79 66.79 0 0 1 8.29-.01z" fill="#3d464e"/><path d="m105.86 95.74c-.22 3.53-1.65 6.24-5.79 5.33a63.73 63.73 0 0 1 -10.64-3.51 3.78 3.78 0 0 1 -1.73-3.1c.49-3.76 7.52-7.36 11.24-6.46 4.22 1 7.54 2.44 6.92 7.74z" fill="#f1f1f1"/><path d="m496.59 130.46c-3.12 3.34-4.93 6.08-7.48 7.62-1 .63-4.16-.9-5.44-2.27-1.81-2-2.64-4.47.3-6.85 1.36-1.09 1.9-3.21 2.8-4.86a28.43 28.43 0 0 1 2.24-4 27.56 27.56 0 0 1 3.35-3.09l7.6-.33c1.43 4.5 1.43 4.5-9.34 7 1.5 2.44-1.73 7.39 5.97 6.78z" fill="#d7af85"/><path d="m391.88 25.52a9.86 9.86 0 0 1 2.64-2.75c2.86-1.53 10.43.42 11.79 3.26 1 2 1.57 4.95.83 6.89-.5 1.29-3.63 2-5.65 2.17-6.68.55-9.39-1.92-9.61-9.57z" fill="#7a8da0"/><path d="m70.46 96.07c1-3.25 5.57-7 8.65-7.1 2.52-.08 7 4.18 5.78 6.1-2 3.27-5.44 5.7-8.27 8.47z" fill="#7a8da0"/><path d="m199.77 95.55c-1.54 0-3.19.34-4.61-.07-3.59-1-9.54-10.16-9.1-13.9a4.41 4.41 0 0 1 1.88-3c.6-.33 2.32.37 2.85 1.1 3.45 4.73 6.71 9.59 10 14.41z" fill="#f1f1f1"/><path d="m162.58 65.6 6.07 5c.38.81 1.35 2.65 2.1 4.58.37 1 .84 2.67.41 3a5.31 5.31 0 0 1 -3.46 1c-2.34-.11-4.66-.8-7-.83-3.39-.05-4.55-2.89-2.38-7.81.91-2 3.02-3.54 4.26-4.94z" fill="#f1f1f1"/><path d="m62.34 46.29c-1.36-1.82-3.14-3.47-4-5.5a54.85 54.85 0 0 1 -2.73-10c-.19-1 .48-2.9 1.21-3.18.88-.33 3 .37 3.27 1.11 2 5.36 5 10.59 3.77 16.61z" fill="#f1f1f1"/><path d="m320.38 174.09c-1.26-2.44-2.35-4.54-3.25-6.26a50.49 50.49 0 0 1 3.09-6.26 15.38 15.38 0 0 1 4.06-3.81c.33-.23 2.2.76 2.34 1.41 1.23 5.49-1.88 12.3-6.24 14.92z" fill="#7a8da0"/><path d="m345.38 39.09c-1.26-2.44-2.35-4.54-3.25-6.26a50.49 50.49 0 0 1 3.09-6.26 15.38 15.38 0 0 1 4.06-3.81c.33-.23 2.2.76 2.34 1.41 1.23 5.49-1.88 12.3-6.24 14.92z" fill="#c1d4d2"/><path d="m200.72 51.88-7.06.26a48.73 48.73 0 0 1 -4.33-5.46 15.22 15.22 0 0 1 -1.72-5.3c-.07-.4 1.62-1.66 2.28-1.52 5.48 1.24 10.31 6.95 10.83 12.02z" fill="#f1f1f1"/><path d="m565.72 193.88-7.06.26a48.73 48.73 0 0 1 -4.33-5.46 15.22 15.22 0 0 1 -1.72-5.3c-.07-.4 1.62-1.66 2.28-1.52 5.48 1.24 10.31 6.95 10.83 12.02z" fill="#f1f1f1"/><path d="m746.72 341.88-7.06.26a48.73 48.73 0 0 1 -4.33-5.46 15.22 15.22 0 0 1 -1.72-5.3c-.07-.4 1.62-1.66 2.28-1.52 5.48 1.24 10.31 6.95 10.83 12.02z" fill="#f1f1f1"/><path d="m734.48 272.61c-.11 2.75-.2 5.11-.28 7.05a49.56 49.56 0 0 1 -5.78 3.9 15 15 0 0 1 -5.42 1.3c-.4 0-1.53-1.74-1.33-2.38 1.65-5.38 7.73-9.75 12.81-9.87z" fill="#f1f1f1"/><path d="m224.79 14.59c1.85-1.07 4.15-3.3 6.69-3.62a4.44 4.44 0 0 1 5 5.3c-.43 2.06-3.05 5.15-4.7 5.15-3.04.01-6.67-1.23-6.99-6.83z" fill="#f1f1f1"/><path d="m311.35 208.75c.32-.16.68-.27 1-.41 2.92-1.21 4.18-4.66 4.56-7.8s.24-6.46 1.7-9.27a9.77 9.77 0 0 1 11.18-4.54c6.05 1.79 9 6.15 6 12.24-2 4-5.69 7.7-9.25 10.38-4 3-8.88 6.14-13.55 4.45a4.33 4.33 0 0 1 -2.45-1.92 2.38 2.38 0 0 1 .46-2.88 3.13 3.13 0 0 1 .35-.25z" fill="#f1f1f1"/><path d="m449.19 105.09c2.34-1.78 4.41-3.68 4.64-3.48 2.47 2.17 4.66 4.68 6.93 7.09l-4.76 4.39z" fill="#f1f1f1"/><path d="m458.27 59.8c-8 8.54-8 8.54-12.23 8.22 1.56-3.44 2.32-7.1 4.53-9.29 1.43-1.41 5-.66 7.6-.88z" fill="#f1f1f1"/><path d="m16.9 194.31 7-6.95c.69 1.5 2.36 3.52 1.89 4.39-1.35 2.51-3.57 4.56-5.46 6.79z" fill="#f1f1f1"/><path d="m159.41 138.4c1.18 1.59 2.27 2.7 2.11 2.91-1.74 2.44-3.67 4.74-5.56 7.07-.9-1-2.73-2.62-2.58-2.83 1.69-2.35 3.69-4.47 6.03-7.15z" fill="#f1f1f1"/><path d="m135.66 218.61 6.71-.33.27 6.83-7.52-3.39z" fill="#f1f1f1"/><path d="m381.11 100.29a7.09 7.09 0 0 1 6.31-11.52 106 106 0 0 1 15.87 2.84c2.55.72 5.63 7 4.91 9.82-.77 3-5.94 7.34-8.8 7.06-7.06-.69-13.69-2.49-18.29-8.2z" fill="#f1f1f1"/><path d="m106.93 106.52c1.5 1.81 2.95 4.58-.13 6.55-1.55 1-4.27.17-6.46.17-.19-.56-.38-1.11-.58-1.67z" fill="#3d464e"/><path d="m257 197.86 8.77 2c-3.13 4.08-6.58 2.83-9.08 1.26-3.69-2.31-1-5.37.76-8.08-.15 1.37-.28 2.76-.45 4.82z" fill="#f1f1f1"/><path d="m124.78 111.55c1.58-2.3 3.31-4.77 6.57-2.62.9.59.73 2.8 1.05 4.26l-7.45.44c-.05-.69-.11-1.39-.17-2.08z" fill="#3d464e"/><path d="m261.78 28.55c1.58-2.3 3.31-4.77 6.57-2.62.9.59.73 2.8 1 4.26l-7.45.44c0-.69-.06-1.39-.12-2.08z" fill="#f1f1f1"/><path d="m46.65 174.13c2.15-2.08 3.44-5.56 6.83-2.95.71.54.62 3.42-.16 4.39-2.43 3.05-4.49 1.08-6.67-1.44z" fill="#f1f1f1"/><path d="m360 104.22-10.57 6.78c-.95-3.93-2.84-6.83 3-6 2.19.31 4.66-1.27 7-2z" fill="#f1f1f1"/><path d="m291 164.65 4.09-4.14c1 1.27 2.56 2.44 2.88 3.87.15.7-1.85 2.35-3.11 2.69-.77.22-2-1.2-3.86-2.42z" fill="#f1f1f1"/><path d="m313.09 103.44c-1-1.52-2.39-2.93-2.93-4.61-.2-.62 1.63-2.72 2.33-2.62 1.16.15 2.87 1.4 3.06 2.43.27 1.42-.66 3.07-1.07 4.62z" fill="#f1f1f1"/><path d="m240.63 98.84a37.32 37.32 0 0 1 5.7-1.89c.56-.1 1.39 1.3 2.1 2-1.39 1.15-2.63 2.79-4.23 3.28-.94.29-2.44-1.25-3.68-2 .03-.43.07-.91.11-1.39z" fill="#f1f1f1"/><path d="m185.19 175c2.2-5 5.26-5.74 10.85-2.4z" fill="#3d464e"/><path d="m502.22 453.67c-2.34 1.78-4.42 3.68-4.64 3.49-2.48-2.18-4.67-4.68-6.93-7.1l4.78-4.39c2.02 2.39 4.05 4.77 6.79 8z" fill="#f1f1f1"/><path d="m435.43 426.54 10.57-6.77c.94 3.93 2.84 6.82-3 6-2.2-.32-4.66 1.26-7 2z" fill="#f1f1f1"/><path d="m543.69 405.75c-3.41 3.71-2.73 7 1 10l-1.4.86c-1.81-2.19-4.32-4.15-5.14-6.67-.39-1.19 2.42-3.44 3.79-5.21z" fill="#f1f1f1"/><path d="m603.69 290.75c-3.41 3.71-2.73 7 1 10l-1.4.86c-1.81-2.19-4.32-4.15-5.14-6.67-.39-1.19 2.42-3.44 3.79-5.21z" fill="#f1f1f1"/><path d="m498.72 494.1-8.11 6.31c.43-2.5.18-5.12 1.37-6.54.73-.87 3.64.04 6.74.23z" fill="#f1f1f1"/><path d="m464.45 399.6 5.51-1.09.87 1.3c-1.23 1.17-2.29 2.78-3.75 3.32-.74.28-2.19-1.39-3.33-2.18.25-.45.47-.9.7-1.35z" fill="#f1f1f1"/><path d="m532 445.86 8.77 2c-3.13 4.08-6.58 2.83-9.08 1.26-3.69-2.31-1-5.37.76-8.08-.15 1.37-.28 2.76-.45 4.82z" fill="#f1f1f1"/><path d="m356.57 371.2c2-4 4.81-4.67 9.48-2.15a.43.43 0 0 1 -.1.8l-8.9 2a.43.43 0 0 1 -.48-.65z" fill="#f1f1f1"/><path d="m379.71 205c3.41-3.72 2.73-7-1-10l1.4-.86c1.82 2.19 4.33 4.16 5.15 6.67.39 1.2-2.43 3.44-3.79 5.22z" fill="#f1f1f1"/><path d="m166.88 167.29c-2.5.15-5 .37-7.48.32a14.49 14.49 0 0 1 -.48-2.89h7.8c.05.86.11 1.72.16 2.57z" fill="#f1f1f1"/><path d="m137.4 190.92c-3-2.34-3.94-6.11-1.33-9.13 3.07-3.55 7.51-5.52 11.75-7.29 3.58-1.5 7.92-3.76 12-3.47 3.9.27 10.44 6.5 4.89 9.39q-10.42 5.45-20.87 10.87a5.63 5.63 0 0 1 -6.44-.37z" fill="#dedede"/><path d="m277.4 128.48 2.85-5.25c1 1.28 2.94 2.74 2.74 3.78-.25 1.3-2.28 2.26-3.54 3.37z" fill="#f1f1f1"/><path d="m699.69 86.75c-3.41 3.71-2.73 7 1 10l-1.4.86c-1.81-2.19-4.32-4.15-5.14-6.67-.39-1.19 2.42-3.44 3.79-5.21z" fill="#f1f1f1"/><path d="m653.45 85.6 5.55-1.09.87 1.3c-1.23 1.17-2.29 2.78-3.75 3.32-.74.28-2.19-1.39-3.33-2.18.21-.45.43-.9.66-1.35z" fill="#f1f1f1"/><path d="m727.12 103.2c.88 1.92 1.74 3.08 1.83 4.3 0 .61-1.33 1.32-2.07 2a18.53 18.53 0 0 1 -1.83-3.64c-.12-.48.95-1.27 2.07-2.66z" fill="#f1f1f1"/><path d="m695.71 55c2.82 2.23 4.82 3.3 6.09 4.94a70.39 70.39 0 0 1 5.81 9.12c.49.89.5 2.78-.1 3.4-3.07 3.18-6.07 6.69-9.81 8.84-1.89 1.09-5.87.39-7.89-1-2.62-1.8-3.93-4.62-1.41-8.49 1.94-3 1.77-7.25 3-10.78.73-1.93 2.45-3.49 4.31-6.03z" fill="#d7af85"/><path d="m684.23 0c5.29-.17 13.1 6.5 12.18 9.82-.54 2-3.41 3.58-5.56 4.73-1.82 1-4.2.83-6.19 1.57-5.12 1.88-10.18.21-11.66-4.12-1.22-3.69 2.5-10.08 6.81-11.3a27.9 27.9 0 0 1 4.42-.7z" fill="#dedede"/><path d="m730.45 17.84-3.36 2.32c-3.07-.87-5-6.36-3.05-9.85 3.24-5.78 9-8.44 15-10.07 2.59-.69 4.55 2.65 3.61 5.51-1.33 4.08-2.53 8.2-4.09 12.19-.72 1.84-2.17 3.39-3.28 5.08-1.12-1.3-2.22-2.6-3.36-3.88a17.44 17.44 0 0 0 -1.47-1.3z" fill="#d7af85"/><path d="m622 58c-1-5.55-1-10.59 4.28-13 6-2.69 10.84 0 15.06 4.52 3.93 4.21 4 6.5-.51 8.77-.82.42-2.22.88-2.76.49-4.35-3.14-8.87-1.6-13.4-.81a18 18 0 0 1 -2.67.03z" fill="#a1acb7"/><path d="m663.77 29.55c-1.54 0-3.19.34-4.61-.07-3.59-1.05-9.54-10.16-9.1-13.9a4.41 4.41 0 0 1 1.88-2.95c.6-.33 2.32.37 2.85 1.1 3.45 4.73 6.71 9.59 10 14.41z" fill="#d7af85"/><path d="m704.63 32.84a37.32 37.32 0 0 1 5.7-1.89c.56-.1 1.39 1.3 2.1 2-1.39 1.15-2.63 2.79-4.23 3.28-.94.29-2.44-1.25-3.68-2 .03-.43.07-.91.11-1.39z" fill="#f1f1f1"/><path d="m649.19 109c2.2-5 5.26-5.74 10.85-2.4z" fill="#f1f1f1"/><path d="m737.4 68.48 2.85-5.25c1 1.28 2.94 2.74 2.74 3.78-.25 1.3-2.28 2.26-3.54 3.37z" fill="#f1f1f1"/><path d="m129.31 158.9 7-4.49v7.64z" fill="#f1f1f1"/><path d="m425.69 159.67 8.1-6.32c-.42 2.51-.18 5.12-1.36 6.54-.73.89-3.64-.04-6.74-.22z" fill="#d7af85"/><path d="m174.21 13.23c-.42 1.74-.49 3.61-1 3.72a81.67 81.67 0 0 1 -8.14 1.11l-.3-2z" fill="#f1f1f1"/><path d="m106.28 153 3.38 4.58-2.52 1.81-2.88-5.06z" fill="#f1f1f1"/><path d="m516.58 356.77-10.58 6.77c-.94-3.93-2.84-6.82 3-6 2.19.31 4.66-1.26 7-2 .23.46.4.83.58 1.23z" fill="#f1f1f1"/><path d="m587.31 387.56c3.41-3.72 2.73-7-1-10l1.4-.87c1.82 2.19 4.32 4.16 5.15 6.68.39 1.19-2.43 3.44-3.8 5.21z" fill="#f1f1f1"/><path d="m610.31 372.56c3.41-3.72 2.73-7-1-10l1.4-.87c1.82 2.19 4.32 4.16 5.15 6.68.39 1.19-2.43 3.44-3.8 5.21z" fill="#f1f1f1"/><path d="m627.55 396.71-5.55 1.09-.87-1.3c1.23-1.17 2.29-2.79 3.75-3.32.74-.28 2.2 1.39 3.33 2.18z" fill="#f1f1f1"/><path d="m553.88 379.11c-.88-1.92-1.74-3.08-1.83-4.3 0-.61 1.34-1.32 2.07-2a18.26 18.26 0 0 1 1.83 3.64c.13.48-.95 1.27-2.07 2.66z" fill="#f1f1f1"/><path d="m631.13 161.14c-2.53 3.06-5.37 4.75-10.74 7.83-3.1 1.79-7.33 15.91-4.76 18.69 3.8 4.11 10.23 6.93 16 7.83 6 .94 9.73-4.16 11.46-9.84 3.47-11.37 7-22.74 10.16-34.2 1.23-4.5-2.24-13.31-8.05-13.06s-6.93 10.37-9.17 14.78a43.33 43.33 0 0 1 -4.9 7.97z" fill="#3d464e"/><path d="m427.69 466.88c2.18 3.85 2.79 7.48 3.86 14.3.62 3.94 13.61 14 17.53 12.42 5.8-2.31 11.29-7.86 14.52-13.46 3.37-5.85-.43-11.77-5.65-15.85-10.44-8.16-20.85-16.37-31.51-24.24-4.19-3.08-14.74-3-16.8 3.15s8 11.36 11.71 15.45a47.88 47.88 0 0 1 6.34 8.23z" fill="#3d464e"/><path d="m459.48 34.19c-3.2-1.9-6.2-2.72-7.57-4.68-3.63-5.2-8.91-9.51-9.68-16.51a8.67 8.67 0 0 0 -1.5-3.09c-2.18-3.6-1.36-7.61 2.41-9.51 1-.49 3.2.11 4.05 1a24 24 0 0 0 13.81 7.25 7.26 7.26 0 0 1 4.68 3.77c1.7 4.09 2.64 8.49 3.83 12.79.12.43.11 1.2-.16 1.41-3.29 2.57-6.59 5.06-9.87 7.57z" fill="#d7af85"/><path d="m682.89 336.5c-1.37.87-2.95 2.59-4.73 2.83-3 .4-4.94 1.21-5.86 4.31-.88 2.93-3.47 3.73-5.39 1.63a37.74 37.74 0 0 1 -5.92-9.39c-1.08-2.28-2.48-5.92-1.47-7.38a59.54 59.54 0 0 1 10.83-11.5c3.28-2.75 5.74-1.49 8.53 4.86 1.84 4.19 2.49 8.89 4.01 14.64z" fill="#7a8da0"/><path d="m712.24 471.93c11 2 19.43 5.37 24.31 14.15 4.63 8.31.77 15.94-4.86 22.25a12 12 0 0 1 -8.7 3.3c-9-.69-17.93-2.37-26.91-3.54-3.49-.46-7.8.56-10.35-1.15-4.11-2.76-8.23-6.78-10-11.2-.79-2 3.46-7.43 6.61-9.2 9.66-5.42 19.89-9.82 29.9-14.61z" fill="#3d464e"/><path d="m585.29 427.32c-2.81-2.23-4.82-3.3-6.09-4.94a69.83 69.83 0 0 1 -5.81-9.13c-.48-.88-.5-2.77.11-3.4 3.07-3.17 6.06-6.68 9.8-8.83 1.9-1.09 5.87-.39 7.89 1 2.63 1.8 3.94 4.62 1.41 8.48-1.94 3-1.77 7.26-3 10.79-.73 1.92-2.45 3.48-4.31 6.03z" fill="#7a8da0"/><path d="m596.77 482.31c-5.29.17-13.1-6.5-12.18-9.83.55-2 3.41-3.57 5.56-4.72 1.82-1 4.2-.84 6.19-1.57 5.12-1.89 10.18-.21 11.62 4.08 1.26 3.73-2.45 10.12-6.77 11.34a27.73 27.73 0 0 1 -4.42.7z" fill="#c1d4d2"/><path d="m734.63 423.23c-2.08 0-7.44-7.94-7.39-11 .08-4.48 3-9.46 5.54-9.52 6.94-.15 14.78 6.56 14.54 12.46-.11 2.72-8.32 7.94-12.69 8.06z" fill="#dedede"/><path d="m549.94 474.09 3.37-2.33c3.06.88 5 6.37 3.05 9.86-3.25 5.78-9 8.44-15.05 10.06-2.59.69-4.55-2.64-3.61-5.51 1.33-4.07 2.53-8.19 4.09-12.18.72-1.84 2.17-3.4 3.29-5.08 1.11 1.3 2.22 2.6 3.35 3.88a19.44 19.44 0 0 0 1.51 1.3z" fill="#d7af85"/><path d="m659 424.33c1 5.56 1 10.6-4.27 13-6 2.69-10.85 0-15.07-4.52-3.92-4.21-3.95-6.5.51-8.77.82-.42 2.23-.88 2.76-.49 4.35 3.14 8.88 1.6 13.4.81a17.89 17.89 0 0 1 2.67-.03z" fill="#d7af85"/><path d="m389 421.33c1 5.56 1 10.6-4.27 13-6 2.69-10.85 0-15.07-4.52-3.92-4.21-3.95-6.5.51-8.77.82-.42 2.23-.88 2.76-.49 4.35 3.14 8.88 1.6 13.4.81a17.89 17.89 0 0 1 2.67-.03z" fill="#f1f1f1"/><path d="m709 352.12c8.15-2.35 12.37.24 11.78 8.57-.23 3.34-4.2 6.56-6.89 9.44-.45.48-3.09-.94-4.62-1.67-.48-.23-.49-1.35-1-1.66-5.88-3.68-4.73-7.13.07-10.82.71-.54.43-2.35.66-3.86z" fill="#d7af85"/><path d="m711.14 452.56c.22-3.52 1.65-6.23 5.79-5.32a63.43 63.43 0 0 1 10.64 3.51 3.78 3.78 0 0 1 1.73 3.1c-.49 3.76-7.51 7.36-11.24 6.45-4.22-1.02-7.54-2.43-6.92-7.74z" fill="#d7af85"/><path d="m746.54 452.24c-1 3.24-5.56 7-8.64 7.1-2.52.08-7-4.18-5.79-6.11 2-3.26 5.45-5.69 8.28-8.46z" fill="#f1f1f1"/><path d="m617.23 452.76c1.55 0 3.19-.35 4.62.07 3.58 1.05 9.53 10.16 9.09 13.9a4.38 4.38 0 0 1 -1.88 2.95c-.59.33-2.31-.37-2.85-1.1-3.45-4.73-6.71-9.59-10-14.41z" fill="#f1f1f1"/><path d="m654.42 482.71-6.07-5c-.38-.82-1.35-2.66-2.09-4.58-.38-1-.85-2.67-.41-3a5.21 5.21 0 0 1 3.45-1c2.34.11 4.66.8 7 .83 3.39 0 4.54 2.89 2.37 7.8-.9 2.01-3 3.53-4.25 4.95z" fill="#f1f1f1"/><path d="m568.67 108c1.35 1.82 3.13 3.47 4 5.5a54.83 54.83 0 0 1 2.72 10c.2 1-.48 2.9-1.21 3.18s-3-.37-3.27-1.11c-2-5.36-5-10.59-3.77-16.62z" fill="#f1f1f1"/><path d="m519.1 26-7 7c-.69-1.5-2.36-3.52-1.89-4.39 1.36-2.51 3.58-4.56 5.46-6.79z" fill="#f1f1f1"/><path d="m657.59 409.91c-1.18-1.6-2.26-2.7-2.11-2.91 1.74-2.44 3.68-4.74 5.56-7.07.91 1 2.73 2.62 2.58 2.83-1.69 2.35-3.68 4.47-6.03 7.15z" fill="#f1f1f1"/><path d="m710.07 441.79c-1.5-1.81-2.94-4.58.13-6.55 1.55-1 4.27-.17 6.46-.17.19.55.39 1.11.58 1.67z" fill="#f1f1f1"/><path d="m559.21 350.27-6.37-1.44a1 1 0 0 1 -.42-1.63c2.8-2.5 5.72-1.37 7.91 0s2.15 3 1.4 4.61a.94.94 0 0 1 -1.79-.48v-.06a1 1 0 0 0 -.73-1z" fill="#3d464e"/><path d="m692.22 436.76c-1.58 2.3-3.31 4.77-6.57 2.62-.89-.59-.72-2.8-1-4.26l7.44-.44c.01.69.07 1.39.13 2.08z" fill="#f1f1f1"/><path d="m717.08 301.23c-6.69 6.48-10.7 17.32-21.27 9.2-2.22-1.71-1.91-10.66.49-13.67 7.59-9.5 13.98-3.38 20.78 4.47z" fill="#dedede"/><path d="m632 496.66-4.09 4.14c-1-1.27-2.56-2.44-2.87-3.87-.16-.7 1.84-2.35 3.1-2.69.77-.24 2.01 1.2 3.86 2.42z" fill="#f1f1f1"/><path d="m576.37 449.47a37.32 37.32 0 0 1 -5.7 1.89c-.56.1-1.39-1.3-2.1-2 1.39-1.15 2.64-2.79 4.23-3.28.94-.29 2.44 1.25 3.69 2z" fill="#f1f1f1"/><path d="m636.81 331.3c-2.2 5-5.25 5.74-10.85 2.4z" fill="#f1f1f1"/><path d="m650.12 381c2.5-.15 5-.36 7.49-.31a15.29 15.29 0 0 1 .48 2.89h-7.81c-.05-.85-.1-1.71-.16-2.58z" fill="#f1f1f1"/><path d="m477.64 302.1c.1 1 .22 2.21.35 3.56h-8.85c-.24-.62-.74-1.88-1.41-3.56z" fill="#f1f1f1"/><path d="m687.69 389.41-7 4.49v-7.65z" fill="#f1f1f1"/><path d="m710.72 395.31c-1.12-1.53-2.25-3.05-3.38-4.58l2.53-1.81c1 1.69 1.91 3.37 2.87 5.06z" fill="#f1f1f1"/><path d="m426 206.17-5.52 1.09c-.29-.44-.58-.87-.86-1.31 1.22-1.17 2.28-2.78 3.74-3.32.74-.27 2.2 1.39 3.33 2.18z" fill="#f1f1f1"/><path d="m84.93 360.9c5.16 1 9.15 2.52 11.45 6.66 2.17 3.91.35 7.5-2.29 10.47a5.66 5.66 0 0 1 -4.1 1.55c-4.24-.32-8.44-1.11-12.66-1.66-1.64-.22-3.67.26-4.88-.55a12.59 12.59 0 0 1 -4.7-5.27c-.37-.92 1.63-3.49 3.11-4.33 4.55-2.55 9.36-4.62 14.07-6.87z" fill="#c1d4d2"/><path d="m127 298.68c-2.08.06-7.44-7.93-7.38-11 .07-4.49 3-9.47 5.53-9.52 6.95-.15 14.78 6.56 14.54 12.45-.08 2.74-8.29 7.96-12.69 8.07z" fill="#a1acb7"/><path d="m22.38 304.79c1 5.56 1 10.59-4.27 13-6 2.69-10.84 0-15.07-4.51-3.92-4.22-3.95-6.51.51-8.77.83-.42 2.23-.88 2.76-.5 4.36 3.15 8.88 1.6 13.4.82a16.63 16.63 0 0 1 2.67-.04z" fill="#3d464e"/><path d="m87.17 238.15c8.15-2.35 12.37.24 11.78 8.57-.23 3.33-4.2 6.55-6.89 9.43-.45.49-3.09-.93-4.62-1.67-.48-.23-.49-1.35-1-1.65-5.88-3.69-4.73-7.13.07-10.82.72-.54.49-2.35.66-3.86z" fill="#f1f1f1"/><path d="m74.54 333c.23-3.52 1.65-6.23 5.79-5.33a63.84 63.84 0 0 1 10.67 3.53 3.77 3.77 0 0 1 1.72 3.1c-.49 3.77-7.51 7.36-11.23 6.46-4.25-1.03-7.57-2.44-6.95-7.76z" fill="#f1f1f1"/><path d="m152.36 338c-1.24 4.38-6.57 9.41-10.13 9.49-2.91.07-8-5.78-6.56-8.38 2.43-4.41 6.4-7.64 9.72-11.37z" fill="#7a8da0"/><path d="m178.63 328.22c1.55 0 3.2-.35 4.62.07 3.58 1 9.53 10.15 9.09 13.89a4.33 4.33 0 0 1 -1.88 2.95c-.59.33-2.31-.36-2.84-1.1-3.45-4.72-6.72-9.59-10-14.41z" fill="#3d464e"/><path d="m17.82 363.16-6.07-5c-.38-.81-1.35-2.65-2.09-4.58-.38-1-.85-2.67-.41-3.05a5.33 5.33 0 0 1 3.45-1c2.34.11 4.67.81 7 .84 3.39 0 4.55 2.89 2.38 7.8-.91 2.05-3.01 3.58-4.26 4.99z" fill="#f1f1f1"/><path d="m135.07 380.48c1.35 1.82 3.14 3.46 4 5.5a54.72 54.72 0 0 1 2.72 10c.2 1-.48 2.91-1.21 3.18s-3-.36-3.27-1.1c-2-5.36-5-10.6-3.76-16.62z" fill="#f1f1f1"/><path d="m7.07 395.48c1.35 1.82 3.14 3.46 4 5.5a54.72 54.72 0 0 1 2.72 10c.2 1-.48 2.91-1.21 3.18s-3-.36-3.27-1.1c-2-5.36-5-10.6-3.76-16.62z" fill="#f1f1f1"/><path d="m21 290.36c-1.17-1.59-2.26-2.69-2.11-2.91 1.75-2.43 3.68-4.73 5.56-7.07.91 1 2.74 2.62 2.58 2.84-1.69 2.34-3.69 4.46-6.03 7.14z" fill="#f1f1f1"/><path d="m73.47 322.25c-1.5-1.82-2.94-4.58.13-6.55 1.55-1 4.27-.18 6.46-.18.2.56.39 1.12.58 1.68z" fill="#d7af85"/><path d="m55.62 317.21c-1.58 2.31-3.31 4.77-6.56 2.62-.9-.59-.73-2.79-1.05-4.26l7.44-.44c.06.7.11 1.39.17 2.08z" fill="#f1f1f1"/><path d="m301.21 336.75c-2.2 5-5.25 5.74-10.85 2.4z" fill="#f1f1f1"/><path d="m246.21 482.75c-2.2 5-5.25 5.74-10.85 2.4z" fill="#f1f1f1"/><path d="m13.53 261.47c2.49-.15 5-.36 7.48-.32a14.64 14.64 0 0 1 .48 2.89h-7.81z" fill="#f1f1f1"/><path d="m34 258.55c.1 1 .22 2.21.36 3.56h-8.82l-1.4-3.56z" fill="#f1f1f1"/><path d="m51.09 269.86-7 4.49v-7.64z" fill="#7a8da0"/><path d="m74.13 275.77-3.38-4.59 2.52-1.81 2.87 5.07z" fill="#f1f1f1"/><path d="m296.69 313.67 8.1-6.32c-.42 2.51-.18 5.12-1.36 6.54-.73.89-3.64-.04-6.74-.22z" fill="#f1f1f1"/><path d="m297 360.17-5.52 1.09c-.29-.44-.58-.87-.86-1.31 1.22-1.17 2.28-2.78 3.74-3.32.74-.27 2.2 1.39 3.33 2.18z" fill="#f1f1f1"/><path d="m411.09 81.73-7.49-.73c3.4-4.22 5.07-4.07 7.49.73z" fill="#f1f1f1"/><path d="m352.29 188.56c-.88-1.92-1.75-3.08-1.83-4.3 0-.61 1.33-1.32 2.06-2a17.67 17.67 0 0 1 1.83 3.63c.13.5-.93 1.28-2.06 2.67z" fill="#f1f1f1"/><path d="m180.45 261.89c-9.44-1.27-20.08-4.8-28.68-13-2.64-2.53-2.53-8.83.1-11.43 1.29-1.27 2.75-2.88 4.37-3.23 8.29-1.8 15.94-6.58 24.86-5.53 3.43.4 7 1.15 7.84 5 1.42 6.57 3 13.28 3 19.94.06 7.02-2.12 8.26-11.49 8.25z" fill="#3d464e"/><path d="m746.22 202.67c-2.34 1.78-4.42 3.68-4.64 3.49-2.48-2.18-4.67-4.68-6.93-7.1l4.78-4.39c2.02 2.39 4.05 4.77 6.79 8z" fill="#f1f1f1"/><path d="m752.75 246.87a67 67 0 0 1 -8.49-1.32c-.79-.22-1.73-2.15-1.51-3a3.58 3.58 0 0 1 2.71-2.17c3.34.3 6.37 1.44 7.29 6.49z" fill="#f1f1f1"/><path d="m746.69 155.75c-3.41 3.71-2.73 7 1 10l-1.4.86c-1.81-2.19-4.32-4.15-5.14-6.67-.39-1.19 2.42-3.44 3.79-5.21z" fill="#f1f1f1"/><path d="m718.72 192.1-8.11 6.31c.43-2.5.18-5.12 1.37-6.54.73-.87 3.64.04 6.74.23z" fill="#f1f1f1"/><path d="m718.45 145.6 5.51-1.09.87 1.3c-1.23 1.17-2.29 2.78-3.75 3.32-.74.28-2.19-1.39-3.33-2.18.25-.45.47-.9.7-1.35z" fill="#f1f1f1"/><path d="m744.71 115c2.82 2.23 4.82 3.3 6.09 4.94a70.39 70.39 0 0 1 5.81 9.12c.49.89.5 2.78-.1 3.4-3.07 3.18-6.07 6.69-9.81 8.84-1.89 1.09-5.87.39-7.89-1-2.62-1.8-3.93-4.62-1.41-8.49 1.94-3 1.77-7.25 3-10.78.73-1.93 2.45-3.49 4.31-6.03z" fill="#a1acb7"/><path d="m688.41 132.4c1.18 1.59 2.27 2.7 2.11 2.91-1.74 2.44-3.67 4.74-5.56 7.07-.9-1-2.73-2.62-2.58-2.83 1.69-2.35 3.69-4.47 6.03-7.15z" fill="#7a8da0"/><path d="m664.66 212.61 6.71-.33.27 6.83-7.52-3.39z" fill="#f1f1f1"/><path d="m714.19 169c2.2-5 5.26-5.74 10.85-2.4z" fill="#f1f1f1"/><path d="m695.88 161.29c-2.5.15-5 .37-7.48.32a14.49 14.49 0 0 1 -.48-2.89h7.8c.05.86.11 1.72.16 2.57z" fill="#f1f1f1"/><path d="m675.36 164.21c-.1-1-.22-2.21-.35-3.56h8.85c.24.62.74 1.88 1.41 3.56z" fill="#f1f1f1"/><path d="m709.45 255.89c-9.44-1.27-20.08-4.8-28.68-13-2.64-2.53-2.53-8.83.1-11.43 1.29-1.27 2.75-2.88 4.37-3.23 8.29-1.8 15.94-6.58 24.86-5.53 3.43.4 7 1.15 7.84 5 1.42 6.57 3 13.28 3 19.94.06 7.02-2.12 8.26-11.49 8.25z" fill="#3d464e"/><path d="m523.57 95.66c-10-4.1-19.7-7.16-28.41-12-4.78-2.67-8-8.29-11.63-12.79-3.18-4-1.84-9.32 2.61-11.88a48.18 48.18 0 0 0 4.3-2.5c6.42-4.57 10.51-4.67 16.64.2 2.4 1.9 4.49 2.54 7.22.87 1.06-.65 2.69-1.33 3.7-1 6.47 2.3 13.76 2.19 19.34 7.23 4.16 3.75 5.51 9.18 2.62 14.45-2.46 4.49-4.33 9.46-7.54 13.33-1.9 2.26-5.9 2.8-8.85 4.09z" fill="#a1acb7"/><path d="m306.25 477.37c4.89 3.18 5.39 7.64 1 11.28-5.83 4.85-11.81 9.5-17.78 14.18-3 2.34-6.78 3.64-9.57 1a18.43 18.43 0 0 1 -5.48-9.9c-.25-1.81 3.72-4.37 6-6.33 3.8-3.25 7.89-6.16 11.63-9.48 2.57-2.3 10.81-2.95 14.2-.75z" fill="#d7af85"/><path d="m86.7 498.78c-2.82-2.24-4.82-3.31-6.09-4.95a67.69 67.69 0 0 1 -5.81-9.12c-.49-.89-.5-2.78.1-3.4 3.07-3.17 6.06-6.69 9.8-8.84 1.9-1.09 5.87-.38 7.89 1 2.63 1.8 3.94 4.61 1.42 8.48-2 3-1.78 7.26-3 10.78-.74 1.93-2.46 3.49-4.31 6.05z" fill="#d7af85"/><path d="m191.81 381.3c3.12-3.33 4.94-6.08 7.48-7.62 1-.62 4.17.9 5.44 2.28 1.82 2 2.65 4.46-.3 6.84-1.35 1.1-1.89 3.21-2.8 4.86a26.42 26.42 0 0 1 -2.23 4 27.57 27.57 0 0 1 -3.36 3.09l-7.6.34c-1.42-4.51-1.42-4.51 9.35-7-1.51-2.44 1.73-7.39-5.98-6.79z" fill="#f1f1f1"/><path d="m160.94 495.17a2.45 2.45 0 0 1 -3.8-.16c-.21-.29-.31-.48-.26-.56 1.22-1.7 2.53-3.33 3.85-4.95a2.45 2.45 0 0 1 3.67-.14c.41.43.69.77.62.86-1.2 1.66-2.56 3.22-4.08 4.95z" fill="#3d464e"/><path d="m433.78 400.92c-4.81 4.26-14.52 5.28-19.26.95s-6.2-15.94-.78-19.6c6.53-4.41 17.86 2.76 21.57 9.72a8 8 0 0 1 -1.53 8.93z" fill="#f1f1f1"/><path d="m449.62 377.72-6.38-1.44a1 1 0 0 1 -.42-1.63c2.8-2.49 5.72-1.36 7.91 0s2.15 3 1.41 4.61a1 1 0 0 1 -1.8-.48v-.06a1 1 0 0 0 -.72-1z" fill="#f1f1f1"/><path d="m240.62 386.72-6.38-1.44a1 1 0 0 1 -.42-1.63c2.8-2.49 5.72-1.36 7.91 0s2.15 3 1.41 4.61a1 1 0 0 1 -1.8-.48v-.06a1 1 0 0 0 -.72-1z" fill="#f1f1f1"/><path d="m131.21 466.75c-2.2 5-5.25 5.74-10.85 2.4z" fill="#f1f1f1"/><path d="m148.61 472.68a1.33 1.33 0 0 1 1.24-1.41c2.05-.13 4.11-.27 6.16-.23a3.83 3.83 0 0 1 .29 1.39 1.34 1.34 0 0 1 -1.32 1.5h-5a1.33 1.33 0 0 1 -1.32-1.25z" fill="#f1f1f1"/><path d="m180 462.55c.1 1 .22 2.21.36 3.56h-8.86l-1.4-3.56z" fill="#f1f1f1"/><path d="m187.09 482.86-7 4.49v-7.64z" fill="#c1d4d2"/><path d="m210.13 488.77-3.38-4.59 2.52-1.81 2.87 5.07z" fill="#3d464e"/><path d="m232.09 412.63c1.39 3.42.46 6.47-2.46 9a16.38 16.38 0 0 0 -3 2.61c-2.11 3.13-4.52 4.09-8 2.08-3.76-2.19-5.15-5.47-4.77-9.6a2.66 2.66 0 0 1 1.23-2 58.37 58.37 0 0 1 8.71-2.08 66.79 66.79 0 0 1 8.29-.01z" fill="#d7af85"/><path d="m390.59 484.46c-3.12 3.34-4.93 6.08-7.48 7.62-1 .63-4.16-.9-5.44-2.27-1.81-2-2.64-4.47.3-6.85 1.36-1.09 1.9-3.21 2.8-4.86a28.43 28.43 0 0 1 2.24-4 27.56 27.56 0 0 1 3.35-3.09l7.6-.33c1.43 4.5 1.43 4.5-9.34 6.95 1.5 2.49-1.73 7.44 5.97 6.83z" fill="#f1f1f1"/><path d="m279.88 377.52a9.86 9.86 0 0 1 2.64-2.75c2.86-1.53 10.43.42 11.79 3.26 1 2.05 1.57 5 .83 6.89-.5 1.29-3.63 2-5.65 2.17-6.68.55-9.39-1.92-9.61-9.57z" fill="#3d464e"/><path d="m386.38 387.09c-2.64-.74-3.22-4.32-3.25-6.26 0-2.28 1.8-4.32 3.09-6.26a15.38 15.38 0 0 1 4.06-3.81c.33-.23 2.2.76 2.34 1.41 1.23 5.49-1.34 16.31-6.24 14.92z" fill="#3d464e"/><path d="m19.19 487.69c2.81-.87 2.81-.87 3.19-10.42l8.68 1.13c2.06 6.67-4.08 8-7.2 11.09-.77.76-3.21-.17-4.89-.33z" fill="#f1f1f1"/><path d="m337.19 457.09c2.34-1.78 4.41-3.68 4.64-3.48 2.47 2.17 4.66 4.68 6.93 7.09l-4.76 4.39z" fill="#f1f1f1"/><path d="m352.12 400.81c-18.16 19.38-21.85 23.16-29 23.41a4.07 4.07 0 0 1 -3.88-5.58c3.32-8.52 5.8-16.9 11.24-22.28 3.56-3.52 11.6-2.51 18.66-2.48a4.09 4.09 0 0 1 4.1 3.88v.06a4 4 0 0 1 -1.12 2.99z" fill="#a1acb7"/><path d="m286.11 462.61a2.08 2.08 0 0 1 1.91-3.3 33.18 33.18 0 0 1 5.13.91c.78.22 1.73 2.15 1.51 3s-1.83 2.26-2.71 2.17c-2.28-.2-4.42-.8-5.84-2.78z" fill="#f1f1f1"/><path d="m255.52 453.85a12.5 12.5 0 0 1 -3.41 3.81c-5.11 4.23-11.65 10.14-18.48 11.09-7.63 1.06-11-7.95-8.77-14.47 2-6 9.83-4.67 14.81-4 4.13.59 14.35-6.18 16.15.84a3.93 3.93 0 0 1 -.3 2.73z" fill="#f1f1f1"/><path d="m352.23 485.78-12.8 8.22c-.95-3.93-2.84-6.83 3-6 3.11.46 6.74-2.84 9.8-2.22z" fill="#f1f1f1"/><path d="m75.71 451c3.41-3.72 2.73-7-1-10l1.4-.86c1.82 2.19 4.33 4.16 5.15 6.67.39 1.2-2.43 3.44-3.79 5.22z" fill="#f1f1f1"/><path d="m470.69 427.67 8.1-6.32c-.42 2.51-.18 5.12-1.36 6.54-.73.89-3.64-.04-6.74-.22z" fill="#f1f1f1"/><path d="m127 490.17-5.52 1.09c-.29-.44-.58-.87-.86-1.31 1.22-1.17 2.28-2.78 3.74-3.32.74-.27 2.2 1.39 3.33 2.18z" fill="#f1f1f1"/><path d="m299.09 433.73-7.49-.73c3.4-4.22 5.07-4.07 7.49.73z" fill="#f1f1f1"/><path d="m53.29 472.56c-.88-1.92-1.75-3.08-1.83-4.3-.05-.61 1.33-1.32 2.06-2a17.67 17.67 0 0 1 1.83 3.63c.13.5-.93 1.28-2.06 2.67z" fill="#f1f1f1"/><path d="m69.21 411.91c-6.38 8.68-11.7 17.38-18.54 24.66-3.75 4-10 5.75-15.22 8.2-4.59 2.13-9.49-.47-10.89-5.4-.46-1.6-.78-3.24-1.39-4.78-2.88-7.34-2-11.33 4.21-16.1 2.42-1.87 3.55-3.74 2.59-6.79-.38-1.2-.65-2.94-.06-3.83 3.79-5.73 5.45-12.82 11.68-17 4.65-3.14 10.24-3.13 14.66.94 3.76 3.47 8.14 6.49 11.11 10.54 1.76 2.37 1.32 6.38 1.85 9.56z" fill="#a1acb7"/></g></svg>