<?xml version="1.0" encoding="UTF-8"?>
<!DOCTYPE svg PUBLIC "-//W3C//DTD SVG 1.1//EN" "http://www.w3.org/Graphics/SVG/1.1/DTD/svg11.dtd">
<!-- Creator: CorelDRAW 2017 -->
<svg xmlns="http://www.w3.org/2000/svg" xml:space="preserve" width="215.9mm" height="279.4mm" version="1.1" style="shape-rendering:geometricPrecision; text-rendering:geometricPrecision; image-rendering:optimizeQuality; fill-rule:evenodd; clip-rule:evenodd"
viewBox="0 0 21590 27940"
 xmlns:xlink="http://www.w3.org/1999/xlink">
 <defs>
  <style type="text/css">
   <![CDATA[
    .str0 {stroke:#8C4792;stroke-width:7.62;stroke-miterlimit:22.9256}
    .fil0 {fill:#FEFEFE;fill-rule:nonzero}
    .fil2 {fill:#141D1A;fill-rule:nonzero}
    .fil4 {fill:#2396A6;fill-rule:nonzero}
    .fil5 {fill:#8C4792;fill-rule:nonzero}
    .fil3 {fill:#8C4792;fill-rule:nonzero}
    .fil6 {fill:#B29B4E;fill-rule:nonzero}
    .fil1 {fill:#E5FAFC;fill-rule:nonzero}
   ]]>
  </style>
 </defs>
 <g id="Layer_x0020_1">
  <metadata id="CorelCorpID_0Corel-Layer"/>
  <polygon class="fil0" points="760.06,19747.18 20017.69,19747.18 20017.69,489.54 760.06,489.54 "/>
  <polygon class="fil1" points="18820.49,3377.66 18361.95,2602.63 19279.02,2602.63 "/>
  <polygon class="fil1" points="19583.05,2602.63 20041.71,3377.66 19124.51,3377.66 "/>
  <polygon class="fil1" points="18820.49,3611.72 18361.95,4386.75 19279.02,4386.75 "/>
  <polygon class="fil1" points="19583.05,4386.75 20041.71,3611.72 19124.51,3611.72 "/>
  <polygon class="fil1" points="20345.61,3620.39 20804.14,4395.42 19887.07,4395.42 "/>
  <polygon class="fil1" points="18820.49,1342.16 18361.95,567.13 19279.02,567.13 "/>
  <polygon class="fil1" points="19583.05,567.13 20041.71,1342.16 19124.51,1342.16 "/>
  <polygon class="fil1" points="18820.49,1576.22 18361.95,2351.25 19279.02,2351.25 "/>
  <polygon class="fil1" points="19583.05,2351.25 20041.71,1576.22 19124.51,1576.22 "/>
  <polygon class="fil1" points="20345.61,1584.88 20804.14,2359.91 19887.07,2359.91 "/>
  <polygon class="fil1" points="20345.61,3369 20804.14,2593.97 19887.07,2593.97 "/>
  <polygon class="fil1" points="20345.61,1333.49 20804.14,558.46 19887.07,558.46 "/>
  <polygon class="fil1" points="18820.49,7448.65 18361.95,6673.67 19279.02,6673.67 "/>
  <polygon class="fil2" points="19583.05,6673.67 20041.71,7448.65 19124.51,7448.65 "/>
  <polygon class="fil1" points="18820.49,7682.8 18361.95,8457.77 19279.02,8457.77 "/>
  <polygon class="fil1" points="19583.05,8457.77 20041.71,7682.8 19124.51,7682.8 "/>
  <polygon class="fil1" points="20345.61,7691.41 20804.14,8466.42 19887.07,8466.42 "/>
  <polygon class="fil1" points="18820.49,5413.17 18361.95,4638.14 19279.02,4638.14 "/>
  <polygon class="fil1" points="19583.05,4638.14 20041.71,5413.17 19124.51,5413.17 "/>
  <polygon class="fil1" points="18820.49,5647.23 18361.95,6422.26 19279.02,6422.26 "/>
  <polygon class="fil1" points="19583.05,6422.26 20041.71,5647.23 19124.51,5647.23 "/>
  <polygon class="fil1" points="20345.61,5655.89 20804.14,6430.93 19887.07,6430.93 "/>
  <polygon class="fil1" points="20345.61,7440.03 20804.14,6665.05 19887.07,6665.05 "/>
  <polygon class="fil1" points="20345.61,5404.51 20804.14,4629.47 19887.07,4629.47 "/>
  <polygon class="fil1" points="18820.49,11519.74 18361.95,10744.71 19279.02,10744.71 "/>
  <polygon class="fil1" points="19583.05,10744.71 20041.71,11519.74 19124.51,11519.74 "/>
  <polygon class="fil1" points="18820.49,11753.82 18361.95,12528.83 19279.02,12528.83 "/>
  <polygon class="fil1" points="19583.05,12528.83 20041.71,11753.82 19124.51,11753.82 "/>
  <polygon class="fil1" points="20345.61,11762.48 20804.14,12537.5 19887.07,12537.5 "/>
  <polygon class="fil1" points="18820.49,9484.17 18361.95,8709.18 19279.02,8709.18 "/>
  <polygon class="fil1" points="19583.05,8709.18 20041.71,9484.17 19124.51,9484.17 "/>
  <polygon class="fil1" points="18820.49,9718.31 18361.95,10493.3 19279.02,10493.3 "/>
  <polygon class="fil3" points="19583.05,10493.3 20041.71,9718.31 19124.51,9718.31 "/>
  <polygon class="fil1" points="20345.61,9726.95 20804.14,10501.98 19887.07,10501.98 "/>
  <polygon class="fil1" points="20345.61,11511.07 20804.14,10736.05 19887.07,10736.05 "/>
  <polygon class="fil1" points="20345.61,9475.55 20804.14,8700.55 19887.07,8700.55 "/>
  <polygon class="fil1" points="18820.49,15590.7 18361.95,14815.67 19279.02,14815.67 "/>
  <polygon class="fil1" points="19583.05,14815.67 20041.71,15590.7 19124.51,15590.7 "/>
  <polygon class="fil1" points="18820.49,15824.88 18361.95,16599.81 19279.02,16599.81 "/>
  <polygon class="fil1" points="19583.05,16599.81 20041.71,15824.88 19124.51,15824.88 "/>
  <polygon class="fil1" points="20345.61,15833.45 20804.14,16608.47 19887.07,16608.47 "/>
  <polygon class="fil1" points="18820.49,13555.17 18361.95,12780.25 19279.02,12780.25 "/>
  <polygon class="fil1" points="19583.05,12780.25 20041.71,13555.17 19124.51,13555.17 "/>
  <polygon class="fil1" points="18820.49,13789.35 18361.95,14564.27 19279.02,14564.27 "/>
  <polygon class="fil4" points="19583.05,14564.27 20041.71,13789.35 19124.51,13789.35 "/>
  <polygon class="fil1" points="20345.61,13797.92 20804.14,14572.94 19887.07,14572.94 "/>
  <polygon class="fil1" points="20345.61,15582.04 20804.14,14807.12 19887.07,14807.12 "/>
  <polygon class="fil1" points="20345.61,13546.6 20804.14,12771.58 19887.07,12771.58 "/>
  <polygon class="fil1" points="18820.49,19661.77 18361.95,18886.74 19279.02,18886.74 "/>
  <polygon class="fil1" points="19583.05,18886.74 20041.71,19661.77 19124.51,19661.77 "/>
  <polygon class="fil1" points="18820.49,17626.24 18361.95,16851.22 19279.02,16851.22 "/>
  <polygon class="fil1" points="19583.05,16851.22 20041.71,17626.24 19124.51,17626.24 "/>
  <polygon class="fil1" points="18820.49,17860.42 18361.95,18635.34 19279.02,18635.34 "/>
  <polygon class="fil1" points="19583.05,18635.34 20041.71,17860.42 19124.51,17860.42 "/>
  <polygon class="fil1" points="20345.61,17868.97 20804.14,18644 19887.07,18644 "/>
  <polygon class="fil1" points="20345.61,19653.1 20804.14,18878.18 19887.07,18878.18 "/>
  <polygon class="fil1" points="20345.61,17617.57 20804.14,16842.65 19887.07,16842.65 "/>
  <polygon class="fil1" points="14245.26,3377.66 13786.7,2602.63 14703.79,2602.63 "/>
  <polygon class="fil1" points="15007.82,2602.63 15466.35,3377.66 14549.28,3377.66 "/>
  <polygon class="fil1" points="14245.26,3611.72 13786.7,4386.75 14703.79,4386.75 "/>
  <polygon class="fil1" points="15007.82,4386.75 15466.35,3611.72 14549.28,3611.72 "/>
  <polygon class="fil1" points="16532.94,4395.42 16074.4,3620.39 16991.47,3620.39 "/>
  <polygon class="fil1" points="17295.5,3620.39 17753.9,4395.42 16836.96,4395.42 "/>
  <polygon class="fil1" points="15770.38,3620.39 16228.91,4395.42 15311.84,4395.42 "/>
  <polygon class="fil1" points="18820.49,3377.66 18361.95,2602.63 19279.02,2602.63 "/>
  <polygon class="fil1" points="18058.06,2602.63 18516.59,3377.66 17599.52,3377.66 "/>
  <polygon class="fil1" points="18058.06,4386.75 18516.59,3611.72 17599.52,3611.72 "/>
  <polygon class="fil1" points="14245.26,1342.16 13786.7,567.13 14703.79,567.13 "/>
  <polygon class="fil1" points="15007.82,567.13 15466.35,1342.16 14549.28,1342.16 "/>
  <polygon class="fil1" points="14245.26,1576.22 13786.7,2351.25 14703.79,2351.25 "/>
  <polygon class="fil1" points="15007.82,2351.25 15466.35,1576.22 14549.28,1576.22 "/>
  <polygon class="fil1" points="16532.94,2359.91 16074.4,1584.88 16991.47,1584.88 "/>
  <polygon class="fil1" points="17295.5,1584.88 17753.9,2359.91 16836.96,2359.91 "/>
  <polygon class="fil1" points="15770.38,1584.88 16228.91,2359.91 15311.84,2359.91 "/>
  <polygon class="fil1" points="16532.94,2593.97 16074.4,3369 16991.47,3369 "/>
  <polygon class="fil1" points="15770.38,3369 16228.91,2593.97 15311.84,2593.97 "/>
  <polygon class="fil1" points="18820.49,1342.16 18361.95,567.13 19279.02,567.13 "/>
  <polygon class="fil1" points="18820.49,1576.22 18361.95,2351.25 19279.02,2351.25 "/>
  <polygon class="fil1" points="18058.06,2351.25 18516.59,1576.22 17599.52,1576.22 "/>
  <polygon class="fil1" points="16532.94,558.46 16074.4,1333.49 16991.47,1333.49 "/>
  <polygon class="fil1" points="17295.5,1333.49 17753.9,558.46 16836.96,558.46 "/>
  <polygon class="fil1" points="15770.38,1333.49 16228.91,558.46 15311.84,558.46 "/>
  <polygon class="fil1" points="14245.26,7448.65 13786.7,6673.67 14703.79,6673.67 "/>
  <polygon class="fil1" points="15007.82,6673.67 15466.35,7448.65 14549.28,7448.65 "/>
  <polygon class="fil1" points="14245.26,7682.8 13786.7,8457.77 14703.79,8457.77 "/>
  <polygon class="fil1" points="15007.82,8457.77 15466.35,7682.8 14549.15,7682.8 "/>
  <polygon class="fil1" points="16532.94,8466.43 16074.4,7691.41 16991.47,7691.41 "/>
  <polygon class="fil1" points="17295.5,7691.41 17753.9,8466.42 16836.96,8466.42 "/>
  <polygon class="fil1" points="18820.49,7448.65 18361.95,6673.67 19279.02,6673.67 "/>
  <polygon class="fil1" points="18058.06,6673.67 18516.59,7448.65 17599.52,7448.65 "/>
  <polygon class="fil1" points="18820.49,7682.8 18361.95,8457.77 19279.02,8457.77 "/>
  <polygon class="fil1" points="14245.26,5413.17 13786.7,4638.14 14703.79,4638.14 "/>
  <polygon class="fil1" points="15007.82,4638.14 15466.35,5413.17 14549.28,5413.17 "/>
  <polygon class="fil1" points="14245.26,5647.23 13786.7,6422.26 14703.79,6422.26 "/>
  <polygon class="fil1" points="15007.82,6422.26 15466.35,5647.23 14549.28,5647.23 "/>
  <polygon class="fil1" points="16532.94,6430.93 16074.4,5655.89 16991.47,5655.89 "/>
  <polygon class="fil1" points="17295.5,5655.89 17753.9,6430.93 16836.96,6430.93 "/>
  <polygon class="fil1" points="15770.38,5655.89 16228.91,6430.93 15311.84,6430.93 "/>
  <polygon class="fil1" points="16532.94,6665.05 16074.4,7440.03 16991.47,7440.03 "/>
  <polygon class="fil1" points="17295.5,7440.03 17753.9,6665.05 16836.96,6665.05 "/>
  <polygon class="fil1" points="15770.38,7440.03 16228.91,6665.05 15311.84,6665.05 "/>
  <polygon class="fil1" points="18820.49,5413.17 18361.95,4638.14 19279.02,4638.14 "/>
  <polygon class="fil1" points="18058.06,4638.14 18516.59,5413.17 17599.52,5413.17 "/>
  <polygon class="fil1" points="18820.49,5647.23 18361.95,6422.26 19279.02,6422.26 "/>
  <polygon class="fil1" points="17295.5,5404.51 17753.9,4629.47 16836.96,4629.47 "/>
  <polygon class="fil1" points="15770.38,5404.51 16228.91,4629.47 15311.84,4629.47 "/>
  <polygon class="fil1" points="14245.26,11519.74 13786.7,10744.71 14703.79,10744.71 "/>
  <polygon class="fil1" points="15007.82,10744.71 15466.35,11519.74 14549.15,11519.74 "/>
  <polygon class="fil1" points="14245.26,11753.82 13786.7,12528.83 14703.79,12528.83 "/>
  <polygon class="fil1" points="16532.94,12537.5 16074.4,11762.48 16991.47,11762.48 "/>
  <polygon class="fil1" points="17295.5,11762.48 17753.9,12537.5 16836.96,12537.5 "/>
  <polygon class="fil1" points="15770.38,11762.48 16228.91,12537.5 15311.84,12537.5 "/>
  <polygon class="fil1" points="18820.49,11519.74 18361.95,10744.71 19279.02,10744.71 "/>
  <polygon class="fil1" points="18058.06,10744.71 18516.59,11519.74 17599.52,11519.74 "/>
  <polygon class="fil1" points="18820.49,11753.82 18361.95,12528.83 19279.02,12528.83 "/>
  <polygon class="fil1" points="14245.26,9484.17 13786.7,8709.18 14703.79,8709.18 "/>
  <polygon class="fil1" points="15007.82,8709.18 15466.35,9484.17 14549.15,9484.17 "/>
  <polygon class="fil1" points="14245.26,9718.31 13786.7,10493.3 14703.79,10493.3 "/>
  <polygon class="fil1" points="15007.82,10493.3 15466.35,9718.31 14549.15,9718.31 "/>
  <polygon class="fil1" points="17295.5,9726.95 17753.9,10501.98 16836.96,10501.98 "/>
  <polygon class="fil1" points="15770.38,9726.93 16228.91,10501.98 15311.84,10501.98 "/>
  <polygon class="fil1" points="16532.94,10736.05 16074.4,11511.07 16991.47,11511.07 "/>
  <polygon class="fil1" points="17295.5,11511.07 17753.9,10736.05 16836.96,10736.05 "/>
  <polygon class="fil1" points="15770.38,11511.07 16228.91,10736.05 15311.84,10736.05 "/>
  <polygon class="fil1" points="18820.49,9484.17 18361.95,8709.18 19279.02,8709.18 "/>
  <polygon class="fil1" points="18058.06,8709.18 18516.59,9484.17 17599.52,9484.17 "/>
  <polygon class="fil1" points="18820.49,9718.31 18361.95,10493.3 19279.02,10493.3 "/>
  <polygon class="fil1" points="16532.94,8700.55 16074.4,9475.55 16991.47,9475.55 "/>
  <polygon class="fil1" points="17295.5,9475.55 17753.9,8700.55 16836.96,8700.55 "/>
  <polygon class="fil1" points="15770.38,9475.55 16228.91,8700.55 15311.84,8700.55 "/>
  <polygon class="fil1" points="14245.26,15590.7 13786.7,14815.67 14703.79,14815.67 "/>
  <polygon class="fil1" points="15007.82,14815.67 15466.35,15590.7 14549.28,15590.7 "/>
  <polygon class="fil1" points="14245.26,15824.88 13786.7,16599.81 14703.79,16599.81 "/>
  <polygon class="fil1" points="15007.82,16599.81 15466.35,15824.88 14549.28,15824.88 "/>
  <polygon class="fil1" points="16532.94,16608.47 16074.4,15833.45 16991.47,15833.45 "/>
  <polygon class="fil1" points="17295.5,15833.45 17753.9,16608.47 16836.96,16608.47 "/>
  <polygon class="fil1" points="18820.49,15590.7 18361.95,14815.67 19279.02,14815.67 "/>
  <polygon class="fil1" points="18820.49,15824.88 18361.95,16599.81 19279.02,16599.81 "/>
  <polygon class="fil1" points="18058.06,16599.81 18516.59,15824.88 17599.52,15824.88 "/>
  <polygon class="fil1" points="14245.26,13555.17 13786.7,12780.25 14703.79,12780.25 "/>
  <polygon class="fil1" points="15007.82,12780.25 15466.35,13555.17 14549.15,13555.17 "/>
  <polygon class="fil1" points="14245.26,13789.35 13786.7,14564.27 14703.79,14564.27 "/>
  <polygon class="fil1" points="15007.82,14564.27 15466.35,13789.35 14549.28,13789.35 "/>
  <polygon class="fil1" points="16532.94,14572.94 16074.4,13797.92 16991.47,13797.92 "/>
  <polygon class="fil1" points="17295.5,13797.92 17753.9,14572.94 16836.96,14572.94 "/>
  <polygon class="fil1" points="16532.94,14807.12 16074.4,15582.04 16991.47,15582.04 "/>
  <polygon class="fil1" points="17295.5,15582.04 17753.9,14807.12 16836.96,14807.12 "/>
  <polygon class="fil1" points="15770.38,15582.04 16228.91,14807.12 15311.84,14807.12 "/>
  <polygon class="fil1" points="18820.49,13555.17 18361.95,12780.25 19279.02,12780.25 "/>
  <polygon class="fil1" points="18058.06,12780.25 18516.59,13555.17 17599.52,13555.17 "/>
  <polygon class="fil1" points="18820.49,13789.35 18361.95,14564.27 19279.02,14564.27 "/>
  <polygon class="fil1" points="18058.06,14564.27 18516.59,13789.35 17599.52,13789.35 "/>
  <polygon class="fil1" points="16532.94,12771.58 16074.4,13546.6 16991.47,13546.6 "/>
  <polygon class="fil1" points="15770.38,13546.6 16228.91,12771.58 15311.84,12771.58 "/>
  <polygon class="fil1" points="14245.26,19661.77 13786.7,18886.74 14703.79,18886.74 "/>
  <polygon class="fil1" points="15007.82,18886.74 15466.35,19661.77 14549.28,19661.77 "/>
  <polygon class="fil1" points="18820.49,19661.77 18361.95,18886.74 19279.02,18886.74 "/>
  <polygon class="fil1" points="18058.06,18886.74 18516.59,19661.77 17599.52,19661.77 "/>
  <polygon class="fil1" points="14245.26,17626.24 13786.7,16851.22 14703.79,16851.22 "/>
  <polygon class="fil1" points="15007.82,16851.22 15466.35,17626.24 14549.28,17626.24 "/>
  <polygon class="fil1" points="14245.26,17860.42 13786.7,18635.34 14703.79,18635.34 "/>
  <polygon class="fil1" points="15007.82,18635.34 15466.35,17860.42 14549.28,17860.42 "/>
  <polygon class="fil1" points="16532.94,18644 16074.4,17868.97 16991.47,17868.97 "/>
  <polygon class="fil1" points="17295.5,17868.97 17753.9,18644 16836.96,18644 "/>
  <polygon class="fil1" points="16532.94,18878.18 16074.4,19653.1 16991.47,19653.1 "/>
  <polygon class="fil1" points="17295.5,19653.1 17753.9,18878.18 16836.96,18878.18 "/>
  <polygon class="fil1" points="15770.38,19653.1 16228.91,18878.18 15311.84,18878.18 "/>
  <polygon class="fil1" points="18058.06,16851.22 18516.59,17626.24 17599.52,17626.24 "/>
  <polygon class="fil1" points="18058.06,18635.34 18516.59,17860.42 17599.52,17860.42 "/>
  <polygon class="fil1" points="16532.94,16842.65 16074.4,17617.57 16991.47,17617.57 "/>
  <polygon class="fil1" points="17295.5,17617.57 17753.9,16842.65 16836.96,16842.65 "/>
  <polygon class="fil1" points="15770.38,17617.57 16228.91,16842.65 15311.84,16842.65 "/>
  <polygon class="fil1" points="9669.92,3377.66 9211.4,2602.63 10128.48,2602.63 "/>
  <polygon class="fil1" points="10432.49,2602.63 10891.02,3377.66 9973.94,3377.66 "/>
  <polygon class="fil1" points="9669.92,3611.72 9211.4,4386.75 10128.48,4386.75 "/>
  <polygon class="fil1" points="10432.49,4386.75 10891.02,3611.72 9973.94,3611.72 "/>
  <polygon class="fil1" points="11957.6,4395.42 11499.08,3620.39 12416.12,3620.39 "/>
  <polygon class="fil1" points="12720.11,3620.39 13178.72,4395.42 12261.59,4395.42 "/>
  <polygon class="fil1" points="11195.09,3620.39 11653.62,4395.42 10736.47,4395.42 "/>
  <polygon class="fil1" points="13482.71,2602.63 13941.23,3377.66 13024.19,3377.66 "/>
  <polygon class="fil1" points="14245.26,3611.72 13786.7,4386.75 14703.79,4386.75 "/>
  <polygon class="fil1" points="13482.71,4386.75 13941.23,3611.72 13024.19,3611.72 "/>
  <polygon class="fil1" points="9669.92,1342.16 9211.4,567.13 10128.48,567.13 "/>
  <polygon class="fil1" points="9669.92,1576.22 9211.4,2351.25 10128.48,2351.25 "/>
  <polygon class="fil1" points="10432.49,2351.25 10891.02,1576.22 9973.94,1576.22 "/>
  <polygon class="fil1" points="11957.6,2359.91 11499.08,1584.88 12416.12,1584.88 "/>
  <polygon class="fil1" points="12720.11,1584.88 13178.72,2359.91 12261.59,2359.91 "/>
  <polygon class="fil1" points="11195.09,1584.88 11653.62,2359.91 10736.47,2359.91 "/>
  <polygon class="fil1" points="11957.6,2593.97 11499.08,3369 12416.12,3369 "/>
  <polygon class="fil1" points="12720.11,3369 13178.72,2593.97 12261.59,2593.97 "/>
  <polygon class="fil1" points="14245.26,1342.16 13786.7,567.13 14703.79,567.13 "/>
  <polygon class="fil3" points="13482.71,567.13 13941.23,1342.16 13024.19,1342.16 "/>
  <polygon class="fil1" points="14245.26,1576.22 13786.7,2351.25 14703.79,2351.25 "/>
  <polygon class="fil1" points="13482.71,2351.25 13941.23,1576.22 13024.19,1576.22 "/>
  <polygon class="fil1" points="11957.6,558.46 11499.08,1333.49 12416.12,1333.49 "/>
  <polygon class="fil1" points="12720.11,1333.49 13178.72,558.46 12261.59,558.46 "/>
  <polygon class="fil1" points="11195.09,1333.49 11653.62,558.46 10736.47,558.46 "/>
  <polygon class="fil1" points="9669.92,7448.65 9211.4,6673.67 10128.48,6673.67 "/>
  <polygon class="fil1" points="10432.49,6673.67 10891.02,7448.65 9973.94,7448.65 "/>
  <polygon class="fil1" points="9669.92,7682.8 9211.4,8457.77 10128.48,8457.77 "/>
  <polygon class="fil1" points="10432.49,8457.77 10891.02,7682.8 9973.94,7682.8 "/>
  <polygon class="fil1" points="11957.6,8466.43 11499.08,7691.41 12416.12,7691.41 "/>
  <polygon class="fil1" points="12720.11,7691.41 13178.72,8466.43 12261.59,8466.43 "/>
  <polygon class="fil1" points="13482.71,6673.67 13941.23,7448.65 13024.19,7448.65 "/>
  <polygon class="fil1" points="14245.26,7682.8 13786.7,8457.77 14703.79,8457.77 "/>
  <polygon class="fil1" points="13482.71,8457.77 13941.23,7682.8 13024.19,7682.8 "/>
  <polygon class="fil1" points="9669.92,5413.17 9211.4,4638.14 10128.48,4638.14 "/>
  <polygon class="fil1" points="10432.49,4638.14 10891.02,5413.17 9973.94,5413.17 "/>
  <polygon class="fil1" points="9669.92,5647.23 9211.4,6422.26 10128.48,6422.26 "/>
  <polygon class="fil1" points="10432.49,6422.26 10891.02,5647.23 9973.94,5647.23 "/>
  <polygon class="fil1" points="11957.6,6430.93 11499.08,5655.89 12416.12,5655.89 "/>
  <polygon class="fil1" points="12720.11,5655.89 13178.72,6430.93 12261.59,6430.93 "/>
  <polygon class="fil1" points="11195.09,5655.89 11653.62,6430.93 10736.47,6430.93 "/>
  <polygon class="fil1" points="12720.11,7440.03 13178.72,6665.05 12261.59,6665.05 "/>
  <polygon class="fil1" points="11195.09,7440.03 11653.62,6665.05 10736.47,6665.05 "/>
  <polygon class="fil1" points="14245.26,5413.17 13786.7,4638.14 14703.79,4638.14 "/>
  <polygon class="fil1" points="13482.71,4638.14 13941.23,5413.17 13024.19,5413.17 "/>
  <polygon class="fil1" points="14245.26,5647.23 13786.7,6422.26 14703.79,6422.26 "/>
  <polygon class="fil1" points="13482.71,6422.26 13941.23,5647.23 13024.19,5647.23 "/>
  <polygon class="fil1" points="12720.11,5404.51 13178.72,4629.47 12261.59,4629.47 "/>
  <polygon class="fil1" points="11195.09,5404.51 11653.62,4629.47 10736.47,4629.47 "/>
  <polygon class="fil1" points="9669.92,11519.74 9211.4,10744.71 10128.48,10744.71 "/>
  <polygon class="fil1" points="10432.49,10744.71 10891.02,11519.74 9973.94,11519.74 "/>
  <polygon class="fil1" points="9669.92,11753.82 9211.4,12528.83 10128.48,12528.83 "/>
  <polygon class="fil1" points="10432.49,12528.83 10891.02,11753.82 9973.94,11753.82 "/>
  <polygon class="fil1" points="11957.6,12537.5 11499.08,11762.48 12416.12,11762.48 "/>
  <polygon class="fil1" points="12720.11,11762.48 13178.72,12537.5 12261.59,12537.5 "/>
  <polygon class="fil1" points="11195.09,11762.48 11653.62,12537.5 10736.47,12537.5 "/>
  <polygon class="fil1" points="14245.26,11519.74 13786.7,10744.71 14703.79,10744.71 "/>
  <polygon class="fil1" points="13482.71,10744.71 13941.23,11519.74 13024.19,11519.74 "/>
  <polygon class="fil1" points="14245.26,11753.82 13786.7,12528.83 14703.79,12528.83 "/>
  <polygon class="fil1" points="13482.71,12528.83 13941.23,11753.82 13024.19,11753.82 "/>
  <polygon class="fil1" points="9669.92,9484.17 9211.4,8709.18 10128.48,8709.18 "/>
  <polygon class="fil1" points="10432.49,8709.18 10891.02,9484.17 9973.94,9484.17 "/>
  <polygon class="fil1" points="9669.92,9718.31 9211.4,10493.3 10128.48,10493.3 "/>
  <polygon class="fil1" points="10432.49,10493.3 10891.02,9718.31 9973.94,9718.31 "/>
  <polygon class="fil1" points="12720.11,9726.93 13178.72,10501.98 12261.59,10501.98 "/>
  <polygon class="fil1" points="11195.09,9726.93 11653.62,10501.98 10736.47,10501.98 "/>
  <polygon class="fil1" points="12720.11,11511.07 13178.72,10736.05 12261.59,10736.05 "/>
  <polygon class="fil1" points="11195.09,11511.07 11653.62,10736.05 10736.47,10736.05 "/>
  <polygon class="fil1" points="14245.26,9484.17 13786.7,8709.18 14703.79,8709.18 "/>
  <polygon class="fil1" points="14245.26,9718.31 13786.7,10493.3 14703.79,10493.3 "/>
  <polygon class="fil1" points="13482.71,10493.3 13941.23,9718.31 13024.19,9718.31 "/>
  <polygon class="fil1" points="11957.6,8700.55 11499.08,9475.55 12416.12,9475.55 "/>
  <polygon class="fil1" points="12720.11,9475.55 13178.72,8700.55 12261.59,8700.55 "/>
  <polygon class="fil1" points="11195.09,9475.55 11653.62,8700.55 10736.47,8700.55 "/>
  <polygon class="fil1" points="9669.92,15590.7 9211.4,14815.67 10128.48,14815.67 "/>
  <polygon class="fil1" points="10432.49,14815.67 10891.02,15590.7 9973.94,15590.7 "/>
  <polygon class="fil1" points="9669.92,15824.88 9211.4,16599.81 10128.48,16599.81 "/>
  <polygon class="fil1" points="10432.49,16599.81 10891.02,15824.88 9973.94,15824.88 "/>
  <polygon class="fil1" points="11957.6,16608.47 11499.08,15833.45 12416.12,15833.45 "/>
  <polygon class="fil1" points="11195.09,15833.45 11653.62,16608.47 10736.47,16608.47 "/>
  <polygon class="fil1" points="14245.26,15590.7 13786.7,14815.67 14703.79,14815.67 "/>
  <polygon class="fil1" points="13482.71,14815.67 13941.23,15590.7 13024.19,15590.7 "/>
  <polygon class="fil1" points="14245.26,15824.88 13786.7,16599.81 14703.79,16599.81 "/>
  <polygon class="fil1" points="13482.71,16599.81 13941.23,15824.88 13024.19,15824.88 "/>
  <polygon class="fil1" points="9669.92,13555.17 9211.4,12780.25 10128.48,12780.25 "/>
  <polygon class="fil1" points="10432.49,12780.25 10891.02,13555.17 9973.94,13555.17 "/>
  <polygon class="fil1" points="9669.92,13789.35 9211.4,14564.27 10128.48,14564.27 "/>
  <polygon class="fil1" points="10432.49,14564.27 10891.02,13789.35 9973.94,13789.35 "/>
  <polygon class="fil1" points="11957.6,14572.94 11499.08,13797.92 12416.12,13797.92 "/>
  <polygon class="fil1" points="12720.11,13797.92 13178.72,14572.94 12261.59,14572.94 "/>
  <polygon class="fil1" points="11195.09,13797.92 11653.62,14572.94 10736.47,14572.94 "/>
  <polygon class="fil1" points="11957.6,14807.12 11499.08,15582.04 12416.12,15582.04 "/>
  <polygon class="fil1" points="12720.11,15582.04 13178.72,14807.12 12261.59,14807.12 "/>
  <polygon class="fil1" points="11195.09,15582.04 11653.62,14807.12 10736.47,14807.12 "/>
  <polygon class="fil1" points="14245.26,13555.17 13786.7,12780.25 14703.79,12780.25 "/>
  <polygon class="fil1" points="14245.26,13789.35 13786.7,14564.27 14703.79,14564.27 "/>
  <polygon class="fil1" points="13482.71,14564.27 13941.23,13789.35 13024.19,13789.35 "/>
  <polygon class="fil1" points="12720.11,13546.6 13178.72,12771.58 12261.59,12771.58 "/>
  <polygon class="fil1" points="11195.09,13546.6 11653.62,12771.58 10736.47,12771.58 "/>
  <polygon class="fil1" points="9669.92,19661.77 9211.4,18886.74 10128.48,18886.74 "/>
  <polygon class="fil1" points="10432.49,18886.74 10891.02,19661.77 9973.94,19661.77 "/>
  <polygon class="fil1" points="14245.26,19661.77 13786.7,18886.74 14703.79,18886.74 "/>
  <polygon class="fil1" points="13482.71,18886.74 13941.23,19661.77 13024.19,19661.77 "/>
  <polygon class="fil1" points="9669.92,17626.24 9211.4,16851.22 10128.48,16851.22 "/>
  <polygon class="fil1" points="10432.49,16851.22 10891.02,17626.24 9973.94,17626.24 "/>
  <polygon class="fil1" points="9669.92,17860.42 9211.4,18635.34 10128.48,18635.34 "/>
  <polygon class="fil1" points="10432.49,18635.34 10891.02,17860.42 9973.94,17860.42 "/>
  <polygon class="fil1" points="11957.6,18644 11499.08,17868.97 12416.12,17868.97 "/>
  <polygon class="fil1" points="11195.09,17868.97 11653.62,18644 10736.47,18644 "/>
  <polygon class="fil1" points="11957.6,18878.18 11499.08,19653.1 12416.12,19653.1 "/>
  <polygon class="fil1" points="12720.11,19653.1 13178.72,18878.18 12261.59,18878.18 "/>
  <polygon class="fil5" points="11195.09,19653.1 11653.62,18878.18 10736.47,18878.18 "/>
  <polygon class="fil1" points="14245.26,17626.24 13786.7,16851.22 14703.79,16851.22 "/>
  <polygon class="fil1" points="13482.71,16851.22 13941.23,17626.24 13024.19,17626.24 "/>
  <polygon class="fil1" points="14245.26,17860.42 13786.7,18635.34 14703.79,18635.34 "/>
  <polygon class="fil1" points="13482.71,18635.34 13941.23,17860.42 13024.19,17860.42 "/>
  <polygon class="fil1" points="11957.6,16842.65 11499.08,17617.57 12416.12,17617.57 "/>
  <polygon class="fil1" points="12720.11,17617.57 13178.72,16842.65 12261.59,16842.65 "/>
  <polygon class="fil1" points="11195.09,17617.57 11653.62,16842.65 10736.47,16842.65 "/>
  <polygon class="fil1" points="5094.64,3377.66 4636.1,2602.63 5553.17,2602.63 "/>
  <polygon class="fil1" points="5857.17,2602.63 6315.72,3377.66 5398.63,3377.66 "/>
  <polygon class="fil1" points="5094.64,3611.72 4636.1,4386.75 5553.17,4386.75 "/>
  <polygon class="fil1" points="5857.17,4386.75 6315.72,3611.72 5398.63,3611.72 "/>
  <polygon class="fil1" points="7382.29,4395.42 6923.76,3620.39 7840.83,3620.39 "/>
  <polygon class="fil1" points="8144.83,3620.39 8603.39,4395.42 7686.29,4395.42 "/>
  <polygon class="fil1" points="6619.76,3620.39 7078.31,4395.42 6161.21,4395.42 "/>
  <polygon class="fil1" points="9669.92,3377.66 9211.41,2602.63 10128.48,2602.63 "/>
  <polygon class="fil1" points="9669.92,3611.72 9211.41,4386.75 10128.48,4386.75 "/>
  <polygon class="fil1" points="8907.41,4386.75 9365.96,3611.72 8448.87,3611.72 "/>
  <polygon class="fil1" points="5094.64,1342.16 4636.1,567.13 5553.17,567.13 "/>
  <polygon class="fil3" points="5857.17,567.13 6315.72,1342.16 5398.63,1342.16 "/>
  <polygon class="fil1" points="5094.64,1576.22 4636.1,2351.25 5553.17,2351.25 "/>
  <polygon class="fil1" points="5857.17,2351.25 6315.72,1576.22 5398.63,1576.22 "/>
  <polygon class="fil1" points="7382.29,2359.91 6923.76,1584.88 7840.83,1584.88 "/>
  <polygon class="fil1" points="8144.83,1584.88 8603.39,2359.91 7686.29,2359.91 "/>
  <polygon class="fil1" points="6619.76,1584.88 7078.31,2359.91 6161.21,2359.91 "/>
  <polygon class="fil1" points="7382.29,2593.97 6923.76,3369 7840.83,3369 "/>
  <polygon class="fil1" points="8144.83,3369 8603.39,2593.97 7686.29,2593.97 "/>
  <polygon class="fil1" points="6619.76,3369 7078.31,2593.97 6161.21,2593.97 "/>
  <polygon class="fil1" points="9669.92,1342.16 9211.41,567.13 10128.48,567.13 "/>
  <polygon class="fil1" points="8907.41,567.13 9365.96,1342.16 8448.87,1342.16 "/>
  <polygon class="fil1" points="9669.92,1576.22 9211.41,2351.25 10128.48,2351.25 "/>
  <polygon class="fil1" points="8907.41,2351.25 9365.96,1576.22 8448.87,1576.22 "/>
  <polygon class="fil1" points="7382.29,558.46 6923.76,1333.49 7840.83,1333.49 "/>
  <polygon class="fil1" points="8144.83,1333.49 8603.39,558.46 7686.29,558.46 "/>
  <polygon class="fil1" points="6619.76,1333.49 7078.31,558.46 6161.21,558.46 "/>
  <polygon class="fil1" points="5094.64,7448.65 4636.1,6673.67 5553.17,6673.67 "/>
  <polygon class="fil1" points="5094.64,7682.8 4636.1,8457.77 5553.17,8457.77 "/>
  <polygon class="fil1" points="5857.17,8457.77 6315.72,7682.8 5398.63,7682.8 "/>
  <polygon class="fil1" points="7382.29,8466.43 6923.76,7691.41 7840.83,7691.41 "/>
  <polygon class="fil1" points="6619.74,7691.41 7078.31,8466.43 6161.21,8466.43 "/>
  <polygon class="fil1" points="9669.92,7448.65 9211.41,6673.67 10128.48,6673.67 "/>
  <polygon class="fil1" points="8907.41,6673.67 9365.96,7448.65 8448.87,7448.65 "/>
  <polygon class="fil1" points="9669.92,7682.8 9211.41,8457.77 10128.48,8457.77 "/>
  <polygon class="fil1" points="8907.4,8457.77 9365.96,7682.8 8448.87,7682.8 "/>
  <polygon class="fil1" points="5094.64,5413.17 4636.1,4638.14 5553.17,4638.14 "/>
  <polygon class="fil1" points="5857.17,4638.14 6315.72,5413.17 5398.63,5413.17 "/>
  <polygon class="fil1" points="5094.64,5647.23 4636.1,6422.26 5553.17,6422.26 "/>
  <polygon class="fil1" points="5857.17,6422.26 6315.72,5647.23 5398.63,5647.23 "/>
  <polygon class="fil1" points="7382.29,6430.93 6923.76,5655.89 7840.83,5655.89 "/>
  <polygon class="fil1" points="8144.83,5655.89 8603.39,6430.93 7686.29,6430.93 "/>
  <polygon class="fil1" points="6619.76,5655.89 7078.31,6430.93 6161.21,6430.93 "/>
  <polygon class="fil1" points="7382.29,6665.05 6923.76,7440.03 7840.83,7440.03 "/>
  <polygon class="fil1" points="8144.83,7440.03 8603.39,6665.05 7686.29,6665.05 "/>
  <polygon class="fil1" points="6619.76,7440.03 7078.31,6665.05 6161.21,6665.05 "/>
  <polygon class="fil1" points="9669.92,5413.17 9211.41,4638.14 10128.48,4638.14 "/>
  <polygon class="fil1" points="8907.41,4638.14 9365.96,5413.17 8448.87,5413.17 "/>
  <polygon class="fil1" points="8907.41,6422.26 9365.96,5647.23 8448.87,5647.23 "/>
  <polygon class="fil1" points="8144.83,5404.51 8603.39,4629.47 7686.29,4629.47 "/>
  <polygon class="fil1" points="6619.76,5404.51 7078.31,4629.47 6161.21,4629.47 "/>
  <polygon class="fil1" points="5094.64,11519.74 4636.1,10744.71 5553.17,10744.71 "/>
  <polygon class="fil1" points="5857.17,10744.71 6315.72,11519.74 5398.63,11519.74 "/>
  <polygon class="fil1" points="5094.64,11753.82 4636.1,12528.83 5553.17,12528.83 "/>
  <polygon class="fil1" points="5857.17,12528.83 6315.72,11753.82 5398.63,11753.82 "/>
  <polygon class="fil1" points="7382.29,12537.5 6923.76,11762.48 7840.83,11762.48 "/>
  <polygon class="fil1" points="8144.83,11762.48 8603.39,12537.5 7686.29,12537.5 "/>
  <polygon class="fil1" points="8907.4,10744.71 9365.96,11519.74 8448.87,11519.74 "/>
  <polygon class="fil1" points="9669.92,11753.82 9211.41,12528.83 10128.48,12528.83 "/>
  <polygon class="fil1" points="8907.4,12528.83 9365.96,11753.82 8448.87,11753.82 "/>
  <polygon class="fil1" points="5094.64,9484.17 4636.1,8709.18 5553.17,8709.18 "/>
  <polygon class="fil1" points="5857.17,8709.18 6315.72,9484.17 5398.63,9484.17 "/>
  <polygon class="fil1" points="5094.64,9718.31 4636.1,10493.3 5553.17,10493.3 "/>
  <polygon class="fil1" points="5857.17,10493.3 6315.72,9718.31 5398.63,9718.31 "/>
  <polygon class="fil1" points="7382.29,10501.98 6923.76,9726.93 7840.83,9726.93 "/>
  <polygon class="fil1" points="6619.74,9726.93 7078.31,10501.98 6161.21,10501.98 "/>
  <polygon class="fil1" points="7382.29,10736.05 6923.76,11511.07 7840.83,11511.07 "/>
  <polygon class="fil1" points="8144.83,11511.07 8603.39,10736.05 7686.29,10736.05 "/>
  <polygon class="fil1" points="6619.74,11511.07 7078.31,10736.05 6161.21,10736.05 "/>
  <polygon class="fil1" points="9669.92,9484.17 9211.41,8709.18 10128.48,8709.18 "/>
  <polygon class="fil1" points="8907.4,8709.18 9365.96,9484.17 8448.87,9484.17 "/>
  <polygon class="fil1" points="9669.92,9718.31 9211.41,10493.3 10128.48,10493.3 "/>
  <polygon class="fil1" points="8907.4,10493.3 9365.96,9718.31 8448.87,9718.31 "/>
  <polygon class="fil1" points="7382.29,8700.55 6923.76,9475.55 7840.83,9475.55 "/>
  <polygon class="fil1" points="8144.83,9475.55 8603.39,8700.55 7686.29,8700.55 "/>
  <polygon class="fil1" points="6619.74,9475.55 7078.31,8700.55 6161.21,8700.55 "/>
  <polygon class="fil1" points="5094.64,15590.7 4636.1,14815.67 5553.17,14815.67 "/>
  <polygon class="fil1" points="5857.17,14815.67 6315.72,15590.7 5398.63,15590.7 "/>
  <polygon class="fil1" points="5094.64,15824.88 4636.1,16599.81 5553.17,16599.81 "/>
  <polygon class="fil1" points="5857.17,16599.81 6315.72,15824.88 5398.63,15824.88 "/>
  <polygon class="fil1" points="7382.29,16608.47 6923.76,15833.45 7840.83,15833.45 "/>
  <polygon class="fil1" points="8144.83,15833.45 8603.39,16608.47 7686.29,16608.47 "/>
  <polygon class="fil1" points="6619.76,15833.45 7078.31,16608.47 6161.21,16608.47 "/>
  <polygon class="fil1" points="9669.92,15590.7 9211.41,14815.67 10128.48,14815.67 "/>
  <polygon class="fil1" points="8907.41,14815.67 9365.96,15590.7 8448.87,15590.7 "/>
  <polygon class="fil1" points="8907.41,16599.81 9365.96,15824.88 8448.87,15824.88 "/>
  <polygon class="fil1" points="5094.64,13555.17 4636.1,12780.25 5553.17,12780.25 "/>
  <polygon class="fil1" points="5857.17,12780.25 6315.72,13555.17 5398.63,13555.17 "/>
  <polygon class="fil1" points="5094.64,13789.35 4636.1,14564.27 5553.17,14564.27 "/>
  <polygon class="fil1" points="7382.29,14572.94 6923.76,13797.92 7840.83,13797.92 "/>
  <polygon class="fil1" points="6619.76,13797.92 7078.31,14572.94 6161.21,14572.94 "/>
  <polygon class="fil1" points="7382.29,14807.12 6923.76,15582.04 7840.83,15582.04 "/>
  <polygon class="fil1" points="8144.83,15582.04 8603.39,14807.12 7686.29,14807.12 "/>
  <polygon class="fil1" points="6619.76,15582.04 7078.31,14807.12 6161.21,14807.12 "/>
  <polygon class="fil1" points="8907.4,12780.25 9365.96,13555.17 8448.87,13555.17 "/>
  <polygon class="fil1" points="9669.92,13789.35 9211.41,14564.27 10128.48,14564.27 "/>
  <polygon class="fil1" points="8907.41,14564.27 9365.96,13789.35 8448.87,13789.35 "/>
  <polygon class="fil1" points="7382.29,12771.58 6923.76,13546.6 7840.83,13546.6 "/>
  <polygon class="fil1" points="8144.83,13546.6 8603.39,12771.58 7686.29,12771.58 "/>
  <polygon class="fil1" points="6619.74,13546.6 7078.31,12771.58 6161.21,12771.58 "/>
  <polygon class="fil1" points="5094.64,19661.77 4636.1,18886.74 5553.17,18886.74 "/>
  <polygon class="fil1" points="5857.17,18886.74 6315.72,19661.77 5398.63,19661.77 "/>
  <polygon class="fil1" points="9669.92,19661.77 9211.41,18886.74 10128.48,18886.74 "/>
  <polygon class="fil1" points="8907.41,18886.74 9365.96,19661.77 8448.87,19661.77 "/>
  <polygon class="fil1" points="5094.64,17626.24 4636.1,16851.22 5553.17,16851.22 "/>
  <polygon class="fil1" points="5857.17,16851.22 6315.72,17626.24 5398.63,17626.24 "/>
  <polygon class="fil1" points="5094.64,17860.42 4636.1,18635.34 5553.17,18635.34 "/>
  <polygon class="fil1" points="5857.17,18635.34 6315.72,17860.42 5398.63,17860.42 "/>
  <polygon class="fil1" points="7382.29,18644 6923.76,17868.97 7840.83,17868.97 "/>
  <polygon class="fil1" points="8144.83,17868.97 8603.39,18644 7686.29,18644 "/>
  <polygon class="fil1" points="7382.29,18878.18 6923.76,19653.1 7840.83,19653.1 "/>
  <polygon class="fil1" points="8144.83,19653.1 8603.39,18878.18 7686.29,18878.18 "/>
  <polygon class="fil1" points="6619.76,19653.1 7078.31,18878.18 6161.21,18878.18 "/>
  <polygon class="fil1" points="9669.92,17626.24 9211.41,16851.22 10128.48,16851.22 "/>
  <polygon class="fil1" points="8907.41,16851.22 9365.96,17626.24 8448.87,17626.24 "/>
  <polygon class="fil1" points="9669.92,17860.42 9211.41,18635.34 10128.48,18635.34 "/>
  <polygon class="fil1" points="7382.29,16842.65 6923.76,17617.57 7840.83,17617.57 "/>
  <polygon class="fil1" points="6619.76,17617.57 7078.31,16842.65 6161.21,16842.65 "/>
  <polygon class="fil1" points="519.33,3377.66 60.8,2602.63 977.88,2602.63 "/>
  <polygon class="fil1" points="1281.88,2602.63 1740.42,3377.66 823.34,3377.66 "/>
  <polygon class="fil1" points="519.33,3611.72 60.8,4386.75 977.88,4386.75 "/>
  <polygon class="fil1" points="1281.88,4386.75 1740.42,3611.72 823.34,3611.72 "/>
  <polygon class="fil1" points="2806.98,4395.42 2348.45,3620.39 3265.53,3620.39 "/>
  <polygon class="fil1" points="3569.53,3620.39 4028.08,4395.42 3110.98,4395.42 "/>
  <polygon class="fil1" points="2044.45,3620.39 2503,4395.42 1585.91,4395.42 "/>
  <polygon class="fil1" points="5094.64,3377.66 4636.12,2602.63 5553.17,2602.63 "/>
  <polygon class="fil1" points="4332.12,2602.63 4790.66,3377.66 3873.57,3377.66 "/>
  <polygon class="fil1" points="5094.64,3611.72 4636.12,4386.75 5553.17,4386.75 "/>
  <polygon class="fil1" points="4332.12,4386.75 4790.66,3611.72 3873.57,3611.72 "/>
  <polygon class="fil1" points="519.33,1342.16 60.8,567.13 977.88,567.13 "/>
  <polygon class="fil1" points="1281.88,567.13 1740.42,1342.16 823.34,1342.16 "/>
  <polygon class="fil1" points="519.33,1576.22 60.8,2351.25 977.88,2351.25 "/>
  <polygon class="fil1" points="1281.88,2351.25 1740.42,1576.22 823.34,1576.22 "/>
  <polygon class="fil1" points="2806.98,2359.91 2348.45,1584.88 3265.53,1584.88 "/>
  <polygon class="fil1" points="2044.45,1584.88 2503,2359.91 1585.91,2359.91 "/>
  <polygon class="fil1" points="2806.98,2593.97 2348.45,3369 3265.53,3369 "/>
  <polygon class="fil1" points="3569.53,3369 4028.08,2593.97 3110.98,2593.97 "/>
  <polygon class="fil1" points="5094.64,1342.16 4636.12,567.13 5553.17,567.13 "/>
  <polygon class="fil1" points="4332.12,567.13 4790.66,1342.16 3873.57,1342.16 "/>
  <polygon class="fil1" points="4332.12,2351.25 4790.66,1576.22 3873.57,1576.22 "/>
  <polygon class="fil1" points="2806.98,558.46 2348.45,1333.49 3265.53,1333.49 "/>
  <polygon class="fil1" points="3569.53,1333.49 4028.08,558.46 3110.98,558.46 "/>
  <polygon class="fil1" points="519.33,7448.65 60.8,6673.67 977.88,6673.67 "/>
  <polygon class="fil1" points="1281.88,6673.67 1740.42,7448.65 823.34,7448.65 "/>
  <polygon class="fil1" points="519.33,7682.8 60.8,8457.77 977.88,8457.77 "/>
  <polygon class="fil1" points="1281.88,8457.77 1740.42,7682.8 823.34,7682.8 "/>
  <polygon class="fil1" points="2806.98,8466.42 2348.45,7691.41 3265.53,7691.41 "/>
  <polygon class="fil1" points="3569.53,7691.41 4028.08,8466.42 3110.98,8466.42 "/>
  <polygon class="fil1" points="2044.45,7691.41 2503,8466.42 1585.91,8466.42 "/>
  <polygon class="fil1" points="5094.64,7448.65 4636.12,6673.67 5553.17,6673.67 "/>
  <polygon class="fil1" points="4332.12,6673.67 4790.66,7448.65 3873.57,7448.65 "/>
  <polygon class="fil1" points="5094.64,7682.8 4636.12,8457.77 5553.17,8457.77 "/>
  <polygon class="fil1" points="4332.12,8457.77 4790.66,7682.8 3873.57,7682.8 "/>
  <polygon class="fil1" points="519.33,5413.17 60.8,4638.14 977.88,4638.14 "/>
  <polygon class="fil1" points="1281.88,4638.14 1740.42,5413.17 823.34,5413.17 "/>
  <polygon class="fil1" points="519.33,5647.23 60.8,6422.26 977.88,6422.26 "/>
  <polygon class="fil1" points="1281.88,6422.26 1740.42,5647.23 823.34,5647.23 "/>
  <polygon class="fil1" points="2806.98,6430.93 2348.45,5655.89 3265.53,5655.89 "/>
  <polygon class="fil1" points="3569.53,5655.89 4028.08,6430.93 3110.98,6430.93 "/>
  <polygon class="fil1" points="2044.45,5655.89 2503,6430.93 1585.91,6430.93 "/>
  <polygon class="fil1" points="3569.53,7440.03 4028.08,6665.05 3110.98,6665.05 "/>
  <polygon class="fil1" points="2044.45,7440.03 2503,6665.05 1585.91,6665.05 "/>
  <polygon class="fil1" points="4332.12,4638.14 4790.66,5413.17 3873.57,5413.17 "/>
  <polygon class="fil1" points="5094.64,5647.23 4636.12,6422.26 5553.17,6422.26 "/>
  <polygon class="fil1" points="4332.12,6422.26 4790.66,5647.23 3873.57,5647.23 "/>
  <polygon class="fil1" points="2806.98,4629.47 2348.45,5404.51 3265.53,5404.51 "/>
  <polygon class="fil1" points="3569.53,5404.51 4028.08,4629.47 3110.98,4629.47 "/>
  <polygon class="fil1" points="519.33,11519.74 60.8,10744.71 977.88,10744.71 "/>
  <polygon class="fil1" points="1281.88,10744.71 1740.42,11519.74 823.34,11519.74 "/>
  <polygon class="fil1" points="519.33,11753.82 60.8,12528.83 977.88,12528.83 "/>
  <polygon class="fil1" points="1281.88,12528.83 1740.42,11753.82 823.34,11753.82 "/>
  <polygon class="fil1" points="2806.98,12537.5 2348.45,11762.48 3265.53,11762.48 "/>
  <polygon class="fil1" points="3569.53,11762.48 4028.08,12537.5 3110.98,12537.5 "/>
  <polygon class="fil1" points="5094.64,11519.74 4636.12,10744.71 5553.17,10744.71 "/>
  <polygon class="fil1" points="4332.12,10744.71 4790.66,11519.74 3873.57,11519.74 "/>
  <polygon class="fil1" points="5094.64,11753.82 4636.12,12528.83 5553.17,12528.83 "/>
  <polygon class="fil1" points="4332.12,12528.83 4790.66,11753.82 3873.57,11753.82 "/>
  <polygon class="fil1" points="519.33,9484.17 60.8,8709.18 977.88,8709.18 "/>
  <polygon class="fil1" points="1281.88,8709.18 1740.42,9484.17 823.34,9484.17 "/>
  <polygon class="fil1" points="519.33,9718.31 60.8,10493.3 977.88,10493.3 "/>
  <polygon class="fil1" points="1281.88,10493.3 1740.42,9718.31 823.34,9718.31 "/>
  <polygon class="fil1" points="2806.98,10501.98 2348.45,9726.95 3265.53,9726.95 "/>
  <polygon class="fil1" points="3569.53,9726.95 4028.08,10501.98 3110.98,10501.98 "/>
  <polygon class="fil1" points="2044.45,9726.95 2503,10501.98 1585.91,10501.98 "/>
  <polygon class="fil1" points="2806.98,10736.05 2348.45,11511.07 3265.53,11511.07 "/>
  <polygon class="fil1" points="2044.45,11511.07 2503,10736.05 1585.91,10736.05 "/>
  <polygon class="fil1" points="5094.64,9484.17 4636.12,8709.18 5553.17,8709.18 "/>
  <polygon class="fil1" points="4332.12,8709.18 4790.66,9484.17 3873.57,9484.17 "/>
  <polygon class="fil1" points="4332.12,10493.3 4790.66,9718.31 3873.57,9718.31 "/>
  <polygon class="fil1" points="3569.53,9475.55 4028.08,8700.55 3110.98,8700.55 "/>
  <polygon class="fil1" points="2044.45,9475.55 2503,8700.55 1585.91,8700.55 "/>
  <polygon class="fil1" points="519.33,15590.7 60.8,14815.67 977.88,14815.67 "/>
  <polygon class="fil1" points="1281.88,14815.67 1740.42,15590.7 823.34,15590.7 "/>
  <polygon class="fil1" points="519.33,15824.88 60.8,16599.81 977.88,16599.81 "/>
  <polygon class="fil1" points="1281.88,16599.81 1740.42,15824.88 823.34,15824.88 "/>
  <polygon class="fil1" points="2806.98,16608.47 2348.45,15833.45 3265.53,15833.45 "/>
  <polygon class="fil1" points="3569.53,15833.45 4028.08,16608.47 3110.98,16608.47 "/>
  <polygon class="fil1" points="2044.45,15833.45 2503,16608.47 1585.91,16608.47 "/>
  <polygon class="fil1" points="5094.64,15590.7 4636.12,14815.67 5553.17,14815.67 "/>
  <polygon class="fil1" points="4332.12,14815.67 4790.66,15590.7 3873.57,15590.7 "/>
  <polygon class="fil1" points="5094.64,15824.88 4636.12,16599.81 5553.17,16599.81 "/>
  <polygon class="fil6" points="18058.06,8457.77 18516.59,7682.8 17599.52,7682.8 "/>
  <polygon class="fil6" points="15007.82,12528.83 15466.35,11753.82 14549.15,11753.82 "/>
  <polygon class="fil6" points="18058.06,14815.67 18516.59,15590.7 17599.52,15590.7 "/>
  <polygon class="fil6" points="15770.38,17868.97 16228.91,18644 15311.84,18644 "/>
  <polygon class="fil6" points="14245.26,3377.66 13786.7,2602.63 14703.79,2602.63 "/>
  <polygon class="fil6" points="14245.26,7448.65 13786.7,6673.67 14703.79,6673.67 "/>
  <polygon class="fil6" points="11957.6,10736.05 11499.08,11511.07 12416.12,11511.07 "/>
  <polygon class="fil6" points="12720.11,17868.97 13178.72,18644 12261.59,18644 "/>
  <polygon class="fil6" points="8144.83,7691.41 8603.39,8466.43 7686.29,8466.43 "/>
  <polygon class="fil6" points="8144.83,13797.92 8603.39,14572.94 7686.29,14572.94 "/>
  <polygon class="fil6" points="8907.41,18635.34 9365.96,17860.42 8448.87,17860.42 "/>
  <polygon class="fil6" points="5094.64,1576.22 4636.12,2351.25 5553.17,2351.25 "/>
  <polygon class="fil6" points="2044.45,1333.49 2503,558.46 1585.91,558.46 "/>
  <polygon class="fil6" points="2044.45,11762.48 2503,12537.5 1585.91,12537.5 "/>
  <polygon class="fil6" points="5094.64,9718.31 4636.12,10493.3 5553.17,10493.3 "/>
  <polygon class="fil6" points="4332.12,16599.81 4790.66,15824.88 3873.57,15824.88 "/>
  <polygon class="fil1" points="519.33,13555.17 60.8,12780.25 977.88,12780.25 "/>
  <polygon class="fil3" points="1281.88,12780.25 1740.42,13555.17 823.34,13555.17 "/>
  <polygon class="fil1" points="519.33,13789.35 60.8,14564.27 977.88,14564.27 "/>
  <polygon class="fil1" points="1281.88,14564.27 1740.42,13789.35 823.34,13789.35 "/>
  <polygon class="fil1" points="2806.98,14572.94 2348.45,13797.92 3265.53,13797.92 "/>
  <polygon class="fil1" points="3569.53,13797.92 4028.08,14572.94 3110.98,14572.94 "/>
  <polygon class="fil1" points="2044.45,13797.92 2503,14572.94 1585.91,14572.94 "/>
  <polygon class="fil1" points="2806.98,14807.12 2348.45,15582.04 3265.53,15582.04 "/>
  <polygon class="fil1" points="3569.53,15582.04 4028.08,14807.12 3110.98,14807.12 "/>
  <polygon class="fil2" points="18058.06,567.13 18516.59,1342.16 17599.52,1342.16 "/>
  <polygon class="fil2" points="16532.94,4629.47 16074.4,5404.51 16991.47,5404.51 "/>
  <polygon class="fil2" points="18058.06,10493.3 18516.59,9718.31 17599.52,9718.31 "/>
  <polygon class="fil2" points="15770.38,13797.92 16228.91,14572.94 15311.84,14572.94 "/>
  <polygon class="fil2" points="18820.49,17860.42 18361.95,18635.34 19279.02,18635.34 "/>
  <polygon class="fil2" points="10432.49,567.13 10891.02,1342.16 9973.94,1342.16 "/>
  <polygon class="fil2" points="11957.6,10501.98 11499.08,9726.93 12416.12,9726.93 "/>
  <polygon class="fil2" points="13482.71,12780.25 13941.23,13555.17 13024.19,13555.17 "/>
  <polygon class="fil2" points="7382.29,4629.47 6923.76,5404.51 7840.83,5404.51 "/>
  <polygon class="fil2" points="8144.83,9726.93 8603.39,10501.98 7686.29,10501.98 "/>
  <polygon class="fil2" points="9669.92,15824.88 9211.41,16599.81 10128.48,16599.81 "/>
  <polygon class="fil2" points="6619.76,17868.97 7078.31,18644 6161.21,18644 "/>
  <polygon class="fil2" points="2044.45,5404.51 2503,4629.47 1585.91,4629.47 "/>
  <polygon class="fil2" points="3569.53,11511.07 4028.08,10736.05 3110.98,10736.05 "/>
  <polygon class="fil2" points="2044.45,15582.04 2503,14807.12 1585.91,14807.12 "/>
  <polygon class="fil1" points="5094.64,13555.17 4636.12,12780.25 5553.17,12780.25 "/>
  <polygon class="fil1" points="4332.12,12780.25 4790.66,13555.17 3873.57,13555.17 "/>
  <polygon class="fil1" points="5094.64,13789.35 4636.12,14564.27 5553.17,14564.27 "/>
  <polygon class="fil1" points="2806.98,12771.58 2348.45,13546.6 3265.53,13546.6 "/>
  <polygon class="fil1" points="3569.53,13546.6 4028.08,12771.58 3110.98,12771.58 "/>
  <polygon class="fil1" points="2044.45,13546.6 2503,12771.58 1585.91,12771.58 "/>
  <polygon class="fil1" points="519.33,19661.77 60.8,18886.74 977.88,18886.74 "/>
  <polygon class="fil1" points="1281.88,18886.74 1740.42,19661.77 823.34,19661.77 "/>
  <polygon class="fil1" points="5094.64,19661.77 4636.12,18886.74 5553.17,18886.74 "/>
  <polygon class="fil1" points="4332.12,18886.74 4790.66,19661.77 3873.57,19661.77 "/>
  <polygon class="fil1" points="519.33,17626.24 60.8,16851.22 977.88,16851.22 "/>
  <polygon class="fil4" points="18820.49,3611.72 18361.95,4386.75 19279.02,4386.75 "/>
  <polygon class="fil4" points="18058.06,12528.83 18516.59,11753.82 17599.52,11753.82 "/>
  <polygon class="fil4" points="16532.94,10501.98 16074.4,9726.93 16991.47,9726.93 "/>
  <polygon class="fil4" points="15770.38,15833.45 16228.91,16608.47 15311.84,16608.47 "/>
  <polygon class="fil4" points="11195.09,3369 11653.62,2593.97 10736.47,2593.97 "/>
  <polygon class="fil4" points="11957.6,6665.05 11499.08,7440.03 12416.12,7440.03 "/>
  <polygon class="fil4" points="13482.71,8709.18 13941.23,9484.17 13024.19,9484.17 "/>
  <polygon class="fil4" points="9669.92,5647.23 9211.41,6422.26 10128.48,6422.26 "/>
  <polygon class="fil4" points="9669.92,13555.17 9211.41,12780.25 10128.48,12780.25 "/>
  <polygon class="fil4" points="8144.83,17617.57 8603.39,16842.65 7686.29,16842.65 "/>
  <polygon class="fil4" points="3569.53,1584.88 4028.08,2359.91 3110.98,2359.91 "/>
  <polygon class="fil4" points="2806.98,6665.05 2348.45,7440.03 3265.53,7440.03 "/>
  <polygon class="fil4" points="4332.12,14564.27 4790.66,13789.35 3873.57,13789.35 "/>
  <polygon class="fil4" points="1281.88,16851.22 1740.42,17626.24 823.34,17626.24 "/>
  <polygon class="fil1" points="519.33,17860.42 60.8,18635.34 977.88,18635.34 "/>
  <polygon class="fil1" points="1281.88,18635.34 1740.42,17860.42 823.34,17860.42 "/>
  <polygon class="fil1" points="2806.98,18644 2348.45,17868.97 3265.53,17868.97 "/>
  <polygon class="fil1" points="3569.53,17868.97 4028.08,18644 3110.98,18644 "/>
  <polygon class="fil1" points="2044.45,17868.97 2503,18644 1585.91,18644 "/>
  <polygon class="fil4" points="2806.98,18878.18 2348.45,19653.1 3265.53,19653.1 "/>
  <polygon class="fil1" points="3569.53,19653.1 4028.08,18878.18 3110.98,18878.18 "/>
  <polygon class="fil1" points="2044.45,19653.1 2503,18878.18 1585.91,18878.18 "/>
  <polygon class="fil1" points="5094.64,17626.24 4636.12,16851.22 5553.17,16851.22 "/>
  <polygon class="fil1" points="4332.12,16851.22 4790.66,17626.24 3873.57,17626.24 "/>
  <polygon class="fil1" points="5094.64,17860.42 4636.12,18635.34 5553.17,18635.34 "/>
  <polygon class="fil3 str0" points="17295.5,3369 17753.9,2593.97 16836.96,2593.97 "/>
  <polygon class="fil3 str0" points="15770.38,7691.41 16228.91,8466.43 15311.84,8466.43 "/>
  <polygon class="fil3 str0" points="18058.06,6422.26 18516.59,5647.23 17599.52,5647.23 "/>
  <polygon class="fil3 str0" points="17295.5,13546.6 17753.9,12771.58 16836.96,12771.58 "/>
  <polygon class="fil3 str0" points="18820.49,17626.24 18361.95,16851.22 19279.02,16851.22 "/>
  <polygon class="fil3 str0" points="11195.09,7691.41 11653.62,8466.43 10736.47,8466.43 "/>
  <polygon class="fil3 str0" points="11957.6,4629.47 11499.08,5404.51 12416.12,5404.51 "/>
  <polygon class="fil3 str0" points="12720.11,15833.45 13178.72,16608.47 12261.59,16608.47 "/>
  <polygon class="fil3 str0" points="11957.6,12771.58 11499.08,13546.6 12416.12,13546.6 "/>
  <polygon class="fil3 str0" points="8907.41,2602.63 9365.96,3377.66 8448.87,3377.66 "/>
  <polygon class="fil3 str0" points="5857.17,6673.67 6315.72,7448.65 5398.63,7448.65 "/>
  <polygon class="fil3 str0" points="6619.74,11762.48 7078.31,12537.5 6161.21,12537.5 "/>
  <polygon class="fil3 str0" points="9669.92,11519.74 9211.41,10744.71 10128.48,10744.71 "/>
  <polygon class="fil3 str0" points="5857.17,14564.27 6315.72,13789.35 5398.63,13789.35 "/>
  <polygon class="fil3 str0" points="2044.45,3369 2503,2593.97 1585.91,2593.97 "/>
  <polygon class="fil3 str0" points="5094.64,5413.17 4636.12,4638.14 5553.17,4638.14 "/>
  <polygon class="fil3 str0" points="2806.98,8700.55 2348.45,9475.55 3265.53,9475.55 "/>
  <polygon class="fil3 str0" points="4332.12,18635.34 4790.66,17860.42 3873.57,17860.42 "/>
  <polygon class="fil1" points="2806.98,16842.65 2348.45,17617.57 3265.53,17617.57 "/>
  <polygon class="fil1" points="3569.53,17617.57 4028.08,16842.65 3110.98,16842.65 "/>
  <polygon class="fil1" points="2044.45,17617.57 2503,16842.65 1585.91,16842.65 "/>
 </g>
</svg>
