<?xml version="1.0" encoding="UTF-8"?>
<!DOCTYPE svg PUBLIC "-//W3C//DTD SVG 1.1//EN" "http://www.w3.org/Graphics/SVG/1.1/DTD/svg11.dtd">
<!-- Creator: CorelDRAW 2017 -->
<svg xmlns="http://www.w3.org/2000/svg" xml:space="preserve" width="230mm" height="297.647mm" version="1.1" style="shape-rendering:geometricPrecision; text-rendering:geometricPrecision; image-rendering:optimizeQuality; fill-rule:evenodd; clip-rule:evenodd"
viewBox="0 0 23000 29764.71"
 xmlns:xlink="http://www.w3.org/1999/xlink">
 <defs>
  <style type="text/css">
   <![CDATA[
    .fil7 {fill:#FEFEFE;fill-rule:nonzero}
    .fil2 {fill:#E1ECED;fill-rule:nonzero}
    .fil3 {fill:#BCD8D9;fill-rule:nonzero}
    .fil4 {fill:#435280;fill-rule:nonzero}
    .fil0 {fill:#574986;fill-rule:nonzero}
    .fil6 {fill:#574986;fill-rule:nonzero}
    .fil1 {fill:#DACAD7;fill-rule:nonzero}
    .fil5 {fill:#DACAD7;fill-rule:nonzero}
   ]]>
  </style>
 </defs>
 <g id="Layer_x0020_1">
  <metadata id="CorelCorpID_0Corel-Layer"/>
  <polygon class="fil0" points="16981.96,1404.75 15597.22,1404.75 14212.44,2579.17 12827.67,1404.75 11442.93,1404.75 14212.44,3753.6 "/>
  <polygon class="fil0" points="24028.55,1404.75 22643.78,1404.75 21259.02,2579.17 19874.25,1404.75 18489.51,1404.75 21259.02,3753.6 "/>
  <polygon class="fil0" points="1504.08,1404.75 119.3,2579.17 119.3,3753.6 2888.82,1404.75 "/>
  <polygon class="fil0" points="9935.39,1404.75 8550.64,1404.75 7165.88,2579.17 5781.11,1404.75 4396.37,1404.75 7165.88,3753.6 "/>
  <polygon class="fil1" points="21259.02,4928.03 17735.73,1939.82 14212.44,4928.03 10689.16,1939.82 7165.88,4928.03 3642.59,1939.82 119.3,4928.03 119.3,6102.47 3642.59,3114.25 7165.88,6102.47 10689.16,3114.25 14212.44,6102.47 17735.73,3114.25 21259.02,6102.47 24782.3,3114.25 28305.59,6102.47 28305.59,4928.03 24782.3,1939.82 "/>
  <polygon class="fil2" points="21259.02,7276.9 17735.73,4288.67 14212.44,7276.9 10689.16,4288.67 7165.88,7276.9 3642.59,4288.67 119.3,7276.9 119.3,8451.31 3642.59,5463.1 7165.88,8451.31 10689.16,5463.1 14212.44,8451.31 17735.73,5463.1 21259.02,8451.31 24782.3,5463.1 28305.59,8451.31 28305.59,7276.9 24782.3,4288.67 "/>
  <polygon class="fil3" points="21259.02,9625.74 17735.73,6637.6 14212.44,9625.74 10689.16,6637.6 7165.88,9625.74 3642.59,6637.6 119.3,9625.74 119.3,10800.17 3642.59,7812.03 7165.88,10800.17 10689.16,7812.03 14212.44,10800.17 17735.73,7812.03 21259.02,10800.17 24782.3,7812.03 28305.59,10800.17 28305.59,9625.74 24782.3,6637.6 "/>
  <polygon class="fil4" points="21259.02,11974.61 17735.73,8986.46 14212.44,11974.61 10689.16,8986.46 7165.88,11974.61 3642.59,8986.46 119.3,11974.61 119.3,13149.03 3642.59,10160.89 7165.88,13149.03 10689.16,10160.89 14212.44,13149.03 17735.73,10160.89 21259.02,13149.03 24782.3,10160.89 28305.59,13149.03 28305.59,11974.61 24782.3,8986.46 "/>
  <polygon class="fil3" points="21259.02,14323.46 17735.73,11335.34 14212.44,14323.46 10689.16,11335.34 7165.88,14323.46 3642.59,11335.34 119.3,14323.46 119.3,15497.89 3642.59,12509.74 7165.88,15497.89 10689.16,12509.74 14212.44,15497.89 17735.73,12509.74 21259.02,15497.89 24782.3,12509.74 28305.59,15497.89 28305.59,14323.46 24782.3,11335.34 "/>
  <polygon class="fil2" points="21259.02,16672.32 17735.73,13684.17 14212.44,16672.32 10689.16,13684.17 7165.88,16672.32 3642.59,13684.17 119.3,16672.32 119.3,17846.74 3642.59,14858.6 7165.88,17846.74 10689.16,14858.6 14212.44,17846.74 17735.73,14858.6 21259.02,17846.74 24782.3,14858.6 28305.59,17846.74 28305.59,16672.32 24782.3,13684.17 "/>
  <polygon class="fil5" points="21259.02,19021.17 17735.73,16033.02 14212.44,19021.17 10689.16,16033.02 7165.88,19021.17 3642.59,16033.02 119.3,19021.17 119.3,20195.6 3642.59,17207.48 7165.88,20195.6 10689.16,17207.48 14212.44,20195.6 17735.73,17207.48 21259.02,20195.6 24782.3,17207.48 28305.59,20195.6 28305.59,19021.17 24782.3,16033.02 "/>
  <polygon class="fil6" points="21259.02,21370.03 17735.73,18381.88 14212.44,21370.03 10689.16,18381.88 7165.88,21370.03 3642.59,18381.88 119.3,21370.03 119.3,22544.45 3642.59,19556.32 7165.88,22544.45 10689.16,19556.32 14212.44,22544.45 17735.73,19556.32 21259.02,22544.45 24782.3,19556.32 28305.59,22544.45 28305.59,21370.03 24782.3,18381.88 "/>
  <polygon class="fil5" points="21259.02,23718.88 17735.73,20730.74 14212.44,23718.88 10689.16,20730.74 7165.88,23718.88 3642.59,20730.74 119.3,23718.88 119.3,24893.31 3642.59,21905.17 7165.88,24893.31 10689.16,21905.17 14212.44,24893.31 17735.73,21905.17 21259.02,24893.31 24782.3,21905.17 28305.59,24893.31 28305.59,23718.88 24782.3,20730.74 "/>
  <polygon class="fil2" points="21259.02,26067.75 17735.73,23079.6 14212.44,26067.75 10689.16,23079.6 7165.88,26067.75 3642.59,23079.6 119.3,26067.75 119.3,27242.17 3642.59,24254.02 7165.88,27242.17 10689.16,24254.02 14212.44,27242.17 17735.73,24254.02 21259.02,27242.17 24782.3,24254.02 28305.59,27242.17 28305.59,26067.75 24782.3,23079.6 "/>
  <polygon class="fil3" points="21259.02,28416.6 17735.73,25428.38 14212.44,28416.6 10689.16,25428.38 7165.88,28416.6 3642.59,25428.38 119.3,28416.6 119.3,29591.03 3642.59,26602.81 7165.88,29591.03 10689.16,26602.81 14212.44,29591.03 17735.73,26602.81 21259.02,29591.03 24782.3,26602.81 28305.59,29591.03 28305.59,28416.6 24782.3,25428.38 "/>
  <polygon class="fil4" points="22643.78,29591.03 24028.55,29591.03 24782.3,28951.67 25536.05,29591.03 26920.93,29591.03 24782.3,27777.25 "/>
  <polygon class="fil4" points="8550.64,29591.03 9935.39,29591.03 10689.16,28951.67 11442.93,29591.03 12827.67,29591.03 10689.16,27777.25 "/>
  <polygon class="fil4" points="1504.08,29591.03 2888.82,29591.03 3642.59,28951.67 4396.37,29591.03 5781.11,29591.03 3642.59,27777.25 "/>
  <polygon class="fil4" points="15597.22,29591.03 16981.96,29591.03 17735.73,28951.67 18489.51,29591.03 19874.25,29591.03 17735.73,27777.25 "/>
  <path class="fil7" d="M12813.77 20183.78l1384.75 0 -85.66 -72.64 -1384.77 0 85.68 72.64zm1412.59 0l1384.76 0 85.68 -72.64 -1384.77 0 -85.67 72.64zm2769.53 0l1479.68 0 -85.65 -72.64 -1308.38 0 -85.65 72.64z"/>
  <polygon class="fil2" points="14226.36,20183.78 14198.52,20183.78 14112.85,20111.13 14312.04,20111.13 "/>
  <path class="fil7" d="M11429 20183.78l-1479.68 0 85.66 -72.65 1308.37 0 85.65 72.65zm-2864.45 0l-1384.74 0 85.67 -72.65 1384.76 0 -85.69 72.65zm-1412.58 0l-622.18 0c-514.57,0 -931.7,-417.11 -931.7,-931.7l0 -386.13 97.99 83.08 0 233.55c0,512.82 415.73,928.54 928.53,928.54l441.68 0 85.68 72.65zm-1455.89 -2409.17l-97.99 -83.1 0 -1174.43 97.99 83.1 0 1174.43zm0 -2348.86l-97.99 -83.08 0 -1174.45 97.99 83.1 0 1174.43zm111.6 -2254.2l-44.37 -37.63c99.78,-144.05 239.09,-258.6 402.29,-328 -150.75,85.92 -275.17,212.88 -357.92,365.62z"/>
  <path class="fil3" d="M5696.07 14251.33l-97.99 -83.1 0 -504.47c0,-196.81 61.04,-379.41 165.22,-529.83l44.37 37.63c-71.19,131.37 -111.6,281.8 -111.6,441.71l0 638.07z"/>
  <polygon class="fil2" points="5696.07,16600.18 5598.09,16517.08 5598.09,15342.67 5696.07,15425.76 "/>
  <path class="fil7" d="M19820.22 20149.78l-58.22 -49.38c247.25,-37.86 462.36,-173.21 604.9,-365.58 -121.41,200.03 -316.04,350.75 -546.68,414.96z"/>
  <path class="fil7" d="M18389.91 20111.13l-1308.36 0 85.68 -72.66 1136.99 0 85.68 72.66zm-2693.11 0l-1384.76 0 85.68 -72.66 1384.75 0 -85.67 72.66zm-1583.95 0l-1384.76 0 -85.67 -72.66 1384.75 0 85.68 72.66z"/>
  <path class="fil7" d="M11343.35 20111.13l-1308.37 0 85.69 -72.66 1136.98 0 85.69 72.66zm-2693.11 0l-1384.76 0 85.68 -72.66 1384.74 0 -85.66 72.66zm-1583.95 0l-441.68 0c-512.81,0 -928.53,-415.73 -928.53,-928.54l0 -233.55 98 83.13 0 80.94c0,511.07 414.3,925.36 925.36,925.36l261.17 0 85.68 72.66zm-1272.21 -2253.41l-98 -83.1 0 -1174.43 98 83.1 0 1174.43zm0 -2348.83l-98 -83.13 0 -1174.43 98 83.09 0 1174.46zm66.85 -2292.16l-53.24 -45.17c82.75,-152.74 207.17,-279.71 357.92,-365.62 31,-17.66 63.07,-33.56 96.15,-47.63 -180.18,102.71 -322.47,264.22 -400.83,458.42z"/>
  <path class="fil3" d="M5794.07 14334.42l-98 -83.09 0 -638.07c0,-159.91 40.41,-310.33 111.6,-441.71l53.24 45.17c-43.12,106.89 -66.85,223.68 -66.85,346.03l0 771.67z"/>
  <polygon class="fil2" points="5794.07,16683.29 5696.07,16600.18 5696.07,15425.76 5794.07,15508.88 "/>
  <path class="fil7" d="M19762 20100.4l-73.22 -62.11c297.56,-5.66 560.7,-151.71 725.99,-374.71 -14.86,24.5 -30.86,48.27 -47.86,71.24 -142.54,192.37 -357.66,327.72 -604.9,365.58z"/>
  <path class="fil7" d="M11257.65 20038.47l-1136.98 0 85.65 -72.65 965.65 0 85.68 72.65zm-2521.75 0l-1384.74 0 85.68 -72.65 1384.74 0 -85.68 72.65zm-1755.3 0l-261.17 0c-511.06,0 -925.36,-414.29 -925.36,-925.36l0 -80.94 100.94 85.6c37.74,474.63 434.89,848.05 919.24,848.05l80.69 0 85.66 72.65zm-1088.56 -2097.62l-97.97 -83.13 0 -1174.43 97.97 83.09 0 1174.46zm0 -2348.86l-97.97 -83.1 0 -1174.46 97.97 83.1 0 1174.46zm32.07 -2321.69l-63.18 -53.57c78.36,-194.21 220.66,-355.72 400.83,-458.42 31.05,-17.68 63.18,-33.63 96.33,-47.7 -210.5,120.02 -369.12,320.57 -433.97,559.7z"/>
 </g>
</svg>
