<?xml version="1.0" encoding="UTF-8"?>
<!DOCTYPE svg PUBLIC "-//W3C//DTD SVG 1.1//EN" "http://www.w3.org/Graphics/SVG/1.1/DTD/svg11.dtd">
<!-- Creator: CorelDRAW 2017 -->
<svg xmlns="http://www.w3.org/2000/svg" xml:space="preserve" width="215.9mm" height="279.4mm" version="1.1" style="shape-rendering:geometricPrecision; text-rendering:geometricPrecision; image-rendering:optimizeQuality; fill-rule:evenodd; clip-rule:evenodd"
viewBox="0 0 21590 27940"
 xmlns:xlink="http://www.w3.org/1999/xlink">
 <defs>
  <style type="text/css">
   <![CDATA[
    .fil4 {fill:#FEFEFE;fill-rule:nonzero}
    .fil1 {fill:#F9EEE7;fill-rule:nonzero}
    .fil0 {fill:#F4E0DB;fill-rule:nonzero}
    .fil2 {fill:#E1ECED;fill-rule:nonzero}
    .fil5 {fill:#E1ECEC;fill-rule:nonzero}
    .fil3 {fill:#BCD8D9;fill-rule:nonzero}
   ]]>
  </style>
 </defs>
 <g id="Layer_x0020_1">
  <metadata id="CorelCorpID_0Corel-Layer"/>
  <polygon class="fil0" points="15940.89,1318.63 14641.04,1318.63 13341.16,2421.06 12041.28,1318.63 10741.43,1318.63 13341.16,3523.49 "/>
  <polygon class="fil0" points="22555.5,1318.63 21255.62,1318.63 19955.75,2421.06 18655.87,1318.63 17356.02,1318.63 19955.75,3523.49 "/>
  <polygon class="fil0" points="1411.87,1318.63 111.99,2421.06 111.99,3523.49 2711.72,1318.63 "/>
  <polygon class="fil0" points="9326.31,1318.63 8026.45,1318.63 6726.58,2421.06 5426.7,1318.63 4126.85,1318.63 6726.58,3523.49 "/>
  <polygon class="fil1" points="19955.75,4625.92 16648.45,1820.9 13341.16,4625.92 10033.87,1820.9 6726.58,4625.92 3419.28,1820.9 111.99,4625.92 111.99,5728.36 3419.28,2923.33 6726.58,5728.36 10033.87,2923.33 13341.16,5728.36 16648.45,2923.33 19955.75,5728.36 23263.04,2923.33 26570.33,5728.36 26570.33,4625.92 23263.04,1820.9 "/>
  <polygon class="fil2" points="19955.75,6830.79 16648.45,4025.76 13341.16,6830.79 10033.87,4025.76 6726.58,6830.79 3419.28,4025.76 111.99,6830.79 111.99,7933.21 3419.28,5128.19 6726.58,7933.21 10033.87,5128.19 13341.16,7933.21 16648.45,5128.19 19955.75,7933.21 23263.04,5128.19 26570.33,7933.21 26570.33,6830.79 23263.04,4025.76 "/>
  <polygon class="fil3" points="19955.75,9035.64 16648.45,6230.69 13341.16,9035.64 10033.87,6230.69 6726.58,9035.64 3419.28,6230.69 111.99,9035.64 111.99,10138.07 3419.28,7333.12 6726.58,10138.07 10033.87,7333.12 13341.16,10138.07 16648.45,7333.12 19955.75,10138.07 23263.04,7333.12 26570.33,10138.07 26570.33,9035.64 23263.04,6230.69 "/>
  <polygon class="fil1" points="19955.75,11240.51 16648.45,8435.55 13341.16,11240.51 10033.87,8435.55 6726.58,11240.51 3419.28,8435.55 111.99,11240.51 111.99,12342.94 3419.28,9537.98 6726.58,12342.94 10033.87,9537.98 13341.16,12342.94 16648.45,9537.98 19955.75,12342.94 23263.04,9537.98 26570.33,12342.94 26570.33,11240.51 23263.04,8435.55 "/>
  <polygon class="fil3" points="19955.75,13445.37 16648.45,10640.43 13341.16,13445.37 10033.87,10640.43 6726.58,13445.37 3419.28,10640.43 111.99,13445.37 111.99,14547.8 3419.28,11742.84 6726.58,14547.8 10033.87,11742.84 13341.16,14547.8 16648.45,11742.84 19955.75,14547.8 23263.04,11742.84 26570.33,14547.8 26570.33,13445.37 23263.04,10640.43 "/>
  <polygon class="fil2" points="19955.75,15650.23 16648.45,12845.27 13341.16,15650.23 10033.87,12845.27 6726.58,15650.23 3419.28,12845.27 111.99,15650.23 111.99,16752.66 3419.28,13947.7 6726.58,16752.66 10033.87,13947.7 13341.16,16752.66 16648.45,13947.7 19955.75,16752.66 23263.04,13947.7 26570.33,16752.66 26570.33,15650.23 23263.04,12845.27 "/>
  <polygon class="fil2" points="19955.75,17855.09 16648.45,15050.13 13341.16,17855.09 10033.87,15050.13 6726.58,17855.09 3419.28,15050.13 111.99,17855.09 111.99,18957.52 3419.28,16152.59 6726.58,18957.52 10033.87,16152.59 13341.16,18957.52 16648.45,16152.59 19955.75,18957.52 23263.04,16152.59 26570.33,18957.52 26570.33,17855.09 23263.04,15050.13 "/>
  <polygon class="fil1" points="19955.75,20059.95 16648.45,17254.99 13341.16,20059.95 10033.87,17254.99 6726.58,20059.95 3419.28,17254.99 111.99,20059.95 111.99,21162.38 3419.28,18357.43 6726.58,21162.38 10033.87,18357.43 13341.16,21162.38 16648.45,18357.43 19955.75,21162.38 23263.04,18357.43 26570.33,21162.38 26570.33,20059.95 23263.04,17254.99 "/>
  <polygon class="fil1" points="19955.75,22264.81 16648.45,19459.86 13341.16,22264.81 10033.87,19459.86 6726.58,22264.81 3419.28,19459.86 111.99,22264.81 111.99,23367.24 3419.28,20562.29 6726.58,23367.24 10033.87,20562.29 13341.16,23367.24 16648.45,20562.29 19955.75,23367.24 23263.04,20562.29 26570.33,23367.24 26570.33,22264.81 23263.04,19459.86 "/>
  <polygon class="fil2" points="19955.75,24469.68 16648.45,21664.72 13341.16,24469.68 10033.87,21664.72 6726.58,24469.68 3419.28,21664.72 111.99,24469.68 111.99,25572.11 3419.28,22767.14 6726.58,25572.11 10033.87,22767.14 13341.16,25572.11 16648.45,22767.14 19955.75,25572.11 23263.04,22767.14 26570.33,25572.11 26570.33,24469.68 23263.04,21664.72 "/>
  <polygon class="fil3" points="19955.75,26674.54 16648.45,23869.51 13341.16,26674.54 10033.87,23869.51 6726.58,26674.54 3419.28,23869.51 111.99,26674.54 111.99,27776.97 3419.28,24971.94 6726.58,27776.97 10033.87,24971.94 13341.16,27776.97 16648.45,24971.94 19955.75,27776.97 23263.04,24971.94 26570.33,27776.97 26570.33,26674.54 23263.04,23869.51 "/>
  <polygon class="fil0" points="21255.62,27776.97 22555.5,27776.97 23263.04,27176.81 23970.58,27776.97 25270.56,27776.97 23263.04,26074.38 "/>
  <polygon class="fil0" points="8026.45,27776.97 9326.31,27776.97 10033.87,27176.81 10741.43,27776.97 12041.28,27776.97 10033.87,26074.38 "/>
  <polygon class="fil0" points="1411.87,27776.97 2711.72,27776.97 3419.28,27176.81 4126.85,27776.97 5426.7,27776.97 3419.28,26074.38 "/>
  <polygon class="fil0" points="14641.04,27776.97 15940.89,27776.97 16648.45,27176.81 17356.02,27776.97 18655.87,27776.97 16648.45,26074.38 "/>
  <path class="fil4" d="M12028.23 18946.43l1299.86 0 -80.41 -68.19 -1299.88 0 80.43 68.19zm1325.99 0l1299.87 0 80.43 -68.19 -1299.88 0 -80.42 68.19zm2599.75 0l1388.97 0 -80.4 -68.19 -1228.17 0 -80.4 68.19z"/>
  <polygon class="fil2" points="13354.22,18946.43 13328.09,18946.43 13247.67,18878.23 13434.65,18878.23 "/>
  <path class="fil4" d="M10728.35 18946.43l-1388.97 0 80.41 -68.2 1228.16 0 80.4 68.2zm-2688.85 0l-1299.85 0 80.42 -68.2 1299.87 0 -80.44 68.2zm-1325.98 0l-584.04 0c-483.02,0 -874.58,-391.54 -874.58,-874.58l0 -362.46 91.98 77.99 0 219.23c0,481.38 390.24,871.62 871.61,871.62l414.6 0 80.43 68.2zm-1366.64 -2261.48l-91.98 -78.01 0 -1102.43 91.98 78.01 0 1102.43zm0 -2204.86l-91.98 -77.99 0 -1102.45 91.98 78.01 0 1102.43zm104.76 -2116.01l-41.65 -35.32c93.66,-135.22 224.43,-242.75 377.63,-307.89 -141.51,80.65 -258.3,199.83 -335.98,343.21z"/>
  <path class="fil3" d="M5346.88 13377.66l-91.98 -78.01 0 -473.54c0,-184.74 57.3,-356.15 155.09,-497.35l41.65 35.32c-66.83,123.32 -104.76,264.52 -104.76,414.63l0 598.95z"/>
  <polygon class="fil2" points="5346.88,15582.52 5254.9,15504.51 5254.9,14402.1 5346.88,14480.09 "/>
  <path class="fil2" d="M6739.65 18946.43l-26.13 0 -80.43 -68.2 186.98 0 -80.42 68.2zm-1392.77 -1159.05l-91.98 -77.99 0 -1102.45 91.98 78.01 0 1102.43z"/>
  <path class="fil4" d="M18605.15 18914.51l-54.65 -46.35c232.09,-35.54 434.02,-162.59 567.82,-343.17 -113.97,187.77 -296.67,329.25 -513.17,389.52z"/>
  <path class="fil1" d="M18370.14 18946.43l-1027.2 0 -80.41 -68.2 1155.02 0c45.22,0 89.6,-3.44 132.95,-10.07l54.65 46.35c-74.78,20.81 -153.58,31.92 -235.01,31.92zm-2416.17 0l-1299.88 0 80.43 -68.2 1299.86 0 -80.41 68.2zm-3925.74 0l-1299.88 0 -80.4 -68.2 1299.85 0 80.43 68.2zm-2688.85 0l-1299.88 0 80.44 -68.2 1299.85 0 -80.41 68.2z"/>
  <path class="fil4" d="M17262.53 18878.23l-1228.15 0 80.43 -68.21 1067.29 0 80.43 68.21zm-2528.01 0l-1299.87 0 80.43 -68.21 1299.86 0 -80.42 68.21zm-1486.85 0l-1299.87 0 -80.42 -68.21 1299.86 0 80.43 68.21z"/>
  <polygon class="fil2" points="13434.65,18878.23 13247.67,18878.23 13167.24,18810.02 13515.08,18810.02 "/>
  <path class="fil4" d="M10647.95 18878.23l-1228.16 0 80.44 -68.21 1067.28 0 80.44 68.21zm-2528.01 0l-1299.87 0 80.43 -68.21 1299.85 0 -80.41 68.21zm-1486.85 0l-414.6 0c-481.37,0 -871.61,-390.24 -871.61,-871.62l0 -219.23 91.99 78.03 0 75.98c0,479.74 388.9,868.63 868.63,868.63l245.16 0 80.43 68.21zm-1194.22 -2115.27l-91.99 -78.01 0 -1102.43 91.99 78.01 0 1102.43zm0 -2204.84l-91.99 -78.03 0 -1102.43 91.99 78 0 1102.46zm62.75 -2151.64l-49.98 -42.4c77.68,-143.38 194.47,-262.56 335.98,-343.21 29.1,-16.58 59.2,-31.5 90.26,-44.71 -169.13,96.41 -302.7,248.02 -376.26,430.32z"/>
  <path class="fil3" d="M5438.87 13455.66l-91.99 -78 0 -598.95c0,-150.11 37.93,-291.31 104.76,-414.63l49.98 42.4c-40.48,100.34 -62.75,209.97 -62.75,324.82l0 724.36z"/>
  <polygon class="fil2" points="5438.87,15660.53 5346.88,15582.52 5346.88,14480.09 5438.87,14558.12 "/>
  <path class="fil2" d="M6820.07 18878.23l-186.98 0 -80.43 -68.21 347.84 0 -80.43 68.21zm-1381.2 -1012.82l-91.99 -78.03 0 -1102.43 91.99 78.01 0 1102.45z"/>
  <path class="fil4" d="M18550.5 18868.16l-68.73 -58.3c279.32,-5.31 526.33,-142.41 681.48,-351.74 -13.95,23 -28.97,45.31 -44.93,66.87 -133.8,180.58 -335.73,307.63 -567.82,343.17z"/>
  <path class="fil1" d="M18417.55 18878.23l-1155.02 0 -80.43 -68.21 1282.85 0c5.62,0 11.22,-0.05 16.82,-0.16l68.73 58.3c-43.35,6.63 -87.73,10.07 -132.95,10.07zm-2383.17 0l-1299.86 0 80.42 -68.21 1299.87 0 -80.43 68.21zm-4086.58 0l-1299.85 0 -80.44 -68.21 1299.87 0 80.42 68.21zm-2528.01 0l-1299.85 0 80.41 -68.21 1299.88 0 -80.44 68.21z"/>
  <path class="fil4" d="M17182.1 18810.02l-1067.29 0 80.43 -68.2 906.42 0 80.44 68.2zm-2367.16 0l-1299.86 0 80.41 -68.2 1299.88 0 -80.43 68.2zm-1647.7 0l-1299.86 0 -80.43 -68.2 1299.86 0 80.43 68.2z"/>
  <polygon class="fil5" points="13515.08,18810.02 13167.24,18810.02 13086.81,18741.82 13595.49,18741.82 "/>
  <path class="fil4" d="M10567.51 18810.02l-1067.28 0 80.4 -68.2 906.45 0 80.43 68.2zm-2367.16 0l-1299.85 0 80.43 -68.2 1299.85 0 -80.43 68.2zm-1647.69 0l-245.16 0c-479.73,0 -868.63,-388.89 -868.63,-868.63l0 -75.98 94.75 80.35c35.43,445.53 408.23,796.06 862.89,796.06l75.74 0 80.41 68.2zm-1021.83 -1969.03l-91.96 -78.03 0 -1102.43 91.96 78 0 1102.46zm0 -2204.86l-91.96 -78.01 0 -1102.46 91.96 78.01 0 1102.46zm30.1 -2179.36l-59.31 -50.29c73.56,-182.3 207.13,-333.91 376.26,-430.32 29.15,-16.6 59.31,-31.57 90.42,-44.78 -197.6,112.66 -346.49,300.92 -407.37,525.39z"/>
 </g>
</svg>
